%TF.GenerationSoftware,KiCad,Pcbnew,9.0.7*%
%TF.CreationDate,2026-01-27T16:03:40-08:00*%
%TF.ProjectId,charging-circuit,63686172-6769-46e6-972d-636972637569,rev?*%
%TF.SameCoordinates,Original*%
%TF.FileFunction,Legend,Top*%
%TF.FilePolarity,Positive*%
%FSLAX46Y46*%
G04 Gerber Fmt 4.6, Leading zero omitted, Abs format (unit mm)*
G04 Created by KiCad (PCBNEW 9.0.7) date 2026-01-27 16:03:40*
%MOMM*%
%LPD*%
G01*
G04 APERTURE LIST*
%ADD10C,0.150000*%
%ADD11C,0.250000*%
%ADD12C,0.300000*%
G04 APERTURE END LIST*
D10*
X84088866Y-60663220D02*
X84088866Y-59901316D01*
X84469819Y-60282268D02*
X83707914Y-60282268D01*
X84469819Y-58901316D02*
X84469819Y-59472744D01*
X84469819Y-59187030D02*
X83469819Y-59187030D01*
X83469819Y-59187030D02*
X83612676Y-59282268D01*
X83612676Y-59282268D02*
X83707914Y-59377506D01*
X83707914Y-59377506D02*
X83755533Y-59472744D01*
X83565057Y-58520363D02*
X83517438Y-58472744D01*
X83517438Y-58472744D02*
X83469819Y-58377506D01*
X83469819Y-58377506D02*
X83469819Y-58139411D01*
X83469819Y-58139411D02*
X83517438Y-58044173D01*
X83517438Y-58044173D02*
X83565057Y-57996554D01*
X83565057Y-57996554D02*
X83660295Y-57948935D01*
X83660295Y-57948935D02*
X83755533Y-57948935D01*
X83755533Y-57948935D02*
X83898390Y-57996554D01*
X83898390Y-57996554D02*
X84469819Y-58567982D01*
X84469819Y-58567982D02*
X84469819Y-57948935D01*
X83469819Y-57663220D02*
X84469819Y-57329887D01*
X84469819Y-57329887D02*
X83469819Y-56996554D01*
X82269819Y-79863220D02*
X81269819Y-79863220D01*
X81269819Y-79863220D02*
X81269819Y-79482268D01*
X81269819Y-79482268D02*
X81317438Y-79387030D01*
X81317438Y-79387030D02*
X81365057Y-79339411D01*
X81365057Y-79339411D02*
X81460295Y-79291792D01*
X81460295Y-79291792D02*
X81603152Y-79291792D01*
X81603152Y-79291792D02*
X81698390Y-79339411D01*
X81698390Y-79339411D02*
X81746009Y-79387030D01*
X81746009Y-79387030D02*
X81793628Y-79482268D01*
X81793628Y-79482268D02*
X81793628Y-79863220D01*
X81269819Y-78958458D02*
X82269819Y-78720363D01*
X82269819Y-78720363D02*
X81555533Y-78529887D01*
X81555533Y-78529887D02*
X82269819Y-78339411D01*
X82269819Y-78339411D02*
X81269819Y-78101316D01*
X82269819Y-77148935D02*
X81793628Y-77482268D01*
X82269819Y-77720363D02*
X81269819Y-77720363D01*
X81269819Y-77720363D02*
X81269819Y-77339411D01*
X81269819Y-77339411D02*
X81317438Y-77244173D01*
X81317438Y-77244173D02*
X81365057Y-77196554D01*
X81365057Y-77196554D02*
X81460295Y-77148935D01*
X81460295Y-77148935D02*
X81603152Y-77148935D01*
X81603152Y-77148935D02*
X81698390Y-77196554D01*
X81698390Y-77196554D02*
X81746009Y-77244173D01*
X81746009Y-77244173D02*
X81793628Y-77339411D01*
X81793628Y-77339411D02*
X81793628Y-77720363D01*
X71222200Y-64310839D02*
X71269819Y-64167982D01*
X71269819Y-64167982D02*
X71269819Y-63929887D01*
X71269819Y-63929887D02*
X71222200Y-63834649D01*
X71222200Y-63834649D02*
X71174580Y-63787030D01*
X71174580Y-63787030D02*
X71079342Y-63739411D01*
X71079342Y-63739411D02*
X70984104Y-63739411D01*
X70984104Y-63739411D02*
X70888866Y-63787030D01*
X70888866Y-63787030D02*
X70841247Y-63834649D01*
X70841247Y-63834649D02*
X70793628Y-63929887D01*
X70793628Y-63929887D02*
X70746009Y-64120363D01*
X70746009Y-64120363D02*
X70698390Y-64215601D01*
X70698390Y-64215601D02*
X70650771Y-64263220D01*
X70650771Y-64263220D02*
X70555533Y-64310839D01*
X70555533Y-64310839D02*
X70460295Y-64310839D01*
X70460295Y-64310839D02*
X70365057Y-64263220D01*
X70365057Y-64263220D02*
X70317438Y-64215601D01*
X70317438Y-64215601D02*
X70269819Y-64120363D01*
X70269819Y-64120363D02*
X70269819Y-63882268D01*
X70269819Y-63882268D02*
X70317438Y-63739411D01*
X70269819Y-63453696D02*
X70269819Y-62882268D01*
X71269819Y-63167982D02*
X70269819Y-63167982D01*
X70984104Y-62596553D02*
X70984104Y-62120363D01*
X71269819Y-62691791D02*
X70269819Y-62358458D01*
X70269819Y-62358458D02*
X71269819Y-62025125D01*
X70269819Y-61834648D02*
X70269819Y-61263220D01*
X71269819Y-61548934D02*
X70269819Y-61548934D01*
X71269819Y-60406077D02*
X71269819Y-60977505D01*
X71269819Y-60691791D02*
X70269819Y-60691791D01*
X70269819Y-60691791D02*
X70412676Y-60787029D01*
X70412676Y-60787029D02*
X70507914Y-60882267D01*
X70507914Y-60882267D02*
X70555533Y-60977505D01*
X84088866Y-69463220D02*
X84088866Y-68701316D01*
X84469819Y-69082268D02*
X83707914Y-69082268D01*
X83469819Y-67748935D02*
X83469819Y-68225125D01*
X83469819Y-68225125D02*
X83946009Y-68272744D01*
X83946009Y-68272744D02*
X83898390Y-68225125D01*
X83898390Y-68225125D02*
X83850771Y-68129887D01*
X83850771Y-68129887D02*
X83850771Y-67891792D01*
X83850771Y-67891792D02*
X83898390Y-67796554D01*
X83898390Y-67796554D02*
X83946009Y-67748935D01*
X83946009Y-67748935D02*
X84041247Y-67701316D01*
X84041247Y-67701316D02*
X84279342Y-67701316D01*
X84279342Y-67701316D02*
X84374580Y-67748935D01*
X84374580Y-67748935D02*
X84422200Y-67796554D01*
X84422200Y-67796554D02*
X84469819Y-67891792D01*
X84469819Y-67891792D02*
X84469819Y-68129887D01*
X84469819Y-68129887D02*
X84422200Y-68225125D01*
X84422200Y-68225125D02*
X84374580Y-68272744D01*
X83469819Y-67415601D02*
X84469819Y-67082268D01*
X84469819Y-67082268D02*
X83469819Y-66748935D01*
X74622200Y-64510839D02*
X74669819Y-64367982D01*
X74669819Y-64367982D02*
X74669819Y-64129887D01*
X74669819Y-64129887D02*
X74622200Y-64034649D01*
X74622200Y-64034649D02*
X74574580Y-63987030D01*
X74574580Y-63987030D02*
X74479342Y-63939411D01*
X74479342Y-63939411D02*
X74384104Y-63939411D01*
X74384104Y-63939411D02*
X74288866Y-63987030D01*
X74288866Y-63987030D02*
X74241247Y-64034649D01*
X74241247Y-64034649D02*
X74193628Y-64129887D01*
X74193628Y-64129887D02*
X74146009Y-64320363D01*
X74146009Y-64320363D02*
X74098390Y-64415601D01*
X74098390Y-64415601D02*
X74050771Y-64463220D01*
X74050771Y-64463220D02*
X73955533Y-64510839D01*
X73955533Y-64510839D02*
X73860295Y-64510839D01*
X73860295Y-64510839D02*
X73765057Y-64463220D01*
X73765057Y-64463220D02*
X73717438Y-64415601D01*
X73717438Y-64415601D02*
X73669819Y-64320363D01*
X73669819Y-64320363D02*
X73669819Y-64082268D01*
X73669819Y-64082268D02*
X73717438Y-63939411D01*
X73669819Y-63653696D02*
X73669819Y-63082268D01*
X74669819Y-63367982D02*
X73669819Y-63367982D01*
X74384104Y-62796553D02*
X74384104Y-62320363D01*
X74669819Y-62891791D02*
X73669819Y-62558458D01*
X73669819Y-62558458D02*
X74669819Y-62225125D01*
X73669819Y-62034648D02*
X73669819Y-61463220D01*
X74669819Y-61748934D02*
X73669819Y-61748934D01*
X73765057Y-61177505D02*
X73717438Y-61129886D01*
X73717438Y-61129886D02*
X73669819Y-61034648D01*
X73669819Y-61034648D02*
X73669819Y-60796553D01*
X73669819Y-60796553D02*
X73717438Y-60701315D01*
X73717438Y-60701315D02*
X73765057Y-60653696D01*
X73765057Y-60653696D02*
X73860295Y-60606077D01*
X73860295Y-60606077D02*
X73955533Y-60606077D01*
X73955533Y-60606077D02*
X74098390Y-60653696D01*
X74098390Y-60653696D02*
X74669819Y-61225124D01*
X74669819Y-61225124D02*
X74669819Y-60606077D01*
X48041160Y-57822200D02*
X48184017Y-57869819D01*
X48184017Y-57869819D02*
X48422112Y-57869819D01*
X48422112Y-57869819D02*
X48517350Y-57822200D01*
X48517350Y-57822200D02*
X48564969Y-57774580D01*
X48564969Y-57774580D02*
X48612588Y-57679342D01*
X48612588Y-57679342D02*
X48612588Y-57584104D01*
X48612588Y-57584104D02*
X48564969Y-57488866D01*
X48564969Y-57488866D02*
X48517350Y-57441247D01*
X48517350Y-57441247D02*
X48422112Y-57393628D01*
X48422112Y-57393628D02*
X48231636Y-57346009D01*
X48231636Y-57346009D02*
X48136398Y-57298390D01*
X48136398Y-57298390D02*
X48088779Y-57250771D01*
X48088779Y-57250771D02*
X48041160Y-57155533D01*
X48041160Y-57155533D02*
X48041160Y-57060295D01*
X48041160Y-57060295D02*
X48088779Y-56965057D01*
X48088779Y-56965057D02*
X48136398Y-56917438D01*
X48136398Y-56917438D02*
X48231636Y-56869819D01*
X48231636Y-56869819D02*
X48469731Y-56869819D01*
X48469731Y-56869819D02*
X48612588Y-56917438D01*
X49422112Y-57822200D02*
X49326874Y-57869819D01*
X49326874Y-57869819D02*
X49136398Y-57869819D01*
X49136398Y-57869819D02*
X49041160Y-57822200D01*
X49041160Y-57822200D02*
X48993541Y-57726961D01*
X48993541Y-57726961D02*
X48993541Y-57346009D01*
X48993541Y-57346009D02*
X49041160Y-57250771D01*
X49041160Y-57250771D02*
X49136398Y-57203152D01*
X49136398Y-57203152D02*
X49326874Y-57203152D01*
X49326874Y-57203152D02*
X49422112Y-57250771D01*
X49422112Y-57250771D02*
X49469731Y-57346009D01*
X49469731Y-57346009D02*
X49469731Y-57441247D01*
X49469731Y-57441247D02*
X48993541Y-57536485D01*
X49898303Y-57203152D02*
X49898303Y-57869819D01*
X49898303Y-57298390D02*
X49945922Y-57250771D01*
X49945922Y-57250771D02*
X50041160Y-57203152D01*
X50041160Y-57203152D02*
X50184017Y-57203152D01*
X50184017Y-57203152D02*
X50279255Y-57250771D01*
X50279255Y-57250771D02*
X50326874Y-57346009D01*
X50326874Y-57346009D02*
X50326874Y-57869819D01*
X50755446Y-57822200D02*
X50850684Y-57869819D01*
X50850684Y-57869819D02*
X51041160Y-57869819D01*
X51041160Y-57869819D02*
X51136398Y-57822200D01*
X51136398Y-57822200D02*
X51184017Y-57726961D01*
X51184017Y-57726961D02*
X51184017Y-57679342D01*
X51184017Y-57679342D02*
X51136398Y-57584104D01*
X51136398Y-57584104D02*
X51041160Y-57536485D01*
X51041160Y-57536485D02*
X50898303Y-57536485D01*
X50898303Y-57536485D02*
X50803065Y-57488866D01*
X50803065Y-57488866D02*
X50755446Y-57393628D01*
X50755446Y-57393628D02*
X50755446Y-57346009D01*
X50755446Y-57346009D02*
X50803065Y-57250771D01*
X50803065Y-57250771D02*
X50898303Y-57203152D01*
X50898303Y-57203152D02*
X51041160Y-57203152D01*
X51041160Y-57203152D02*
X51136398Y-57250771D01*
X51993541Y-57822200D02*
X51898303Y-57869819D01*
X51898303Y-57869819D02*
X51707827Y-57869819D01*
X51707827Y-57869819D02*
X51612589Y-57822200D01*
X51612589Y-57822200D02*
X51564970Y-57726961D01*
X51564970Y-57726961D02*
X51564970Y-57346009D01*
X51564970Y-57346009D02*
X51612589Y-57250771D01*
X51612589Y-57250771D02*
X51707827Y-57203152D01*
X51707827Y-57203152D02*
X51898303Y-57203152D01*
X51898303Y-57203152D02*
X51993541Y-57250771D01*
X51993541Y-57250771D02*
X52041160Y-57346009D01*
X52041160Y-57346009D02*
X52041160Y-57441247D01*
X52041160Y-57441247D02*
X51564970Y-57536485D01*
X52850684Y-57822200D02*
X52755446Y-57869819D01*
X52755446Y-57869819D02*
X52564970Y-57869819D01*
X52564970Y-57869819D02*
X52469732Y-57822200D01*
X52469732Y-57822200D02*
X52422113Y-57726961D01*
X52422113Y-57726961D02*
X52422113Y-57346009D01*
X52422113Y-57346009D02*
X52469732Y-57250771D01*
X52469732Y-57250771D02*
X52564970Y-57203152D01*
X52564970Y-57203152D02*
X52755446Y-57203152D01*
X52755446Y-57203152D02*
X52850684Y-57250771D01*
X52850684Y-57250771D02*
X52898303Y-57346009D01*
X52898303Y-57346009D02*
X52898303Y-57441247D01*
X52898303Y-57441247D02*
X52422113Y-57536485D01*
X53326875Y-57869819D02*
X53326875Y-56869819D01*
X53422113Y-57488866D02*
X53707827Y-57869819D01*
X53707827Y-57203152D02*
X53326875Y-57584104D01*
X54517351Y-57822200D02*
X54422113Y-57869819D01*
X54422113Y-57869819D02*
X54231637Y-57869819D01*
X54231637Y-57869819D02*
X54136399Y-57822200D01*
X54136399Y-57822200D02*
X54088780Y-57726961D01*
X54088780Y-57726961D02*
X54088780Y-57346009D01*
X54088780Y-57346009D02*
X54136399Y-57250771D01*
X54136399Y-57250771D02*
X54231637Y-57203152D01*
X54231637Y-57203152D02*
X54422113Y-57203152D01*
X54422113Y-57203152D02*
X54517351Y-57250771D01*
X54517351Y-57250771D02*
X54564970Y-57346009D01*
X54564970Y-57346009D02*
X54564970Y-57441247D01*
X54564970Y-57441247D02*
X54088780Y-57536485D01*
X54993542Y-57869819D02*
X54993542Y-57203152D01*
X54993542Y-57393628D02*
X55041161Y-57298390D01*
X55041161Y-57298390D02*
X55088780Y-57250771D01*
X55088780Y-57250771D02*
X55184018Y-57203152D01*
X55184018Y-57203152D02*
X55279256Y-57203152D01*
X56231638Y-56869819D02*
X56564971Y-57869819D01*
X56564971Y-57869819D02*
X56898304Y-56869819D01*
X57755447Y-57869819D02*
X57184019Y-57869819D01*
X57469733Y-57869819D02*
X57469733Y-56869819D01*
X57469733Y-56869819D02*
X57374495Y-57012676D01*
X57374495Y-57012676D02*
X57279257Y-57107914D01*
X57279257Y-57107914D02*
X57184019Y-57155533D01*
X78069819Y-62463220D02*
X77069819Y-62463220D01*
X77069819Y-62463220D02*
X77069819Y-62082268D01*
X77069819Y-62082268D02*
X77117438Y-61987030D01*
X77117438Y-61987030D02*
X77165057Y-61939411D01*
X77165057Y-61939411D02*
X77260295Y-61891792D01*
X77260295Y-61891792D02*
X77403152Y-61891792D01*
X77403152Y-61891792D02*
X77498390Y-61939411D01*
X77498390Y-61939411D02*
X77546009Y-61987030D01*
X77546009Y-61987030D02*
X77593628Y-62082268D01*
X77593628Y-62082268D02*
X77593628Y-62463220D01*
X77117438Y-60939411D02*
X77069819Y-61034649D01*
X77069819Y-61034649D02*
X77069819Y-61177506D01*
X77069819Y-61177506D02*
X77117438Y-61320363D01*
X77117438Y-61320363D02*
X77212676Y-61415601D01*
X77212676Y-61415601D02*
X77307914Y-61463220D01*
X77307914Y-61463220D02*
X77498390Y-61510839D01*
X77498390Y-61510839D02*
X77641247Y-61510839D01*
X77641247Y-61510839D02*
X77831723Y-61463220D01*
X77831723Y-61463220D02*
X77926961Y-61415601D01*
X77926961Y-61415601D02*
X78022200Y-61320363D01*
X78022200Y-61320363D02*
X78069819Y-61177506D01*
X78069819Y-61177506D02*
X78069819Y-61082268D01*
X78069819Y-61082268D02*
X78022200Y-60939411D01*
X78022200Y-60939411D02*
X77974580Y-60891792D01*
X77974580Y-60891792D02*
X77641247Y-60891792D01*
X77641247Y-60891792D02*
X77641247Y-61082268D01*
X81517438Y-73939411D02*
X81469819Y-74034649D01*
X81469819Y-74034649D02*
X81469819Y-74177506D01*
X81469819Y-74177506D02*
X81517438Y-74320363D01*
X81517438Y-74320363D02*
X81612676Y-74415601D01*
X81612676Y-74415601D02*
X81707914Y-74463220D01*
X81707914Y-74463220D02*
X81898390Y-74510839D01*
X81898390Y-74510839D02*
X82041247Y-74510839D01*
X82041247Y-74510839D02*
X82231723Y-74463220D01*
X82231723Y-74463220D02*
X82326961Y-74415601D01*
X82326961Y-74415601D02*
X82422200Y-74320363D01*
X82422200Y-74320363D02*
X82469819Y-74177506D01*
X82469819Y-74177506D02*
X82469819Y-74082268D01*
X82469819Y-74082268D02*
X82422200Y-73939411D01*
X82422200Y-73939411D02*
X82374580Y-73891792D01*
X82374580Y-73891792D02*
X82041247Y-73891792D01*
X82041247Y-73891792D02*
X82041247Y-74082268D01*
X82469819Y-73463220D02*
X81469819Y-73463220D01*
X81469819Y-73463220D02*
X82469819Y-72891792D01*
X82469819Y-72891792D02*
X81469819Y-72891792D01*
X82469819Y-72415601D02*
X81469819Y-72415601D01*
X81469819Y-72415601D02*
X81469819Y-72177506D01*
X81469819Y-72177506D02*
X81517438Y-72034649D01*
X81517438Y-72034649D02*
X81612676Y-71939411D01*
X81612676Y-71939411D02*
X81707914Y-71891792D01*
X81707914Y-71891792D02*
X81898390Y-71844173D01*
X81898390Y-71844173D02*
X82041247Y-71844173D01*
X82041247Y-71844173D02*
X82231723Y-71891792D01*
X82231723Y-71891792D02*
X82326961Y-71939411D01*
X82326961Y-71939411D02*
X82422200Y-72034649D01*
X82422200Y-72034649D02*
X82469819Y-72177506D01*
X82469819Y-72177506D02*
X82469819Y-72415601D01*
X83517438Y-64139411D02*
X83469819Y-64234649D01*
X83469819Y-64234649D02*
X83469819Y-64377506D01*
X83469819Y-64377506D02*
X83517438Y-64520363D01*
X83517438Y-64520363D02*
X83612676Y-64615601D01*
X83612676Y-64615601D02*
X83707914Y-64663220D01*
X83707914Y-64663220D02*
X83898390Y-64710839D01*
X83898390Y-64710839D02*
X84041247Y-64710839D01*
X84041247Y-64710839D02*
X84231723Y-64663220D01*
X84231723Y-64663220D02*
X84326961Y-64615601D01*
X84326961Y-64615601D02*
X84422200Y-64520363D01*
X84422200Y-64520363D02*
X84469819Y-64377506D01*
X84469819Y-64377506D02*
X84469819Y-64282268D01*
X84469819Y-64282268D02*
X84422200Y-64139411D01*
X84422200Y-64139411D02*
X84374580Y-64091792D01*
X84374580Y-64091792D02*
X84041247Y-64091792D01*
X84041247Y-64091792D02*
X84041247Y-64282268D01*
X84469819Y-63663220D02*
X83469819Y-63663220D01*
X83469819Y-63663220D02*
X84469819Y-63091792D01*
X84469819Y-63091792D02*
X83469819Y-63091792D01*
X84469819Y-62615601D02*
X83469819Y-62615601D01*
X83469819Y-62615601D02*
X83469819Y-62377506D01*
X83469819Y-62377506D02*
X83517438Y-62234649D01*
X83517438Y-62234649D02*
X83612676Y-62139411D01*
X83612676Y-62139411D02*
X83707914Y-62091792D01*
X83707914Y-62091792D02*
X83898390Y-62044173D01*
X83898390Y-62044173D02*
X84041247Y-62044173D01*
X84041247Y-62044173D02*
X84231723Y-62091792D01*
X84231723Y-62091792D02*
X84326961Y-62139411D01*
X84326961Y-62139411D02*
X84422200Y-62234649D01*
X84422200Y-62234649D02*
X84469819Y-62377506D01*
X84469819Y-62377506D02*
X84469819Y-62615601D01*
X68159333Y-97228819D02*
X67683143Y-97228819D01*
X67683143Y-97228819D02*
X67683143Y-96228819D01*
X69016476Y-97228819D02*
X68445048Y-97228819D01*
X68730762Y-97228819D02*
X68730762Y-96228819D01*
X68730762Y-96228819D02*
X68635524Y-96371676D01*
X68635524Y-96371676D02*
X68540286Y-96466914D01*
X68540286Y-96466914D02*
X68445048Y-96514533D01*
X82054819Y-59761904D02*
X81054819Y-59761904D01*
X81531009Y-59761904D02*
X81531009Y-59190476D01*
X82054819Y-59190476D02*
X81054819Y-59190476D01*
X82054819Y-58190476D02*
X82054819Y-58761904D01*
X82054819Y-58476190D02*
X81054819Y-58476190D01*
X81054819Y-58476190D02*
X81197676Y-58571428D01*
X81197676Y-58571428D02*
X81292914Y-58666666D01*
X81292914Y-58666666D02*
X81340533Y-58761904D01*
X48434666Y-68288819D02*
X48434666Y-69003104D01*
X48434666Y-69003104D02*
X48387047Y-69145961D01*
X48387047Y-69145961D02*
X48291809Y-69241200D01*
X48291809Y-69241200D02*
X48148952Y-69288819D01*
X48148952Y-69288819D02*
X48053714Y-69288819D01*
X49434666Y-69288819D02*
X48863238Y-69288819D01*
X49148952Y-69288819D02*
X49148952Y-68288819D01*
X49148952Y-68288819D02*
X49053714Y-68431676D01*
X49053714Y-68431676D02*
X48958476Y-68526914D01*
X48958476Y-68526914D02*
X48863238Y-68574533D01*
X65638095Y-83454819D02*
X65638095Y-84264342D01*
X65638095Y-84264342D02*
X65685714Y-84359580D01*
X65685714Y-84359580D02*
X65733333Y-84407200D01*
X65733333Y-84407200D02*
X65828571Y-84454819D01*
X65828571Y-84454819D02*
X66019047Y-84454819D01*
X66019047Y-84454819D02*
X66114285Y-84407200D01*
X66114285Y-84407200D02*
X66161904Y-84359580D01*
X66161904Y-84359580D02*
X66209523Y-84264342D01*
X66209523Y-84264342D02*
X66209523Y-83454819D01*
X66638095Y-83550057D02*
X66685714Y-83502438D01*
X66685714Y-83502438D02*
X66780952Y-83454819D01*
X66780952Y-83454819D02*
X67019047Y-83454819D01*
X67019047Y-83454819D02*
X67114285Y-83502438D01*
X67114285Y-83502438D02*
X67161904Y-83550057D01*
X67161904Y-83550057D02*
X67209523Y-83645295D01*
X67209523Y-83645295D02*
X67209523Y-83740533D01*
X67209523Y-83740533D02*
X67161904Y-83883390D01*
X67161904Y-83883390D02*
X66590476Y-84454819D01*
X66590476Y-84454819D02*
X67209523Y-84454819D01*
X77854819Y-76961904D02*
X78664342Y-76961904D01*
X78664342Y-76961904D02*
X78759580Y-76914285D01*
X78759580Y-76914285D02*
X78807200Y-76866666D01*
X78807200Y-76866666D02*
X78854819Y-76771428D01*
X78854819Y-76771428D02*
X78854819Y-76580952D01*
X78854819Y-76580952D02*
X78807200Y-76485714D01*
X78807200Y-76485714D02*
X78759580Y-76438095D01*
X78759580Y-76438095D02*
X78664342Y-76390476D01*
X78664342Y-76390476D02*
X77854819Y-76390476D01*
X77854819Y-75438095D02*
X77854819Y-75914285D01*
X77854819Y-75914285D02*
X78331009Y-75961904D01*
X78331009Y-75961904D02*
X78283390Y-75914285D01*
X78283390Y-75914285D02*
X78235771Y-75819047D01*
X78235771Y-75819047D02*
X78235771Y-75580952D01*
X78235771Y-75580952D02*
X78283390Y-75485714D01*
X78283390Y-75485714D02*
X78331009Y-75438095D01*
X78331009Y-75438095D02*
X78426247Y-75390476D01*
X78426247Y-75390476D02*
X78664342Y-75390476D01*
X78664342Y-75390476D02*
X78759580Y-75438095D01*
X78759580Y-75438095D02*
X78807200Y-75485714D01*
X78807200Y-75485714D02*
X78854819Y-75580952D01*
X78854819Y-75580952D02*
X78854819Y-75819047D01*
X78854819Y-75819047D02*
X78807200Y-75914285D01*
X78807200Y-75914285D02*
X78759580Y-75961904D01*
X48768095Y-83274819D02*
X48768095Y-84084342D01*
X48768095Y-84084342D02*
X48815714Y-84179580D01*
X48815714Y-84179580D02*
X48863333Y-84227200D01*
X48863333Y-84227200D02*
X48958571Y-84274819D01*
X48958571Y-84274819D02*
X49149047Y-84274819D01*
X49149047Y-84274819D02*
X49244285Y-84227200D01*
X49244285Y-84227200D02*
X49291904Y-84179580D01*
X49291904Y-84179580D02*
X49339523Y-84084342D01*
X49339523Y-84084342D02*
X49339523Y-83274819D01*
X49720476Y-83274819D02*
X50339523Y-83274819D01*
X50339523Y-83274819D02*
X50006190Y-83655771D01*
X50006190Y-83655771D02*
X50149047Y-83655771D01*
X50149047Y-83655771D02*
X50244285Y-83703390D01*
X50244285Y-83703390D02*
X50291904Y-83751009D01*
X50291904Y-83751009D02*
X50339523Y-83846247D01*
X50339523Y-83846247D02*
X50339523Y-84084342D01*
X50339523Y-84084342D02*
X50291904Y-84179580D01*
X50291904Y-84179580D02*
X50244285Y-84227200D01*
X50244285Y-84227200D02*
X50149047Y-84274819D01*
X50149047Y-84274819D02*
X49863333Y-84274819D01*
X49863333Y-84274819D02*
X49768095Y-84227200D01*
X49768095Y-84227200D02*
X49720476Y-84179580D01*
X79464819Y-89741333D02*
X80179104Y-89741333D01*
X80179104Y-89741333D02*
X80321961Y-89788952D01*
X80321961Y-89788952D02*
X80417200Y-89884190D01*
X80417200Y-89884190D02*
X80464819Y-90027047D01*
X80464819Y-90027047D02*
X80464819Y-90122285D01*
X79560057Y-89312761D02*
X79512438Y-89265142D01*
X79512438Y-89265142D02*
X79464819Y-89169904D01*
X79464819Y-89169904D02*
X79464819Y-88931809D01*
X79464819Y-88931809D02*
X79512438Y-88836571D01*
X79512438Y-88836571D02*
X79560057Y-88788952D01*
X79560057Y-88788952D02*
X79655295Y-88741333D01*
X79655295Y-88741333D02*
X79750533Y-88741333D01*
X79750533Y-88741333D02*
X79893390Y-88788952D01*
X79893390Y-88788952D02*
X80464819Y-89360380D01*
X80464819Y-89360380D02*
X80464819Y-88741333D01*
X57237333Y-97482819D02*
X56761143Y-97482819D01*
X56761143Y-97482819D02*
X56761143Y-96482819D01*
X57523048Y-96578057D02*
X57570667Y-96530438D01*
X57570667Y-96530438D02*
X57665905Y-96482819D01*
X57665905Y-96482819D02*
X57904000Y-96482819D01*
X57904000Y-96482819D02*
X57999238Y-96530438D01*
X57999238Y-96530438D02*
X58046857Y-96578057D01*
X58046857Y-96578057D02*
X58094476Y-96673295D01*
X58094476Y-96673295D02*
X58094476Y-96768533D01*
X58094476Y-96768533D02*
X58046857Y-96911390D01*
X58046857Y-96911390D02*
X57475429Y-97482819D01*
X57475429Y-97482819D02*
X58094476Y-97482819D01*
X61214095Y-64732819D02*
X61214095Y-65542342D01*
X61214095Y-65542342D02*
X61261714Y-65637580D01*
X61261714Y-65637580D02*
X61309333Y-65685200D01*
X61309333Y-65685200D02*
X61404571Y-65732819D01*
X61404571Y-65732819D02*
X61595047Y-65732819D01*
X61595047Y-65732819D02*
X61690285Y-65685200D01*
X61690285Y-65685200D02*
X61737904Y-65637580D01*
X61737904Y-65637580D02*
X61785523Y-65542342D01*
X61785523Y-65542342D02*
X61785523Y-64732819D01*
X62690285Y-65066152D02*
X62690285Y-65732819D01*
X62452190Y-64685200D02*
X62214095Y-65399485D01*
X62214095Y-65399485D02*
X62833142Y-65399485D01*
X82054819Y-67761904D02*
X81054819Y-67761904D01*
X81531009Y-67761904D02*
X81531009Y-67190476D01*
X82054819Y-67190476D02*
X81054819Y-67190476D01*
X81150057Y-66761904D02*
X81102438Y-66714285D01*
X81102438Y-66714285D02*
X81054819Y-66619047D01*
X81054819Y-66619047D02*
X81054819Y-66380952D01*
X81054819Y-66380952D02*
X81102438Y-66285714D01*
X81102438Y-66285714D02*
X81150057Y-66238095D01*
X81150057Y-66238095D02*
X81245295Y-66190476D01*
X81245295Y-66190476D02*
X81340533Y-66190476D01*
X81340533Y-66190476D02*
X81483390Y-66238095D01*
X81483390Y-66238095D02*
X82054819Y-66809523D01*
X82054819Y-66809523D02*
X82054819Y-66190476D01*
D11*
%TO.C,L1*%
X59394000Y-90230000D02*
X59394000Y-92650000D01*
X59394000Y-90230000D02*
X66894000Y-90230000D01*
X59394000Y-95310000D02*
X59394000Y-97730000D01*
X66894000Y-92650000D02*
X66894000Y-90230000D01*
X66894000Y-97730000D02*
X59394000Y-97730000D01*
X66894000Y-97730000D02*
X66894000Y-95310000D01*
%TO.C,J1*%
X47198000Y-70684000D02*
X47198000Y-79684000D01*
X47198000Y-79684000D02*
X48598000Y-79684000D01*
X48368000Y-72364000D02*
X50868000Y-72864000D01*
X48368000Y-72844000D02*
X48368000Y-72364000D01*
X48368000Y-74174000D02*
X50468000Y-73774000D01*
X48368000Y-74664000D02*
X48368000Y-74174000D01*
X48368000Y-75644000D02*
X50868000Y-76144000D01*
X48368000Y-76114000D02*
X48368000Y-75644000D01*
X48368000Y-77444000D02*
X50468000Y-77044000D01*
X48368000Y-77944000D02*
X48368000Y-77444000D01*
X48598000Y-70684000D02*
X48618000Y-70684000D01*
X48618000Y-70684000D02*
X47198000Y-70684000D01*
X49668000Y-72664000D02*
X49668000Y-73064000D01*
X49668000Y-73964000D02*
X49668000Y-74364000D01*
X49668000Y-75944000D02*
X49668000Y-76344000D01*
X49668000Y-77244000D02*
X49668000Y-77644000D01*
X50468000Y-73244000D02*
X48368000Y-72844000D01*
X50468000Y-73774000D02*
X50468000Y-73244000D01*
X50468000Y-76524000D02*
X48368000Y-76114000D01*
X50468000Y-77044000D02*
X50468000Y-76524000D01*
X50868000Y-72864000D02*
X50868000Y-74164000D01*
X50868000Y-74164000D02*
X48368000Y-74664000D01*
X50868000Y-76144000D02*
X50868000Y-77444000D01*
X50868000Y-77444000D02*
X48368000Y-77944000D01*
X50998000Y-79684000D02*
X52448000Y-79684000D01*
X52198000Y-74174000D02*
X52198000Y-76194000D01*
X52198000Y-74184000D02*
X52598000Y-74184000D01*
X52198000Y-76184000D02*
X52598000Y-76184000D01*
X52398000Y-70684000D02*
X50958000Y-70684000D01*
X52398000Y-70684000D02*
X52438000Y-70684000D01*
X52598000Y-74184000D02*
X52598000Y-74784000D01*
X52598000Y-74784000D02*
X52798000Y-74784000D01*
X52598000Y-75584000D02*
X52798000Y-75584000D01*
X52598000Y-76184000D02*
X52598000Y-75584000D01*
X53998000Y-71644000D02*
X53998000Y-71854000D01*
X53998000Y-78514000D02*
X53998000Y-78724000D01*
D10*
%TO.C,U2*%
X65152000Y-84754000D02*
X63372000Y-84754000D01*
X65152000Y-87834000D02*
X63372000Y-87834000D01*
D12*
X65712000Y-87964000D02*
G75*
G02*
X65412000Y-87964000I-150000J0D01*
G01*
X65412000Y-87964000D02*
G75*
G02*
X65712000Y-87964000I150000J0D01*
G01*
D11*
%TO.C,U5*%
X83148218Y-73370410D02*
X83148218Y-74270410D01*
X83148218Y-74270410D02*
X84748218Y-74270410D01*
X83148218Y-78470410D02*
X84748218Y-78470410D01*
X83148218Y-79370410D02*
X83148218Y-78470410D01*
X83548218Y-78920410D02*
X84248218Y-78770410D01*
X84248218Y-78770410D02*
X84248218Y-79070410D01*
X84248218Y-79070410D02*
X83548218Y-78920410D01*
X84748218Y-73370410D02*
X83148218Y-73370410D01*
X84748218Y-73370410D02*
X84748218Y-74470410D01*
X84748218Y-73370410D02*
X90748218Y-73370410D01*
X84748218Y-74270410D02*
X89048218Y-74270410D01*
X84748218Y-76270410D02*
X84748218Y-76470410D01*
X84748218Y-78270410D02*
X84748218Y-79370410D01*
X84748218Y-79370410D02*
X83148218Y-79370410D01*
X85768218Y-77500410D02*
X89048218Y-77500410D01*
X86498218Y-75670410D02*
X86498218Y-77020410D01*
X86498218Y-77020410D02*
X90748218Y-77020410D01*
X87148218Y-74270410D02*
X87148218Y-75220410D01*
X87148218Y-77500410D02*
X87148218Y-78450410D01*
X89048218Y-74270410D02*
X89048218Y-75220410D01*
X89048218Y-75220410D02*
X85768218Y-75220410D01*
X89048218Y-77500410D02*
X89048218Y-78450410D01*
X89048218Y-78450410D02*
X84748218Y-78450410D01*
X90748218Y-73370410D02*
X90748218Y-79370410D01*
X90748218Y-75670410D02*
X86498218Y-75670410D01*
X90748218Y-75670410D02*
X90748218Y-75670410D01*
X90748218Y-79370410D02*
X84748218Y-79370410D01*
D10*
%TO.C,D5*%
X65070000Y-76836000D02*
X65070000Y-80136000D01*
X65070000Y-76836000D02*
X70580000Y-76836000D01*
X65070000Y-80136000D02*
X70580000Y-80136000D01*
%TO.C,U3*%
X53094000Y-84820000D02*
X51314000Y-84820000D01*
X53094000Y-87900000D02*
X51314000Y-87900000D01*
D12*
X53654000Y-88030000D02*
G75*
G02*
X53354000Y-88030000I-150000J0D01*
G01*
X53354000Y-88030000D02*
G75*
G02*
X53654000Y-88030000I150000J0D01*
G01*
D10*
%TO.C,D1*%
X69906000Y-57420000D02*
X69906000Y-60110000D01*
X69906000Y-60110000D02*
X71826000Y-60110000D01*
X71826000Y-60110000D02*
X71826000Y-57420000D01*
%TO.C,D2*%
X76510000Y-57420000D02*
X76510000Y-60110000D01*
X76510000Y-60110000D02*
X78430000Y-60110000D01*
X78430000Y-60110000D02*
X78430000Y-57420000D01*
D11*
%TO.C,J2*%
X76506000Y-82208000D02*
X78566000Y-82208000D01*
X76506000Y-96608000D02*
X76506000Y-82208000D01*
X76506000Y-96608000D02*
X78566000Y-96608000D01*
X82206000Y-82208000D02*
X90626000Y-82208000D01*
X82206000Y-96608000D02*
X90626000Y-96608000D01*
X82216000Y-82218000D02*
X82216000Y-87418000D01*
X82216000Y-87418000D02*
X84356000Y-87418000D01*
X82236000Y-91198000D02*
X82236000Y-96598000D01*
X83626000Y-82998000D02*
X89366000Y-83348000D01*
X83626000Y-83378000D02*
X83626000Y-82998000D01*
X83626000Y-86218000D02*
X88166000Y-85708000D01*
X83626000Y-86728000D02*
X83626000Y-86218000D01*
X83676000Y-92098000D02*
X89426000Y-92448000D01*
X83676000Y-92478000D02*
X83676000Y-92098000D01*
X83676000Y-95318000D02*
X88216000Y-94808000D01*
X83676000Y-95828000D02*
X83676000Y-95318000D01*
X84056000Y-83408000D02*
X83626000Y-83378000D01*
X84106000Y-92508000D02*
X83676000Y-92478000D01*
X84326000Y-89418000D02*
X86346000Y-89418000D01*
X84356000Y-87418000D02*
X84356000Y-91198000D01*
X84356000Y-91198000D02*
X82236000Y-91198000D01*
X86336000Y-85918000D02*
X86336000Y-83658000D01*
X86346000Y-88498000D02*
X88466000Y-88498000D01*
X86346000Y-89418000D02*
X86346000Y-88498000D01*
X86356000Y-95018000D02*
X86356000Y-92758000D01*
X87546000Y-85778000D02*
X87546000Y-83748000D01*
X87566000Y-94878000D02*
X87566000Y-92848000D01*
X88166000Y-85708000D02*
X88846000Y-85628000D01*
X88216000Y-94808000D02*
X88896000Y-94738000D01*
X88466000Y-88498000D02*
X88466000Y-89418000D01*
X88466000Y-89418000D02*
X90496000Y-89418000D01*
X88836000Y-83878000D02*
X84056000Y-83408000D01*
X88846000Y-85628000D02*
X88836000Y-83878000D01*
X88886000Y-92988000D02*
X84106000Y-92508000D01*
X88896000Y-94738000D02*
X88886000Y-92988000D01*
X89356000Y-86228000D02*
X83626000Y-86728000D01*
X89366000Y-83348000D02*
X89356000Y-86228000D01*
X89416000Y-95328000D02*
X83676000Y-95828000D01*
X89426000Y-92448000D02*
X89416000Y-95328000D01*
X90626000Y-96608000D02*
X90626000Y-82208000D01*
%TO.C,L2*%
X48574000Y-90230000D02*
X48574000Y-92650000D01*
X48574000Y-90230000D02*
X56074000Y-90230000D01*
X48574000Y-95310000D02*
X48574000Y-97730000D01*
X56074000Y-92650000D02*
X56074000Y-90230000D01*
X56074000Y-97730000D02*
X48574000Y-97730000D01*
X56074000Y-97730000D02*
X56074000Y-95310000D01*
D10*
%TO.C,D3*%
X73208000Y-57420000D02*
X73208000Y-60110000D01*
X73208000Y-60110000D02*
X75128000Y-60110000D01*
X75128000Y-60110000D02*
X75128000Y-57420000D01*
%TO.C,U4*%
X56848000Y-60404000D02*
X57598000Y-60404000D01*
X56848000Y-61154000D02*
X56848000Y-60404000D01*
X56848000Y-63814000D02*
X56848000Y-64564000D01*
X56848000Y-64564000D02*
X57598000Y-64564000D01*
X61008000Y-60404000D02*
X60258000Y-60404000D01*
X61008000Y-61154000D02*
X61008000Y-60404000D01*
X61008000Y-63814000D02*
X61008000Y-64564000D01*
X61008000Y-64564000D02*
X60258000Y-64564000D01*
X57998000Y-65024000D02*
G75*
G02*
X57858000Y-65024000I-70000J0D01*
G01*
X57858000Y-65024000D02*
G75*
G02*
X57998000Y-65024000I70000J0D01*
G01*
%TO.C,D4*%
X64816000Y-72518000D02*
X64816000Y-75818000D01*
X64816000Y-72518000D02*
X70326000Y-72518000D01*
X64816000Y-75818000D02*
X70326000Y-75818000D01*
%TD*%
M02*
