%TF.GenerationSoftware,KiCad,Pcbnew,9.0.7*%
%TF.CreationDate,2026-01-22T17:41:33-08:00*%
%TF.ProjectId,charging-circuit,63686172-6769-46e6-972d-636972637569,rev?*%
%TF.SameCoordinates,Original*%
%TF.FileFunction,Copper,L1,Top*%
%TF.FilePolarity,Positive*%
%FSLAX46Y46*%
G04 Gerber Fmt 4.6, Leading zero omitted, Abs format (unit mm)*
G04 Created by KiCad (PCBNEW 9.0.7) date 2026-01-22 17:41:33*
%MOMM*%
%LPD*%
G01*
G04 APERTURE LIST*
G04 Aperture macros list*
%AMRoundRect*
0 Rectangle with rounded corners*
0 $1 Rounding radius*
0 $2 $3 $4 $5 $6 $7 $8 $9 X,Y pos of 4 corners*
0 Add a 4 corners polygon primitive as box body*
4,1,4,$2,$3,$4,$5,$6,$7,$8,$9,$2,$3,0*
0 Add four circle primitives for the rounded corners*
1,1,$1+$1,$2,$3*
1,1,$1+$1,$4,$5*
1,1,$1+$1,$6,$7*
1,1,$1+$1,$8,$9*
0 Add four rect primitives between the rounded corners*
20,1,$1+$1,$2,$3,$4,$5,0*
20,1,$1+$1,$4,$5,$6,$7,0*
20,1,$1+$1,$6,$7,$8,$9,0*
20,1,$1+$1,$8,$9,$2,$3,0*%
G04 Aperture macros list end*
%TA.AperFunction,ComponentPad*%
%ADD10C,1.400000*%
%TD*%
%TA.AperFunction,SMDPad,CuDef*%
%ADD11R,1.600000X2.200000*%
%TD*%
%TA.AperFunction,SMDPad,CuDef*%
%ADD12R,1.200000X0.700000*%
%TD*%
%TA.AperFunction,SMDPad,CuDef*%
%ADD13R,1.200000X0.800000*%
%TD*%
%TA.AperFunction,ComponentPad*%
%ADD14O,1.900000X1.100000*%
%TD*%
%TA.AperFunction,SMDPad,CuDef*%
%ADD15RoundRect,0.225000X0.225000X0.250000X-0.225000X0.250000X-0.225000X-0.250000X0.225000X-0.250000X0*%
%TD*%
%TA.AperFunction,SMDPad,CuDef*%
%ADD16RoundRect,0.242500X0.457500X-0.242500X0.457500X0.242500X-0.457500X0.242500X-0.457500X-0.242500X0*%
%TD*%
%TA.AperFunction,SMDPad,CuDef*%
%ADD17R,0.280000X0.660000*%
%TD*%
%TA.AperFunction,SMDPad,CuDef*%
%ADD18R,0.660000X0.280000*%
%TD*%
%TA.AperFunction,SMDPad,CuDef*%
%ADD19R,2.700000X2.700000*%
%TD*%
%TA.AperFunction,SMDPad,CuDef*%
%ADD20R,1.070000X0.530000*%
%TD*%
%TA.AperFunction,SMDPad,CuDef*%
%ADD21RoundRect,0.200000X-0.200000X-0.275000X0.200000X-0.275000X0.200000X0.275000X-0.200000X0.275000X0*%
%TD*%
%TA.AperFunction,SMDPad,CuDef*%
%ADD22RoundRect,0.200000X0.200000X0.275000X-0.200000X0.275000X-0.200000X-0.275000X0.200000X-0.275000X0*%
%TD*%
%TA.AperFunction,SMDPad,CuDef*%
%ADD23RoundRect,0.200000X0.275000X-0.200000X0.275000X0.200000X-0.275000X0.200000X-0.275000X-0.200000X0*%
%TD*%
%TA.AperFunction,SMDPad,CuDef*%
%ADD24RoundRect,0.200000X-0.275000X0.200000X-0.275000X-0.200000X0.275000X-0.200000X0.275000X0.200000X0*%
%TD*%
%TA.AperFunction,ComponentPad*%
%ADD25C,1.520000*%
%TD*%
%TA.AperFunction,ComponentPad*%
%ADD26C,3.200000*%
%TD*%
%TA.AperFunction,ComponentPad*%
%ADD27C,1.800000*%
%TD*%
%TA.AperFunction,ComponentPad*%
%ADD28R,1.800000X1.800000*%
%TD*%
%TA.AperFunction,SMDPad,CuDef*%
%ADD29RoundRect,0.250000X-1.000000X-0.650000X1.000000X-0.650000X1.000000X0.650000X-1.000000X0.650000X0*%
%TD*%
%TA.AperFunction,SMDPad,CuDef*%
%ADD30RoundRect,0.225000X-0.250000X0.225000X-0.250000X-0.225000X0.250000X-0.225000X0.250000X0.225000X0*%
%TD*%
%TA.AperFunction,SMDPad,CuDef*%
%ADD31RoundRect,0.225000X-0.225000X-0.250000X0.225000X-0.250000X0.225000X0.250000X-0.225000X0.250000X0*%
%TD*%
%TA.AperFunction,ViaPad*%
%ADD32C,0.600000*%
%TD*%
%TA.AperFunction,Conductor*%
%ADD33C,0.200000*%
%TD*%
G04 APERTURE END LIST*
D10*
%TO.P,U5,1,1*%
%TO.N,GND*%
X84498218Y-77370410D03*
%TO.P,U5,2,2*%
%TO.N,Net-(U4-V_{BAT_SENSE})*%
X84498218Y-75370410D03*
%TD*%
D11*
%TO.P,L2,2,2*%
%TO.N,Net-(U3-SW)*%
X55524000Y-93980000D03*
%TO.P,L2,1,1*%
%TO.N,Net-(U3-IN)*%
X49124000Y-93980000D03*
%TD*%
D12*
%TO.P,J1,A5,CC1*%
%TO.N,Net-(J1-CC1)*%
X53848000Y-74684000D03*
%TO.P,J1,A9,VBUS*%
%TO.N,VBUS*%
X53848000Y-76684000D03*
D13*
%TO.P,J1,A12,GND*%
%TO.N,GND*%
X53848000Y-77884000D03*
D12*
%TO.P,J1,B5,CC2*%
%TO.N,Net-(J1-CC2)*%
X53848000Y-75684000D03*
%TO.P,J1,B9,VBUS*%
%TO.N,VBUS*%
X53848000Y-73684000D03*
D13*
%TO.P,J1,B12,GND*%
%TO.N,GND*%
X53848000Y-72484000D03*
D14*
%TO.P,J1,S1,SHIELD*%
X53598000Y-70864000D03*
X49788000Y-70864000D03*
X53598000Y-79504000D03*
X49788000Y-79504000D03*
%TD*%
D15*
%TO.P,C3,2*%
%TO.N,/12 Vout*%
X56370000Y-83566000D03*
%TO.P,C3,1*%
%TO.N,GND*%
X57930000Y-83566000D03*
%TD*%
D11*
%TO.P,L1,2,2*%
%TO.N,Net-(U2-SW)*%
X66344000Y-93980000D03*
%TO.P,L1,1,1*%
%TO.N,Net-(U2-IN)*%
X59944000Y-93980000D03*
%TD*%
D16*
%TO.P,D2,1*%
%TO.N,Net-(D2-Pad1)*%
X77470000Y-59360000D03*
%TO.P,D2,2*%
%TO.N,VBUS*%
X77470000Y-57480000D03*
%TD*%
D15*
%TO.P,C8,1*%
%TO.N,GND*%
X58956500Y-78232000D03*
%TO.P,C8,2*%
%TO.N,VBUS*%
X57396500Y-78232000D03*
%TD*%
D17*
%TO.P,U4,1,OUT*%
%TO.N,/VSYS*%
X57928000Y-64394000D03*
%TO.P,U4,2,VPCC*%
%TO.N,VBUS*%
X58428000Y-64394000D03*
%TO.P,U4,3,SEL*%
X58928000Y-64394000D03*
%TO.P,U4,4,PROG2*%
X59428000Y-64394000D03*
%TO.P,U4,5,THERM*%
%TO.N,Net-(U4-THERM)*%
X59928000Y-64394000D03*
D18*
%TO.P,U4,6,~{PG}*%
%TO.N,Net-(U4-~{PG})*%
X60838000Y-63484000D03*
%TO.P,U4,7,STAT2*%
%TO.N,Net-(U4-STAT2)*%
X60838000Y-62984000D03*
%TO.P,U4,8,STAT1/~{LBO}*%
%TO.N,Net-(U4-STAT1{slash}~{LBO})*%
X60838000Y-62484000D03*
%TO.P,U4,9,~{TE}*%
%TO.N,VBUS*%
X60838000Y-61984000D03*
%TO.P,U4,10,V_{SS}*%
%TO.N,GND*%
X60838000Y-61484000D03*
D17*
%TO.P,U4,11,V_{SS}*%
X59928000Y-60574000D03*
%TO.P,U4,12,PROG3*%
%TO.N,Net-(U4-PROG3)*%
X59428000Y-60574000D03*
%TO.P,U4,13,PROG1*%
%TO.N,Net-(U4-PROG1)*%
X58928000Y-60574000D03*
%TO.P,U4,14,V_{BAT}*%
%TO.N,Net-(U4-V_{BAT_SENSE})*%
X58428000Y-60574000D03*
%TO.P,U4,15,V_{BAT}*%
X57928000Y-60574000D03*
D18*
%TO.P,U4,16,V_{BAT_SENSE}*%
X57018000Y-61484000D03*
%TO.P,U4,17,CE*%
%TO.N,VBUS*%
X57018000Y-61984000D03*
%TO.P,U4,18,IN*%
X57018000Y-62484000D03*
%TO.P,U4,19,IN*%
X57018000Y-62984000D03*
%TO.P,U4,20,OUT*%
%TO.N,/VSYS*%
X57018000Y-63484000D03*
D19*
%TO.P,U4,21,V_{SS}*%
%TO.N,GND*%
X58928000Y-62484000D03*
%TD*%
D20*
%TO.P,U3,1,SW*%
%TO.N,Net-(U3-SW)*%
X53354000Y-87310000D03*
%TO.P,U3,2,GND*%
%TO.N,GND*%
X53354000Y-86360000D03*
%TO.P,U3,3,FB*%
%TO.N,Net-(U3-FB)*%
X53354000Y-85410000D03*
%TO.P,U3,4,EN*%
%TO.N,/VSYS*%
X51054000Y-85410000D03*
%TO.P,U3,5,IN*%
%TO.N,Net-(U3-IN)*%
X51054000Y-86360000D03*
%TO.P,U3,6,NC*%
%TO.N,unconnected-(U3-NC-Pad6)*%
X51054000Y-87310000D03*
%TD*%
%TO.P,U2,1,SW*%
%TO.N,Net-(U2-SW)*%
X65412000Y-87244000D03*
%TO.P,U2,2,GND*%
%TO.N,GND*%
X65412000Y-86294000D03*
%TO.P,U2,3,FB*%
%TO.N,Net-(U2-FB)*%
X65412000Y-85344000D03*
%TO.P,U2,4,EN*%
%TO.N,/VSYS*%
X63112000Y-85344000D03*
%TO.P,U2,5,IN*%
%TO.N,Net-(U2-IN)*%
X63112000Y-86294000D03*
%TO.P,U2,6,NC*%
%TO.N,unconnected-(U2-NC-Pad6)*%
X63112000Y-87244000D03*
%TD*%
D21*
%TO.P,RPROG3,1*%
%TO.N,Net-(U4-PROG3)*%
X60140000Y-59182000D03*
%TO.P,RPROG3,2*%
%TO.N,GND*%
X61780000Y-59182000D03*
%TD*%
%TO.P,RPROG1,1*%
%TO.N,GND*%
X56838000Y-59182000D03*
%TO.P,RPROG1,2*%
%TO.N,Net-(U4-PROG1)*%
X58478000Y-59182000D03*
%TD*%
D22*
%TO.P,R11,1*%
%TO.N,Net-(D2-Pad1)*%
X66352000Y-64516000D03*
%TO.P,R11,2*%
%TO.N,Net-(U4-~{PG})*%
X64712000Y-64516000D03*
%TD*%
D23*
%TO.P,R10,1*%
%TO.N,/5 Vout*%
X70358000Y-87180000D03*
%TO.P,R10,2*%
%TO.N,Net-(U2-FB)*%
X70358000Y-85540000D03*
%TD*%
D24*
%TO.P,R8,1*%
%TO.N,/12 Vout*%
X58166000Y-85286000D03*
%TO.P,R8,2*%
%TO.N,Net-(U3-FB)*%
X58166000Y-86926000D03*
%TD*%
D22*
%TO.P,R7,1*%
%TO.N,Net-(D1-Pad1)*%
X66352000Y-60452000D03*
%TO.P,R7,2*%
%TO.N,Net-(U4-STAT1{slash}~{LBO})*%
X64712000Y-60452000D03*
%TD*%
%TO.P,R6,1*%
%TO.N,Net-(D3-Pad1)*%
X66352000Y-62484000D03*
%TO.P,R6,2*%
%TO.N,Net-(U4-STAT2)*%
X64712000Y-62484000D03*
%TD*%
D24*
%TO.P,R5,1*%
%TO.N,Net-(U4-THERM)*%
X59944000Y-66490000D03*
%TO.P,R5,2*%
%TO.N,GND*%
X59944000Y-68130000D03*
%TD*%
%TO.P,R3,1*%
%TO.N,Net-(U2-FB)*%
X68326000Y-85540000D03*
%TO.P,R3,2*%
%TO.N,GND*%
X68326000Y-87180000D03*
%TD*%
D21*
%TO.P,R2,1*%
%TO.N,Net-(J1-CC2)*%
X57356500Y-76454000D03*
%TO.P,R2,2*%
%TO.N,GND*%
X58996500Y-76454000D03*
%TD*%
%TO.P,R1,1*%
%TO.N,Net-(J1-CC1)*%
X57356500Y-74676000D03*
%TO.P,R1,2*%
%TO.N,GND*%
X58996500Y-74676000D03*
%TD*%
D25*
%TO.P,J2,4,GND*%
%TO.N,GND*%
X77616000Y-85908000D03*
%TO.P,J2,3,D+*%
%TO.N,Net-(J2-D+)*%
X77616000Y-88408000D03*
%TO.P,J2,2,D-*%
X77616000Y-90408000D03*
%TO.P,J2,1,VBUS*%
%TO.N,/5 Vout*%
X77616000Y-92908000D03*
D26*
%TO.P,J2,5,Shield*%
%TO.N,GND*%
X80316000Y-95978000D03*
X80316000Y-82838000D03*
%TD*%
D27*
%TO.P,H2,2,2*%
%TO.N,/5 Vout*%
X88138000Y-68326000D03*
D28*
%TO.P,H2,1,1*%
%TO.N,GND*%
X88138000Y-65786000D03*
%TD*%
D27*
%TO.P,H1,2,2*%
%TO.N,/12 Vout*%
X88138000Y-58928000D03*
D28*
%TO.P,H1,1,1*%
%TO.N,GND*%
X88138000Y-61468000D03*
%TD*%
D29*
%TO.P,D5,1*%
%TO.N,Net-(U2-SW)*%
X66580000Y-78486000D03*
%TO.P,D5,2*%
%TO.N,/5 Vout*%
X70580000Y-78486000D03*
%TD*%
%TO.P,D4,1*%
%TO.N,Net-(U3-SW)*%
X66326000Y-74168000D03*
%TO.P,D4,2*%
%TO.N,/12 Vout*%
X70326000Y-74168000D03*
%TD*%
D16*
%TO.P,D3,1*%
%TO.N,Net-(D3-Pad1)*%
X74168000Y-59360000D03*
%TO.P,D3,2*%
%TO.N,VBUS*%
X74168000Y-57480000D03*
%TD*%
%TO.P,D1,1*%
%TO.N,Net-(D1-Pad1)*%
X70866000Y-59360000D03*
%TO.P,D1,2*%
%TO.N,VBUS*%
X70866000Y-57480000D03*
%TD*%
D30*
%TO.P,C7,1*%
%TO.N,Net-(U2-IN)*%
X60960000Y-87358000D03*
%TO.P,C7,2*%
%TO.N,GND*%
X60960000Y-88918000D03*
%TD*%
D31*
%TO.P,C6,1*%
%TO.N,GND*%
X53576000Y-64516000D03*
%TO.P,C6,2*%
%TO.N,/VSYS*%
X55136000Y-64516000D03*
%TD*%
D30*
%TO.P,C5,1*%
%TO.N,Net-(U3-IN)*%
X48006000Y-85580000D03*
%TO.P,C5,2*%
%TO.N,GND*%
X48006000Y-87140000D03*
%TD*%
D31*
%TO.P,C4,1*%
%TO.N,GND*%
X73134000Y-92964000D03*
%TO.P,C4,2*%
%TO.N,/5 Vout*%
X74694000Y-92964000D03*
%TD*%
D15*
%TO.P,C2,1*%
%TO.N,VBUS*%
X51834000Y-61976000D03*
%TO.P,C2,2*%
%TO.N,GND*%
X50274000Y-61976000D03*
%TD*%
D31*
%TO.P,C1,1*%
%TO.N,GND*%
X52814000Y-59436000D03*
%TO.P,C1,2*%
%TO.N,Net-(U4-V_{BAT_SENSE})*%
X54374000Y-59436000D03*
%TD*%
D23*
%TO.P,R9,1*%
%TO.N,Net-(U3-FB)*%
X56134000Y-86926000D03*
%TO.P,R9,2*%
%TO.N,GND*%
X56134000Y-85286000D03*
%TD*%
D32*
%TO.N,GND*%
X57658000Y-79502000D03*
X59436000Y-82804000D03*
X67056000Y-86868000D03*
X48260000Y-88392000D03*
X53594000Y-63754000D03*
X49022000Y-62230000D03*
X71628000Y-92964000D03*
X60198000Y-89154000D03*
X55118000Y-85852000D03*
X52324000Y-86614000D03*
X59944000Y-69596000D03*
X55880000Y-59182000D03*
X61976000Y-60452000D03*
X52832000Y-60706000D03*
%TO.N,Net-(U3-SW)*%
X64262000Y-77216000D03*
X57658000Y-93726000D03*
%TO.N,Net-(U4-V_{BAT_SENSE})*%
X54356000Y-60706000D03*
%TO.N,/VSYS*%
X55118000Y-66548000D03*
X61722000Y-84582000D03*
%TO.N,/12 Vout*%
X70104000Y-71882000D03*
X57150000Y-81788000D03*
%TO.N,VBUS*%
X55374000Y-73660000D03*
X51308000Y-63246000D03*
X58420000Y-65786000D03*
%TO.N,/VSYS*%
X52070000Y-83820000D03*
%TD*%
D33*
%TO.N,GND*%
X58928000Y-78232000D02*
X57658000Y-79502000D01*
X58956500Y-78232000D02*
X58928000Y-78232000D01*
X58674000Y-83566000D02*
X59436000Y-82804000D01*
X57930000Y-83566000D02*
X58674000Y-83566000D01*
X58996500Y-76454000D02*
X58996500Y-78192000D01*
X58996500Y-78192000D02*
X58956500Y-78232000D01*
X58996500Y-74676000D02*
X58996500Y-76454000D01*
X53848000Y-77884000D02*
X53848000Y-79254000D01*
X53848000Y-79254000D02*
X53598000Y-79504000D01*
X60838000Y-60574000D02*
X60960000Y-60574000D01*
X60838000Y-61484000D02*
X60838000Y-60696000D01*
X60838000Y-60696000D02*
X60960000Y-60574000D01*
X59928000Y-60574000D02*
X60838000Y-60574000D01*
X58928000Y-62484000D02*
X60838000Y-60574000D01*
X60960000Y-60574000D02*
X61854000Y-60574000D01*
X61854000Y-60574000D02*
X61976000Y-60452000D01*
X65412000Y-86294000D02*
X66482000Y-86294000D01*
X66482000Y-86294000D02*
X67056000Y-86868000D01*
X67368000Y-87180000D02*
X67056000Y-86868000D01*
X68326000Y-87180000D02*
X67368000Y-87180000D01*
X48006000Y-88138000D02*
X48260000Y-88392000D01*
X48006000Y-87140000D02*
X48006000Y-88138000D01*
X53576000Y-63772000D02*
X53594000Y-63754000D01*
X53576000Y-64516000D02*
X53576000Y-63772000D01*
X49276000Y-61976000D02*
X49022000Y-62230000D01*
X50274000Y-61976000D02*
X49276000Y-61976000D01*
X53848000Y-72484000D02*
X53848000Y-71114000D01*
X53848000Y-71114000D02*
X53598000Y-70864000D01*
X84385500Y-76659500D02*
X80316000Y-80729000D01*
X80316000Y-80729000D02*
X80316000Y-82838000D01*
X73134000Y-92964000D02*
X71628000Y-92964000D01*
X60434000Y-88918000D02*
X60198000Y-89154000D01*
X60960000Y-88918000D02*
X60434000Y-88918000D01*
X55684000Y-85286000D02*
X55118000Y-85852000D01*
X56134000Y-85286000D02*
X55684000Y-85286000D01*
%TO.N,Net-(U3-FB)*%
X54864000Y-87122000D02*
X55938000Y-87122000D01*
X54356000Y-86614000D02*
X54864000Y-87122000D01*
X53660000Y-85410000D02*
X54356000Y-86106000D01*
X54356000Y-86106000D02*
X54356000Y-86614000D01*
X53354000Y-85410000D02*
X53660000Y-85410000D01*
X55938000Y-87122000D02*
X56134000Y-86926000D01*
%TO.N,GND*%
X52324000Y-86614000D02*
X52578000Y-86360000D01*
X52578000Y-86360000D02*
X53354000Y-86360000D01*
%TO.N,Net-(U3-FB)*%
X55770529Y-86926000D02*
X56134000Y-86926000D01*
%TO.N,GND*%
X59944000Y-68130000D02*
X59944000Y-69596000D01*
X56838000Y-59182000D02*
X55880000Y-59182000D01*
X61780000Y-60256000D02*
X61976000Y-60452000D01*
X61780000Y-59182000D02*
X61780000Y-60256000D01*
X52814000Y-60688000D02*
X52832000Y-60706000D01*
X52814000Y-59436000D02*
X52814000Y-60688000D01*
%TO.N,/VSYS*%
X55136000Y-64516000D02*
X55136000Y-66530000D01*
X55136000Y-66530000D02*
X55118000Y-66548000D01*
%TO.N,Net-(J2-D+)*%
X77616000Y-88408000D02*
X77616000Y-90408000D01*
%TO.N,Net-(U3-SW)*%
X57658000Y-93726000D02*
X55778000Y-93726000D01*
X55778000Y-93726000D02*
X55524000Y-93980000D01*
X66326000Y-74168000D02*
X64262000Y-76232000D01*
X64262000Y-76232000D02*
X64262000Y-77216000D01*
%TO.N,Net-(U2-SW)*%
X64008000Y-86868000D02*
X64516000Y-87376000D01*
X64008000Y-84328000D02*
X64008000Y-86868000D01*
X66580000Y-81756000D02*
X64008000Y-84328000D01*
X64648000Y-87244000D02*
X65412000Y-87244000D01*
X66580000Y-78486000D02*
X66580000Y-81756000D01*
X64516000Y-87376000D02*
X64648000Y-87244000D01*
X66344000Y-93980000D02*
X65412000Y-93048000D01*
X65412000Y-93048000D02*
X65412000Y-87244000D01*
%TO.N,/12 Vout*%
X88138000Y-58928000D02*
X83058000Y-58928000D01*
X83058000Y-58928000D02*
X70104000Y-71882000D01*
%TO.N,Net-(U4-V_{BAT_SENSE})*%
X54374000Y-59436000D02*
X54374000Y-60688000D01*
X54374000Y-60688000D02*
X54356000Y-60706000D01*
%TO.N,/5 Vout*%
X70580000Y-78486000D02*
X74168000Y-78486000D01*
X74168000Y-78486000D02*
X84328000Y-68326000D01*
X84328000Y-68326000D02*
X88138000Y-68326000D01*
X72136000Y-80042000D02*
X72136000Y-86106000D01*
X70580000Y-78486000D02*
X72136000Y-80042000D01*
X72136000Y-86106000D02*
X71062000Y-87180000D01*
X71062000Y-87180000D02*
X70358000Y-87180000D01*
X70416000Y-87180000D02*
X74676000Y-91440000D01*
X70358000Y-87180000D02*
X70416000Y-87180000D01*
X74676000Y-91440000D02*
X74676000Y-92946000D01*
X74676000Y-92946000D02*
X74694000Y-92964000D01*
X74694000Y-92964000D02*
X77560000Y-92964000D01*
X77560000Y-92964000D02*
X77616000Y-92908000D01*
%TO.N,Net-(U2-FB)*%
X68326000Y-85540000D02*
X65608000Y-85540000D01*
X65608000Y-85540000D02*
X65412000Y-85344000D01*
X70358000Y-85540000D02*
X68326000Y-85540000D01*
%TO.N,Net-(U2-IN)*%
X60724000Y-87358000D02*
X59436000Y-88646000D01*
X60960000Y-87358000D02*
X60724000Y-87358000D01*
X59436000Y-88646000D02*
X59436000Y-93472000D01*
X59436000Y-93472000D02*
X59944000Y-93980000D01*
X63112000Y-86294000D02*
X62024000Y-86294000D01*
X62024000Y-86294000D02*
X60960000Y-87358000D01*
%TO.N,/VSYS*%
X62230000Y-85344000D02*
X63112000Y-85344000D01*
X62230000Y-85344000D02*
X61722000Y-84836000D01*
X61722000Y-84836000D02*
X61722000Y-84582000D01*
%TO.N,/12 Vout*%
X70104000Y-73946000D02*
X70326000Y-74168000D01*
X70104000Y-71882000D02*
X70104000Y-73946000D01*
X56370000Y-83566000D02*
X56370000Y-82568000D01*
X56370000Y-82568000D02*
X57150000Y-81788000D01*
X56370000Y-83566000D02*
X56446000Y-83566000D01*
X56446000Y-83566000D02*
X58166000Y-85286000D01*
%TO.N,Net-(U3-FB)*%
X56134000Y-86926000D02*
X58166000Y-86926000D01*
%TO.N,Net-(U3-SW)*%
X53354000Y-87310000D02*
X55524000Y-89480000D01*
X55524000Y-89480000D02*
X55524000Y-93980000D01*
%TO.N,Net-(U3-IN)*%
X48006000Y-85580000D02*
X49258000Y-85580000D01*
X49258000Y-85580000D02*
X50038000Y-86360000D01*
X50038000Y-86360000D02*
X49124000Y-87274000D01*
X49124000Y-87274000D02*
X49124000Y-93980000D01*
X51054000Y-86360000D02*
X50038000Y-86360000D01*
%TO.N,Net-(U3-SW)*%
X55118000Y-93574000D02*
X55524000Y-93980000D01*
%TO.N,VBUS*%
X51308000Y-59182000D02*
X51308000Y-61450000D01*
X55374000Y-73660000D02*
X53872000Y-73660000D01*
X53872000Y-73660000D02*
X53848000Y-73684000D01*
X58428000Y-64394000D02*
X58428000Y-65778000D01*
X58428000Y-65778000D02*
X58420000Y-65786000D01*
X51308000Y-63246000D02*
X51308000Y-62502000D01*
X51308000Y-62502000D02*
X51834000Y-61976000D01*
%TO.N,Net-(D2-Pad1)*%
X68580000Y-62230000D02*
X68326000Y-62484000D01*
X71628000Y-62230000D02*
X68580000Y-62230000D01*
X75870000Y-60960000D02*
X72898000Y-60960000D01*
X77470000Y-59360000D02*
X75870000Y-60960000D01*
X72898000Y-60960000D02*
X71628000Y-62230000D01*
X68326000Y-62484000D02*
X68326000Y-62542000D01*
X68326000Y-62542000D02*
X66352000Y-64516000D01*
%TO.N,Net-(D3-Pad1)*%
X66352000Y-62484000D02*
X67056000Y-62484000D01*
X72136000Y-60960000D02*
X73736000Y-59360000D01*
X67056000Y-62484000D02*
X68580000Y-60960000D01*
X73736000Y-59360000D02*
X74168000Y-59360000D01*
X68580000Y-60960000D02*
X72136000Y-60960000D01*
%TO.N,VBUS*%
X64135000Y-58293000D02*
X64948000Y-57480000D01*
X64948000Y-57480000D02*
X70866000Y-57480000D01*
%TO.N,Net-(D1-Pad1)*%
X66352000Y-60452000D02*
X69774000Y-60452000D01*
X69774000Y-60452000D02*
X70866000Y-59360000D01*
%TO.N,VBUS*%
X53848000Y-76684000D02*
X51540000Y-76684000D01*
X51056000Y-74168000D02*
X51564000Y-73660000D01*
X51540000Y-76684000D02*
X51056000Y-76200000D01*
X51056000Y-76200000D02*
X51056000Y-74168000D01*
X51564000Y-73660000D02*
X53824000Y-73660000D01*
X53824000Y-73660000D02*
X53848000Y-73684000D01*
X59428000Y-64394000D02*
X58928000Y-64394000D01*
X58928000Y-64394000D02*
X58428000Y-64394000D01*
X54126000Y-73406000D02*
X53848000Y-73684000D01*
X52197000Y-58293000D02*
X51308000Y-59182000D01*
X63500000Y-58928000D02*
X64135000Y-58293000D01*
X51308000Y-61450000D02*
X51834000Y-61976000D01*
X64135000Y-58293000D02*
X52197000Y-58293000D01*
%TO.N,Net-(U4-PROG3)*%
X60140000Y-59182000D02*
X60140000Y-59240000D01*
X60140000Y-59240000D02*
X59428000Y-59952000D01*
X59428000Y-59952000D02*
X59428000Y-60574000D01*
%TO.N,Net-(U4-PROG1)*%
X58478000Y-59240000D02*
X58928000Y-59690000D01*
X58478000Y-59182000D02*
X58478000Y-59240000D01*
X58928000Y-59690000D02*
X58928000Y-60574000D01*
%TO.N,Net-(U4-V_{BAT_SENSE})*%
X58428000Y-60574000D02*
X57928000Y-60574000D01*
X54970000Y-59436000D02*
X56108000Y-60574000D01*
X57928000Y-60574000D02*
X56108000Y-60574000D01*
X54374000Y-59436000D02*
X54970000Y-59436000D01*
X56108000Y-60574000D02*
X57018000Y-61484000D01*
%TO.N,VBUS*%
X74168000Y-57480000D02*
X77470000Y-57480000D01*
X70866000Y-57480000D02*
X74168000Y-57480000D01*
X60838000Y-61984000D02*
X62730000Y-61984000D01*
X62730000Y-61984000D02*
X63500000Y-61214000D01*
X63500000Y-61214000D02*
X63500000Y-58928000D01*
X70688000Y-57658000D02*
X70866000Y-57480000D01*
%TO.N,Net-(U4-STAT1{slash}~{LBO})*%
X64712000Y-61018000D02*
X63246000Y-62484000D01*
X64712000Y-60452000D02*
X64712000Y-61018000D01*
X63246000Y-62484000D02*
X60838000Y-62484000D01*
%TO.N,Net-(U4-STAT2)*%
X64008000Y-62484000D02*
X63500000Y-62992000D01*
X64712000Y-62484000D02*
X64008000Y-62484000D01*
X63500000Y-62992000D02*
X60846000Y-62992000D01*
X60846000Y-62992000D02*
X60838000Y-62984000D01*
%TO.N,Net-(U4-~{PG})*%
X64712000Y-64516000D02*
X63680000Y-63484000D01*
X63680000Y-63484000D02*
X60838000Y-63484000D01*
%TO.N,Net-(U4-THERM)*%
X59944000Y-66490000D02*
X59944000Y-64410000D01*
X59944000Y-64410000D02*
X59928000Y-64394000D01*
%TO.N,Net-(U4-PROG3)*%
X59436000Y-60566000D02*
X59428000Y-60574000D01*
%TO.N,/VSYS*%
X57928000Y-64394000D02*
X55258000Y-64394000D01*
X55258000Y-64394000D02*
X55136000Y-64516000D01*
X57018000Y-63484000D02*
X56168000Y-63484000D01*
X56168000Y-63484000D02*
X55136000Y-64516000D01*
%TO.N,VBUS*%
X57018000Y-62984000D02*
X52842000Y-62984000D01*
X52842000Y-62984000D02*
X51834000Y-61976000D01*
X57018000Y-62484000D02*
X52342000Y-62484000D01*
X52342000Y-62484000D02*
X51834000Y-61976000D01*
X57018000Y-61984000D02*
X51842000Y-61984000D01*
X51842000Y-61984000D02*
X51834000Y-61976000D01*
X53848000Y-76684000D02*
X55848500Y-76684000D01*
X55848500Y-76684000D02*
X57396500Y-78232000D01*
%TO.N,Net-(J1-CC2)*%
X53848000Y-75684000D02*
X56586500Y-75684000D01*
X56586500Y-75684000D02*
X57356500Y-76454000D01*
%TO.N,Net-(J1-CC1)*%
X53848000Y-74684000D02*
X57348500Y-74684000D01*
X57348500Y-74684000D02*
X57356500Y-74676000D01*
%TO.N,/VSYS*%
X51054000Y-84836000D02*
X51054000Y-85410000D01*
X52070000Y-83820000D02*
X51054000Y-84836000D01*
%TD*%
%TA.AperFunction,Conductor*%
%TO.N,GND*%
G36*
X70012411Y-56400185D02*
G01*
X70058166Y-56452989D01*
X70068110Y-56522147D01*
X70039085Y-56585703D01*
X70010470Y-56610038D01*
X69944528Y-56650711D01*
X69821713Y-56773526D01*
X69821712Y-56773528D01*
X69792678Y-56820598D01*
X69740732Y-56867321D01*
X69687141Y-56879500D01*
X65034670Y-56879500D01*
X65034654Y-56879499D01*
X65027058Y-56879499D01*
X64868943Y-56879499D01*
X64792579Y-56899961D01*
X64716214Y-56920423D01*
X64716209Y-56920426D01*
X64579290Y-56999475D01*
X64579282Y-56999481D01*
X63922584Y-57656181D01*
X63861261Y-57689666D01*
X63834903Y-57692500D01*
X52283669Y-57692500D01*
X52283653Y-57692499D01*
X52276057Y-57692499D01*
X52117943Y-57692499D01*
X52010587Y-57721265D01*
X51965210Y-57733424D01*
X51965209Y-57733425D01*
X51915096Y-57762359D01*
X51915095Y-57762360D01*
X51871689Y-57787420D01*
X51828285Y-57812479D01*
X51828282Y-57812481D01*
X50827481Y-58813282D01*
X50827475Y-58813290D01*
X50781168Y-58893498D01*
X50781168Y-58893499D01*
X50748423Y-58950214D01*
X50748423Y-58950215D01*
X50707499Y-59102943D01*
X50707499Y-59102945D01*
X50707499Y-59271046D01*
X50707500Y-59271059D01*
X50707500Y-60880051D01*
X50687815Y-60947090D01*
X50635011Y-60992845D01*
X50570898Y-61003409D01*
X50547324Y-61001000D01*
X50524000Y-61001000D01*
X50524000Y-62971589D01*
X50532718Y-62987555D01*
X50533170Y-63038104D01*
X50507500Y-63167159D01*
X50507500Y-63324846D01*
X50538261Y-63479489D01*
X50538264Y-63479501D01*
X50598602Y-63625172D01*
X50598609Y-63625185D01*
X50686210Y-63756288D01*
X50686213Y-63756292D01*
X50797707Y-63867786D01*
X50797711Y-63867789D01*
X50928814Y-63955390D01*
X50928827Y-63955397D01*
X51074498Y-64015735D01*
X51074503Y-64015737D01*
X51229153Y-64046499D01*
X51229156Y-64046500D01*
X51229158Y-64046500D01*
X51386844Y-64046500D01*
X51386845Y-64046499D01*
X51541497Y-64015737D01*
X51687179Y-63955394D01*
X51818289Y-63867789D01*
X51929789Y-63756289D01*
X52017394Y-63625179D01*
X52077737Y-63479497D01*
X52100589Y-63364611D01*
X52105298Y-63355607D01*
X52106024Y-63345469D01*
X52121220Y-63325169D01*
X52132973Y-63302701D01*
X52141805Y-63297671D01*
X52147896Y-63289536D01*
X52171653Y-63280674D01*
X52193689Y-63268127D01*
X52203837Y-63268670D01*
X52213360Y-63265119D01*
X52238137Y-63270509D01*
X52263458Y-63271866D01*
X52273519Y-63278206D01*
X52281633Y-63279971D01*
X52309887Y-63301122D01*
X52357139Y-63348374D01*
X52357149Y-63348385D01*
X52361479Y-63352715D01*
X52361480Y-63352716D01*
X52473284Y-63464520D01*
X52560095Y-63514639D01*
X52610215Y-63543577D01*
X52753111Y-63581865D01*
X52757945Y-63583602D01*
X52782175Y-63601284D01*
X52807782Y-63616893D01*
X52810099Y-63621663D01*
X52814384Y-63624790D01*
X52825206Y-63652760D01*
X52838312Y-63679739D01*
X52837682Y-63685005D01*
X52839596Y-63689952D01*
X52833578Y-63719333D01*
X52830018Y-63749115D01*
X52826377Y-63754494D01*
X52825577Y-63758401D01*
X52819561Y-63764564D01*
X52803712Y-63787983D01*
X52778424Y-63813271D01*
X52689457Y-63957507D01*
X52689452Y-63957518D01*
X52636144Y-64118393D01*
X52626000Y-64217677D01*
X52626000Y-64266000D01*
X53452000Y-64266000D01*
X53519039Y-64285685D01*
X53564794Y-64338489D01*
X53576000Y-64390000D01*
X53576000Y-64516000D01*
X53702000Y-64516000D01*
X53769039Y-64535685D01*
X53814794Y-64588489D01*
X53826000Y-64640000D01*
X53826000Y-65490999D01*
X53849308Y-65490999D01*
X53849322Y-65490998D01*
X53948607Y-65480855D01*
X54109481Y-65427547D01*
X54109492Y-65427542D01*
X54253729Y-65338575D01*
X54267960Y-65324343D01*
X54269346Y-65323586D01*
X54270136Y-65322220D01*
X54299898Y-65306901D01*
X54329282Y-65290855D01*
X54330856Y-65290967D01*
X54332260Y-65290245D01*
X54365584Y-65293449D01*
X54398974Y-65295836D01*
X54400743Y-65296830D01*
X54401808Y-65296933D01*
X54406861Y-65300268D01*
X54432362Y-65314600D01*
X54438130Y-65319142D01*
X54457956Y-65338968D01*
X54482642Y-65354194D01*
X54488216Y-65358584D01*
X54504513Y-65381502D01*
X54523321Y-65402412D01*
X54525170Y-65410552D01*
X54528707Y-65415525D01*
X54529333Y-65428870D01*
X54535500Y-65456004D01*
X54535500Y-65947059D01*
X54515815Y-66014098D01*
X54499181Y-66034740D01*
X54496213Y-66037707D01*
X54496210Y-66037711D01*
X54408609Y-66168814D01*
X54408602Y-66168827D01*
X54348264Y-66314498D01*
X54348261Y-66314510D01*
X54317500Y-66469153D01*
X54317500Y-66626846D01*
X54348261Y-66781489D01*
X54348264Y-66781501D01*
X54408602Y-66927172D01*
X54408609Y-66927185D01*
X54496210Y-67058288D01*
X54496213Y-67058292D01*
X54607707Y-67169786D01*
X54607711Y-67169789D01*
X54738814Y-67257390D01*
X54738827Y-67257397D01*
X54884498Y-67317735D01*
X54884503Y-67317737D01*
X55039153Y-67348499D01*
X55039156Y-67348500D01*
X55039158Y-67348500D01*
X55196844Y-67348500D01*
X55196845Y-67348499D01*
X55351497Y-67317737D01*
X55497179Y-67257394D01*
X55628289Y-67169789D01*
X55739789Y-67058289D01*
X55827394Y-66927179D01*
X55828090Y-66925500D01*
X55887735Y-66781501D01*
X55887737Y-66781497D01*
X55918500Y-66626842D01*
X55918500Y-66469158D01*
X55918500Y-66469155D01*
X55918499Y-66469153D01*
X55887738Y-66314510D01*
X55887737Y-66314503D01*
X55880192Y-66296288D01*
X55827397Y-66168827D01*
X55827390Y-66168814D01*
X55757398Y-66064064D01*
X55736520Y-65997387D01*
X55736500Y-65995173D01*
X55736500Y-65456004D01*
X55756185Y-65388965D01*
X55795403Y-65350465D01*
X55814044Y-65338968D01*
X55933968Y-65219044D01*
X56023003Y-65074697D01*
X56026058Y-65068147D01*
X56028489Y-65069280D01*
X56061173Y-65022061D01*
X56125686Y-64995230D01*
X56139119Y-64994500D01*
X57303222Y-64994500D01*
X57370261Y-65014185D01*
X57402489Y-65044190D01*
X57430449Y-65081541D01*
X57430452Y-65081544D01*
X57430454Y-65081546D01*
X57430457Y-65081548D01*
X57545664Y-65167793D01*
X57545671Y-65167797D01*
X57658713Y-65209959D01*
X57714647Y-65251830D01*
X57739064Y-65317294D01*
X57724212Y-65385567D01*
X57718484Y-65395030D01*
X57710607Y-65406818D01*
X57710602Y-65406827D01*
X57650264Y-65552498D01*
X57650261Y-65552510D01*
X57619500Y-65707153D01*
X57619500Y-65864846D01*
X57650261Y-66019489D01*
X57650264Y-66019501D01*
X57710602Y-66165172D01*
X57710609Y-66165185D01*
X57798210Y-66296288D01*
X57798213Y-66296292D01*
X57909707Y-66407786D01*
X57909711Y-66407789D01*
X58040814Y-66495390D01*
X58040827Y-66495397D01*
X58186498Y-66555735D01*
X58186503Y-66555737D01*
X58341153Y-66586499D01*
X58341156Y-66586500D01*
X58341158Y-66586500D01*
X58498844Y-66586500D01*
X58498845Y-66586499D01*
X58653497Y-66555737D01*
X58739574Y-66520083D01*
X58797048Y-66496277D01*
X58866517Y-66488808D01*
X58928996Y-66520083D01*
X58964648Y-66580172D01*
X58968500Y-66610838D01*
X58968500Y-66746613D01*
X58974913Y-66817192D01*
X59025522Y-66979606D01*
X59113530Y-67125188D01*
X59211015Y-67222673D01*
X59244500Y-67283996D01*
X59239516Y-67353688D01*
X59211015Y-67398035D01*
X59113928Y-67495121D01*
X59113927Y-67495122D01*
X59025980Y-67640604D01*
X58975409Y-67802893D01*
X58969000Y-67873427D01*
X58969000Y-67880000D01*
X60918999Y-67880000D01*
X60918999Y-67873417D01*
X60912591Y-67802897D01*
X60912590Y-67802892D01*
X60862018Y-67640603D01*
X60774072Y-67495122D01*
X60676984Y-67398034D01*
X60643499Y-67336711D01*
X60648483Y-67267019D01*
X60676983Y-67222673D01*
X60774472Y-67125185D01*
X60862478Y-66979606D01*
X60913086Y-66817196D01*
X60919500Y-66746616D01*
X60919500Y-66233384D01*
X60913086Y-66162804D01*
X60862478Y-66000394D01*
X60774472Y-65854815D01*
X60774470Y-65854813D01*
X60774469Y-65854811D01*
X60654188Y-65734530D01*
X60604348Y-65704400D01*
X60557162Y-65652871D01*
X60544500Y-65598284D01*
X60544500Y-64901018D01*
X60552318Y-64857685D01*
X60562091Y-64831483D01*
X60568500Y-64771873D01*
X60568499Y-64303181D01*
X60588183Y-64236143D01*
X60604818Y-64215501D01*
X60659501Y-64160818D01*
X60682691Y-64148155D01*
X60703848Y-64132317D01*
X60715569Y-64130202D01*
X60720824Y-64127333D01*
X60728450Y-64127878D01*
X60747182Y-64124499D01*
X61215871Y-64124499D01*
X61215872Y-64124499D01*
X61275483Y-64118091D01*
X61344584Y-64092318D01*
X61387917Y-64084500D01*
X63379903Y-64084500D01*
X63446942Y-64104185D01*
X63467584Y-64120819D01*
X63775181Y-64428416D01*
X63808666Y-64489739D01*
X63811500Y-64516097D01*
X63811500Y-64847613D01*
X63817913Y-64918192D01*
X63817913Y-64918194D01*
X63817914Y-64918196D01*
X63868522Y-65080606D01*
X63955509Y-65224500D01*
X63956530Y-65226188D01*
X64076811Y-65346469D01*
X64076813Y-65346470D01*
X64076815Y-65346472D01*
X64222394Y-65434478D01*
X64384804Y-65485086D01*
X64455384Y-65491500D01*
X64455387Y-65491500D01*
X64968613Y-65491500D01*
X64968616Y-65491500D01*
X65039196Y-65485086D01*
X65201606Y-65434478D01*
X65347185Y-65346472D01*
X65393389Y-65300268D01*
X65444319Y-65249339D01*
X65505642Y-65215854D01*
X65575334Y-65220838D01*
X65619681Y-65249339D01*
X65716811Y-65346469D01*
X65716813Y-65346470D01*
X65716815Y-65346472D01*
X65862394Y-65434478D01*
X66024804Y-65485086D01*
X66095384Y-65491500D01*
X66095387Y-65491500D01*
X66608613Y-65491500D01*
X66608616Y-65491500D01*
X66679196Y-65485086D01*
X66841606Y-65434478D01*
X66987185Y-65346472D01*
X67107472Y-65226185D01*
X67195478Y-65080606D01*
X67246086Y-64918196D01*
X67252500Y-64847616D01*
X67252500Y-64516097D01*
X67272185Y-64449058D01*
X67288819Y-64428416D01*
X68027283Y-63689952D01*
X68806520Y-62910716D01*
X68817036Y-62892500D01*
X68867603Y-62844285D01*
X68924424Y-62830500D01*
X71541331Y-62830500D01*
X71541347Y-62830501D01*
X71548943Y-62830501D01*
X71707054Y-62830501D01*
X71707057Y-62830501D01*
X71859785Y-62789577D01*
X71859787Y-62789575D01*
X71859789Y-62789575D01*
X71859790Y-62789574D01*
X71910640Y-62760216D01*
X71910641Y-62760215D01*
X71996716Y-62710520D01*
X72108520Y-62598716D01*
X72108520Y-62598714D01*
X72118724Y-62588511D01*
X72118727Y-62588506D01*
X73110416Y-61596819D01*
X73171739Y-61563334D01*
X73198097Y-61560500D01*
X75783331Y-61560500D01*
X75783347Y-61560501D01*
X75790943Y-61560501D01*
X75949054Y-61560501D01*
X75949057Y-61560501D01*
X76101785Y-61519577D01*
X76159155Y-61486454D01*
X76238716Y-61440520D01*
X76350520Y-61328716D01*
X76350520Y-61328714D01*
X76360724Y-61318511D01*
X76360727Y-61318506D01*
X77297417Y-60381819D01*
X77358740Y-60348334D01*
X77385098Y-60345500D01*
X77977005Y-60345500D01*
X77977010Y-60345500D01*
X78078770Y-60335104D01*
X78243643Y-60280471D01*
X78391472Y-60189288D01*
X78514288Y-60066472D01*
X78605471Y-59918643D01*
X78660104Y-59753770D01*
X78670500Y-59652010D01*
X78670500Y-59067990D01*
X78660104Y-58966230D01*
X78605471Y-58801357D01*
X78605467Y-58801351D01*
X78605466Y-58801348D01*
X78514290Y-58653531D01*
X78514287Y-58653527D01*
X78391472Y-58530712D01*
X78383084Y-58525538D01*
X78336360Y-58473592D01*
X78325137Y-58404630D01*
X78352980Y-58340547D01*
X78383083Y-58314462D01*
X78391472Y-58309288D01*
X78514288Y-58186472D01*
X78605471Y-58038643D01*
X78660104Y-57873770D01*
X78670500Y-57772010D01*
X78670500Y-57187990D01*
X78660104Y-57086230D01*
X78605471Y-56921357D01*
X78605467Y-56921351D01*
X78605466Y-56921348D01*
X78514290Y-56773531D01*
X78514287Y-56773527D01*
X78391471Y-56650711D01*
X78325530Y-56610038D01*
X78278806Y-56558090D01*
X78267585Y-56489127D01*
X78295428Y-56425045D01*
X78353497Y-56386190D01*
X78390628Y-56380500D01*
X90307500Y-56380500D01*
X90374539Y-56400185D01*
X90420294Y-56452989D01*
X90431500Y-56504500D01*
X90431500Y-97673500D01*
X90411815Y-97740539D01*
X90359011Y-97786294D01*
X90307500Y-97797500D01*
X81735052Y-97797500D01*
X81668013Y-97777815D01*
X81622258Y-97725011D01*
X81611317Y-97665390D01*
X81613686Y-97629239D01*
X80934541Y-96950095D01*
X81065182Y-96855179D01*
X81193179Y-96727182D01*
X81288095Y-96596541D01*
X81967239Y-97275686D01*
X81967241Y-97275686D01*
X82065825Y-97147211D01*
X82065836Y-97147194D01*
X82203472Y-96908802D01*
X82203479Y-96908787D01*
X82308819Y-96654471D01*
X82380069Y-96388565D01*
X82416000Y-96115641D01*
X82416000Y-95840358D01*
X82380069Y-95567434D01*
X82308819Y-95301528D01*
X82203479Y-95047212D01*
X82203472Y-95047197D01*
X82065836Y-94808804D01*
X81967240Y-94680312D01*
X81288094Y-95359457D01*
X81193179Y-95228818D01*
X81065182Y-95100821D01*
X80934541Y-95005904D01*
X81613686Y-94326758D01*
X81485196Y-94228163D01*
X81246802Y-94090527D01*
X81246787Y-94090520D01*
X80992471Y-93985180D01*
X80726565Y-93913930D01*
X80453642Y-93878000D01*
X80178358Y-93878000D01*
X79905434Y-93913930D01*
X79639528Y-93985180D01*
X79385212Y-94090520D01*
X79385197Y-94090527D01*
X79146799Y-94228166D01*
X79018312Y-94326757D01*
X79018312Y-94326758D01*
X79697458Y-95005904D01*
X79566818Y-95100821D01*
X79438821Y-95228818D01*
X79343904Y-95359458D01*
X78664758Y-94680312D01*
X78664757Y-94680312D01*
X78566166Y-94808799D01*
X78428527Y-95047197D01*
X78428520Y-95047212D01*
X78323180Y-95301528D01*
X78251930Y-95567434D01*
X78216000Y-95840358D01*
X78216000Y-96115641D01*
X78251930Y-96388565D01*
X78323180Y-96654471D01*
X78428520Y-96908787D01*
X78428527Y-96908802D01*
X78566163Y-97147196D01*
X78664758Y-97275686D01*
X79343903Y-96596540D01*
X79438821Y-96727182D01*
X79566818Y-96855179D01*
X79697458Y-96950094D01*
X79018311Y-97629241D01*
X79020681Y-97665390D01*
X79005424Y-97733573D01*
X78955725Y-97782684D01*
X78896947Y-97797500D01*
X47614500Y-97797500D01*
X47547461Y-97777815D01*
X47501706Y-97725011D01*
X47490500Y-97673500D01*
X47490500Y-88205125D01*
X47510185Y-88138086D01*
X47562989Y-88092331D01*
X47627103Y-88081767D01*
X47707683Y-88089999D01*
X47755999Y-88089998D01*
X47756000Y-88089998D01*
X47756000Y-87264000D01*
X47775685Y-87196961D01*
X47828489Y-87151206D01*
X47880000Y-87140000D01*
X48132000Y-87140000D01*
X48199039Y-87159685D01*
X48244794Y-87212489D01*
X48256000Y-87264000D01*
X48256000Y-88089999D01*
X48304308Y-88089999D01*
X48304320Y-88089998D01*
X48386897Y-88081562D01*
X48455590Y-88094331D01*
X48506475Y-88142211D01*
X48523500Y-88204920D01*
X48523500Y-92255500D01*
X48503815Y-92322539D01*
X48451011Y-92368294D01*
X48399501Y-92379500D01*
X48276130Y-92379500D01*
X48276123Y-92379501D01*
X48216516Y-92385908D01*
X48081671Y-92436202D01*
X48081664Y-92436206D01*
X47966455Y-92522452D01*
X47966452Y-92522455D01*
X47880206Y-92637664D01*
X47880202Y-92637671D01*
X47829908Y-92772517D01*
X47826009Y-92808790D01*
X47823501Y-92832123D01*
X47823500Y-92832135D01*
X47823500Y-95127870D01*
X47823501Y-95127876D01*
X47829908Y-95187483D01*
X47880202Y-95322328D01*
X47880206Y-95322335D01*
X47966452Y-95437544D01*
X47966455Y-95437547D01*
X48081664Y-95523793D01*
X48081671Y-95523797D01*
X48216517Y-95574091D01*
X48216516Y-95574091D01*
X48223444Y-95574835D01*
X48276127Y-95580500D01*
X49971872Y-95580499D01*
X50031483Y-95574091D01*
X50166331Y-95523796D01*
X50281546Y-95437546D01*
X50367796Y-95322331D01*
X50418091Y-95187483D01*
X50424500Y-95127873D01*
X50424499Y-92832128D01*
X50418091Y-92772517D01*
X50378242Y-92665677D01*
X50367797Y-92637671D01*
X50367793Y-92637664D01*
X50281547Y-92522455D01*
X50281544Y-92522452D01*
X50166335Y-92436206D01*
X50166328Y-92436202D01*
X50031482Y-92385908D01*
X50031483Y-92385908D01*
X49971883Y-92379501D01*
X49971881Y-92379500D01*
X49971873Y-92379500D01*
X49971865Y-92379500D01*
X49848500Y-92379500D01*
X49781461Y-92359815D01*
X49735706Y-92307011D01*
X49724500Y-92255500D01*
X49724500Y-87574096D01*
X49733143Y-87544659D01*
X49739667Y-87514670D01*
X49743422Y-87509653D01*
X49744185Y-87507057D01*
X49760814Y-87486420D01*
X49806821Y-87440412D01*
X49868141Y-87406929D01*
X49937832Y-87411913D01*
X49993766Y-87453783D01*
X50018184Y-87519248D01*
X50018500Y-87528094D01*
X50018500Y-87622869D01*
X50018501Y-87622876D01*
X50024908Y-87682483D01*
X50075202Y-87817328D01*
X50075206Y-87817335D01*
X50161452Y-87932544D01*
X50161455Y-87932547D01*
X50276664Y-88018793D01*
X50276671Y-88018797D01*
X50411517Y-88069091D01*
X50411516Y-88069091D01*
X50418444Y-88069835D01*
X50471127Y-88075500D01*
X51636872Y-88075499D01*
X51696483Y-88069091D01*
X51831331Y-88018796D01*
X51946546Y-87932546D01*
X52032796Y-87817331D01*
X52083091Y-87682483D01*
X52083092Y-87682470D01*
X52083319Y-87681515D01*
X52083705Y-87680836D01*
X52085802Y-87675215D01*
X52086712Y-87675554D01*
X52117885Y-87620795D01*
X52179792Y-87588402D01*
X52249384Y-87594620D01*
X52304567Y-87637476D01*
X52321864Y-87675339D01*
X52322198Y-87675215D01*
X52323935Y-87679874D01*
X52324673Y-87681488D01*
X52324907Y-87682478D01*
X52375202Y-87817328D01*
X52375206Y-87817335D01*
X52461452Y-87932544D01*
X52461455Y-87932547D01*
X52576664Y-88018793D01*
X52576671Y-88018797D01*
X52621618Y-88035561D01*
X52711517Y-88069091D01*
X52771127Y-88075500D01*
X53218902Y-88075499D01*
X53285941Y-88095183D01*
X53306583Y-88111818D01*
X54887181Y-89692416D01*
X54920666Y-89753739D01*
X54923500Y-89780097D01*
X54923500Y-92255500D01*
X54903815Y-92322539D01*
X54851011Y-92368294D01*
X54799501Y-92379500D01*
X54676130Y-92379500D01*
X54676123Y-92379501D01*
X54616516Y-92385908D01*
X54481671Y-92436202D01*
X54481664Y-92436206D01*
X54366455Y-92522452D01*
X54366452Y-92522455D01*
X54280206Y-92637664D01*
X54280202Y-92637671D01*
X54229908Y-92772517D01*
X54226009Y-92808790D01*
X54223501Y-92832123D01*
X54223500Y-92832135D01*
X54223500Y-95127870D01*
X54223501Y-95127876D01*
X54229908Y-95187483D01*
X54280202Y-95322328D01*
X54280206Y-95322335D01*
X54366452Y-95437544D01*
X54366455Y-95437547D01*
X54481664Y-95523793D01*
X54481671Y-95523797D01*
X54616517Y-95574091D01*
X54616516Y-95574091D01*
X54623444Y-95574835D01*
X54676127Y-95580500D01*
X56371872Y-95580499D01*
X56431483Y-95574091D01*
X56566331Y-95523796D01*
X56681546Y-95437546D01*
X56767796Y-95322331D01*
X56818091Y-95187483D01*
X56824500Y-95127873D01*
X56824500Y-94450500D01*
X56827050Y-94441814D01*
X56825762Y-94432853D01*
X56836740Y-94408812D01*
X56844185Y-94383461D01*
X56851025Y-94377533D01*
X56854787Y-94369297D01*
X56877021Y-94355007D01*
X56896989Y-94337706D01*
X56907503Y-94335418D01*
X56913565Y-94331523D01*
X56948500Y-94326500D01*
X57078234Y-94326500D01*
X57145273Y-94346185D01*
X57147125Y-94347398D01*
X57278814Y-94435390D01*
X57278827Y-94435397D01*
X57424498Y-94495735D01*
X57424503Y-94495737D01*
X57579153Y-94526499D01*
X57579156Y-94526500D01*
X57579158Y-94526500D01*
X57736844Y-94526500D01*
X57736845Y-94526499D01*
X57891497Y-94495737D01*
X58037179Y-94435394D01*
X58168289Y-94347789D01*
X58279789Y-94236289D01*
X58367394Y-94105179D01*
X58404940Y-94014532D01*
X58448779Y-93960133D01*
X58515073Y-93938067D01*
X58582772Y-93955346D01*
X58630383Y-94006482D01*
X58643500Y-94061988D01*
X58643500Y-95127870D01*
X58643501Y-95127876D01*
X58649908Y-95187483D01*
X58700202Y-95322328D01*
X58700206Y-95322335D01*
X58786452Y-95437544D01*
X58786455Y-95437547D01*
X58901664Y-95523793D01*
X58901671Y-95523797D01*
X59036517Y-95574091D01*
X59036516Y-95574091D01*
X59043444Y-95574835D01*
X59096127Y-95580500D01*
X60791872Y-95580499D01*
X60851483Y-95574091D01*
X60986331Y-95523796D01*
X61101546Y-95437546D01*
X61187796Y-95322331D01*
X61238091Y-95187483D01*
X61244500Y-95127873D01*
X61244499Y-92832128D01*
X61238091Y-92772517D01*
X61198242Y-92665677D01*
X61187797Y-92637671D01*
X61187793Y-92637664D01*
X61101547Y-92522455D01*
X61101544Y-92522452D01*
X60986335Y-92436206D01*
X60986328Y-92436202D01*
X60851482Y-92385908D01*
X60851483Y-92385908D01*
X60791883Y-92379501D01*
X60791881Y-92379500D01*
X60791873Y-92379500D01*
X60791865Y-92379500D01*
X60160500Y-92379500D01*
X60093461Y-92359815D01*
X60047706Y-92307011D01*
X60036500Y-92255500D01*
X60036500Y-89794167D01*
X60056185Y-89727128D01*
X60108989Y-89681373D01*
X60178147Y-89671429D01*
X60241703Y-89700454D01*
X60248181Y-89706486D01*
X60257267Y-89715572D01*
X60257271Y-89715575D01*
X60401507Y-89804542D01*
X60401518Y-89804547D01*
X60562393Y-89857855D01*
X60661683Y-89867999D01*
X61210000Y-89867999D01*
X61258308Y-89867999D01*
X61258322Y-89867998D01*
X61357607Y-89857855D01*
X61518481Y-89804547D01*
X61518492Y-89804542D01*
X61662728Y-89715575D01*
X61662732Y-89715572D01*
X61782572Y-89595732D01*
X61782575Y-89595728D01*
X61871542Y-89451492D01*
X61871547Y-89451481D01*
X61924855Y-89290606D01*
X61934999Y-89191322D01*
X61935000Y-89191309D01*
X61935000Y-89168000D01*
X61210000Y-89168000D01*
X61210000Y-89867999D01*
X60661683Y-89867999D01*
X60709999Y-89867998D01*
X60710000Y-89867998D01*
X60710000Y-89042000D01*
X60729685Y-88974961D01*
X60782489Y-88929206D01*
X60834000Y-88918000D01*
X60960000Y-88918000D01*
X60960000Y-88792000D01*
X60979685Y-88724961D01*
X61032489Y-88679206D01*
X61084000Y-88668000D01*
X61934999Y-88668000D01*
X61934999Y-88644692D01*
X61934998Y-88644677D01*
X61924855Y-88545392D01*
X61871547Y-88384518D01*
X61871542Y-88384507D01*
X61782575Y-88240271D01*
X61782572Y-88240267D01*
X61768339Y-88226034D01*
X61734854Y-88164711D01*
X61739838Y-88095019D01*
X61768339Y-88050672D01*
X61782968Y-88036044D01*
X61790720Y-88023477D01*
X61871998Y-87891705D01*
X61871997Y-87891705D01*
X61872003Y-87891697D01*
X61909829Y-87777544D01*
X61949600Y-87720101D01*
X62014116Y-87693278D01*
X62082892Y-87705593D01*
X62126013Y-87745634D01*
X62127888Y-87744231D01*
X62219452Y-87866544D01*
X62219455Y-87866547D01*
X62334664Y-87952793D01*
X62334671Y-87952797D01*
X62469517Y-88003091D01*
X62469516Y-88003091D01*
X62476444Y-88003835D01*
X62529127Y-88009500D01*
X63694872Y-88009499D01*
X63754483Y-88003091D01*
X63889331Y-87952796D01*
X64004546Y-87866546D01*
X64004545Y-87866546D01*
X64008782Y-87863375D01*
X64074246Y-87838957D01*
X64142519Y-87853808D01*
X64145094Y-87855254D01*
X64147282Y-87856517D01*
X64147284Y-87856519D01*
X64284215Y-87935577D01*
X64436943Y-87976501D01*
X64436946Y-87976501D01*
X64595057Y-87976501D01*
X64616801Y-87970674D01*
X64637504Y-87971165D01*
X64657744Y-87966763D01*
X64682944Y-87972245D01*
X64686650Y-87972333D01*
X64692231Y-87974265D01*
X64711613Y-87981494D01*
X64730832Y-87988662D01*
X64786766Y-88030533D01*
X64811184Y-88095997D01*
X64811500Y-88104844D01*
X64811500Y-92961330D01*
X64811499Y-92961348D01*
X64811499Y-93127054D01*
X64811498Y-93127054D01*
X64811499Y-93127057D01*
X64852423Y-93279785D01*
X64872591Y-93314716D01*
X64899663Y-93361607D01*
X64931479Y-93416715D01*
X65007181Y-93492417D01*
X65040666Y-93553740D01*
X65043500Y-93580098D01*
X65043500Y-95127870D01*
X65043501Y-95127876D01*
X65049908Y-95187483D01*
X65100202Y-95322328D01*
X65100206Y-95322335D01*
X65186452Y-95437544D01*
X65186455Y-95437547D01*
X65301664Y-95523793D01*
X65301671Y-95523797D01*
X65436517Y-95574091D01*
X65436516Y-95574091D01*
X65443444Y-95574835D01*
X65496127Y-95580500D01*
X67191872Y-95580499D01*
X67251483Y-95574091D01*
X67386331Y-95523796D01*
X67501546Y-95437546D01*
X67587796Y-95322331D01*
X67638091Y-95187483D01*
X67644500Y-95127873D01*
X67644499Y-93960133D01*
X67644499Y-93262322D01*
X72184001Y-93262322D01*
X72194144Y-93361607D01*
X72247452Y-93522481D01*
X72247457Y-93522492D01*
X72336424Y-93666728D01*
X72336427Y-93666732D01*
X72456267Y-93786572D01*
X72456271Y-93786575D01*
X72600507Y-93875542D01*
X72600518Y-93875547D01*
X72761393Y-93928855D01*
X72860683Y-93938999D01*
X72884000Y-93938998D01*
X72884000Y-93214000D01*
X72184001Y-93214000D01*
X72184001Y-93262322D01*
X67644499Y-93262322D01*
X67644499Y-93162638D01*
X67644499Y-92832129D01*
X67644498Y-92832123D01*
X67644497Y-92832116D01*
X67638091Y-92772517D01*
X67598242Y-92665677D01*
X72184000Y-92665677D01*
X72184000Y-92714000D01*
X72884000Y-92714000D01*
X72884000Y-91988999D01*
X72860693Y-91989000D01*
X72860674Y-91989001D01*
X72761392Y-91999144D01*
X72600518Y-92052452D01*
X72600507Y-92052457D01*
X72456271Y-92141424D01*
X72456267Y-92141427D01*
X72336427Y-92261267D01*
X72336424Y-92261271D01*
X72247457Y-92405507D01*
X72247452Y-92405518D01*
X72194144Y-92566393D01*
X72184000Y-92665677D01*
X67598242Y-92665677D01*
X67587796Y-92637669D01*
X67587795Y-92637668D01*
X67587793Y-92637664D01*
X67501547Y-92522455D01*
X67501544Y-92522452D01*
X67386335Y-92436206D01*
X67386328Y-92436202D01*
X67251482Y-92385908D01*
X67251483Y-92385908D01*
X67191883Y-92379501D01*
X67191881Y-92379500D01*
X67191873Y-92379500D01*
X67191865Y-92379500D01*
X66136500Y-92379500D01*
X66069461Y-92359815D01*
X66023706Y-92307011D01*
X66012500Y-92255500D01*
X66012500Y-88104845D01*
X66032185Y-88037806D01*
X66084989Y-87992051D01*
X66093167Y-87988663D01*
X66189328Y-87952797D01*
X66189327Y-87952797D01*
X66189331Y-87952796D01*
X66304546Y-87866546D01*
X66390796Y-87751331D01*
X66441091Y-87616483D01*
X66447500Y-87556873D01*
X66447500Y-87436582D01*
X67351001Y-87436582D01*
X67357408Y-87507102D01*
X67357409Y-87507107D01*
X67407981Y-87669396D01*
X67495927Y-87814877D01*
X67616122Y-87935072D01*
X67761604Y-88023019D01*
X67761603Y-88023019D01*
X67923894Y-88073590D01*
X67923892Y-88073590D01*
X67994418Y-88079999D01*
X68075999Y-88079998D01*
X68076000Y-88079998D01*
X68076000Y-87430000D01*
X67351001Y-87430000D01*
X67351001Y-87436582D01*
X66447500Y-87436582D01*
X66447499Y-87239849D01*
X66447499Y-86931129D01*
X66447498Y-86931123D01*
X66447377Y-86930000D01*
X66441091Y-86871517D01*
X66418749Y-86811617D01*
X66413766Y-86741927D01*
X66418751Y-86724950D01*
X66440597Y-86666379D01*
X66440597Y-86666377D01*
X66446999Y-86606844D01*
X66447000Y-86606827D01*
X66447000Y-86544000D01*
X66235287Y-86544000D01*
X66191954Y-86536182D01*
X66054482Y-86484908D01*
X66054483Y-86484908D01*
X65994883Y-86478501D01*
X65994881Y-86478500D01*
X65994873Y-86478500D01*
X65994865Y-86478500D01*
X65536000Y-86478500D01*
X65527314Y-86475949D01*
X65518353Y-86477238D01*
X65494312Y-86466259D01*
X65468961Y-86458815D01*
X65463033Y-86451974D01*
X65454797Y-86448213D01*
X65440507Y-86425978D01*
X65423206Y-86406011D01*
X65420918Y-86395496D01*
X65417023Y-86389435D01*
X65412000Y-86354500D01*
X65412000Y-86264501D01*
X65431685Y-86197462D01*
X65484489Y-86151707D01*
X65536000Y-86140501D01*
X65694653Y-86140501D01*
X65694669Y-86140500D01*
X67409480Y-86140500D01*
X67438920Y-86149144D01*
X67468907Y-86155668D01*
X67473922Y-86159422D01*
X67476519Y-86160185D01*
X67497160Y-86176818D01*
X67593015Y-86272673D01*
X67626500Y-86333996D01*
X67621516Y-86403688D01*
X67593015Y-86448035D01*
X67495928Y-86545121D01*
X67495927Y-86545122D01*
X67407980Y-86690604D01*
X67357409Y-86852893D01*
X67351000Y-86923427D01*
X67351000Y-86930000D01*
X68202000Y-86930000D01*
X68269039Y-86949685D01*
X68314794Y-87002489D01*
X68326000Y-87054000D01*
X68326000Y-87180000D01*
X68452000Y-87180000D01*
X68519039Y-87199685D01*
X68564794Y-87252489D01*
X68576000Y-87304000D01*
X68576000Y-88079999D01*
X68657581Y-88079999D01*
X68728102Y-88073591D01*
X68728107Y-88073590D01*
X68890396Y-88023018D01*
X69035877Y-87935072D01*
X69156072Y-87814877D01*
X69235590Y-87683339D01*
X69287118Y-87636152D01*
X69355977Y-87624313D01*
X69420306Y-87651582D01*
X69447823Y-87683338D01*
X69499896Y-87769477D01*
X69527530Y-87815188D01*
X69647811Y-87935469D01*
X69647813Y-87935470D01*
X69647815Y-87935472D01*
X69793394Y-88023478D01*
X69955804Y-88074086D01*
X70026384Y-88080500D01*
X70415903Y-88080500D01*
X70482942Y-88100185D01*
X70503584Y-88116819D01*
X74039181Y-91652416D01*
X74072666Y-91713739D01*
X74075500Y-91740097D01*
X74075500Y-92035097D01*
X74055815Y-92102136D01*
X74032818Y-92128710D01*
X74025189Y-92135336D01*
X74015956Y-92141032D01*
X73998253Y-92158734D01*
X73994964Y-92161592D01*
X73966999Y-92174404D01*
X73940001Y-92189146D01*
X73935523Y-92188825D01*
X73931443Y-92190695D01*
X73900998Y-92186355D01*
X73870309Y-92184160D01*
X73865953Y-92181360D01*
X73862273Y-92180836D01*
X73853968Y-92173657D01*
X73825965Y-92155660D01*
X73811732Y-92141427D01*
X73811728Y-92141424D01*
X73667492Y-92052457D01*
X73667481Y-92052452D01*
X73506606Y-91999144D01*
X73407322Y-91989000D01*
X73384000Y-91989000D01*
X73384000Y-93938999D01*
X73407308Y-93938999D01*
X73407322Y-93938998D01*
X73506607Y-93928855D01*
X73667481Y-93875547D01*
X73667492Y-93875542D01*
X73811729Y-93786575D01*
X73825960Y-93772343D01*
X73887282Y-93738855D01*
X73956974Y-93743836D01*
X74001327Y-93772339D01*
X74015955Y-93786967D01*
X74015959Y-93786970D01*
X74160294Y-93875998D01*
X74160297Y-93875999D01*
X74160303Y-93876003D01*
X74321292Y-93929349D01*
X74420655Y-93939500D01*
X74967344Y-93939499D01*
X74967352Y-93939498D01*
X74967355Y-93939498D01*
X75021760Y-93933940D01*
X75066708Y-93929349D01*
X75227697Y-93876003D01*
X75372044Y-93786968D01*
X75491968Y-93667044D01*
X75518887Y-93623402D01*
X75570835Y-93576678D01*
X75624425Y-93564500D01*
X76471730Y-93564500D01*
X76538769Y-93584185D01*
X76572047Y-93615614D01*
X76654544Y-93729161D01*
X76794839Y-93869456D01*
X76955354Y-93986077D01*
X77011209Y-94014536D01*
X77132131Y-94076149D01*
X77132133Y-94076149D01*
X77132136Y-94076151D01*
X77320832Y-94137463D01*
X77418814Y-94152981D01*
X77516791Y-94168500D01*
X77516796Y-94168500D01*
X77715209Y-94168500D01*
X77804278Y-94154392D01*
X77911168Y-94137463D01*
X78099864Y-94076151D01*
X78276646Y-93986077D01*
X78437161Y-93869456D01*
X78577456Y-93729161D01*
X78694077Y-93568646D01*
X78784151Y-93391864D01*
X78845463Y-93203168D01*
X78869245Y-93053011D01*
X78876500Y-93007209D01*
X78876500Y-92808790D01*
X78859570Y-92701906D01*
X78845463Y-92612832D01*
X78784151Y-92424136D01*
X78784149Y-92424133D01*
X78784149Y-92424131D01*
X78724473Y-92307011D01*
X78694077Y-92247354D01*
X78577456Y-92086839D01*
X78437161Y-91946544D01*
X78276646Y-91829923D01*
X78156063Y-91768484D01*
X78105269Y-91720511D01*
X78088474Y-91652690D01*
X78111011Y-91586555D01*
X78156063Y-91547516D01*
X78276646Y-91486077D01*
X78437161Y-91369456D01*
X78577456Y-91229161D01*
X78694077Y-91068646D01*
X78784151Y-90891864D01*
X78845463Y-90703168D01*
X78862392Y-90596278D01*
X78876500Y-90507209D01*
X78876500Y-90308790D01*
X78859570Y-90201906D01*
X78845463Y-90112832D01*
X78784151Y-89924136D01*
X78784149Y-89924133D01*
X78784149Y-89924131D01*
X78710760Y-89780097D01*
X78694077Y-89747354D01*
X78577456Y-89586839D01*
X78486298Y-89495681D01*
X78452813Y-89434358D01*
X78457797Y-89364666D01*
X78486298Y-89320319D01*
X78516011Y-89290606D01*
X78577456Y-89229161D01*
X78694077Y-89068646D01*
X78784151Y-88891864D01*
X78845463Y-88703168D01*
X78867038Y-88566945D01*
X78876500Y-88507209D01*
X78876500Y-88308790D01*
X78853801Y-88165478D01*
X78845463Y-88112832D01*
X78784151Y-87924136D01*
X78784149Y-87924133D01*
X78784149Y-87924131D01*
X78748317Y-87853808D01*
X78694077Y-87747354D01*
X78577456Y-87586839D01*
X78437161Y-87446544D01*
X78276646Y-87329923D01*
X78155513Y-87268203D01*
X78104718Y-87220230D01*
X78087923Y-87152409D01*
X78110460Y-87086274D01*
X78155514Y-87047234D01*
X78276383Y-86985648D01*
X78313283Y-86958837D01*
X78313284Y-86958836D01*
X77712745Y-86358297D01*
X77793551Y-86336646D01*
X77898443Y-86276087D01*
X77984087Y-86190443D01*
X78044646Y-86085551D01*
X78066297Y-86004745D01*
X78666836Y-86605284D01*
X78666837Y-86605283D01*
X78693648Y-86568382D01*
X78783688Y-86391672D01*
X78783689Y-86391669D01*
X78844973Y-86203052D01*
X78876000Y-86007163D01*
X78876000Y-85808836D01*
X78844973Y-85612947D01*
X78783689Y-85424330D01*
X78783688Y-85424327D01*
X78693645Y-85247612D01*
X78666838Y-85210715D01*
X78666837Y-85210714D01*
X78066297Y-85811254D01*
X78044646Y-85730449D01*
X77984087Y-85625557D01*
X77898443Y-85539913D01*
X77793551Y-85479354D01*
X77712744Y-85457701D01*
X78313283Y-84857161D01*
X78276380Y-84830350D01*
X78099672Y-84740311D01*
X78099669Y-84740310D01*
X77911052Y-84679026D01*
X77715163Y-84648000D01*
X77516837Y-84648000D01*
X77320947Y-84679026D01*
X77132330Y-84740310D01*
X77132322Y-84740313D01*
X76955615Y-84830352D01*
X76918715Y-84857160D01*
X76918715Y-84857161D01*
X77519255Y-85457701D01*
X77438449Y-85479354D01*
X77333557Y-85539913D01*
X77247913Y-85625557D01*
X77187354Y-85730449D01*
X77165701Y-85811255D01*
X76565161Y-85210715D01*
X76565160Y-85210715D01*
X76538352Y-85247615D01*
X76448313Y-85424322D01*
X76448310Y-85424330D01*
X76387026Y-85612947D01*
X76356000Y-85808836D01*
X76356000Y-86007163D01*
X76387026Y-86203052D01*
X76448310Y-86391669D01*
X76448311Y-86391672D01*
X76538350Y-86568380D01*
X76565161Y-86605283D01*
X77165701Y-86004743D01*
X77187354Y-86085551D01*
X77247913Y-86190443D01*
X77333557Y-86276087D01*
X77438449Y-86336646D01*
X77519254Y-86358297D01*
X76918714Y-86958837D01*
X76918715Y-86958838D01*
X76955612Y-86985645D01*
X77076485Y-87047234D01*
X77127281Y-87095209D01*
X77144076Y-87163030D01*
X77121539Y-87229165D01*
X77076485Y-87268204D01*
X76955352Y-87329924D01*
X76955349Y-87329926D01*
X76869255Y-87392477D01*
X76794839Y-87446544D01*
X76794837Y-87446546D01*
X76794836Y-87446546D01*
X76654546Y-87586836D01*
X76654546Y-87586837D01*
X76654544Y-87586839D01*
X76600477Y-87661255D01*
X76537926Y-87747349D01*
X76537924Y-87747352D01*
X76447850Y-87924131D01*
X76420728Y-88007604D01*
X76386537Y-88112832D01*
X76386536Y-88112835D01*
X76386536Y-88112837D01*
X76355500Y-88308790D01*
X76355500Y-88507209D01*
X76380967Y-88668000D01*
X76386537Y-88703168D01*
X76415401Y-88792000D01*
X76447850Y-88891868D01*
X76509021Y-89011922D01*
X76537923Y-89068646D01*
X76654544Y-89229161D01*
X76654546Y-89229163D01*
X76745702Y-89320319D01*
X76779187Y-89381642D01*
X76774203Y-89451334D01*
X76745702Y-89495681D01*
X76654546Y-89586836D01*
X76654546Y-89586837D01*
X76654544Y-89586839D01*
X76648086Y-89595728D01*
X76537926Y-89747349D01*
X76537924Y-89747352D01*
X76447850Y-89924131D01*
X76417193Y-90018484D01*
X76386537Y-90112832D01*
X76386536Y-90112835D01*
X76386536Y-90112837D01*
X76355500Y-90308790D01*
X76355500Y-90507209D01*
X76386536Y-90703162D01*
X76386537Y-90703168D01*
X76433140Y-90846596D01*
X76447850Y-90891868D01*
X76509021Y-91011922D01*
X76537923Y-91068646D01*
X76654544Y-91229161D01*
X76794839Y-91369456D01*
X76955354Y-91486077D01*
X77039714Y-91529060D01*
X77075934Y-91547515D01*
X77126730Y-91595490D01*
X77143525Y-91663311D01*
X77120988Y-91729446D01*
X77075934Y-91768485D01*
X76955352Y-91829924D01*
X76955349Y-91829926D01*
X76869255Y-91892477D01*
X76794839Y-91946544D01*
X76794837Y-91946546D01*
X76794836Y-91946546D01*
X76654546Y-92086836D01*
X76654546Y-92086837D01*
X76654544Y-92086839D01*
X76604543Y-92155660D01*
X76537923Y-92247353D01*
X76513241Y-92295795D01*
X76465266Y-92346591D01*
X76402756Y-92363500D01*
X75624425Y-92363500D01*
X75557386Y-92343815D01*
X75518887Y-92304598D01*
X75491968Y-92260956D01*
X75372041Y-92141029D01*
X75335401Y-92118429D01*
X75288678Y-92066481D01*
X75276500Y-92012892D01*
X75276500Y-91529060D01*
X75276501Y-91529047D01*
X75276501Y-91360944D01*
X75276501Y-91360943D01*
X75235577Y-91208216D01*
X75235573Y-91208209D01*
X75156524Y-91071290D01*
X75156518Y-91071282D01*
X71675916Y-87590680D01*
X71642431Y-87529357D01*
X71647415Y-87459665D01*
X71675916Y-87415318D01*
X72049019Y-87042215D01*
X72494506Y-86596728D01*
X72494511Y-86596724D01*
X72504714Y-86586520D01*
X72504716Y-86586520D01*
X72616520Y-86474716D01*
X72695577Y-86337784D01*
X72728492Y-86214943D01*
X72736500Y-86185058D01*
X72736500Y-86026943D01*
X72736500Y-82700358D01*
X78216000Y-82700358D01*
X78216000Y-82975641D01*
X78251930Y-83248565D01*
X78323180Y-83514471D01*
X78428520Y-83768787D01*
X78428527Y-83768802D01*
X78566163Y-84007196D01*
X78664758Y-84135686D01*
X79343903Y-83456540D01*
X79438821Y-83587182D01*
X79566818Y-83715179D01*
X79697458Y-83810094D01*
X79018312Y-84489240D01*
X79146804Y-84587836D01*
X79385197Y-84725472D01*
X79385212Y-84725479D01*
X79639528Y-84830819D01*
X79905434Y-84902069D01*
X80178358Y-84938000D01*
X80453642Y-84938000D01*
X80726565Y-84902069D01*
X80992471Y-84830819D01*
X81246787Y-84725479D01*
X81246802Y-84725472D01*
X81485194Y-84587836D01*
X81485211Y-84587825D01*
X81613686Y-84489241D01*
X81613686Y-84489239D01*
X80934541Y-83810095D01*
X81065182Y-83715179D01*
X81193179Y-83587182D01*
X81288095Y-83456541D01*
X81967239Y-84135686D01*
X81967241Y-84135686D01*
X82065825Y-84007211D01*
X82065836Y-84007194D01*
X82203472Y-83768802D01*
X82203479Y-83768787D01*
X82308819Y-83514471D01*
X82380069Y-83248565D01*
X82416000Y-82975641D01*
X82416000Y-82700358D01*
X82380069Y-82427434D01*
X82308819Y-82161528D01*
X82203479Y-81907212D01*
X82203472Y-81907197D01*
X82065836Y-81668804D01*
X81967240Y-81540312D01*
X81288094Y-82219457D01*
X81193179Y-82088818D01*
X81065182Y-81960821D01*
X80934541Y-81865904D01*
X81613686Y-81186758D01*
X81485196Y-81088163D01*
X81246802Y-80950527D01*
X81246787Y-80950520D01*
X80992471Y-80845180D01*
X80726565Y-80773930D01*
X80453642Y-80738000D01*
X80178358Y-80738000D01*
X79905434Y-80773930D01*
X79639528Y-80845180D01*
X79385212Y-80950520D01*
X79385197Y-80950527D01*
X79146799Y-81088166D01*
X79018312Y-81186757D01*
X79018312Y-81186758D01*
X79697458Y-81865904D01*
X79566818Y-81960821D01*
X79438821Y-82088818D01*
X79343904Y-82219458D01*
X78664758Y-81540312D01*
X78664757Y-81540312D01*
X78566166Y-81668799D01*
X78428527Y-81907197D01*
X78428520Y-81907212D01*
X78323180Y-82161528D01*
X78251930Y-82427434D01*
X78216000Y-82700358D01*
X72736500Y-82700358D01*
X72736500Y-79962943D01*
X72713204Y-79875999D01*
X72695577Y-79810215D01*
X72648521Y-79728712D01*
X72616520Y-79673284D01*
X72504716Y-79561480D01*
X72504715Y-79561479D01*
X72500385Y-79557149D01*
X72500374Y-79557139D01*
X72352177Y-79408942D01*
X72318692Y-79347619D01*
X72318607Y-79295295D01*
X72319998Y-79288799D01*
X72319999Y-79288797D01*
X72326627Y-79223921D01*
X72329286Y-79197897D01*
X72355682Y-79133205D01*
X72412863Y-79093054D01*
X72452644Y-79086500D01*
X74081331Y-79086500D01*
X74081347Y-79086501D01*
X74088943Y-79086501D01*
X74247054Y-79086501D01*
X74247057Y-79086501D01*
X74399785Y-79045577D01*
X74449904Y-79016639D01*
X74536716Y-78966520D01*
X74648520Y-78854716D01*
X74648520Y-78854714D01*
X74658728Y-78844507D01*
X74658729Y-78844504D01*
X78227311Y-75275923D01*
X83297718Y-75275923D01*
X83297718Y-75464896D01*
X83327277Y-75651528D01*
X83385672Y-75831246D01*
X83465331Y-75987584D01*
X83471458Y-75999609D01*
X83582528Y-76152483D01*
X83716145Y-76286100D01*
X83869019Y-76397170D01*
X83870913Y-76398135D01*
X83872626Y-76399379D01*
X83873167Y-76399711D01*
X83873140Y-76399753D01*
X83902301Y-76420939D01*
X84409624Y-76928262D01*
X84324520Y-76951066D01*
X84221904Y-77010311D01*
X84138119Y-77094096D01*
X84078874Y-77196712D01*
X84056070Y-77281815D01*
X83490334Y-76716079D01*
X83490334Y-76716080D01*
X83471887Y-76741470D01*
X83386132Y-76909772D01*
X83327766Y-77089407D01*
X83298218Y-77275962D01*
X83298218Y-77464857D01*
X83327766Y-77651412D01*
X83386132Y-77831047D01*
X83471884Y-77999343D01*
X83490334Y-78024738D01*
X84056070Y-77459003D01*
X84078874Y-77544108D01*
X84138119Y-77646724D01*
X84221904Y-77730509D01*
X84324520Y-77789754D01*
X84409623Y-77812557D01*
X83843887Y-78378292D01*
X83843888Y-78378293D01*
X83869277Y-78396739D01*
X84037580Y-78482495D01*
X84217215Y-78540861D01*
X84403771Y-78570410D01*
X84592665Y-78570410D01*
X84779220Y-78540861D01*
X84958855Y-78482495D01*
X85127155Y-78396741D01*
X85152546Y-78378293D01*
X85152546Y-78378292D01*
X84586812Y-77812557D01*
X84671916Y-77789754D01*
X84774532Y-77730509D01*
X84858317Y-77646724D01*
X84917562Y-77544108D01*
X84940365Y-77459003D01*
X85506100Y-78024738D01*
X85506101Y-78024738D01*
X85524549Y-77999347D01*
X85610303Y-77831047D01*
X85668669Y-77651412D01*
X85698218Y-77464857D01*
X85698218Y-77275962D01*
X85668669Y-77089407D01*
X85610303Y-76909772D01*
X85524547Y-76741469D01*
X85506101Y-76716080D01*
X85506100Y-76716079D01*
X84940365Y-77281815D01*
X84917562Y-77196712D01*
X84858317Y-77094096D01*
X84774532Y-77010311D01*
X84671916Y-76951066D01*
X84586812Y-76928262D01*
X85094132Y-76420940D01*
X85123290Y-76399757D01*
X85123264Y-76399714D01*
X85123816Y-76399375D01*
X85125526Y-76398133D01*
X85127417Y-76397170D01*
X85280291Y-76286100D01*
X85413908Y-76152483D01*
X85524978Y-75999609D01*
X85610765Y-75831242D01*
X85669158Y-75651528D01*
X85678688Y-75591359D01*
X85698718Y-75464896D01*
X85698718Y-75275923D01*
X85669158Y-75089291D01*
X85642064Y-75005907D01*
X85610765Y-74909578D01*
X85610763Y-74909575D01*
X85610763Y-74909573D01*
X85524977Y-74741210D01*
X85413908Y-74588337D01*
X85280291Y-74454720D01*
X85127417Y-74343650D01*
X85106494Y-74332989D01*
X84959054Y-74257864D01*
X84779336Y-74199469D01*
X84592704Y-74169910D01*
X84592699Y-74169910D01*
X84403737Y-74169910D01*
X84403732Y-74169910D01*
X84217099Y-74199469D01*
X84037381Y-74257864D01*
X83869018Y-74343650D01*
X83818415Y-74380416D01*
X83716145Y-74454720D01*
X83716143Y-74454722D01*
X83716142Y-74454722D01*
X83582530Y-74588334D01*
X83582530Y-74588335D01*
X83582528Y-74588337D01*
X83534828Y-74653989D01*
X83471458Y-74741210D01*
X83385672Y-74909573D01*
X83327277Y-75089291D01*
X83297718Y-75275923D01*
X78227311Y-75275923D01*
X84540417Y-68962819D01*
X84601740Y-68929334D01*
X84628098Y-68926500D01*
X86796164Y-68926500D01*
X86863203Y-68946185D01*
X86906648Y-68994204D01*
X86940185Y-69060023D01*
X87069752Y-69238358D01*
X87069756Y-69238363D01*
X87225636Y-69394243D01*
X87225641Y-69394247D01*
X87381192Y-69507260D01*
X87403978Y-69523815D01*
X87532375Y-69589237D01*
X87600393Y-69623895D01*
X87600396Y-69623896D01*
X87705221Y-69657955D01*
X87810049Y-69692015D01*
X88027778Y-69726500D01*
X88027779Y-69726500D01*
X88248221Y-69726500D01*
X88248222Y-69726500D01*
X88465951Y-69692015D01*
X88675606Y-69623895D01*
X88872022Y-69523815D01*
X89050365Y-69394242D01*
X89206242Y-69238365D01*
X89335815Y-69060022D01*
X89435895Y-68863606D01*
X89504015Y-68653951D01*
X89538500Y-68436222D01*
X89538500Y-68215778D01*
X89504015Y-67998049D01*
X89465659Y-67880000D01*
X89435896Y-67788396D01*
X89435895Y-67788393D01*
X89360591Y-67640604D01*
X89335815Y-67591978D01*
X89319260Y-67569192D01*
X89206247Y-67413641D01*
X89206243Y-67413636D01*
X89155683Y-67363076D01*
X89122198Y-67301753D01*
X89127182Y-67232061D01*
X89169054Y-67176128D01*
X89200031Y-67159213D01*
X89280086Y-67129354D01*
X89280093Y-67129350D01*
X89395187Y-67043190D01*
X89395190Y-67043187D01*
X89481350Y-66928093D01*
X89481354Y-66928086D01*
X89531596Y-66793379D01*
X89531598Y-66793372D01*
X89537999Y-66733844D01*
X89538000Y-66733827D01*
X89538000Y-66036000D01*
X88628762Y-66036000D01*
X88650530Y-65998297D01*
X88688012Y-65858410D01*
X88688012Y-65713590D01*
X88650530Y-65573703D01*
X88628762Y-65536000D01*
X89538000Y-65536000D01*
X89538000Y-64838172D01*
X89537999Y-64838155D01*
X89531598Y-64778627D01*
X89531596Y-64778620D01*
X89481354Y-64643913D01*
X89481350Y-64643906D01*
X89395190Y-64528812D01*
X89395187Y-64528809D01*
X89280093Y-64442649D01*
X89280086Y-64442645D01*
X89145379Y-64392403D01*
X89145372Y-64392401D01*
X89085844Y-64386000D01*
X88388000Y-64386000D01*
X88388000Y-65295238D01*
X88350297Y-65273470D01*
X88210410Y-65235988D01*
X88065590Y-65235988D01*
X87925703Y-65273470D01*
X87888000Y-65295238D01*
X87888000Y-64386000D01*
X87190155Y-64386000D01*
X87130627Y-64392401D01*
X87130620Y-64392403D01*
X86995913Y-64442645D01*
X86995906Y-64442649D01*
X86880812Y-64528809D01*
X86880809Y-64528812D01*
X86794649Y-64643906D01*
X86794645Y-64643913D01*
X86744403Y-64778620D01*
X86744401Y-64778627D01*
X86738000Y-64838155D01*
X86738000Y-65536000D01*
X87647238Y-65536000D01*
X87625470Y-65573703D01*
X87587988Y-65713590D01*
X87587988Y-65858410D01*
X87625470Y-65998297D01*
X87647238Y-66036000D01*
X86738000Y-66036000D01*
X86738000Y-66733844D01*
X86744401Y-66793372D01*
X86744403Y-66793379D01*
X86794645Y-66928086D01*
X86794649Y-66928093D01*
X86880809Y-67043187D01*
X86880812Y-67043190D01*
X86995906Y-67129350D01*
X86995913Y-67129354D01*
X87075968Y-67159213D01*
X87131902Y-67201084D01*
X87156319Y-67266549D01*
X87141467Y-67334822D01*
X87120317Y-67363075D01*
X87069756Y-67413636D01*
X87069752Y-67413641D01*
X86940185Y-67591976D01*
X86906648Y-67657796D01*
X86858674Y-67708591D01*
X86796164Y-67725500D01*
X84414670Y-67725500D01*
X84414654Y-67725499D01*
X84407058Y-67725499D01*
X84248943Y-67725499D01*
X84096215Y-67766423D01*
X84096213Y-67766423D01*
X84096213Y-67766424D01*
X83959281Y-67845482D01*
X73955584Y-77849181D01*
X73894261Y-77882666D01*
X73867903Y-77885500D01*
X72452643Y-77885500D01*
X72385604Y-77865815D01*
X72339849Y-77813011D01*
X72329285Y-77774102D01*
X72324831Y-77730509D01*
X72319999Y-77683203D01*
X72264814Y-77516666D01*
X72172712Y-77367344D01*
X72048656Y-77243288D01*
X71951357Y-77183274D01*
X71899336Y-77151187D01*
X71899331Y-77151185D01*
X71856985Y-77137153D01*
X71732797Y-77096001D01*
X71732795Y-77096000D01*
X71630010Y-77085500D01*
X69529998Y-77085500D01*
X69529981Y-77085501D01*
X69427203Y-77096000D01*
X69427200Y-77096001D01*
X69260668Y-77151185D01*
X69260663Y-77151187D01*
X69111342Y-77243289D01*
X68987289Y-77367342D01*
X68895187Y-77516663D01*
X68895185Y-77516668D01*
X68881158Y-77559000D01*
X68840001Y-77683203D01*
X68840001Y-77683204D01*
X68840000Y-77683204D01*
X68829500Y-77785983D01*
X68829500Y-79186001D01*
X68829501Y-79186018D01*
X68840000Y-79288796D01*
X68840001Y-79288799D01*
X68861895Y-79354869D01*
X68895186Y-79455334D01*
X68987288Y-79604656D01*
X69111344Y-79728712D01*
X69260666Y-79820814D01*
X69427203Y-79875999D01*
X69529991Y-79886500D01*
X71079902Y-79886499D01*
X71146941Y-79906184D01*
X71167583Y-79922818D01*
X71499181Y-80254416D01*
X71532666Y-80315739D01*
X71535500Y-80342097D01*
X71535500Y-85066894D01*
X71515815Y-85133933D01*
X71463011Y-85179688D01*
X71393853Y-85189632D01*
X71330297Y-85160607D01*
X71293115Y-85103785D01*
X71276478Y-85050394D01*
X71188472Y-84904815D01*
X71188470Y-84904813D01*
X71188469Y-84904811D01*
X71068188Y-84784530D01*
X71065417Y-84782855D01*
X70922606Y-84696522D01*
X70760196Y-84645914D01*
X70760194Y-84645913D01*
X70760192Y-84645913D01*
X70710778Y-84641423D01*
X70689616Y-84639500D01*
X70026384Y-84639500D01*
X70007145Y-84641248D01*
X69955807Y-84645913D01*
X69793393Y-84696522D01*
X69647811Y-84784530D01*
X69647810Y-84784531D01*
X69529161Y-84903181D01*
X69502233Y-84917884D01*
X69476415Y-84934477D01*
X69470214Y-84935368D01*
X69467838Y-84936666D01*
X69441480Y-84939500D01*
X69242520Y-84939500D01*
X69175481Y-84919815D01*
X69154839Y-84903181D01*
X69036188Y-84784530D01*
X69033417Y-84782855D01*
X68890606Y-84696522D01*
X68728196Y-84645914D01*
X68728194Y-84645913D01*
X68728192Y-84645913D01*
X68678778Y-84641423D01*
X68657616Y-84639500D01*
X67994384Y-84639500D01*
X67975145Y-84641248D01*
X67923807Y-84645913D01*
X67761393Y-84696522D01*
X67615811Y-84784530D01*
X67615810Y-84784531D01*
X67497161Y-84903181D01*
X67435838Y-84936666D01*
X67409480Y-84939500D01*
X66515245Y-84939500D01*
X66448206Y-84919815D01*
X66402451Y-84867011D01*
X66399063Y-84858833D01*
X66390797Y-84836671D01*
X66390793Y-84836664D01*
X66304547Y-84721455D01*
X66304544Y-84721452D01*
X66189335Y-84635206D01*
X66189328Y-84635202D01*
X66054482Y-84584908D01*
X66054483Y-84584908D01*
X65994883Y-84578501D01*
X65994881Y-84578500D01*
X65994873Y-84578500D01*
X65994865Y-84578500D01*
X64906095Y-84578500D01*
X64839056Y-84558815D01*
X64793301Y-84506011D01*
X64783357Y-84436853D01*
X64812382Y-84373297D01*
X64818388Y-84366846D01*
X66938506Y-82246727D01*
X66938511Y-82246724D01*
X66948714Y-82236520D01*
X66948716Y-82236520D01*
X67060520Y-82124716D01*
X67121102Y-82019784D01*
X67139577Y-81987785D01*
X67180500Y-81835058D01*
X67180500Y-81676943D01*
X67180500Y-80010499D01*
X67200185Y-79943460D01*
X67252989Y-79897705D01*
X67304500Y-79886499D01*
X67630002Y-79886499D01*
X67630008Y-79886499D01*
X67732797Y-79875999D01*
X67899334Y-79820814D01*
X68048656Y-79728712D01*
X68172712Y-79604656D01*
X68264814Y-79455334D01*
X68319999Y-79288797D01*
X68330500Y-79186009D01*
X68330499Y-77785992D01*
X68329284Y-77774102D01*
X68319999Y-77683203D01*
X68319998Y-77683200D01*
X68303695Y-77634000D01*
X68264814Y-77516666D01*
X68172712Y-77367344D01*
X68048656Y-77243288D01*
X67951357Y-77183274D01*
X67899336Y-77151187D01*
X67899331Y-77151185D01*
X67856985Y-77137153D01*
X67732797Y-77096001D01*
X67732795Y-77096000D01*
X67630010Y-77085500D01*
X65529998Y-77085500D01*
X65529981Y-77085501D01*
X65427203Y-77096000D01*
X65427200Y-77096001D01*
X65260668Y-77151185D01*
X65260666Y-77151185D01*
X65260666Y-77151186D01*
X65260663Y-77151188D01*
X65238535Y-77164836D01*
X65171142Y-77183274D01*
X65104479Y-77162349D01*
X65059711Y-77108706D01*
X65051824Y-77083486D01*
X65031738Y-76982510D01*
X65031737Y-76982503D01*
X65031735Y-76982498D01*
X64971397Y-76836827D01*
X64971390Y-76836814D01*
X64883398Y-76705125D01*
X64877747Y-76687078D01*
X64867523Y-76671169D01*
X64863071Y-76640207D01*
X64862520Y-76638447D01*
X64862500Y-76636234D01*
X64862500Y-76532096D01*
X64882185Y-76465057D01*
X64898815Y-76444419D01*
X65738416Y-75604817D01*
X65799739Y-75571333D01*
X65826097Y-75568499D01*
X67376002Y-75568499D01*
X67376008Y-75568499D01*
X67478797Y-75557999D01*
X67645334Y-75502814D01*
X67794656Y-75410712D01*
X67918712Y-75286656D01*
X68010814Y-75137334D01*
X68065999Y-74970797D01*
X68076500Y-74868009D01*
X68076499Y-73467992D01*
X68076498Y-73467983D01*
X68575500Y-73467983D01*
X68575500Y-74868001D01*
X68575501Y-74868018D01*
X68586000Y-74970796D01*
X68586001Y-74970799D01*
X68641185Y-75137331D01*
X68641187Y-75137336D01*
X68648610Y-75149371D01*
X68733288Y-75286656D01*
X68857344Y-75410712D01*
X69006666Y-75502814D01*
X69173203Y-75557999D01*
X69275991Y-75568500D01*
X71376008Y-75568499D01*
X71478797Y-75557999D01*
X71645334Y-75502814D01*
X71794656Y-75410712D01*
X71918712Y-75286656D01*
X72010814Y-75137334D01*
X72065999Y-74970797D01*
X72076500Y-74868009D01*
X72076499Y-73467992D01*
X72065999Y-73365203D01*
X72010814Y-73198666D01*
X71918712Y-73049344D01*
X71794656Y-72925288D01*
X71645334Y-72833186D01*
X71478797Y-72778001D01*
X71478795Y-72778000D01*
X71376016Y-72767500D01*
X71376009Y-72767500D01*
X70828500Y-72767500D01*
X70819814Y-72764949D01*
X70810853Y-72766238D01*
X70786812Y-72755259D01*
X70761461Y-72747815D01*
X70755533Y-72740974D01*
X70747297Y-72737213D01*
X70733007Y-72714978D01*
X70715706Y-72695011D01*
X70713418Y-72684496D01*
X70709523Y-72678435D01*
X70704500Y-72643500D01*
X70704500Y-72461765D01*
X70724185Y-72394726D01*
X70725398Y-72392874D01*
X70813390Y-72261185D01*
X70813390Y-72261184D01*
X70813394Y-72261179D01*
X70873737Y-72115497D01*
X70901362Y-71976620D01*
X70904638Y-71960150D01*
X70937023Y-71898239D01*
X70938518Y-71896716D01*
X83270416Y-59564819D01*
X83331739Y-59531334D01*
X83358097Y-59528500D01*
X86796164Y-59528500D01*
X86863203Y-59548185D01*
X86906648Y-59596204D01*
X86940185Y-59662023D01*
X87069752Y-59840358D01*
X87069756Y-59840363D01*
X87120316Y-59890923D01*
X87153801Y-59952246D01*
X87148817Y-60021938D01*
X87106945Y-60077871D01*
X87075969Y-60094785D01*
X86995918Y-60124643D01*
X86995906Y-60124649D01*
X86880812Y-60210809D01*
X86880809Y-60210812D01*
X86794649Y-60325906D01*
X86794645Y-60325913D01*
X86744403Y-60460620D01*
X86744401Y-60460627D01*
X86738000Y-60520155D01*
X86738000Y-61218000D01*
X87647238Y-61218000D01*
X87625470Y-61255703D01*
X87587988Y-61395590D01*
X87587988Y-61540410D01*
X87625470Y-61680297D01*
X87647238Y-61718000D01*
X86738000Y-61718000D01*
X86738000Y-62415844D01*
X86744401Y-62475372D01*
X86744403Y-62475379D01*
X86794645Y-62610086D01*
X86794649Y-62610093D01*
X86880809Y-62725187D01*
X86880812Y-62725190D01*
X86995906Y-62811350D01*
X86995913Y-62811354D01*
X87130620Y-62861596D01*
X87130627Y-62861598D01*
X87190155Y-62867999D01*
X87190172Y-62868000D01*
X87888000Y-62868000D01*
X87888000Y-61958761D01*
X87925703Y-61980530D01*
X88065590Y-62018012D01*
X88210410Y-62018012D01*
X88350297Y-61980530D01*
X88388000Y-61958761D01*
X88388000Y-62868000D01*
X89085828Y-62868000D01*
X89085844Y-62867999D01*
X89145372Y-62861598D01*
X89145379Y-62861596D01*
X89280086Y-62811354D01*
X89280093Y-62811350D01*
X89395187Y-62725190D01*
X89395190Y-62725187D01*
X89481350Y-62610093D01*
X89481354Y-62610086D01*
X89531596Y-62475379D01*
X89531598Y-62475372D01*
X89537999Y-62415844D01*
X89538000Y-62415827D01*
X89538000Y-61718000D01*
X88628762Y-61718000D01*
X88650530Y-61680297D01*
X88688012Y-61540410D01*
X88688012Y-61395590D01*
X88650530Y-61255703D01*
X88628762Y-61218000D01*
X89538000Y-61218000D01*
X89538000Y-60520172D01*
X89537999Y-60520155D01*
X89531598Y-60460627D01*
X89531596Y-60460620D01*
X89481354Y-60325913D01*
X89481350Y-60325906D01*
X89395190Y-60210812D01*
X89395187Y-60210809D01*
X89280093Y-60124649D01*
X89280087Y-60124646D01*
X89200030Y-60094786D01*
X89144097Y-60052914D01*
X89119680Y-59987450D01*
X89134532Y-59919177D01*
X89155681Y-59890925D01*
X89206242Y-59840365D01*
X89335815Y-59662022D01*
X89435895Y-59465606D01*
X89504015Y-59255951D01*
X89538500Y-59038222D01*
X89538500Y-58817778D01*
X89504015Y-58600049D01*
X89462927Y-58473592D01*
X89435896Y-58390396D01*
X89435895Y-58390393D01*
X89369351Y-58259796D01*
X89335815Y-58193978D01*
X89267671Y-58100185D01*
X89206247Y-58015641D01*
X89206243Y-58015636D01*
X89050363Y-57859756D01*
X89050358Y-57859752D01*
X88872025Y-57730187D01*
X88872024Y-57730186D01*
X88872022Y-57730185D01*
X88792500Y-57689666D01*
X88675606Y-57630104D01*
X88675603Y-57630103D01*
X88465952Y-57561985D01*
X88357086Y-57544742D01*
X88248222Y-57527500D01*
X88027778Y-57527500D01*
X87955201Y-57538995D01*
X87810047Y-57561985D01*
X87600396Y-57630103D01*
X87600393Y-57630104D01*
X87403974Y-57730187D01*
X87225641Y-57859752D01*
X87225636Y-57859756D01*
X87069756Y-58015636D01*
X87069752Y-58015641D01*
X86940185Y-58193976D01*
X86906648Y-58259796D01*
X86858674Y-58310591D01*
X86796164Y-58327500D01*
X82978940Y-58327500D01*
X82938019Y-58338464D01*
X82938019Y-58338465D01*
X82900751Y-58348451D01*
X82826214Y-58368423D01*
X82826209Y-58368426D01*
X82689290Y-58447475D01*
X82689282Y-58447481D01*
X70089339Y-71047425D01*
X70028016Y-71080910D01*
X70025850Y-71081361D01*
X69870508Y-71112261D01*
X69870498Y-71112264D01*
X69724827Y-71172602D01*
X69724814Y-71172609D01*
X69593711Y-71260210D01*
X69593707Y-71260213D01*
X69482213Y-71371707D01*
X69482210Y-71371711D01*
X69394609Y-71502814D01*
X69394602Y-71502827D01*
X69334264Y-71648498D01*
X69334261Y-71648510D01*
X69303500Y-71803153D01*
X69303500Y-71960846D01*
X69334261Y-72115489D01*
X69334264Y-72115501D01*
X69394602Y-72261172D01*
X69394609Y-72261185D01*
X69482602Y-72392874D01*
X69488252Y-72410920D01*
X69498477Y-72426830D01*
X69502928Y-72457789D01*
X69503480Y-72459551D01*
X69503500Y-72461765D01*
X69503500Y-72643500D01*
X69483815Y-72710539D01*
X69431011Y-72756294D01*
X69379501Y-72767500D01*
X69275999Y-72767500D01*
X69275980Y-72767501D01*
X69173203Y-72778000D01*
X69173200Y-72778001D01*
X69006668Y-72833185D01*
X69006663Y-72833187D01*
X68857342Y-72925289D01*
X68733289Y-73049342D01*
X68641187Y-73198663D01*
X68641186Y-73198666D01*
X68586001Y-73365203D01*
X68586001Y-73365204D01*
X68586000Y-73365204D01*
X68575500Y-73467983D01*
X68076498Y-73467983D01*
X68065999Y-73365203D01*
X68010814Y-73198666D01*
X67918712Y-73049344D01*
X67794656Y-72925288D01*
X67645334Y-72833186D01*
X67478797Y-72778001D01*
X67478795Y-72778000D01*
X67376010Y-72767500D01*
X65275998Y-72767500D01*
X65275981Y-72767501D01*
X65173203Y-72778000D01*
X65173200Y-72778001D01*
X65006668Y-72833185D01*
X65006663Y-72833187D01*
X64857342Y-72925289D01*
X64733289Y-73049342D01*
X64641187Y-73198663D01*
X64641186Y-73198666D01*
X64586001Y-73365203D01*
X64586001Y-73365204D01*
X64586000Y-73365204D01*
X64575500Y-73467983D01*
X64575500Y-74868001D01*
X64575501Y-74868018D01*
X64586001Y-74970804D01*
X64587395Y-74977316D01*
X64582173Y-75046990D01*
X64553821Y-75090942D01*
X63896792Y-75747971D01*
X63896786Y-75747977D01*
X63893286Y-75751478D01*
X63893284Y-75751480D01*
X63781480Y-75863284D01*
X63751169Y-75915785D01*
X63745516Y-75925574D01*
X63745515Y-75925577D01*
X63702773Y-75999609D01*
X63702423Y-76000215D01*
X63661499Y-76152943D01*
X63661499Y-76152945D01*
X63661499Y-76321046D01*
X63661500Y-76321059D01*
X63661500Y-76636234D01*
X63641815Y-76703273D01*
X63640602Y-76705125D01*
X63552609Y-76836814D01*
X63552602Y-76836827D01*
X63492264Y-76982498D01*
X63492261Y-76982510D01*
X63461500Y-77137153D01*
X63461500Y-77294846D01*
X63492261Y-77449489D01*
X63492264Y-77449501D01*
X63552602Y-77595172D01*
X63552609Y-77595185D01*
X63640210Y-77726288D01*
X63640213Y-77726292D01*
X63751707Y-77837786D01*
X63751711Y-77837789D01*
X63882814Y-77925390D01*
X63882827Y-77925397D01*
X64019481Y-77982000D01*
X64028503Y-77985737D01*
X64183153Y-78016499D01*
X64183156Y-78016500D01*
X64183158Y-78016500D01*
X64340844Y-78016500D01*
X64340845Y-78016499D01*
X64495497Y-77985737D01*
X64641179Y-77925394D01*
X64641184Y-77925390D01*
X64646554Y-77922521D01*
X64647845Y-77924937D01*
X64703243Y-77907571D01*
X64770630Y-77926032D01*
X64817338Y-77977994D01*
X64829500Y-78031550D01*
X64829500Y-79186001D01*
X64829501Y-79186018D01*
X64840000Y-79288796D01*
X64840001Y-79288799D01*
X64861895Y-79354869D01*
X64895186Y-79455334D01*
X64987288Y-79604656D01*
X65111344Y-79728712D01*
X65260666Y-79820814D01*
X65427203Y-79875999D01*
X65529991Y-79886500D01*
X65855500Y-79886499D01*
X65922539Y-79906183D01*
X65968294Y-79958987D01*
X65979500Y-80010499D01*
X65979500Y-81455902D01*
X65959815Y-81522941D01*
X65943181Y-81543583D01*
X63527481Y-83959282D01*
X63527479Y-83959285D01*
X63510895Y-83988011D01*
X63491027Y-84022423D01*
X63448423Y-84096215D01*
X63407499Y-84248943D01*
X63407499Y-84248945D01*
X63407499Y-84417046D01*
X63407500Y-84417059D01*
X63407500Y-84454500D01*
X63387815Y-84521539D01*
X63335011Y-84567294D01*
X63283500Y-84578500D01*
X62639251Y-84578500D01*
X62572212Y-84558815D01*
X62526457Y-84506011D01*
X62517634Y-84478692D01*
X62491738Y-84348508D01*
X62491737Y-84348507D01*
X62491737Y-84348503D01*
X62461041Y-84274395D01*
X62431397Y-84202827D01*
X62431390Y-84202814D01*
X62343789Y-84071711D01*
X62343786Y-84071707D01*
X62232292Y-83960213D01*
X62232288Y-83960210D01*
X62101185Y-83872609D01*
X62101172Y-83872602D01*
X61955501Y-83812264D01*
X61955489Y-83812261D01*
X61800845Y-83781500D01*
X61800842Y-83781500D01*
X61643158Y-83781500D01*
X61643155Y-83781500D01*
X61488510Y-83812261D01*
X61488498Y-83812264D01*
X61342827Y-83872602D01*
X61342814Y-83872609D01*
X61211711Y-83960210D01*
X61211707Y-83960213D01*
X61100213Y-84071707D01*
X61100210Y-84071711D01*
X61012609Y-84202814D01*
X61012602Y-84202827D01*
X60952264Y-84348498D01*
X60952261Y-84348510D01*
X60921500Y-84503153D01*
X60921500Y-84660846D01*
X60952261Y-84815489D01*
X60952264Y-84815501D01*
X61012602Y-84961172D01*
X61012609Y-84961185D01*
X61100210Y-85092288D01*
X61100213Y-85092292D01*
X61211707Y-85203786D01*
X61211715Y-85203792D01*
X61288477Y-85255083D01*
X61307267Y-85270503D01*
X61353284Y-85316520D01*
X61353285Y-85316520D01*
X61360353Y-85323588D01*
X61665616Y-85628851D01*
X61699101Y-85690174D01*
X61694117Y-85759866D01*
X61659711Y-85806413D01*
X61661031Y-85807733D01*
X61543478Y-85925286D01*
X61097582Y-86371181D01*
X61036259Y-86404666D01*
X61009901Y-86407500D01*
X60661662Y-86407500D01*
X60661644Y-86407501D01*
X60562292Y-86417650D01*
X60562289Y-86417651D01*
X60401305Y-86470996D01*
X60401294Y-86471001D01*
X60256959Y-86560029D01*
X60256955Y-86560032D01*
X60137032Y-86679955D01*
X60137029Y-86679959D01*
X60048001Y-86824294D01*
X60047996Y-86824305D01*
X59994651Y-86985290D01*
X59984500Y-87084647D01*
X59984500Y-87196902D01*
X59964815Y-87263941D01*
X59948181Y-87284583D01*
X58955482Y-88277281D01*
X58955480Y-88277283D01*
X58945075Y-88295305D01*
X58937458Y-88308500D01*
X58876423Y-88414215D01*
X58835499Y-88566943D01*
X58835499Y-88566945D01*
X58835499Y-88735046D01*
X58835500Y-88735059D01*
X58835500Y-92423668D01*
X58815815Y-92490707D01*
X58792403Y-92515855D01*
X58792728Y-92516180D01*
X58786451Y-92522457D01*
X58700206Y-92637664D01*
X58700202Y-92637671D01*
X58649908Y-92772517D01*
X58646009Y-92808790D01*
X58643501Y-92832123D01*
X58643500Y-92832135D01*
X58643500Y-93390011D01*
X58623815Y-93457050D01*
X58571011Y-93502805D01*
X58501853Y-93512749D01*
X58438297Y-93483724D01*
X58404939Y-93437463D01*
X58367397Y-93346827D01*
X58367390Y-93346814D01*
X58279789Y-93215711D01*
X58279786Y-93215707D01*
X58168292Y-93104213D01*
X58168288Y-93104210D01*
X58037185Y-93016609D01*
X58037172Y-93016602D01*
X57891501Y-92956264D01*
X57891489Y-92956261D01*
X57736845Y-92925500D01*
X57736842Y-92925500D01*
X57579158Y-92925500D01*
X57579155Y-92925500D01*
X57424510Y-92956261D01*
X57424498Y-92956264D01*
X57278827Y-93016602D01*
X57278814Y-93016609D01*
X57147125Y-93104602D01*
X57129078Y-93110252D01*
X57113169Y-93120477D01*
X57082207Y-93124928D01*
X57080447Y-93125480D01*
X57078234Y-93125500D01*
X56948499Y-93125500D01*
X56881460Y-93105815D01*
X56835705Y-93053011D01*
X56824499Y-93001500D01*
X56824499Y-92832129D01*
X56824498Y-92832123D01*
X56824497Y-92832116D01*
X56818091Y-92772517D01*
X56778242Y-92665677D01*
X56767797Y-92637671D01*
X56767793Y-92637664D01*
X56681547Y-92522455D01*
X56681544Y-92522452D01*
X56566335Y-92436206D01*
X56566328Y-92436202D01*
X56431482Y-92385908D01*
X56431483Y-92385908D01*
X56371883Y-92379501D01*
X56371881Y-92379500D01*
X56371873Y-92379500D01*
X56371865Y-92379500D01*
X56248500Y-92379500D01*
X56181461Y-92359815D01*
X56135706Y-92307011D01*
X56124500Y-92255500D01*
X56124500Y-89400945D01*
X56124500Y-89400943D01*
X56083577Y-89248216D01*
X56037265Y-89168000D01*
X56004524Y-89111290D01*
X56004521Y-89111286D01*
X56004520Y-89111284D01*
X55892716Y-88999480D01*
X55892715Y-88999479D01*
X55888385Y-88995149D01*
X55888374Y-88995139D01*
X54827416Y-87934181D01*
X54793931Y-87872858D01*
X54798915Y-87803166D01*
X54840787Y-87747233D01*
X54906251Y-87722816D01*
X54915097Y-87722500D01*
X55457115Y-87722500D01*
X55521264Y-87740383D01*
X55558510Y-87762898D01*
X55569394Y-87769478D01*
X55731804Y-87820086D01*
X55802384Y-87826500D01*
X55802387Y-87826500D01*
X56465613Y-87826500D01*
X56465616Y-87826500D01*
X56536196Y-87820086D01*
X56698606Y-87769478D01*
X56844185Y-87681472D01*
X56902788Y-87622869D01*
X56962839Y-87562819D01*
X56989766Y-87548115D01*
X57015585Y-87531523D01*
X57021785Y-87530631D01*
X57024162Y-87529334D01*
X57050520Y-87526500D01*
X57249480Y-87526500D01*
X57316519Y-87546185D01*
X57337161Y-87562819D01*
X57455811Y-87681469D01*
X57455813Y-87681470D01*
X57455815Y-87681472D01*
X57601394Y-87769478D01*
X57763804Y-87820086D01*
X57834384Y-87826500D01*
X57834387Y-87826500D01*
X58497613Y-87826500D01*
X58497616Y-87826500D01*
X58568196Y-87820086D01*
X58730606Y-87769478D01*
X58876185Y-87681472D01*
X58996472Y-87561185D01*
X59084478Y-87415606D01*
X59135086Y-87253196D01*
X59141500Y-87182616D01*
X59141500Y-86669384D01*
X59135086Y-86598804D01*
X59084478Y-86436394D01*
X58996472Y-86290815D01*
X58996470Y-86290813D01*
X58996469Y-86290811D01*
X58899339Y-86193681D01*
X58865854Y-86132358D01*
X58870838Y-86062666D01*
X58899339Y-86018319D01*
X58996468Y-85921189D01*
X58996469Y-85921188D01*
X58996472Y-85921185D01*
X59084478Y-85775606D01*
X59135086Y-85613196D01*
X59141500Y-85542616D01*
X59141500Y-85029384D01*
X59135086Y-84958804D01*
X59084478Y-84796394D01*
X58996472Y-84650815D01*
X58996470Y-84650813D01*
X58996469Y-84650811D01*
X58876188Y-84530530D01*
X58835629Y-84506011D01*
X58755849Y-84457782D01*
X58708662Y-84406255D01*
X58696824Y-84337395D01*
X58723420Y-84274652D01*
X58723095Y-84274395D01*
X58724032Y-84273209D01*
X58724093Y-84273067D01*
X58724499Y-84272618D01*
X58727575Y-84268728D01*
X58816542Y-84124492D01*
X58816547Y-84124481D01*
X58869855Y-83963606D01*
X58879999Y-83864322D01*
X58880000Y-83864309D01*
X58880000Y-83816000D01*
X58054000Y-83816000D01*
X57986961Y-83796315D01*
X57941206Y-83743511D01*
X57930000Y-83692000D01*
X57930000Y-83566000D01*
X57804000Y-83566000D01*
X57736961Y-83546315D01*
X57691206Y-83493511D01*
X57680000Y-83442000D01*
X57680000Y-83316000D01*
X58180000Y-83316000D01*
X58879999Y-83316000D01*
X58879999Y-83267692D01*
X58879998Y-83267677D01*
X58869855Y-83168392D01*
X58816547Y-83007518D01*
X58816542Y-83007507D01*
X58727575Y-82863271D01*
X58727572Y-82863267D01*
X58607732Y-82743427D01*
X58607728Y-82743424D01*
X58463492Y-82654457D01*
X58463481Y-82654452D01*
X58302606Y-82601144D01*
X58203322Y-82591000D01*
X58180000Y-82591000D01*
X58180000Y-83316000D01*
X57680000Y-83316000D01*
X57680000Y-82591000D01*
X57667220Y-82578220D01*
X57654367Y-82554681D01*
X57633735Y-82516900D01*
X57638718Y-82447208D01*
X57638718Y-82447206D01*
X57638719Y-82447205D01*
X57638725Y-82447196D01*
X57667218Y-82402859D01*
X57771789Y-82298289D01*
X57859394Y-82167179D01*
X57919737Y-82021497D01*
X57950500Y-81866842D01*
X57950500Y-81709158D01*
X57950500Y-81709155D01*
X57950499Y-81709153D01*
X57919738Y-81554510D01*
X57919738Y-81554508D01*
X57919737Y-81554503D01*
X57900171Y-81507265D01*
X57859397Y-81408827D01*
X57859390Y-81408814D01*
X57771789Y-81277711D01*
X57771786Y-81277707D01*
X57660292Y-81166213D01*
X57660288Y-81166210D01*
X57529185Y-81078609D01*
X57529172Y-81078602D01*
X57383501Y-81018264D01*
X57383489Y-81018261D01*
X57228845Y-80987500D01*
X57228842Y-80987500D01*
X57071158Y-80987500D01*
X57071155Y-80987500D01*
X56916510Y-81018261D01*
X56916498Y-81018264D01*
X56770827Y-81078602D01*
X56770814Y-81078609D01*
X56639711Y-81166210D01*
X56639707Y-81166213D01*
X56528213Y-81277707D01*
X56528210Y-81277711D01*
X56440609Y-81408814D01*
X56440602Y-81408827D01*
X56380264Y-81554498D01*
X56380261Y-81554508D01*
X56349362Y-81709848D01*
X56316977Y-81771759D01*
X56315426Y-81773337D01*
X56001286Y-82087478D01*
X55889481Y-82199282D01*
X55889479Y-82199285D01*
X55839361Y-82286094D01*
X55839359Y-82286096D01*
X55810425Y-82336209D01*
X55810424Y-82336210D01*
X55810423Y-82336215D01*
X55769499Y-82488943D01*
X55769499Y-82488945D01*
X55769499Y-82625996D01*
X55749814Y-82693035D01*
X55710598Y-82731533D01*
X55691956Y-82743031D01*
X55572029Y-82862959D01*
X55483001Y-83007294D01*
X55482996Y-83007305D01*
X55429651Y-83168290D01*
X55419500Y-83267647D01*
X55419500Y-83864337D01*
X55419501Y-83864355D01*
X55429650Y-83963707D01*
X55429651Y-83963710D01*
X55482996Y-84124694D01*
X55483001Y-84124705D01*
X55572029Y-84269040D01*
X55576510Y-84274707D01*
X55574138Y-84276582D01*
X55601089Y-84325939D01*
X55596105Y-84395631D01*
X55554233Y-84451564D01*
X55544074Y-84458413D01*
X55424125Y-84530925D01*
X55424121Y-84530928D01*
X55303927Y-84651122D01*
X55215980Y-84796604D01*
X55165409Y-84958893D01*
X55159000Y-85029427D01*
X55159000Y-85036000D01*
X56010000Y-85036000D01*
X56077039Y-85055685D01*
X56122794Y-85108489D01*
X56134000Y-85160000D01*
X56134000Y-85412000D01*
X56114315Y-85479039D01*
X56061511Y-85524794D01*
X56010000Y-85536000D01*
X55159001Y-85536000D01*
X55159001Y-85542582D01*
X55165408Y-85613102D01*
X55165409Y-85613107D01*
X55215981Y-85775396D01*
X55303927Y-85920877D01*
X55401015Y-86017965D01*
X55417475Y-86048110D01*
X55434240Y-86078119D01*
X55434201Y-86078741D01*
X55434500Y-86079288D01*
X55432049Y-86113557D01*
X55429929Y-86147855D01*
X55429554Y-86148444D01*
X55429516Y-86148980D01*
X55427508Y-86151661D01*
X55401015Y-86193327D01*
X55303531Y-86290810D01*
X55303528Y-86290814D01*
X55226611Y-86418049D01*
X55175083Y-86465236D01*
X55106224Y-86477074D01*
X55041895Y-86449805D01*
X55032814Y-86441579D01*
X54992819Y-86401584D01*
X54959334Y-86340261D01*
X54956500Y-86313903D01*
X54956500Y-86195060D01*
X54956501Y-86195047D01*
X54956501Y-86026944D01*
X54954095Y-86017965D01*
X54915577Y-85874216D01*
X54911524Y-85867196D01*
X54836524Y-85737290D01*
X54836518Y-85737282D01*
X54425818Y-85326582D01*
X54392333Y-85265259D01*
X54389499Y-85238901D01*
X54389499Y-85097129D01*
X54389498Y-85097123D01*
X54389497Y-85097116D01*
X54383091Y-85037517D01*
X54382525Y-85036000D01*
X54332797Y-84902671D01*
X54332793Y-84902664D01*
X54246547Y-84787455D01*
X54246544Y-84787452D01*
X54131335Y-84701206D01*
X54131328Y-84701202D01*
X53996482Y-84650908D01*
X53996483Y-84650908D01*
X53936883Y-84644501D01*
X53936881Y-84644500D01*
X53936873Y-84644500D01*
X53936864Y-84644500D01*
X52771129Y-84644500D01*
X52771123Y-84644501D01*
X52711517Y-84650908D01*
X52701108Y-84654791D01*
X52631416Y-84659774D01*
X52570094Y-84626287D01*
X52536610Y-84564963D01*
X52541596Y-84495272D01*
X52576416Y-84446531D01*
X52575982Y-84446097D01*
X52578589Y-84443489D01*
X52579117Y-84442751D01*
X52580284Y-84441792D01*
X52580289Y-84441789D01*
X52691789Y-84330289D01*
X52779394Y-84199179D01*
X52839737Y-84053497D01*
X52870500Y-83898842D01*
X52870500Y-83741158D01*
X52870500Y-83741155D01*
X52870499Y-83741153D01*
X52839738Y-83586510D01*
X52839738Y-83586508D01*
X52839737Y-83586503D01*
X52839735Y-83586498D01*
X52779397Y-83440827D01*
X52779390Y-83440814D01*
X52691789Y-83309711D01*
X52691786Y-83309707D01*
X52580292Y-83198213D01*
X52580288Y-83198210D01*
X52449185Y-83110609D01*
X52449172Y-83110602D01*
X52303501Y-83050264D01*
X52303489Y-83050261D01*
X52148845Y-83019500D01*
X52148842Y-83019500D01*
X51991158Y-83019500D01*
X51991155Y-83019500D01*
X51836510Y-83050261D01*
X51836498Y-83050264D01*
X51690827Y-83110602D01*
X51690814Y-83110609D01*
X51559711Y-83198210D01*
X51559707Y-83198213D01*
X51448213Y-83309707D01*
X51448210Y-83309711D01*
X51360609Y-83440814D01*
X51360602Y-83440827D01*
X51300264Y-83586498D01*
X51300261Y-83586508D01*
X51269361Y-83741850D01*
X51236976Y-83803761D01*
X51235425Y-83805339D01*
X50573482Y-84467281D01*
X50573480Y-84467283D01*
X50573480Y-84467284D01*
X50530632Y-84541499D01*
X50530631Y-84541501D01*
X50502663Y-84589941D01*
X50452095Y-84638156D01*
X50418835Y-84648139D01*
X50419068Y-84649124D01*
X50411520Y-84650907D01*
X50276671Y-84701202D01*
X50276664Y-84701206D01*
X50161455Y-84787452D01*
X50161452Y-84787455D01*
X50075206Y-84902664D01*
X50075202Y-84902671D01*
X50024908Y-85037517D01*
X50019020Y-85092288D01*
X50018501Y-85097123D01*
X50018500Y-85097135D01*
X50018500Y-85191903D01*
X50012261Y-85213148D01*
X50010682Y-85235237D01*
X50002609Y-85246020D01*
X49998815Y-85258942D01*
X49982081Y-85273441D01*
X49968810Y-85291170D01*
X49956189Y-85295877D01*
X49946011Y-85304697D01*
X49924093Y-85307848D01*
X49903346Y-85315587D01*
X49890185Y-85312724D01*
X49876853Y-85314641D01*
X49856709Y-85305441D01*
X49835073Y-85300735D01*
X49817347Y-85287466D01*
X49813297Y-85285616D01*
X49806819Y-85279584D01*
X49745590Y-85218355D01*
X49745588Y-85218352D01*
X49626717Y-85099481D01*
X49626709Y-85099475D01*
X49508327Y-85031128D01*
X49508324Y-85031127D01*
X49489785Y-85020423D01*
X49337057Y-84979499D01*
X49178943Y-84979499D01*
X49171347Y-84979499D01*
X49171331Y-84979500D01*
X48946004Y-84979500D01*
X48878965Y-84959815D01*
X48840465Y-84920596D01*
X48839983Y-84919815D01*
X48828968Y-84901956D01*
X48709044Y-84782032D01*
X48709040Y-84782029D01*
X48564705Y-84693001D01*
X48564699Y-84692998D01*
X48564697Y-84692997D01*
X48467659Y-84660842D01*
X48403709Y-84639651D01*
X48304346Y-84629500D01*
X47707662Y-84629500D01*
X47707642Y-84629502D01*
X47627100Y-84637729D01*
X47558408Y-84624959D01*
X47507524Y-84577078D01*
X47490500Y-84514371D01*
X47490500Y-79254000D01*
X48367157Y-79254000D01*
X49143010Y-79254000D01*
X49107922Y-79289088D01*
X49061842Y-79368901D01*
X49037989Y-79457920D01*
X49037989Y-79550080D01*
X49061842Y-79639099D01*
X49107922Y-79718912D01*
X49143010Y-79754000D01*
X48367157Y-79754000D01*
X48378350Y-79810274D01*
X48378351Y-79810276D01*
X48457500Y-80001358D01*
X48457505Y-80001368D01*
X48572410Y-80173335D01*
X48572413Y-80173339D01*
X48718660Y-80319586D01*
X48718664Y-80319589D01*
X48890631Y-80434494D01*
X48890641Y-80434499D01*
X49081725Y-80513649D01*
X49081733Y-80513651D01*
X49284579Y-80553999D01*
X49284583Y-80554000D01*
X49538000Y-80554000D01*
X49538000Y-79854012D01*
X50038000Y-79854012D01*
X50038000Y-80554000D01*
X50291417Y-80554000D01*
X50291420Y-80553999D01*
X50494266Y-80513651D01*
X50494274Y-80513649D01*
X50685358Y-80434499D01*
X50685368Y-80434494D01*
X50857335Y-80319589D01*
X50857339Y-80319586D01*
X51003586Y-80173339D01*
X51003589Y-80173335D01*
X51118494Y-80001368D01*
X51118499Y-80001358D01*
X51197648Y-79810276D01*
X51197649Y-79810274D01*
X51208843Y-79754000D01*
X50432990Y-79754000D01*
X50468078Y-79718912D01*
X50514158Y-79639099D01*
X50538011Y-79550080D01*
X50538011Y-79457920D01*
X50514158Y-79368901D01*
X50468078Y-79289088D01*
X50432990Y-79254000D01*
X51208843Y-79254000D01*
X52177157Y-79254000D01*
X52953010Y-79254000D01*
X52917922Y-79289088D01*
X52871842Y-79368901D01*
X52847989Y-79457920D01*
X52847989Y-79550080D01*
X52871842Y-79639099D01*
X52917922Y-79718912D01*
X52953010Y-79754000D01*
X52177157Y-79754000D01*
X52188350Y-79810274D01*
X52188351Y-79810276D01*
X52267500Y-80001358D01*
X52267505Y-80001368D01*
X52382410Y-80173335D01*
X52382413Y-80173339D01*
X52528660Y-80319586D01*
X52528664Y-80319589D01*
X52700631Y-80434494D01*
X52700641Y-80434499D01*
X52891725Y-80513649D01*
X52891733Y-80513651D01*
X53094579Y-80553999D01*
X53094583Y-80554000D01*
X53348000Y-80554000D01*
X53348000Y-79854012D01*
X53848000Y-79854012D01*
X53848000Y-80554000D01*
X54101417Y-80554000D01*
X54101420Y-80553999D01*
X54304266Y-80513651D01*
X54304274Y-80513649D01*
X54495358Y-80434499D01*
X54495368Y-80434494D01*
X54667335Y-80319589D01*
X54667339Y-80319586D01*
X54813586Y-80173339D01*
X54813589Y-80173335D01*
X54928494Y-80001368D01*
X54928499Y-80001358D01*
X55007648Y-79810276D01*
X55007649Y-79810274D01*
X55018843Y-79754000D01*
X54242990Y-79754000D01*
X54278078Y-79718912D01*
X54324158Y-79639099D01*
X54348011Y-79550080D01*
X54348011Y-79457920D01*
X54324158Y-79368901D01*
X54278078Y-79289088D01*
X54242990Y-79254000D01*
X55018843Y-79254000D01*
X55007649Y-79197725D01*
X55007648Y-79197723D01*
X54928499Y-79006641D01*
X54928494Y-79006631D01*
X54813590Y-78834665D01*
X54800334Y-78821410D01*
X54766848Y-78760088D01*
X54771830Y-78690396D01*
X54800340Y-78646037D01*
X54805189Y-78641188D01*
X54891352Y-78526088D01*
X54891354Y-78526086D01*
X54941596Y-78391379D01*
X54941598Y-78391372D01*
X54947999Y-78331844D01*
X54948000Y-78331827D01*
X54948000Y-78134000D01*
X52748000Y-78134000D01*
X52748000Y-78331844D01*
X52754401Y-78391372D01*
X52754402Y-78391376D01*
X52764233Y-78417733D01*
X52769217Y-78487425D01*
X52735733Y-78548748D01*
X52705221Y-78569171D01*
X52706003Y-78570635D01*
X52700631Y-78573505D01*
X52528664Y-78688410D01*
X52528660Y-78688413D01*
X52382413Y-78834660D01*
X52382410Y-78834664D01*
X52267505Y-79006631D01*
X52267500Y-79006641D01*
X52188351Y-79197723D01*
X52188350Y-79197725D01*
X52177157Y-79254000D01*
X51208843Y-79254000D01*
X51197649Y-79197725D01*
X51197648Y-79197723D01*
X51118499Y-79006641D01*
X51118494Y-79006631D01*
X51003589Y-78834664D01*
X51003586Y-78834660D01*
X50857339Y-78688413D01*
X50857335Y-78688410D01*
X50685368Y-78573505D01*
X50685358Y-78573500D01*
X50494274Y-78494350D01*
X50494266Y-78494348D01*
X50291420Y-78454000D01*
X50038000Y-78454000D01*
X50038000Y-79153988D01*
X49538000Y-79153988D01*
X49538000Y-78454000D01*
X49284579Y-78454000D01*
X49081733Y-78494348D01*
X49081725Y-78494350D01*
X48890641Y-78573500D01*
X48890631Y-78573505D01*
X48718664Y-78688410D01*
X48718660Y-78688413D01*
X48572413Y-78834660D01*
X48572410Y-78834664D01*
X48457505Y-79006631D01*
X48457500Y-79006641D01*
X48378351Y-79197723D01*
X48378350Y-79197725D01*
X48367157Y-79254000D01*
X47490500Y-79254000D01*
X47490500Y-76279054D01*
X50455498Y-76279054D01*
X50496422Y-76431783D01*
X50522988Y-76477797D01*
X50575477Y-76568712D01*
X50575481Y-76568717D01*
X50694349Y-76687585D01*
X50694355Y-76687590D01*
X51055139Y-77048374D01*
X51055149Y-77048385D01*
X51059479Y-77052715D01*
X51059480Y-77052716D01*
X51171284Y-77164520D01*
X51171286Y-77164521D01*
X51171290Y-77164524D01*
X51264542Y-77218362D01*
X51308216Y-77243577D01*
X51394330Y-77266651D01*
X51460942Y-77284500D01*
X51460943Y-77284500D01*
X52626260Y-77284500D01*
X52693299Y-77304185D01*
X52739054Y-77356989D01*
X52749550Y-77421755D01*
X52748000Y-77436171D01*
X52748000Y-77634000D01*
X54948000Y-77634000D01*
X54948000Y-77436172D01*
X54947999Y-77436171D01*
X54946450Y-77421755D01*
X54958856Y-77352996D01*
X55006466Y-77301858D01*
X55069740Y-77284500D01*
X55548403Y-77284500D01*
X55615442Y-77304185D01*
X55636084Y-77320819D01*
X56409681Y-78094416D01*
X56443166Y-78155739D01*
X56446000Y-78182097D01*
X56446000Y-78530337D01*
X56446001Y-78530355D01*
X56456150Y-78629707D01*
X56456151Y-78629710D01*
X56509496Y-78790694D01*
X56509501Y-78790705D01*
X56598529Y-78935040D01*
X56598532Y-78935044D01*
X56718455Y-79054967D01*
X56718459Y-79054970D01*
X56862794Y-79143998D01*
X56862797Y-79143999D01*
X56862803Y-79144003D01*
X57023792Y-79197349D01*
X57123155Y-79207500D01*
X57669844Y-79207499D01*
X57669852Y-79207498D01*
X57669855Y-79207498D01*
X57724260Y-79201940D01*
X57769208Y-79197349D01*
X57930197Y-79144003D01*
X57974165Y-79116882D01*
X58074541Y-79054970D01*
X58074541Y-79054969D01*
X58074544Y-79054968D01*
X58089171Y-79040340D01*
X58150489Y-79006855D01*
X58220181Y-79011836D01*
X58264534Y-79040339D01*
X58278767Y-79054572D01*
X58278771Y-79054575D01*
X58423007Y-79143542D01*
X58423018Y-79143547D01*
X58583893Y-79196855D01*
X58683183Y-79206999D01*
X59206500Y-79206999D01*
X59229808Y-79206999D01*
X59229822Y-79206998D01*
X59329107Y-79196855D01*
X59489981Y-79143547D01*
X59489992Y-79143542D01*
X59634228Y-79054575D01*
X59634232Y-79054572D01*
X59754072Y-78934732D01*
X59754075Y-78934728D01*
X59843042Y-78790492D01*
X59843047Y-78790481D01*
X59896355Y-78629606D01*
X59906499Y-78530322D01*
X59906500Y-78530309D01*
X59906500Y-78482000D01*
X59206500Y-78482000D01*
X59206500Y-79206999D01*
X58683183Y-79206999D01*
X58706500Y-79206998D01*
X58706500Y-77559000D01*
X59206500Y-77559000D01*
X59206500Y-77982000D01*
X59906499Y-77982000D01*
X59906499Y-77933692D01*
X59906498Y-77933677D01*
X59896355Y-77834392D01*
X59843047Y-77673518D01*
X59843042Y-77673507D01*
X59754075Y-77529271D01*
X59657807Y-77433002D01*
X59624323Y-77371678D01*
X59629307Y-77301987D01*
X59657809Y-77257639D01*
X59751571Y-77163878D01*
X59751572Y-77163877D01*
X59839519Y-77018395D01*
X59890090Y-76856106D01*
X59896500Y-76785572D01*
X59896500Y-76704000D01*
X59246500Y-76704000D01*
X59246500Y-77467638D01*
X59237855Y-77497078D01*
X59231332Y-77527065D01*
X59227577Y-77532080D01*
X59226815Y-77534677D01*
X59210181Y-77555319D01*
X59206500Y-77559000D01*
X58706500Y-77559000D01*
X58706500Y-77218362D01*
X58726185Y-77151323D01*
X58742819Y-77130681D01*
X58746500Y-77127000D01*
X58746500Y-76204000D01*
X59246500Y-76204000D01*
X59896499Y-76204000D01*
X59896499Y-76122417D01*
X59890091Y-76051897D01*
X59890090Y-76051892D01*
X59839518Y-75889603D01*
X59751573Y-75744124D01*
X59660130Y-75652682D01*
X59626645Y-75591359D01*
X59631629Y-75521667D01*
X59660130Y-75477318D01*
X59751573Y-75385875D01*
X59839519Y-75240395D01*
X59890090Y-75078106D01*
X59896500Y-75007572D01*
X59896500Y-74926000D01*
X59246500Y-74926000D01*
X59246500Y-76204000D01*
X58746500Y-76204000D01*
X58746500Y-74426000D01*
X59246500Y-74426000D01*
X59896499Y-74426000D01*
X59896499Y-74344417D01*
X59890091Y-74273897D01*
X59890090Y-74273892D01*
X59839518Y-74111603D01*
X59751572Y-73966122D01*
X59631377Y-73845927D01*
X59485895Y-73757980D01*
X59485896Y-73757980D01*
X59323605Y-73707409D01*
X59323606Y-73707409D01*
X59253072Y-73701000D01*
X59246500Y-73701000D01*
X59246500Y-74426000D01*
X58746500Y-74426000D01*
X58746500Y-73701000D01*
X58746499Y-73700999D01*
X58739936Y-73701000D01*
X58739917Y-73701001D01*
X58669397Y-73707408D01*
X58669392Y-73707409D01*
X58507103Y-73757981D01*
X58361622Y-73845927D01*
X58361621Y-73845928D01*
X58264535Y-73943015D01*
X58203212Y-73976500D01*
X58133520Y-73971516D01*
X58089173Y-73943015D01*
X57991688Y-73845530D01*
X57846106Y-73757522D01*
X57786165Y-73738844D01*
X57683696Y-73706914D01*
X57683694Y-73706913D01*
X57683692Y-73706913D01*
X57634278Y-73702423D01*
X57613116Y-73700500D01*
X57099884Y-73700500D01*
X57080645Y-73702248D01*
X57029307Y-73706913D01*
X56866893Y-73757522D01*
X56721313Y-73845529D01*
X56601025Y-73965818D01*
X56566065Y-74023650D01*
X56558130Y-74030916D01*
X56553661Y-74040703D01*
X56532813Y-74054100D01*
X56514537Y-74070838D01*
X56502382Y-74073657D01*
X56494883Y-74078477D01*
X56459948Y-74083500D01*
X56250614Y-74083500D01*
X56183575Y-74063815D01*
X56137820Y-74011011D01*
X56127876Y-73941853D01*
X56136053Y-73912047D01*
X56143737Y-73893497D01*
X56174500Y-73738842D01*
X56174500Y-73581158D01*
X56174500Y-73581155D01*
X56174499Y-73581153D01*
X56151991Y-73467998D01*
X56143737Y-73426503D01*
X56143735Y-73426498D01*
X56083397Y-73280827D01*
X56083390Y-73280814D01*
X55995789Y-73149711D01*
X55995786Y-73149707D01*
X55884292Y-73038213D01*
X55884288Y-73038210D01*
X55753185Y-72950609D01*
X55753172Y-72950602D01*
X55607501Y-72890264D01*
X55607489Y-72890261D01*
X55452845Y-72859500D01*
X55452842Y-72859500D01*
X55295158Y-72859500D01*
X55295155Y-72859500D01*
X55140510Y-72890261D01*
X55140503Y-72890263D01*
X55119451Y-72898983D01*
X55049982Y-72906451D01*
X54987503Y-72875175D01*
X54951851Y-72815086D01*
X54948000Y-72784421D01*
X54948000Y-72734000D01*
X52748000Y-72734000D01*
X52748000Y-72935149D01*
X52746341Y-72935149D01*
X52731806Y-72996803D01*
X52681552Y-73045345D01*
X52624019Y-73059500D01*
X51484940Y-73059500D01*
X51444019Y-73070464D01*
X51444019Y-73070465D01*
X51406751Y-73080451D01*
X51332214Y-73100423D01*
X51332209Y-73100426D01*
X51195290Y-73179475D01*
X51195282Y-73179481D01*
X50575481Y-73799282D01*
X50575479Y-73799285D01*
X50525361Y-73886094D01*
X50525359Y-73886096D01*
X50496425Y-73936209D01*
X50496424Y-73936210D01*
X50488491Y-73965818D01*
X50455499Y-74088943D01*
X50455499Y-74247057D01*
X50455499Y-74247059D01*
X50455500Y-74257053D01*
X50455500Y-76113330D01*
X50455499Y-76113348D01*
X50455499Y-76279054D01*
X50455498Y-76279054D01*
X47490500Y-76279054D01*
X47490500Y-70614000D01*
X48367157Y-70614000D01*
X49143010Y-70614000D01*
X49107922Y-70649088D01*
X49061842Y-70728901D01*
X49037989Y-70817920D01*
X49037989Y-70910080D01*
X49061842Y-70999099D01*
X49107922Y-71078912D01*
X49143010Y-71114000D01*
X48367157Y-71114000D01*
X48378350Y-71170274D01*
X48378351Y-71170276D01*
X48457500Y-71361358D01*
X48457505Y-71361368D01*
X48572410Y-71533335D01*
X48572413Y-71533339D01*
X48718660Y-71679586D01*
X48718664Y-71679589D01*
X48890631Y-71794494D01*
X48890641Y-71794499D01*
X49081725Y-71873649D01*
X49081733Y-71873651D01*
X49284579Y-71913999D01*
X49284583Y-71914000D01*
X49538000Y-71914000D01*
X49538000Y-71214012D01*
X50038000Y-71214012D01*
X50038000Y-71914000D01*
X50291417Y-71914000D01*
X50291420Y-71913999D01*
X50494266Y-71873651D01*
X50494274Y-71873649D01*
X50685358Y-71794499D01*
X50685368Y-71794494D01*
X50857335Y-71679589D01*
X50857339Y-71679586D01*
X51003586Y-71533339D01*
X51003589Y-71533335D01*
X51118494Y-71361368D01*
X51118499Y-71361358D01*
X51197648Y-71170276D01*
X51197649Y-71170274D01*
X51208843Y-71114000D01*
X50432990Y-71114000D01*
X50468078Y-71078912D01*
X50514158Y-70999099D01*
X50538011Y-70910080D01*
X50538011Y-70817920D01*
X50514158Y-70728901D01*
X50468078Y-70649088D01*
X50432990Y-70614000D01*
X51208843Y-70614000D01*
X52177157Y-70614000D01*
X52953010Y-70614000D01*
X52917922Y-70649088D01*
X52871842Y-70728901D01*
X52847989Y-70817920D01*
X52847989Y-70910080D01*
X52871842Y-70999099D01*
X52917922Y-71078912D01*
X52953010Y-71114000D01*
X52177157Y-71114000D01*
X52188350Y-71170274D01*
X52188351Y-71170276D01*
X52267500Y-71361358D01*
X52267505Y-71361368D01*
X52382410Y-71533335D01*
X52382413Y-71533339D01*
X52528660Y-71679586D01*
X52528664Y-71679589D01*
X52700631Y-71794494D01*
X52706008Y-71797368D01*
X52704700Y-71799813D01*
X52749831Y-71836103D01*
X52771967Y-71902373D01*
X52764233Y-71950265D01*
X52754403Y-71976620D01*
X52754401Y-71976627D01*
X52748000Y-72036155D01*
X52748000Y-72234000D01*
X54948000Y-72234000D01*
X54948000Y-72036172D01*
X54947999Y-72036155D01*
X54941598Y-71976627D01*
X54941596Y-71976620D01*
X54891354Y-71841913D01*
X54891350Y-71841906D01*
X54805188Y-71726810D01*
X54800329Y-71721950D01*
X54766847Y-71660626D01*
X54771834Y-71590934D01*
X54800335Y-71546589D01*
X54813590Y-71533334D01*
X54928494Y-71361368D01*
X54928499Y-71361358D01*
X55007648Y-71170276D01*
X55007649Y-71170274D01*
X55018843Y-71114000D01*
X54242990Y-71114000D01*
X54278078Y-71078912D01*
X54324158Y-70999099D01*
X54348011Y-70910080D01*
X54348011Y-70817920D01*
X54324158Y-70728901D01*
X54278078Y-70649088D01*
X54242990Y-70614000D01*
X55018843Y-70614000D01*
X55007649Y-70557725D01*
X55007648Y-70557723D01*
X54928499Y-70366641D01*
X54928494Y-70366631D01*
X54813589Y-70194664D01*
X54813586Y-70194660D01*
X54667339Y-70048413D01*
X54667335Y-70048410D01*
X54495368Y-69933505D01*
X54495358Y-69933500D01*
X54304274Y-69854350D01*
X54304266Y-69854348D01*
X54101420Y-69814000D01*
X53848000Y-69814000D01*
X53848000Y-70513988D01*
X53348000Y-70513988D01*
X53348000Y-69814000D01*
X53094579Y-69814000D01*
X52891733Y-69854348D01*
X52891725Y-69854350D01*
X52700641Y-69933500D01*
X52700631Y-69933505D01*
X52528664Y-70048410D01*
X52528660Y-70048413D01*
X52382413Y-70194660D01*
X52382410Y-70194664D01*
X52267505Y-70366631D01*
X52267500Y-70366641D01*
X52188351Y-70557723D01*
X52188350Y-70557725D01*
X52177157Y-70614000D01*
X51208843Y-70614000D01*
X51197649Y-70557725D01*
X51197648Y-70557723D01*
X51118499Y-70366641D01*
X51118494Y-70366631D01*
X51003589Y-70194664D01*
X51003586Y-70194660D01*
X50857339Y-70048413D01*
X50857335Y-70048410D01*
X50685368Y-69933505D01*
X50685358Y-69933500D01*
X50494274Y-69854350D01*
X50494266Y-69854348D01*
X50291420Y-69814000D01*
X50038000Y-69814000D01*
X50038000Y-70513988D01*
X49538000Y-70513988D01*
X49538000Y-69814000D01*
X49284579Y-69814000D01*
X49081733Y-69854348D01*
X49081725Y-69854350D01*
X48890641Y-69933500D01*
X48890631Y-69933505D01*
X48718664Y-70048410D01*
X48718660Y-70048413D01*
X48572413Y-70194660D01*
X48572410Y-70194664D01*
X48457505Y-70366631D01*
X48457500Y-70366641D01*
X48378351Y-70557723D01*
X48378350Y-70557725D01*
X48367157Y-70614000D01*
X47490500Y-70614000D01*
X47490500Y-68386582D01*
X58969001Y-68386582D01*
X58975408Y-68457102D01*
X58975409Y-68457107D01*
X59025981Y-68619396D01*
X59113927Y-68764877D01*
X59234122Y-68885072D01*
X59379604Y-68973019D01*
X59379603Y-68973019D01*
X59541894Y-69023590D01*
X59541892Y-69023590D01*
X59612418Y-69029999D01*
X60194000Y-69029999D01*
X60275581Y-69029999D01*
X60346102Y-69023591D01*
X60346107Y-69023590D01*
X60508396Y-68973018D01*
X60653877Y-68885072D01*
X60774072Y-68764877D01*
X60862019Y-68619395D01*
X60912590Y-68457106D01*
X60919000Y-68386572D01*
X60919000Y-68380000D01*
X60194000Y-68380000D01*
X60194000Y-69029999D01*
X59612418Y-69029999D01*
X59693999Y-69029998D01*
X59694000Y-69029998D01*
X59694000Y-68380000D01*
X58969001Y-68380000D01*
X58969001Y-68386582D01*
X47490500Y-68386582D01*
X47490500Y-64814322D01*
X52626001Y-64814322D01*
X52636144Y-64913607D01*
X52689452Y-65074481D01*
X52689457Y-65074492D01*
X52778424Y-65218728D01*
X52778427Y-65218732D01*
X52898267Y-65338572D01*
X52898271Y-65338575D01*
X53042507Y-65427542D01*
X53042518Y-65427547D01*
X53203393Y-65480855D01*
X53302683Y-65490999D01*
X53326000Y-65490998D01*
X53326000Y-64766000D01*
X52626001Y-64766000D01*
X52626001Y-64814322D01*
X47490500Y-64814322D01*
X47490500Y-62274322D01*
X49324001Y-62274322D01*
X49334144Y-62373607D01*
X49387452Y-62534481D01*
X49387457Y-62534492D01*
X49476424Y-62678728D01*
X49476427Y-62678732D01*
X49596267Y-62798572D01*
X49596271Y-62798575D01*
X49740507Y-62887542D01*
X49740518Y-62887547D01*
X49901393Y-62940855D01*
X50000683Y-62950999D01*
X50024000Y-62950998D01*
X50024000Y-62226000D01*
X49324001Y-62226000D01*
X49324001Y-62274322D01*
X47490500Y-62274322D01*
X47490500Y-61677677D01*
X49324000Y-61677677D01*
X49324000Y-61726000D01*
X50024000Y-61726000D01*
X50024000Y-61000999D01*
X50000693Y-61001000D01*
X50000674Y-61001001D01*
X49901392Y-61011144D01*
X49740518Y-61064452D01*
X49740507Y-61064457D01*
X49596271Y-61153424D01*
X49596267Y-61153427D01*
X49476427Y-61273267D01*
X49476424Y-61273271D01*
X49387457Y-61417507D01*
X49387452Y-61417518D01*
X49334144Y-61578393D01*
X49324000Y-61677677D01*
X47490500Y-61677677D01*
X47490500Y-56504500D01*
X47510185Y-56437461D01*
X47562989Y-56391706D01*
X47614500Y-56380500D01*
X69945372Y-56380500D01*
X70012411Y-56400185D01*
G37*
%TD.AperFunction*%
%TA.AperFunction,Conductor*%
G36*
X53007039Y-59455685D02*
G01*
X53052794Y-59508489D01*
X53064000Y-59560000D01*
X53064000Y-60410999D01*
X53087308Y-60410999D01*
X53087322Y-60410998D01*
X53186607Y-60400855D01*
X53347481Y-60347547D01*
X53347487Y-60347544D01*
X53411294Y-60308187D01*
X53478686Y-60289746D01*
X53545350Y-60310667D01*
X53590120Y-60364309D01*
X53598782Y-60433639D01*
X53590956Y-60461171D01*
X53586264Y-60472499D01*
X53586261Y-60472510D01*
X53555500Y-60627153D01*
X53555500Y-60784846D01*
X53586261Y-60939489D01*
X53586264Y-60939501D01*
X53646602Y-61085172D01*
X53646609Y-61085185D01*
X53717052Y-61190609D01*
X53737930Y-61257286D01*
X53719446Y-61324666D01*
X53667467Y-61371357D01*
X53613950Y-61383500D01*
X52769359Y-61383500D01*
X52702320Y-61363815D01*
X52663822Y-61324599D01*
X52631968Y-61272956D01*
X52512044Y-61153032D01*
X52512040Y-61153029D01*
X52367705Y-61064001D01*
X52367699Y-61063998D01*
X52367697Y-61063997D01*
X52333001Y-61052500D01*
X52206709Y-61010651D01*
X52107352Y-61000500D01*
X52107345Y-61000500D01*
X52032500Y-61000500D01*
X51965461Y-60980815D01*
X51919706Y-60928011D01*
X51908500Y-60876500D01*
X51908500Y-60330167D01*
X51928185Y-60263128D01*
X51980989Y-60217373D01*
X52050147Y-60207429D01*
X52113703Y-60236454D01*
X52120181Y-60242486D01*
X52136267Y-60258572D01*
X52136271Y-60258575D01*
X52280507Y-60347542D01*
X52280518Y-60347547D01*
X52441393Y-60400855D01*
X52540683Y-60410999D01*
X52564000Y-60410998D01*
X52564000Y-59560000D01*
X52583685Y-59492961D01*
X52636489Y-59447206D01*
X52688000Y-59436000D01*
X52940000Y-59436000D01*
X53007039Y-59455685D01*
G37*
%TD.AperFunction*%
%TA.AperFunction,Conductor*%
G36*
X61973039Y-59201685D02*
G01*
X62018794Y-59254489D01*
X62030000Y-59306000D01*
X62030000Y-60156999D01*
X62036581Y-60156999D01*
X62107102Y-60150591D01*
X62107107Y-60150590D01*
X62269396Y-60100018D01*
X62414877Y-60012072D01*
X62535072Y-59891877D01*
X62623017Y-59746399D01*
X62657114Y-59636978D01*
X62695852Y-59578830D01*
X62759877Y-59550856D01*
X62828863Y-59561937D01*
X62880906Y-59608556D01*
X62899500Y-59673868D01*
X62899500Y-60913903D01*
X62879815Y-60980942D01*
X62863181Y-61001584D01*
X62517584Y-61347181D01*
X62456261Y-61380666D01*
X62429903Y-61383500D01*
X61788772Y-61383500D01*
X61721733Y-61363815D01*
X61675978Y-61311011D01*
X61665483Y-61272756D01*
X61661598Y-61236627D01*
X61661596Y-61236620D01*
X61611354Y-61101913D01*
X61611350Y-61101906D01*
X61525190Y-60986812D01*
X61525187Y-60986809D01*
X61410093Y-60900649D01*
X61410086Y-60900645D01*
X61275379Y-60850403D01*
X61275372Y-60850401D01*
X61215844Y-60844000D01*
X60978000Y-60844000D01*
X60978000Y-61219500D01*
X60975449Y-61228185D01*
X60976738Y-61237147D01*
X60965759Y-61261187D01*
X60958315Y-61286539D01*
X60951474Y-61292466D01*
X60947713Y-61300703D01*
X60925478Y-61314992D01*
X60905511Y-61332294D01*
X60894996Y-61334581D01*
X60888935Y-61338477D01*
X60854000Y-61343500D01*
X60822000Y-61343500D01*
X60754961Y-61323815D01*
X60709206Y-61271011D01*
X60698000Y-61219500D01*
X60698000Y-60844000D01*
X60669175Y-60815175D01*
X60659874Y-60807680D01*
X60604318Y-60752123D01*
X60602146Y-60748146D01*
X60568000Y-60714000D01*
X60192500Y-60714000D01*
X60183815Y-60711449D01*
X60174857Y-60712738D01*
X60150817Y-60701760D01*
X60125461Y-60694315D01*
X60119534Y-60687475D01*
X60111300Y-60683715D01*
X60097009Y-60661480D01*
X60079706Y-60641511D01*
X60077419Y-60630999D01*
X60073524Y-60624939D01*
X60068500Y-60590004D01*
X60068499Y-60558004D01*
X60088181Y-60490964D01*
X60140984Y-60445207D01*
X60192499Y-60434000D01*
X60568000Y-60434000D01*
X60568000Y-60207656D01*
X60587685Y-60140617D01*
X60627850Y-60101539D01*
X60629604Y-60100478D01*
X60629606Y-60100478D01*
X60775185Y-60012472D01*
X60872673Y-59914983D01*
X60933994Y-59881499D01*
X61003685Y-59886483D01*
X61048034Y-59914984D01*
X61145122Y-60012072D01*
X61290604Y-60100019D01*
X61290603Y-60100019D01*
X61452894Y-60150590D01*
X61452893Y-60150590D01*
X61523408Y-60156998D01*
X61523426Y-60156999D01*
X61529999Y-60156998D01*
X61530000Y-60156998D01*
X61530000Y-59306000D01*
X61549685Y-59238961D01*
X61602489Y-59193206D01*
X61654000Y-59182000D01*
X61906000Y-59182000D01*
X61973039Y-59201685D01*
G37*
%TD.AperFunction*%
%TA.AperFunction,Conductor*%
G36*
X55915177Y-58913185D02*
G01*
X55935819Y-58929819D01*
X55938000Y-58932000D01*
X56714000Y-58932000D01*
X56781039Y-58951685D01*
X56826794Y-59004489D01*
X56838000Y-59056000D01*
X56838000Y-59308000D01*
X56818315Y-59375039D01*
X56765511Y-59420794D01*
X56714000Y-59432000D01*
X55916138Y-59432000D01*
X55902976Y-59439187D01*
X55833284Y-59434203D01*
X55788937Y-59405702D01*
X55488416Y-59105181D01*
X55454931Y-59043858D01*
X55459915Y-58974166D01*
X55501787Y-58918233D01*
X55567251Y-58893816D01*
X55576097Y-58893500D01*
X55848138Y-58893500D01*
X55915177Y-58913185D01*
G37*
%TD.AperFunction*%
%TD*%
M02*
