%TF.GenerationSoftware,KiCad,Pcbnew,9.0.7*%
%TF.CreationDate,2026-01-22T17:41:33-08:00*%
%TF.ProjectId,charging-circuit,63686172-6769-46e6-972d-636972637569,rev?*%
%TF.SameCoordinates,Original*%
%TF.FileFunction,Paste,Top*%
%TF.FilePolarity,Positive*%
%FSLAX46Y46*%
G04 Gerber Fmt 4.6, Leading zero omitted, Abs format (unit mm)*
G04 Created by KiCad (PCBNEW 9.0.7) date 2026-01-22 17:41:33*
%MOMM*%
%LPD*%
G01*
G04 APERTURE LIST*
G04 Aperture macros list*
%AMRoundRect*
0 Rectangle with rounded corners*
0 $1 Rounding radius*
0 $2 $3 $4 $5 $6 $7 $8 $9 X,Y pos of 4 corners*
0 Add a 4 corners polygon primitive as box body*
4,1,4,$2,$3,$4,$5,$6,$7,$8,$9,$2,$3,0*
0 Add four circle primitives for the rounded corners*
1,1,$1+$1,$2,$3*
1,1,$1+$1,$4,$5*
1,1,$1+$1,$6,$7*
1,1,$1+$1,$8,$9*
0 Add four rect primitives between the rounded corners*
20,1,$1+$1,$2,$3,$4,$5,0*
20,1,$1+$1,$4,$5,$6,$7,0*
20,1,$1+$1,$6,$7,$8,$9,0*
20,1,$1+$1,$8,$9,$2,$3,0*%
G04 Aperture macros list end*
%ADD10R,1.600000X2.200000*%
%ADD11R,1.200000X0.700000*%
%ADD12R,1.200000X0.800000*%
%ADD13RoundRect,0.225000X0.225000X0.250000X-0.225000X0.250000X-0.225000X-0.250000X0.225000X-0.250000X0*%
%ADD14RoundRect,0.242500X0.457500X-0.242500X0.457500X0.242500X-0.457500X0.242500X-0.457500X-0.242500X0*%
%ADD15R,0.280000X0.660000*%
%ADD16R,0.660000X0.280000*%
%ADD17R,2.700000X2.700000*%
%ADD18R,1.070000X0.530000*%
%ADD19RoundRect,0.200000X-0.200000X-0.275000X0.200000X-0.275000X0.200000X0.275000X-0.200000X0.275000X0*%
%ADD20RoundRect,0.200000X0.200000X0.275000X-0.200000X0.275000X-0.200000X-0.275000X0.200000X-0.275000X0*%
%ADD21RoundRect,0.200000X0.275000X-0.200000X0.275000X0.200000X-0.275000X0.200000X-0.275000X-0.200000X0*%
%ADD22RoundRect,0.200000X-0.275000X0.200000X-0.275000X-0.200000X0.275000X-0.200000X0.275000X0.200000X0*%
%ADD23RoundRect,0.250000X-1.000000X-0.650000X1.000000X-0.650000X1.000000X0.650000X-1.000000X0.650000X0*%
%ADD24RoundRect,0.225000X-0.250000X0.225000X-0.250000X-0.225000X0.250000X-0.225000X0.250000X0.225000X0*%
%ADD25RoundRect,0.225000X-0.225000X-0.250000X0.225000X-0.250000X0.225000X0.250000X-0.225000X0.250000X0*%
G04 APERTURE END LIST*
D10*
%TO.C,L2*%
X55524000Y-93980000D03*
X49124000Y-93980000D03*
%TD*%
D11*
%TO.C,J1*%
X53848000Y-74684000D03*
X53848000Y-76684000D03*
D12*
X53848000Y-77884000D03*
D11*
X53848000Y-75684000D03*
X53848000Y-73684000D03*
D12*
X53848000Y-72484000D03*
%TD*%
D13*
%TO.C,C3*%
X56370000Y-83566000D03*
X57930000Y-83566000D03*
%TD*%
D10*
%TO.C,L1*%
X66344000Y-93980000D03*
X59944000Y-93980000D03*
%TD*%
D14*
%TO.C,D2*%
X77470000Y-59360000D03*
X77470000Y-57480000D03*
%TD*%
D13*
%TO.C,C8*%
X58956500Y-78232000D03*
X57396500Y-78232000D03*
%TD*%
D15*
%TO.C,U4*%
X57928000Y-64394000D03*
X58428000Y-64394000D03*
X58928000Y-64394000D03*
X59428000Y-64394000D03*
X59928000Y-64394000D03*
D16*
X60838000Y-63484000D03*
X60838000Y-62984000D03*
X60838000Y-62484000D03*
X60838000Y-61984000D03*
X60838000Y-61484000D03*
D15*
X59928000Y-60574000D03*
X59428000Y-60574000D03*
X58928000Y-60574000D03*
X58428000Y-60574000D03*
X57928000Y-60574000D03*
D16*
X57018000Y-61484000D03*
X57018000Y-61984000D03*
X57018000Y-62484000D03*
X57018000Y-62984000D03*
X57018000Y-63484000D03*
D17*
X58928000Y-62484000D03*
%TD*%
D18*
%TO.C,U3*%
X53354000Y-87310000D03*
X53354000Y-86360000D03*
X53354000Y-85410000D03*
X51054000Y-85410000D03*
X51054000Y-86360000D03*
X51054000Y-87310000D03*
%TD*%
%TO.C,U2*%
X65412000Y-87244000D03*
X65412000Y-86294000D03*
X65412000Y-85344000D03*
X63112000Y-85344000D03*
X63112000Y-86294000D03*
X63112000Y-87244000D03*
%TD*%
D19*
%TO.C,RPROG3*%
X60140000Y-59182000D03*
X61780000Y-59182000D03*
%TD*%
%TO.C,RPROG1*%
X56838000Y-59182000D03*
X58478000Y-59182000D03*
%TD*%
D20*
%TO.C,R11*%
X66352000Y-64516000D03*
X64712000Y-64516000D03*
%TD*%
D21*
%TO.C,R10*%
X70358000Y-87180000D03*
X70358000Y-85540000D03*
%TD*%
D22*
%TO.C,R8*%
X58166000Y-85286000D03*
X58166000Y-86926000D03*
%TD*%
D20*
%TO.C,R7*%
X66352000Y-60452000D03*
X64712000Y-60452000D03*
%TD*%
%TO.C,R6*%
X66352000Y-62484000D03*
X64712000Y-62484000D03*
%TD*%
D22*
%TO.C,R5*%
X59944000Y-66490000D03*
X59944000Y-68130000D03*
%TD*%
%TO.C,R3*%
X68326000Y-85540000D03*
X68326000Y-87180000D03*
%TD*%
D19*
%TO.C,R2*%
X57356500Y-76454000D03*
X58996500Y-76454000D03*
%TD*%
%TO.C,R1*%
X57356500Y-74676000D03*
X58996500Y-74676000D03*
%TD*%
D23*
%TO.C,D5*%
X66580000Y-78486000D03*
X70580000Y-78486000D03*
%TD*%
%TO.C,D4*%
X66326000Y-74168000D03*
X70326000Y-74168000D03*
%TD*%
D14*
%TO.C,D3*%
X74168000Y-59360000D03*
X74168000Y-57480000D03*
%TD*%
%TO.C,D1*%
X70866000Y-59360000D03*
X70866000Y-57480000D03*
%TD*%
D24*
%TO.C,C7*%
X60960000Y-87358000D03*
X60960000Y-88918000D03*
%TD*%
D25*
%TO.C,C6*%
X53576000Y-64516000D03*
X55136000Y-64516000D03*
%TD*%
D24*
%TO.C,C5*%
X48006000Y-85580000D03*
X48006000Y-87140000D03*
%TD*%
D25*
%TO.C,C4*%
X73134000Y-92964000D03*
X74694000Y-92964000D03*
%TD*%
D13*
%TO.C,C2*%
X51834000Y-61976000D03*
X50274000Y-61976000D03*
%TD*%
D25*
%TO.C,C1*%
X52814000Y-59436000D03*
X54374000Y-59436000D03*
%TD*%
D21*
%TO.C,R9*%
X56134000Y-86926000D03*
X56134000Y-85286000D03*
%TD*%
M02*
