%TF.GenerationSoftware,KiCad,Pcbnew,9.0.7*%
%TF.CreationDate,2026-01-22T17:41:33-08:00*%
%TF.ProjectId,charging-circuit,63686172-6769-46e6-972d-636972637569,rev?*%
%TF.SameCoordinates,Original*%
%TF.FileFunction,Copper,L2,Bot*%
%TF.FilePolarity,Positive*%
%FSLAX46Y46*%
G04 Gerber Fmt 4.6, Leading zero omitted, Abs format (unit mm)*
G04 Created by KiCad (PCBNEW 9.0.7) date 2026-01-22 17:41:33*
%MOMM*%
%LPD*%
G01*
G04 APERTURE LIST*
%TA.AperFunction,ComponentPad*%
%ADD10C,1.400000*%
%TD*%
%TA.AperFunction,ComponentPad*%
%ADD11O,1.900000X1.100000*%
%TD*%
%TA.AperFunction,ComponentPad*%
%ADD12C,1.520000*%
%TD*%
%TA.AperFunction,ComponentPad*%
%ADD13C,3.200000*%
%TD*%
%TA.AperFunction,ComponentPad*%
%ADD14C,1.800000*%
%TD*%
%TA.AperFunction,ComponentPad*%
%ADD15R,1.800000X1.800000*%
%TD*%
%TA.AperFunction,ViaPad*%
%ADD16C,0.600000*%
%TD*%
%TA.AperFunction,Conductor*%
%ADD17C,0.200000*%
%TD*%
G04 APERTURE END LIST*
D10*
%TO.P,U5,1,1*%
%TO.N,GND*%
X84498218Y-77370410D03*
%TO.P,U5,2,2*%
%TO.N,Net-(U4-V_{BAT_SENSE})*%
X84498218Y-75370410D03*
%TD*%
D11*
%TO.P,J1,S1,SHIELD*%
%TO.N,GND*%
X53598000Y-70864000D03*
X49788000Y-70864000D03*
X53598000Y-79504000D03*
X49788000Y-79504000D03*
%TD*%
D12*
%TO.P,J2,4,GND*%
%TO.N,GND*%
X77616000Y-85908000D03*
%TO.P,J2,3,D+*%
%TO.N,Net-(J2-D+)*%
X77616000Y-88408000D03*
%TO.P,J2,2,D-*%
X77616000Y-90408000D03*
%TO.P,J2,1,VBUS*%
%TO.N,/5 Vout*%
X77616000Y-92908000D03*
D13*
%TO.P,J2,5,Shield*%
%TO.N,GND*%
X80316000Y-95978000D03*
X80316000Y-82838000D03*
%TD*%
D14*
%TO.P,H2,2,2*%
%TO.N,/5 Vout*%
X88138000Y-68326000D03*
D15*
%TO.P,H2,1,1*%
%TO.N,GND*%
X88138000Y-65786000D03*
%TD*%
D14*
%TO.P,H1,2,2*%
%TO.N,/12 Vout*%
X88138000Y-58928000D03*
D15*
%TO.P,H1,1,1*%
%TO.N,GND*%
X88138000Y-61468000D03*
%TD*%
D16*
%TO.N,GND*%
X57658000Y-79502000D03*
X59436000Y-82804000D03*
X67056000Y-86868000D03*
X48260000Y-88392000D03*
X53594000Y-63754000D03*
X49022000Y-62230000D03*
X71628000Y-92964000D03*
X60198000Y-89154000D03*
X55118000Y-85852000D03*
X52324000Y-86614000D03*
X59944000Y-69596000D03*
X55880000Y-59182000D03*
X61976000Y-60452000D03*
X52832000Y-60706000D03*
%TO.N,Net-(U3-SW)*%
X64262000Y-77216000D03*
X57658000Y-93726000D03*
%TO.N,Net-(U4-V_{BAT_SENSE})*%
X54356000Y-60706000D03*
%TO.N,/VSYS*%
X55118000Y-66548000D03*
X61722000Y-84582000D03*
%TO.N,/12 Vout*%
X70104000Y-71882000D03*
X57150000Y-81788000D03*
%TO.N,VBUS*%
X55374000Y-73660000D03*
X51308000Y-63246000D03*
X58420000Y-65786000D03*
%TO.N,/VSYS*%
X52070000Y-83820000D03*
%TD*%
D17*
%TO.N,VBUS*%
X58420000Y-65786000D02*
X58166000Y-65532000D01*
X58166000Y-65532000D02*
X53594000Y-65532000D01*
X53594000Y-65532000D02*
X51308000Y-63246000D01*
%TO.N,Net-(U3-SW)*%
X64262000Y-87122000D02*
X57658000Y-93726000D01*
X64262000Y-77216000D02*
X64262000Y-87122000D01*
%TO.N,Net-(U4-V_{BAT_SENSE})*%
X54356000Y-60706000D02*
X60960000Y-67310000D01*
X60960000Y-67310000D02*
X78232000Y-67310000D01*
X78232000Y-67310000D02*
X78232000Y-68506000D01*
X78232000Y-68506000D02*
X84385500Y-74659500D01*
%TO.N,/VSYS*%
X51816000Y-69850000D02*
X51308000Y-69850000D01*
X55118000Y-66548000D02*
X51816000Y-69850000D01*
X51308000Y-83058000D02*
X52070000Y-83820000D01*
X51308000Y-69850000D02*
X51308000Y-83058000D01*
X52832000Y-84582000D02*
X52070000Y-83820000D01*
X61722000Y-84582000D02*
X52832000Y-84582000D01*
%TO.N,/12 Vout*%
X65278000Y-71628000D02*
X69850000Y-71628000D01*
X69850000Y-71628000D02*
X70104000Y-71882000D01*
X64008000Y-74930000D02*
X64008000Y-72898000D01*
X64008000Y-72898000D02*
X65278000Y-71628000D01*
X57150000Y-81788000D02*
X64008000Y-74930000D01*
%TO.N,VBUS*%
X58420000Y-70358000D02*
X55118000Y-73660000D01*
X58420000Y-65786000D02*
X58420000Y-70358000D01*
%TD*%
%TA.AperFunction,Conductor*%
%TO.N,GND*%
G36*
X90374539Y-56400185D02*
G01*
X90420294Y-56452989D01*
X90431500Y-56504500D01*
X90431500Y-97673500D01*
X90411815Y-97740539D01*
X90359011Y-97786294D01*
X90307500Y-97797500D01*
X81735052Y-97797500D01*
X81668013Y-97777815D01*
X81622258Y-97725011D01*
X81611317Y-97665390D01*
X81613686Y-97629239D01*
X80934541Y-96950095D01*
X81065182Y-96855179D01*
X81193179Y-96727182D01*
X81288095Y-96596541D01*
X81967239Y-97275686D01*
X81967241Y-97275686D01*
X82065825Y-97147211D01*
X82065836Y-97147194D01*
X82203472Y-96908802D01*
X82203479Y-96908787D01*
X82308819Y-96654471D01*
X82380069Y-96388565D01*
X82416000Y-96115641D01*
X82416000Y-95840358D01*
X82380069Y-95567434D01*
X82308819Y-95301528D01*
X82203479Y-95047212D01*
X82203472Y-95047197D01*
X82065836Y-94808804D01*
X81967240Y-94680312D01*
X81288094Y-95359457D01*
X81193179Y-95228818D01*
X81065182Y-95100821D01*
X80934541Y-95005904D01*
X81613686Y-94326758D01*
X81485196Y-94228163D01*
X81246802Y-94090527D01*
X81246787Y-94090520D01*
X80992471Y-93985180D01*
X80726565Y-93913930D01*
X80453642Y-93878000D01*
X80178358Y-93878000D01*
X79905434Y-93913930D01*
X79639528Y-93985180D01*
X79385212Y-94090520D01*
X79385197Y-94090527D01*
X79146799Y-94228166D01*
X79018312Y-94326757D01*
X79018312Y-94326758D01*
X79697458Y-95005904D01*
X79566818Y-95100821D01*
X79438821Y-95228818D01*
X79343904Y-95359458D01*
X78664758Y-94680312D01*
X78664757Y-94680312D01*
X78566166Y-94808799D01*
X78428527Y-95047197D01*
X78428520Y-95047212D01*
X78323180Y-95301528D01*
X78251930Y-95567434D01*
X78216000Y-95840358D01*
X78216000Y-96115641D01*
X78251930Y-96388565D01*
X78323180Y-96654471D01*
X78428520Y-96908787D01*
X78428527Y-96908802D01*
X78566163Y-97147196D01*
X78664758Y-97275686D01*
X79343903Y-96596540D01*
X79438821Y-96727182D01*
X79566818Y-96855179D01*
X79697458Y-96950094D01*
X79018311Y-97629241D01*
X79020681Y-97665390D01*
X79005424Y-97733573D01*
X78955725Y-97782684D01*
X78896947Y-97797500D01*
X47614500Y-97797500D01*
X47547461Y-97777815D01*
X47501706Y-97725011D01*
X47490500Y-97673500D01*
X47490500Y-93647153D01*
X56857500Y-93647153D01*
X56857500Y-93804846D01*
X56888261Y-93959489D01*
X56888264Y-93959501D01*
X56948602Y-94105172D01*
X56948609Y-94105185D01*
X57036210Y-94236288D01*
X57036213Y-94236292D01*
X57147707Y-94347786D01*
X57147711Y-94347789D01*
X57278814Y-94435390D01*
X57278827Y-94435397D01*
X57424498Y-94495735D01*
X57424503Y-94495737D01*
X57579153Y-94526499D01*
X57579156Y-94526500D01*
X57579158Y-94526500D01*
X57736844Y-94526500D01*
X57736845Y-94526499D01*
X57891497Y-94495737D01*
X58037179Y-94435394D01*
X58168289Y-94347789D01*
X58189321Y-94326757D01*
X58229049Y-94287030D01*
X58279786Y-94236292D01*
X58279789Y-94236289D01*
X58367394Y-94105179D01*
X58427737Y-93959497D01*
X58447113Y-93862085D01*
X58458638Y-93804150D01*
X58491023Y-93742239D01*
X58492518Y-93740716D01*
X63924443Y-88308790D01*
X76355500Y-88308790D01*
X76355500Y-88507209D01*
X76386536Y-88703162D01*
X76386537Y-88703168D01*
X76433140Y-88846596D01*
X76447850Y-88891868D01*
X76509021Y-89011922D01*
X76537923Y-89068646D01*
X76654544Y-89229161D01*
X76654546Y-89229163D01*
X76745702Y-89320319D01*
X76779187Y-89381642D01*
X76774203Y-89451334D01*
X76745702Y-89495681D01*
X76654546Y-89586836D01*
X76654546Y-89586837D01*
X76654544Y-89586839D01*
X76600477Y-89661255D01*
X76537926Y-89747349D01*
X76537924Y-89747352D01*
X76447850Y-89924131D01*
X76417193Y-90018484D01*
X76386537Y-90112832D01*
X76386536Y-90112835D01*
X76386536Y-90112837D01*
X76355500Y-90308790D01*
X76355500Y-90507209D01*
X76386536Y-90703162D01*
X76386537Y-90703168D01*
X76433140Y-90846596D01*
X76447850Y-90891868D01*
X76509021Y-91011922D01*
X76537923Y-91068646D01*
X76654544Y-91229161D01*
X76794839Y-91369456D01*
X76955354Y-91486077D01*
X77069611Y-91544293D01*
X77075934Y-91547515D01*
X77126730Y-91595490D01*
X77143525Y-91663311D01*
X77120988Y-91729446D01*
X77075934Y-91768485D01*
X76955352Y-91829924D01*
X76955349Y-91829926D01*
X76869255Y-91892477D01*
X76794839Y-91946544D01*
X76794837Y-91946546D01*
X76794836Y-91946546D01*
X76654546Y-92086836D01*
X76654546Y-92086837D01*
X76654544Y-92086839D01*
X76600477Y-92161255D01*
X76537926Y-92247349D01*
X76537924Y-92247352D01*
X76447850Y-92424131D01*
X76417193Y-92518484D01*
X76386537Y-92612832D01*
X76386536Y-92612835D01*
X76386536Y-92612837D01*
X76355500Y-92808790D01*
X76355500Y-93007209D01*
X76370864Y-93104211D01*
X76386537Y-93203168D01*
X76390613Y-93215711D01*
X76447850Y-93391868D01*
X76499130Y-93492510D01*
X76537923Y-93568646D01*
X76654544Y-93729161D01*
X76794839Y-93869456D01*
X76955354Y-93986077D01*
X77068800Y-94043880D01*
X77132131Y-94076149D01*
X77132133Y-94076149D01*
X77132136Y-94076151D01*
X77320832Y-94137463D01*
X77418814Y-94152981D01*
X77516791Y-94168500D01*
X77516796Y-94168500D01*
X77715209Y-94168500D01*
X77804278Y-94154392D01*
X77911168Y-94137463D01*
X78099864Y-94076151D01*
X78276646Y-93986077D01*
X78437161Y-93869456D01*
X78577456Y-93729161D01*
X78694077Y-93568646D01*
X78784151Y-93391864D01*
X78845463Y-93203168D01*
X78862392Y-93096278D01*
X78876500Y-93007209D01*
X78876500Y-92808790D01*
X78859570Y-92701906D01*
X78845463Y-92612832D01*
X78784151Y-92424136D01*
X78784149Y-92424133D01*
X78784149Y-92424131D01*
X78751880Y-92360800D01*
X78694077Y-92247354D01*
X78577456Y-92086839D01*
X78437161Y-91946544D01*
X78276646Y-91829923D01*
X78156063Y-91768484D01*
X78105269Y-91720511D01*
X78088474Y-91652690D01*
X78111011Y-91586555D01*
X78156063Y-91547516D01*
X78276646Y-91486077D01*
X78437161Y-91369456D01*
X78577456Y-91229161D01*
X78694077Y-91068646D01*
X78784151Y-90891864D01*
X78845463Y-90703168D01*
X78862392Y-90596278D01*
X78876500Y-90507209D01*
X78876500Y-90308790D01*
X78859570Y-90201906D01*
X78845463Y-90112832D01*
X78784151Y-89924136D01*
X78784149Y-89924133D01*
X78784149Y-89924131D01*
X78751880Y-89860800D01*
X78694077Y-89747354D01*
X78577456Y-89586839D01*
X78486298Y-89495681D01*
X78452813Y-89434358D01*
X78457797Y-89364666D01*
X78486298Y-89320319D01*
X78577456Y-89229161D01*
X78694077Y-89068646D01*
X78784151Y-88891864D01*
X78845463Y-88703168D01*
X78862392Y-88596278D01*
X78876500Y-88507209D01*
X78876500Y-88308790D01*
X78859570Y-88201906D01*
X78845463Y-88112832D01*
X78784151Y-87924136D01*
X78784149Y-87924133D01*
X78784149Y-87924131D01*
X78751880Y-87860800D01*
X78694077Y-87747354D01*
X78577456Y-87586839D01*
X78437161Y-87446544D01*
X78276646Y-87329923D01*
X78155513Y-87268203D01*
X78104718Y-87220230D01*
X78087923Y-87152409D01*
X78110460Y-87086274D01*
X78155514Y-87047234D01*
X78276383Y-86985648D01*
X78313283Y-86958837D01*
X78313284Y-86958836D01*
X77712745Y-86358297D01*
X77793551Y-86336646D01*
X77898443Y-86276087D01*
X77984087Y-86190443D01*
X78044646Y-86085551D01*
X78066297Y-86004745D01*
X78666836Y-86605284D01*
X78666837Y-86605283D01*
X78693648Y-86568382D01*
X78783688Y-86391672D01*
X78783689Y-86391669D01*
X78844973Y-86203052D01*
X78876000Y-86007163D01*
X78876000Y-85808836D01*
X78844973Y-85612947D01*
X78783689Y-85424330D01*
X78783688Y-85424327D01*
X78693645Y-85247612D01*
X78666838Y-85210715D01*
X78666837Y-85210714D01*
X78066297Y-85811254D01*
X78044646Y-85730449D01*
X77984087Y-85625557D01*
X77898443Y-85539913D01*
X77793551Y-85479354D01*
X77712744Y-85457701D01*
X78313283Y-84857161D01*
X78276380Y-84830350D01*
X78099672Y-84740311D01*
X78099669Y-84740310D01*
X77911052Y-84679026D01*
X77715163Y-84648000D01*
X77516837Y-84648000D01*
X77320947Y-84679026D01*
X77132330Y-84740310D01*
X77132322Y-84740313D01*
X76955615Y-84830352D01*
X76918715Y-84857160D01*
X76918715Y-84857161D01*
X77519255Y-85457701D01*
X77438449Y-85479354D01*
X77333557Y-85539913D01*
X77247913Y-85625557D01*
X77187354Y-85730449D01*
X77165701Y-85811255D01*
X76565161Y-85210715D01*
X76565160Y-85210715D01*
X76538352Y-85247615D01*
X76448313Y-85424322D01*
X76448310Y-85424330D01*
X76387026Y-85612947D01*
X76356000Y-85808836D01*
X76356000Y-86007163D01*
X76387026Y-86203052D01*
X76448310Y-86391669D01*
X76448311Y-86391672D01*
X76538350Y-86568380D01*
X76565161Y-86605283D01*
X77165701Y-86004743D01*
X77187354Y-86085551D01*
X77247913Y-86190443D01*
X77333557Y-86276087D01*
X77438449Y-86336646D01*
X77519254Y-86358297D01*
X76918714Y-86958837D01*
X76918715Y-86958838D01*
X76955612Y-86985645D01*
X77076485Y-87047234D01*
X77127281Y-87095209D01*
X77144076Y-87163030D01*
X77121539Y-87229165D01*
X77076485Y-87268204D01*
X76955352Y-87329924D01*
X76955349Y-87329926D01*
X76869255Y-87392477D01*
X76794839Y-87446544D01*
X76794837Y-87446546D01*
X76794836Y-87446546D01*
X76654546Y-87586836D01*
X76654546Y-87586837D01*
X76654544Y-87586839D01*
X76635732Y-87612732D01*
X76537926Y-87747349D01*
X76537924Y-87747352D01*
X76447850Y-87924131D01*
X76417193Y-88018484D01*
X76386537Y-88112832D01*
X76386536Y-88112835D01*
X76386536Y-88112837D01*
X76355500Y-88308790D01*
X63924443Y-88308790D01*
X64620506Y-87612727D01*
X64620511Y-87612724D01*
X64630714Y-87602520D01*
X64630716Y-87602520D01*
X64742520Y-87490716D01*
X64821577Y-87353784D01*
X64862500Y-87201057D01*
X64862500Y-82700358D01*
X78216000Y-82700358D01*
X78216000Y-82975641D01*
X78251930Y-83248565D01*
X78323180Y-83514471D01*
X78428520Y-83768787D01*
X78428527Y-83768802D01*
X78566163Y-84007196D01*
X78664758Y-84135686D01*
X79343903Y-83456540D01*
X79438821Y-83587182D01*
X79566818Y-83715179D01*
X79697458Y-83810094D01*
X79018312Y-84489240D01*
X79146804Y-84587836D01*
X79385197Y-84725472D01*
X79385212Y-84725479D01*
X79639528Y-84830819D01*
X79905434Y-84902069D01*
X80178358Y-84938000D01*
X80453642Y-84938000D01*
X80726565Y-84902069D01*
X80992471Y-84830819D01*
X81246787Y-84725479D01*
X81246802Y-84725472D01*
X81485194Y-84587836D01*
X81485211Y-84587825D01*
X81613686Y-84489241D01*
X81613686Y-84489239D01*
X80934541Y-83810095D01*
X81065182Y-83715179D01*
X81193179Y-83587182D01*
X81288095Y-83456541D01*
X81967239Y-84135686D01*
X81967241Y-84135686D01*
X82065825Y-84007211D01*
X82065836Y-84007194D01*
X82203472Y-83768802D01*
X82203479Y-83768787D01*
X82308819Y-83514471D01*
X82380069Y-83248565D01*
X82416000Y-82975641D01*
X82416000Y-82700358D01*
X82380069Y-82427434D01*
X82308819Y-82161528D01*
X82203479Y-81907212D01*
X82203472Y-81907197D01*
X82065836Y-81668804D01*
X81967240Y-81540312D01*
X81288094Y-82219457D01*
X81193179Y-82088818D01*
X81065182Y-81960821D01*
X80934541Y-81865904D01*
X81613686Y-81186758D01*
X81485196Y-81088163D01*
X81246802Y-80950527D01*
X81246787Y-80950520D01*
X80992471Y-80845180D01*
X80726565Y-80773930D01*
X80453642Y-80738000D01*
X80178358Y-80738000D01*
X79905434Y-80773930D01*
X79639528Y-80845180D01*
X79385212Y-80950520D01*
X79385197Y-80950527D01*
X79146799Y-81088166D01*
X79018312Y-81186757D01*
X79018312Y-81186758D01*
X79697458Y-81865904D01*
X79566818Y-81960821D01*
X79438821Y-82088818D01*
X79343904Y-82219458D01*
X78664758Y-81540312D01*
X78664757Y-81540312D01*
X78566166Y-81668799D01*
X78428527Y-81907197D01*
X78428520Y-81907212D01*
X78323180Y-82161528D01*
X78251930Y-82427434D01*
X78216000Y-82700358D01*
X64862500Y-82700358D01*
X64862500Y-77795765D01*
X64882185Y-77728726D01*
X64883398Y-77726874D01*
X64885343Y-77723964D01*
X64971394Y-77595179D01*
X65031737Y-77449497D01*
X65062500Y-77294842D01*
X65062500Y-77137158D01*
X65062500Y-77137155D01*
X65062499Y-77137153D01*
X65031738Y-76982510D01*
X65031737Y-76982503D01*
X65031735Y-76982498D01*
X64971397Y-76836827D01*
X64971390Y-76836814D01*
X64883789Y-76705711D01*
X64883786Y-76705707D01*
X64772292Y-76594213D01*
X64772288Y-76594210D01*
X64641185Y-76506609D01*
X64641172Y-76506602D01*
X64495501Y-76446264D01*
X64495489Y-76446261D01*
X64340845Y-76415500D01*
X64340842Y-76415500D01*
X64183158Y-76415500D01*
X64183155Y-76415500D01*
X64028510Y-76446261D01*
X64028498Y-76446264D01*
X63882827Y-76506602D01*
X63882814Y-76506609D01*
X63751711Y-76594210D01*
X63751707Y-76594213D01*
X63640213Y-76705707D01*
X63640210Y-76705711D01*
X63552609Y-76836814D01*
X63552602Y-76836827D01*
X63492264Y-76982498D01*
X63492261Y-76982510D01*
X63461500Y-77137153D01*
X63461500Y-77294846D01*
X63492261Y-77449489D01*
X63492264Y-77449501D01*
X63552602Y-77595172D01*
X63552609Y-77595185D01*
X63631595Y-77713395D01*
X63638657Y-77723964D01*
X63640602Y-77726874D01*
X63661480Y-77793551D01*
X63661500Y-77795765D01*
X63661500Y-86821903D01*
X63641815Y-86888942D01*
X63625181Y-86909584D01*
X57643339Y-92891425D01*
X57582016Y-92924910D01*
X57579850Y-92925361D01*
X57424508Y-92956261D01*
X57424498Y-92956264D01*
X57278827Y-93016602D01*
X57278814Y-93016609D01*
X57147711Y-93104210D01*
X57147707Y-93104213D01*
X57036213Y-93215707D01*
X57036210Y-93215711D01*
X56948609Y-93346814D01*
X56948602Y-93346827D01*
X56888264Y-93492498D01*
X56888261Y-93492510D01*
X56857500Y-93647153D01*
X47490500Y-93647153D01*
X47490500Y-70614000D01*
X48367157Y-70614000D01*
X49143010Y-70614000D01*
X49107922Y-70649088D01*
X49061842Y-70728901D01*
X49037989Y-70817920D01*
X49037989Y-70910080D01*
X49061842Y-70999099D01*
X49107922Y-71078912D01*
X49143010Y-71114000D01*
X48367157Y-71114000D01*
X48378350Y-71170274D01*
X48378351Y-71170276D01*
X48457500Y-71361358D01*
X48457505Y-71361368D01*
X48572410Y-71533335D01*
X48572413Y-71533339D01*
X48718660Y-71679586D01*
X48718664Y-71679589D01*
X48890631Y-71794494D01*
X48890641Y-71794499D01*
X49081725Y-71873649D01*
X49081733Y-71873651D01*
X49284579Y-71913999D01*
X49284583Y-71914000D01*
X49538000Y-71914000D01*
X49538000Y-71214012D01*
X50038000Y-71214012D01*
X50038000Y-71914000D01*
X50291417Y-71914000D01*
X50291420Y-71913999D01*
X50494266Y-71873651D01*
X50494275Y-71873649D01*
X50536045Y-71856347D01*
X50605515Y-71848877D01*
X50667994Y-71880151D01*
X50703648Y-71940239D01*
X50707500Y-71970907D01*
X50707500Y-78397092D01*
X50687815Y-78464131D01*
X50635011Y-78509886D01*
X50565853Y-78519830D01*
X50536048Y-78511653D01*
X50494278Y-78494351D01*
X50494266Y-78494348D01*
X50291420Y-78454000D01*
X50038000Y-78454000D01*
X50038000Y-79153988D01*
X49538000Y-79153988D01*
X49538000Y-78454000D01*
X49284579Y-78454000D01*
X49081733Y-78494348D01*
X49081725Y-78494350D01*
X48890641Y-78573500D01*
X48890631Y-78573505D01*
X48718664Y-78688410D01*
X48718660Y-78688413D01*
X48572413Y-78834660D01*
X48572410Y-78834664D01*
X48457505Y-79006631D01*
X48457500Y-79006641D01*
X48378351Y-79197723D01*
X48378350Y-79197725D01*
X48367157Y-79254000D01*
X49143010Y-79254000D01*
X49107922Y-79289088D01*
X49061842Y-79368901D01*
X49037989Y-79457920D01*
X49037989Y-79550080D01*
X49061842Y-79639099D01*
X49107922Y-79718912D01*
X49143010Y-79754000D01*
X48367157Y-79754000D01*
X48378350Y-79810274D01*
X48378351Y-79810276D01*
X48457500Y-80001358D01*
X48457505Y-80001368D01*
X48572410Y-80173335D01*
X48572413Y-80173339D01*
X48718660Y-80319586D01*
X48718664Y-80319589D01*
X48890631Y-80434494D01*
X48890641Y-80434499D01*
X49081725Y-80513649D01*
X49081733Y-80513651D01*
X49284579Y-80553999D01*
X49284583Y-80554000D01*
X49538000Y-80554000D01*
X49538000Y-79854012D01*
X50038000Y-79854012D01*
X50038000Y-80554000D01*
X50291417Y-80554000D01*
X50291420Y-80553999D01*
X50494266Y-80513651D01*
X50494275Y-80513649D01*
X50536045Y-80496347D01*
X50605515Y-80488877D01*
X50667994Y-80520151D01*
X50703648Y-80580239D01*
X50707500Y-80610907D01*
X50707500Y-82971330D01*
X50707499Y-82971348D01*
X50707499Y-83137054D01*
X50707498Y-83137054D01*
X50748423Y-83289786D01*
X50762820Y-83314720D01*
X50762821Y-83314725D01*
X50762823Y-83314725D01*
X50827479Y-83426714D01*
X50827481Y-83426717D01*
X50946349Y-83545585D01*
X50946355Y-83545590D01*
X51235425Y-83834660D01*
X51268910Y-83895983D01*
X51269361Y-83898149D01*
X51300261Y-84053491D01*
X51300264Y-84053501D01*
X51360602Y-84199172D01*
X51360609Y-84199185D01*
X51448210Y-84330288D01*
X51448213Y-84330292D01*
X51559707Y-84441786D01*
X51559711Y-84441789D01*
X51690814Y-84529390D01*
X51690827Y-84529397D01*
X51836498Y-84589735D01*
X51836503Y-84589737D01*
X51901147Y-84602595D01*
X51991849Y-84620638D01*
X52053760Y-84653023D01*
X52055334Y-84654569D01*
X52463284Y-85062520D01*
X52463286Y-85062521D01*
X52463290Y-85062524D01*
X52600209Y-85141573D01*
X52600216Y-85141577D01*
X52752943Y-85182501D01*
X52752945Y-85182501D01*
X52918654Y-85182501D01*
X52918670Y-85182500D01*
X61142234Y-85182500D01*
X61209273Y-85202185D01*
X61211125Y-85203398D01*
X61342814Y-85291390D01*
X61342827Y-85291397D01*
X61488498Y-85351735D01*
X61488503Y-85351737D01*
X61643153Y-85382499D01*
X61643156Y-85382500D01*
X61643158Y-85382500D01*
X61800844Y-85382500D01*
X61800845Y-85382499D01*
X61955497Y-85351737D01*
X62101179Y-85291394D01*
X62232289Y-85203789D01*
X62343789Y-85092289D01*
X62431394Y-84961179D01*
X62491737Y-84815497D01*
X62522500Y-84660842D01*
X62522500Y-84503158D01*
X62522500Y-84503155D01*
X62522499Y-84503153D01*
X62519732Y-84489241D01*
X62491737Y-84348503D01*
X62484192Y-84330288D01*
X62431397Y-84202827D01*
X62431390Y-84202814D01*
X62343789Y-84071711D01*
X62343786Y-84071707D01*
X62232292Y-83960213D01*
X62232288Y-83960210D01*
X62101185Y-83872609D01*
X62101172Y-83872602D01*
X61955501Y-83812264D01*
X61955489Y-83812261D01*
X61800845Y-83781500D01*
X61800842Y-83781500D01*
X61643158Y-83781500D01*
X61643155Y-83781500D01*
X61488510Y-83812261D01*
X61488498Y-83812264D01*
X61342827Y-83872602D01*
X61342814Y-83872609D01*
X61211125Y-83960602D01*
X61144447Y-83981480D01*
X61142234Y-83981500D01*
X53132098Y-83981500D01*
X53102657Y-83972855D01*
X53072671Y-83966332D01*
X53067655Y-83962577D01*
X53065059Y-83961815D01*
X53044417Y-83945181D01*
X52904573Y-83805337D01*
X52871088Y-83744014D01*
X52870637Y-83741847D01*
X52839738Y-83586510D01*
X52839737Y-83586503D01*
X52839735Y-83586498D01*
X52779397Y-83440827D01*
X52779390Y-83440814D01*
X52691789Y-83309711D01*
X52691786Y-83309707D01*
X52580292Y-83198213D01*
X52580288Y-83198210D01*
X52449185Y-83110609D01*
X52449172Y-83110602D01*
X52303501Y-83050264D01*
X52303491Y-83050261D01*
X52148151Y-83019362D01*
X52131394Y-83010596D01*
X52112916Y-83006577D01*
X52087877Y-82987832D01*
X52086241Y-82986977D01*
X52084662Y-82985426D01*
X51944819Y-82845583D01*
X51911334Y-82784260D01*
X51908500Y-82757902D01*
X51908500Y-81709153D01*
X56349500Y-81709153D01*
X56349500Y-81866846D01*
X56380261Y-82021489D01*
X56380264Y-82021501D01*
X56440602Y-82167172D01*
X56440609Y-82167185D01*
X56528210Y-82298288D01*
X56528213Y-82298292D01*
X56639707Y-82409786D01*
X56639711Y-82409789D01*
X56770814Y-82497390D01*
X56770827Y-82497397D01*
X56916498Y-82557735D01*
X56916503Y-82557737D01*
X57071153Y-82588499D01*
X57071156Y-82588500D01*
X57071158Y-82588500D01*
X57228844Y-82588500D01*
X57228845Y-82588499D01*
X57383497Y-82557737D01*
X57529179Y-82497394D01*
X57660289Y-82409789D01*
X57771789Y-82298289D01*
X57859394Y-82167179D01*
X57919737Y-82021497D01*
X57942473Y-81907197D01*
X57950638Y-81866150D01*
X57983023Y-81804239D01*
X57984518Y-81802716D01*
X64488520Y-75298716D01*
X64567577Y-75161784D01*
X64608501Y-75009057D01*
X64608501Y-74850942D01*
X64608501Y-74843347D01*
X64608500Y-74843329D01*
X64608500Y-73198097D01*
X64628185Y-73131058D01*
X64644819Y-73110416D01*
X65490416Y-72264819D01*
X65551739Y-72231334D01*
X65578097Y-72228500D01*
X69306491Y-72228500D01*
X69373530Y-72248185D01*
X69409593Y-72283609D01*
X69482210Y-72392288D01*
X69482213Y-72392292D01*
X69593707Y-72503786D01*
X69593711Y-72503789D01*
X69724814Y-72591390D01*
X69724827Y-72591397D01*
X69870498Y-72651735D01*
X69870503Y-72651737D01*
X70025153Y-72682499D01*
X70025156Y-72682500D01*
X70025158Y-72682500D01*
X70182844Y-72682500D01*
X70182845Y-72682499D01*
X70337497Y-72651737D01*
X70483179Y-72591394D01*
X70614289Y-72503789D01*
X70725789Y-72392289D01*
X70813394Y-72261179D01*
X70873737Y-72115497D01*
X70904500Y-71960842D01*
X70904500Y-71803158D01*
X70904500Y-71803155D01*
X70904499Y-71803153D01*
X70873738Y-71648510D01*
X70873737Y-71648503D01*
X70826035Y-71533339D01*
X70813397Y-71502827D01*
X70813390Y-71502814D01*
X70725789Y-71371711D01*
X70725786Y-71371707D01*
X70614292Y-71260213D01*
X70614288Y-71260210D01*
X70483185Y-71172609D01*
X70483172Y-71172602D01*
X70337501Y-71112264D01*
X70337489Y-71112261D01*
X70182845Y-71081500D01*
X70182842Y-71081500D01*
X70137661Y-71081500D01*
X70090417Y-71068835D01*
X70089299Y-71071535D01*
X70081789Y-71068424D01*
X70069263Y-71065067D01*
X69929057Y-71027499D01*
X69770943Y-71027499D01*
X69763347Y-71027499D01*
X69763331Y-71027500D01*
X65357057Y-71027500D01*
X65198942Y-71027500D01*
X65046215Y-71068423D01*
X65046214Y-71068423D01*
X65046212Y-71068424D01*
X65046209Y-71068425D01*
X64996096Y-71097359D01*
X64996095Y-71097360D01*
X64952689Y-71122420D01*
X64909285Y-71147479D01*
X64909282Y-71147481D01*
X63527481Y-72529282D01*
X63527480Y-72529284D01*
X63491621Y-72591394D01*
X63448423Y-72666215D01*
X63407499Y-72818943D01*
X63407499Y-72818945D01*
X63407499Y-72987046D01*
X63407500Y-72987059D01*
X63407500Y-74629902D01*
X63387815Y-74696941D01*
X63371181Y-74717583D01*
X57135339Y-80953425D01*
X57074016Y-80986910D01*
X57071850Y-80987361D01*
X56916508Y-81018261D01*
X56916498Y-81018264D01*
X56770827Y-81078602D01*
X56770814Y-81078609D01*
X56639711Y-81166210D01*
X56639707Y-81166213D01*
X56528213Y-81277707D01*
X56528210Y-81277711D01*
X56440609Y-81408814D01*
X56440602Y-81408827D01*
X56380264Y-81554498D01*
X56380261Y-81554510D01*
X56349500Y-81709153D01*
X51908500Y-81709153D01*
X51908500Y-79662362D01*
X51928185Y-79595323D01*
X51980989Y-79549568D01*
X52050147Y-79539624D01*
X52113703Y-79568649D01*
X52151477Y-79627427D01*
X52154117Y-79638171D01*
X52188348Y-79810267D01*
X52188350Y-79810274D01*
X52267500Y-80001358D01*
X52267505Y-80001368D01*
X52382410Y-80173335D01*
X52382413Y-80173339D01*
X52528660Y-80319586D01*
X52528664Y-80319589D01*
X52700631Y-80434494D01*
X52700641Y-80434499D01*
X52891725Y-80513649D01*
X52891733Y-80513651D01*
X53094579Y-80553999D01*
X53094583Y-80554000D01*
X53348000Y-80554000D01*
X53348000Y-79854012D01*
X53848000Y-79854012D01*
X53848000Y-80554000D01*
X54101417Y-80554000D01*
X54101420Y-80553999D01*
X54304266Y-80513651D01*
X54304274Y-80513649D01*
X54495358Y-80434499D01*
X54495368Y-80434494D01*
X54667335Y-80319589D01*
X54667339Y-80319586D01*
X54813586Y-80173339D01*
X54813589Y-80173335D01*
X54928494Y-80001368D01*
X54928499Y-80001358D01*
X55007648Y-79810276D01*
X55007649Y-79810274D01*
X55018843Y-79754000D01*
X54242990Y-79754000D01*
X54278078Y-79718912D01*
X54324158Y-79639099D01*
X54348011Y-79550080D01*
X54348011Y-79457920D01*
X54324158Y-79368901D01*
X54278078Y-79289088D01*
X54242990Y-79254000D01*
X55018843Y-79254000D01*
X55007649Y-79197725D01*
X55007648Y-79197723D01*
X54928499Y-79006641D01*
X54928494Y-79006631D01*
X54813589Y-78834664D01*
X54813586Y-78834660D01*
X54667339Y-78688413D01*
X54667335Y-78688410D01*
X54495368Y-78573505D01*
X54495358Y-78573500D01*
X54304274Y-78494350D01*
X54304266Y-78494348D01*
X54101420Y-78454000D01*
X53848000Y-78454000D01*
X53848000Y-79153988D01*
X53348000Y-79153988D01*
X53348000Y-78454000D01*
X53094579Y-78454000D01*
X52891733Y-78494348D01*
X52891725Y-78494350D01*
X52700641Y-78573500D01*
X52700631Y-78573505D01*
X52528664Y-78688410D01*
X52528660Y-78688413D01*
X52382413Y-78834660D01*
X52382410Y-78834664D01*
X52267505Y-79006631D01*
X52267500Y-79006641D01*
X52188350Y-79197725D01*
X52188348Y-79197733D01*
X52154117Y-79369828D01*
X52121733Y-79431739D01*
X52061017Y-79466313D01*
X51991248Y-79462574D01*
X51934575Y-79421708D01*
X51908994Y-79356690D01*
X51908500Y-79345637D01*
X51908500Y-71022362D01*
X51928185Y-70955323D01*
X51980989Y-70909568D01*
X52050147Y-70899624D01*
X52113703Y-70928649D01*
X52151477Y-70987427D01*
X52154117Y-70998171D01*
X52188348Y-71170267D01*
X52188350Y-71170274D01*
X52267500Y-71361358D01*
X52267505Y-71361368D01*
X52382410Y-71533335D01*
X52382413Y-71533339D01*
X52528660Y-71679586D01*
X52528664Y-71679589D01*
X52700631Y-71794494D01*
X52700641Y-71794499D01*
X52891725Y-71873649D01*
X52891733Y-71873651D01*
X53094579Y-71913999D01*
X53094583Y-71914000D01*
X53348000Y-71914000D01*
X53348000Y-71214012D01*
X53848000Y-71214012D01*
X53848000Y-71914000D01*
X54101417Y-71914000D01*
X54101420Y-71913999D01*
X54304266Y-71873651D01*
X54304274Y-71873649D01*
X54495358Y-71794499D01*
X54495368Y-71794494D01*
X54667335Y-71679589D01*
X54667339Y-71679586D01*
X54813586Y-71533339D01*
X54813589Y-71533335D01*
X54928494Y-71361368D01*
X54928499Y-71361358D01*
X55007648Y-71170276D01*
X55007649Y-71170274D01*
X55018843Y-71114000D01*
X54242990Y-71114000D01*
X54278078Y-71078912D01*
X54324158Y-70999099D01*
X54348011Y-70910080D01*
X54348011Y-70817920D01*
X54324158Y-70728901D01*
X54278078Y-70649088D01*
X54242990Y-70614000D01*
X55018843Y-70614000D01*
X55007649Y-70557725D01*
X55007648Y-70557723D01*
X54928499Y-70366641D01*
X54928494Y-70366631D01*
X54813589Y-70194664D01*
X54813586Y-70194660D01*
X54667339Y-70048413D01*
X54667335Y-70048410D01*
X54495368Y-69933505D01*
X54495358Y-69933500D01*
X54304274Y-69854350D01*
X54304266Y-69854348D01*
X54101420Y-69814000D01*
X53848000Y-69814000D01*
X53848000Y-70513988D01*
X53348000Y-70513988D01*
X53348000Y-69814000D01*
X53094585Y-69814000D01*
X53004481Y-69831922D01*
X52934890Y-69825693D01*
X52879713Y-69782830D01*
X52856469Y-69716940D01*
X52872537Y-69648943D01*
X52892606Y-69622628D01*
X55132662Y-67382572D01*
X55193983Y-67349089D01*
X55196150Y-67348638D01*
X55265605Y-67334822D01*
X55351497Y-67317737D01*
X55497179Y-67257394D01*
X55628289Y-67169789D01*
X55739789Y-67058289D01*
X55827394Y-66927179D01*
X55828090Y-66925500D01*
X55841067Y-66894166D01*
X55887737Y-66781497D01*
X55918500Y-66626842D01*
X55918500Y-66469158D01*
X55918500Y-66469155D01*
X55918499Y-66469153D01*
X55915099Y-66452058D01*
X55887737Y-66314503D01*
X55883367Y-66303952D01*
X55875898Y-66234482D01*
X55907174Y-66172003D01*
X55967263Y-66136352D01*
X55997928Y-66132500D01*
X57622491Y-66132500D01*
X57630108Y-66134736D01*
X57637944Y-66133467D01*
X57663153Y-66144440D01*
X57689530Y-66152185D01*
X57696359Y-66158893D01*
X57702008Y-66161352D01*
X57725593Y-66187609D01*
X57798602Y-66296874D01*
X57819480Y-66363551D01*
X57819500Y-66365765D01*
X57819500Y-70057902D01*
X57799815Y-70124941D01*
X57783181Y-70145583D01*
X54953245Y-72975518D01*
X54934458Y-72990937D01*
X54863709Y-73038212D01*
X54752212Y-73149709D01*
X54704939Y-73220455D01*
X54689522Y-73239241D01*
X54637482Y-73291282D01*
X54558423Y-73428214D01*
X54558423Y-73428215D01*
X54517499Y-73580943D01*
X54517499Y-73580945D01*
X54517499Y-73739054D01*
X54517498Y-73739054D01*
X54517499Y-73739057D01*
X54558423Y-73891785D01*
X54637481Y-74028716D01*
X54637483Y-74028718D01*
X54689520Y-74080755D01*
X54704941Y-74099545D01*
X54752210Y-74170288D01*
X54752213Y-74170292D01*
X54863707Y-74281786D01*
X54863711Y-74281789D01*
X54994814Y-74369390D01*
X54994827Y-74369397D01*
X55140498Y-74429735D01*
X55140503Y-74429737D01*
X55295153Y-74460499D01*
X55295156Y-74460500D01*
X55295158Y-74460500D01*
X55452844Y-74460500D01*
X55452845Y-74460499D01*
X55607497Y-74429737D01*
X55753179Y-74369394D01*
X55884289Y-74281789D01*
X55995789Y-74170289D01*
X56083394Y-74039179D01*
X56143737Y-73893497D01*
X56174500Y-73738842D01*
X56174500Y-73581158D01*
X56166123Y-73539045D01*
X56172349Y-73469457D01*
X56200057Y-73427176D01*
X58788713Y-70838521D01*
X58788716Y-70838520D01*
X58900520Y-70726716D01*
X58950639Y-70639904D01*
X58979577Y-70589785D01*
X59020500Y-70437057D01*
X59020500Y-70278943D01*
X59020500Y-66519097D01*
X59040185Y-66452058D01*
X59092989Y-66406303D01*
X59162147Y-66396359D01*
X59225703Y-66425384D01*
X59232181Y-66431416D01*
X60475139Y-67674374D01*
X60475149Y-67674385D01*
X60479479Y-67678715D01*
X60479480Y-67678716D01*
X60591284Y-67790520D01*
X60591286Y-67790521D01*
X60591290Y-67790524D01*
X60728209Y-67869573D01*
X60728216Y-67869577D01*
X60840019Y-67899534D01*
X60880942Y-67910500D01*
X60880943Y-67910500D01*
X77507500Y-67910500D01*
X77574539Y-67930185D01*
X77620294Y-67982989D01*
X77631500Y-68034500D01*
X77631500Y-68419330D01*
X77631499Y-68419348D01*
X77631499Y-68585054D01*
X77631498Y-68585054D01*
X77672423Y-68737785D01*
X77701358Y-68787900D01*
X77701359Y-68787904D01*
X77701360Y-68787904D01*
X77751479Y-68874714D01*
X77751481Y-68874717D01*
X77870349Y-68993585D01*
X77870355Y-68993590D01*
X83458226Y-74581461D01*
X83491711Y-74642784D01*
X83486727Y-74712476D01*
X83473652Y-74736839D01*
X83474004Y-74737055D01*
X83471462Y-74741202D01*
X83385672Y-74909573D01*
X83327277Y-75089291D01*
X83297718Y-75275923D01*
X83297718Y-75464896D01*
X83327277Y-75651528D01*
X83385672Y-75831246D01*
X83471458Y-75999609D01*
X83582528Y-76152483D01*
X83716145Y-76286100D01*
X83869019Y-76397170D01*
X83870913Y-76398135D01*
X83872626Y-76399379D01*
X83873167Y-76399711D01*
X83873140Y-76399753D01*
X83902301Y-76420939D01*
X84409624Y-76928262D01*
X84324520Y-76951066D01*
X84221904Y-77010311D01*
X84138119Y-77094096D01*
X84078874Y-77196712D01*
X84056070Y-77281815D01*
X83490334Y-76716079D01*
X83490334Y-76716080D01*
X83471887Y-76741470D01*
X83386132Y-76909772D01*
X83327766Y-77089407D01*
X83298218Y-77275962D01*
X83298218Y-77464857D01*
X83327766Y-77651412D01*
X83386132Y-77831047D01*
X83471884Y-77999343D01*
X83490334Y-78024738D01*
X84056070Y-77459003D01*
X84078874Y-77544108D01*
X84138119Y-77646724D01*
X84221904Y-77730509D01*
X84324520Y-77789754D01*
X84409623Y-77812557D01*
X83843887Y-78378292D01*
X83843888Y-78378293D01*
X83869277Y-78396739D01*
X84037580Y-78482495D01*
X84217215Y-78540861D01*
X84403771Y-78570410D01*
X84592665Y-78570410D01*
X84779220Y-78540861D01*
X84958855Y-78482495D01*
X85127155Y-78396741D01*
X85152546Y-78378293D01*
X85152546Y-78378292D01*
X84586812Y-77812557D01*
X84671916Y-77789754D01*
X84774532Y-77730509D01*
X84858317Y-77646724D01*
X84917562Y-77544108D01*
X84940365Y-77459003D01*
X85506100Y-78024738D01*
X85506101Y-78024738D01*
X85524549Y-77999347D01*
X85610303Y-77831047D01*
X85668669Y-77651412D01*
X85698218Y-77464857D01*
X85698218Y-77275962D01*
X85668669Y-77089407D01*
X85610303Y-76909772D01*
X85524547Y-76741469D01*
X85506101Y-76716080D01*
X85506100Y-76716079D01*
X84940365Y-77281815D01*
X84917562Y-77196712D01*
X84858317Y-77094096D01*
X84774532Y-77010311D01*
X84671916Y-76951066D01*
X84586812Y-76928262D01*
X85094132Y-76420940D01*
X85123290Y-76399757D01*
X85123264Y-76399714D01*
X85123816Y-76399375D01*
X85125526Y-76398133D01*
X85127417Y-76397170D01*
X85280291Y-76286100D01*
X85413908Y-76152483D01*
X85524978Y-75999609D01*
X85610765Y-75831242D01*
X85669158Y-75651528D01*
X85698718Y-75464896D01*
X85698718Y-75275923D01*
X85669158Y-75089291D01*
X85610763Y-74909573D01*
X85524977Y-74741210D01*
X85521958Y-74737055D01*
X85413908Y-74588337D01*
X85280291Y-74454720D01*
X85127417Y-74343650D01*
X84959054Y-74257864D01*
X84800787Y-74206440D01*
X84751425Y-74176190D01*
X78868819Y-68293584D01*
X78835334Y-68232261D01*
X78833562Y-68215778D01*
X86737500Y-68215778D01*
X86737500Y-68436221D01*
X86771985Y-68653952D01*
X86840103Y-68863603D01*
X86840104Y-68863606D01*
X86940187Y-69060025D01*
X87069752Y-69238358D01*
X87069756Y-69238363D01*
X87225636Y-69394243D01*
X87225641Y-69394247D01*
X87345436Y-69481282D01*
X87403978Y-69523815D01*
X87532375Y-69589237D01*
X87600393Y-69623895D01*
X87600396Y-69623896D01*
X87677485Y-69648943D01*
X87810049Y-69692015D01*
X88027778Y-69726500D01*
X88027779Y-69726500D01*
X88248221Y-69726500D01*
X88248222Y-69726500D01*
X88465951Y-69692015D01*
X88675606Y-69623895D01*
X88872022Y-69523815D01*
X89050365Y-69394242D01*
X89206242Y-69238365D01*
X89335815Y-69060022D01*
X89435895Y-68863606D01*
X89504015Y-68653951D01*
X89538500Y-68436222D01*
X89538500Y-68215778D01*
X89504015Y-67998049D01*
X89435895Y-67788394D01*
X89435895Y-67788393D01*
X89401237Y-67720375D01*
X89335815Y-67591978D01*
X89319260Y-67569192D01*
X89206247Y-67413641D01*
X89206243Y-67413636D01*
X89155683Y-67363076D01*
X89122198Y-67301753D01*
X89127182Y-67232061D01*
X89169054Y-67176128D01*
X89200031Y-67159213D01*
X89280086Y-67129354D01*
X89280093Y-67129350D01*
X89395187Y-67043190D01*
X89395190Y-67043187D01*
X89481350Y-66928093D01*
X89481354Y-66928086D01*
X89531596Y-66793379D01*
X89531598Y-66793372D01*
X89537999Y-66733844D01*
X89538000Y-66733827D01*
X89538000Y-66036000D01*
X88628762Y-66036000D01*
X88650530Y-65998297D01*
X88688012Y-65858410D01*
X88688012Y-65713590D01*
X88650530Y-65573703D01*
X88628762Y-65536000D01*
X89538000Y-65536000D01*
X89538000Y-64838172D01*
X89537999Y-64838155D01*
X89531598Y-64778627D01*
X89531596Y-64778620D01*
X89481354Y-64643913D01*
X89481350Y-64643906D01*
X89395190Y-64528812D01*
X89395187Y-64528809D01*
X89280093Y-64442649D01*
X89280086Y-64442645D01*
X89145379Y-64392403D01*
X89145372Y-64392401D01*
X89085844Y-64386000D01*
X88388000Y-64386000D01*
X88388000Y-65295238D01*
X88350297Y-65273470D01*
X88210410Y-65235988D01*
X88065590Y-65235988D01*
X87925703Y-65273470D01*
X87888000Y-65295238D01*
X87888000Y-64386000D01*
X87190155Y-64386000D01*
X87130627Y-64392401D01*
X87130620Y-64392403D01*
X86995913Y-64442645D01*
X86995906Y-64442649D01*
X86880812Y-64528809D01*
X86880809Y-64528812D01*
X86794649Y-64643906D01*
X86794645Y-64643913D01*
X86744403Y-64778620D01*
X86744401Y-64778627D01*
X86738000Y-64838155D01*
X86738000Y-65536000D01*
X87647238Y-65536000D01*
X87625470Y-65573703D01*
X87587988Y-65713590D01*
X87587988Y-65858410D01*
X87625470Y-65998297D01*
X87647238Y-66036000D01*
X86738000Y-66036000D01*
X86738000Y-66733844D01*
X86744401Y-66793372D01*
X86744403Y-66793379D01*
X86794645Y-66928086D01*
X86794649Y-66928093D01*
X86880809Y-67043187D01*
X86880812Y-67043190D01*
X86995906Y-67129350D01*
X86995913Y-67129354D01*
X87075968Y-67159213D01*
X87131902Y-67201084D01*
X87156319Y-67266549D01*
X87141467Y-67334822D01*
X87120317Y-67363075D01*
X87069756Y-67413636D01*
X87069752Y-67413641D01*
X86940187Y-67591974D01*
X86840104Y-67788393D01*
X86840103Y-67788396D01*
X86771985Y-67998047D01*
X86737500Y-68215778D01*
X78833562Y-68215778D01*
X78832500Y-68205903D01*
X78832500Y-67230945D01*
X78832500Y-67230943D01*
X78791577Y-67078216D01*
X78723317Y-66959985D01*
X78712524Y-66941290D01*
X78712518Y-66941282D01*
X78600717Y-66829481D01*
X78600709Y-66829475D01*
X78463790Y-66750426D01*
X78463786Y-66750424D01*
X78463784Y-66750423D01*
X78311057Y-66709500D01*
X78311056Y-66709500D01*
X61260097Y-66709500D01*
X61193058Y-66689815D01*
X61172416Y-66673181D01*
X55190574Y-60691339D01*
X55157089Y-60630016D01*
X55156638Y-60627849D01*
X55125738Y-60472510D01*
X55125737Y-60472503D01*
X55120815Y-60460620D01*
X55065397Y-60326827D01*
X55065390Y-60326814D01*
X54977789Y-60195711D01*
X54977786Y-60195707D01*
X54866292Y-60084213D01*
X54866288Y-60084210D01*
X54735185Y-59996609D01*
X54735172Y-59996602D01*
X54589501Y-59936264D01*
X54589489Y-59936261D01*
X54434845Y-59905500D01*
X54434842Y-59905500D01*
X54277158Y-59905500D01*
X54277155Y-59905500D01*
X54122510Y-59936261D01*
X54122498Y-59936264D01*
X53976827Y-59996602D01*
X53976814Y-59996609D01*
X53845711Y-60084210D01*
X53845707Y-60084213D01*
X53734213Y-60195707D01*
X53734210Y-60195711D01*
X53646609Y-60326814D01*
X53646602Y-60326827D01*
X53586264Y-60472498D01*
X53586261Y-60472510D01*
X53555500Y-60627153D01*
X53555500Y-60784846D01*
X53586261Y-60939489D01*
X53586264Y-60939501D01*
X53646602Y-61085172D01*
X53646609Y-61085185D01*
X53734210Y-61216288D01*
X53734213Y-61216292D01*
X53845707Y-61327786D01*
X53845711Y-61327789D01*
X53976814Y-61415390D01*
X53976827Y-61415397D01*
X54122498Y-61475735D01*
X54122503Y-61475737D01*
X54187147Y-61488595D01*
X54277849Y-61506638D01*
X54339760Y-61539023D01*
X54341339Y-61540574D01*
X57520584Y-64719819D01*
X57554069Y-64781142D01*
X57549085Y-64850834D01*
X57507213Y-64906767D01*
X57441749Y-64931184D01*
X57432903Y-64931500D01*
X53894097Y-64931500D01*
X53827058Y-64911815D01*
X53806416Y-64895181D01*
X52142574Y-63231339D01*
X52109089Y-63170016D01*
X52108638Y-63167849D01*
X52077738Y-63012510D01*
X52077737Y-63012503D01*
X52077735Y-63012498D01*
X52017397Y-62866827D01*
X52017390Y-62866814D01*
X51929789Y-62735711D01*
X51929786Y-62735707D01*
X51818292Y-62624213D01*
X51818288Y-62624210D01*
X51687185Y-62536609D01*
X51687172Y-62536602D01*
X51541501Y-62476264D01*
X51541489Y-62476261D01*
X51386845Y-62445500D01*
X51386842Y-62445500D01*
X51229158Y-62445500D01*
X51229155Y-62445500D01*
X51074510Y-62476261D01*
X51074498Y-62476264D01*
X50928827Y-62536602D01*
X50928814Y-62536609D01*
X50797711Y-62624210D01*
X50797707Y-62624213D01*
X50686213Y-62735707D01*
X50686210Y-62735711D01*
X50598609Y-62866814D01*
X50598602Y-62866827D01*
X50538264Y-63012498D01*
X50538261Y-63012510D01*
X50507500Y-63167153D01*
X50507500Y-63324846D01*
X50538261Y-63479489D01*
X50538264Y-63479501D01*
X50598602Y-63625172D01*
X50598609Y-63625185D01*
X50686210Y-63756288D01*
X50686213Y-63756292D01*
X50797707Y-63867786D01*
X50797711Y-63867789D01*
X50928814Y-63955390D01*
X50928827Y-63955397D01*
X51074498Y-64015735D01*
X51074503Y-64015737D01*
X51139147Y-64028595D01*
X51229849Y-64046638D01*
X51291760Y-64079023D01*
X51293339Y-64080574D01*
X53109139Y-65896374D01*
X53109149Y-65896385D01*
X53113479Y-65900715D01*
X53113480Y-65900716D01*
X53225284Y-66012520D01*
X53265954Y-66036000D01*
X53312095Y-66062639D01*
X53312097Y-66062641D01*
X53362213Y-66091576D01*
X53362215Y-66091577D01*
X53514942Y-66132500D01*
X53514943Y-66132500D01*
X54238072Y-66132500D01*
X54305111Y-66152185D01*
X54350866Y-66204989D01*
X54360810Y-66274147D01*
X54359079Y-66283578D01*
X54356736Y-66294045D01*
X54348263Y-66314503D01*
X54317500Y-66469158D01*
X54317500Y-66469388D01*
X54316751Y-66472736D01*
X54300520Y-66502044D01*
X54284976Y-66531761D01*
X54283425Y-66533339D01*
X51603584Y-69213181D01*
X51542261Y-69246666D01*
X51515903Y-69249500D01*
X51228943Y-69249500D01*
X51076216Y-69290423D01*
X51076209Y-69290426D01*
X50939290Y-69369475D01*
X50939282Y-69369481D01*
X50827481Y-69481282D01*
X50827475Y-69481290D01*
X50748426Y-69618209D01*
X50748423Y-69618216D01*
X50707499Y-69770947D01*
X50707152Y-69773583D01*
X50706241Y-69775639D01*
X50705397Y-69778793D01*
X50704905Y-69778661D01*
X50678880Y-69837478D01*
X50620552Y-69875944D01*
X50550688Y-69876770D01*
X50536761Y-69871949D01*
X50494274Y-69854350D01*
X50494266Y-69854348D01*
X50291420Y-69814000D01*
X50038000Y-69814000D01*
X50038000Y-70513988D01*
X49538000Y-70513988D01*
X49538000Y-69814000D01*
X49284579Y-69814000D01*
X49081733Y-69854348D01*
X49081725Y-69854350D01*
X48890641Y-69933500D01*
X48890631Y-69933505D01*
X48718664Y-70048410D01*
X48718660Y-70048413D01*
X48572413Y-70194660D01*
X48572410Y-70194664D01*
X48457505Y-70366631D01*
X48457500Y-70366641D01*
X48378351Y-70557723D01*
X48378350Y-70557725D01*
X48367157Y-70614000D01*
X47490500Y-70614000D01*
X47490500Y-58817778D01*
X86737500Y-58817778D01*
X86737500Y-59038221D01*
X86771985Y-59255952D01*
X86840103Y-59465603D01*
X86840104Y-59465606D01*
X86940187Y-59662025D01*
X87069752Y-59840358D01*
X87069756Y-59840363D01*
X87120316Y-59890923D01*
X87153801Y-59952246D01*
X87148817Y-60021938D01*
X87106945Y-60077871D01*
X87075969Y-60094785D01*
X86995918Y-60124643D01*
X86995906Y-60124649D01*
X86880812Y-60210809D01*
X86880809Y-60210812D01*
X86794649Y-60325906D01*
X86794645Y-60325913D01*
X86744403Y-60460620D01*
X86744401Y-60460627D01*
X86738000Y-60520155D01*
X86738000Y-61218000D01*
X87647238Y-61218000D01*
X87625470Y-61255703D01*
X87587988Y-61395590D01*
X87587988Y-61540410D01*
X87625470Y-61680297D01*
X87647238Y-61718000D01*
X86738000Y-61718000D01*
X86738000Y-62415844D01*
X86744401Y-62475372D01*
X86744403Y-62475379D01*
X86794645Y-62610086D01*
X86794649Y-62610093D01*
X86880809Y-62725187D01*
X86880812Y-62725190D01*
X86995906Y-62811350D01*
X86995913Y-62811354D01*
X87130620Y-62861596D01*
X87130627Y-62861598D01*
X87190155Y-62867999D01*
X87190172Y-62868000D01*
X87888000Y-62868000D01*
X87888000Y-61958761D01*
X87925703Y-61980530D01*
X88065590Y-62018012D01*
X88210410Y-62018012D01*
X88350297Y-61980530D01*
X88388000Y-61958761D01*
X88388000Y-62868000D01*
X89085828Y-62868000D01*
X89085844Y-62867999D01*
X89145372Y-62861598D01*
X89145379Y-62861596D01*
X89280086Y-62811354D01*
X89280093Y-62811350D01*
X89395187Y-62725190D01*
X89395190Y-62725187D01*
X89481350Y-62610093D01*
X89481354Y-62610086D01*
X89531596Y-62475379D01*
X89531598Y-62475372D01*
X89537999Y-62415844D01*
X89538000Y-62415827D01*
X89538000Y-61718000D01*
X88628762Y-61718000D01*
X88650530Y-61680297D01*
X88688012Y-61540410D01*
X88688012Y-61395590D01*
X88650530Y-61255703D01*
X88628762Y-61218000D01*
X89538000Y-61218000D01*
X89538000Y-60520172D01*
X89537999Y-60520155D01*
X89531598Y-60460627D01*
X89531596Y-60460620D01*
X89481354Y-60325913D01*
X89481350Y-60325906D01*
X89395190Y-60210812D01*
X89395187Y-60210809D01*
X89280093Y-60124649D01*
X89280087Y-60124646D01*
X89200030Y-60094786D01*
X89144097Y-60052914D01*
X89119680Y-59987450D01*
X89134532Y-59919177D01*
X89155681Y-59890925D01*
X89206242Y-59840365D01*
X89335815Y-59662022D01*
X89435895Y-59465606D01*
X89504015Y-59255951D01*
X89538500Y-59038222D01*
X89538500Y-58817778D01*
X89504015Y-58600049D01*
X89435895Y-58390394D01*
X89435895Y-58390393D01*
X89401237Y-58322375D01*
X89335815Y-58193978D01*
X89319260Y-58171192D01*
X89206247Y-58015641D01*
X89206243Y-58015636D01*
X89050363Y-57859756D01*
X89050358Y-57859752D01*
X88872025Y-57730187D01*
X88872024Y-57730186D01*
X88872022Y-57730185D01*
X88809096Y-57698122D01*
X88675606Y-57630104D01*
X88675603Y-57630103D01*
X88465952Y-57561985D01*
X88357086Y-57544742D01*
X88248222Y-57527500D01*
X88027778Y-57527500D01*
X87955201Y-57538995D01*
X87810047Y-57561985D01*
X87600396Y-57630103D01*
X87600393Y-57630104D01*
X87403974Y-57730187D01*
X87225641Y-57859752D01*
X87225636Y-57859756D01*
X87069756Y-58015636D01*
X87069752Y-58015641D01*
X86940187Y-58193974D01*
X86840104Y-58390393D01*
X86840103Y-58390396D01*
X86771985Y-58600047D01*
X86737500Y-58817778D01*
X47490500Y-58817778D01*
X47490500Y-56504500D01*
X47510185Y-56437461D01*
X47562989Y-56391706D01*
X47614500Y-56380500D01*
X90307500Y-56380500D01*
X90374539Y-56400185D01*
G37*
%TD.AperFunction*%
%TD*%
M02*
