M48
; DRILL file {KiCad 9.0.7} date 2026-01-22T13:23:29-0800
; FORMAT={-:-/ absolute / inch / decimal}
; #@! TF.CreationDate,2026-01-22T13:23:29-08:00
; #@! TF.GenerationSoftware,Kicad,Pcbnew,9.0.7
; #@! TF.FileFunction,Plated,1,2,PTH
FMAT,2
INCH
; #@! TA.AperFunction,Plated,PTH,ComponentDrill
T1C0.0276
; #@! TA.AperFunction,Plated,PTH,ComponentDrill
T2C0.0354
; #@! TA.AperFunction,Plated,PTH,ComponentDrill
T3C0.0362
; #@! TA.AperFunction,Plated,PTH,ComponentDrill
T4C0.0433
; #@! TA.AperFunction,Plated,PTH,ComponentDrill
T5C0.0906
%
G90
G05
T2
X3.0724Y-3.649
X3.1512Y-3.649
T3
X3.527Y-2.7551
X3.6254Y-2.7551
X3.7041Y-2.7551
X3.8026Y-2.7551
T4
X3.65Y-4.15
X3.699Y-3.6781
X3.75Y-4.15
X3.799Y-3.6781
T5
X3.4061Y-2.8614
X3.9234Y-2.8614
T1
G00X5.3642Y-3.4362
M15
G01X5.3957Y-3.4362
M16
G05
G00X5.3642Y-3.7764
M15
G01X5.3957Y-3.7764
M16
G05
G00X5.5142Y-3.4362
M15
G01X5.5457Y-3.4362
M16
G05
G00X5.5142Y-3.7764
M15
G01X5.5457Y-3.7764
M16
G05
M30
