%TF.GenerationSoftware,KiCad,Pcbnew,9.0.7*%
%TF.CreationDate,2026-01-22T13:23:29-08:00*%
%TF.ProjectId,charging-circuit,63686172-6769-46e6-972d-636972637569,rev?*%
%TF.SameCoordinates,Original*%
%TF.FileFunction,Copper,L1,Top*%
%TF.FilePolarity,Positive*%
%FSLAX46Y46*%
G04 Gerber Fmt 4.6, Leading zero omitted, Abs format (unit mm)*
G04 Created by KiCad (PCBNEW 9.0.7) date 2026-01-22 13:23:29*
%MOMM*%
%LPD*%
G01*
G04 APERTURE LIST*
%TA.AperFunction,SMDPad,CuDef*%
%ADD10R,0.810000X0.860000*%
%TD*%
%TA.AperFunction,SMDPad,CuDef*%
%ADD11R,2.000000X2.000000*%
%TD*%
%TA.AperFunction,SMDPad,CuDef*%
%ADD12R,1.130000X1.380000*%
%TD*%
%TA.AperFunction,SMDPad,CuDef*%
%ADD13R,1.000000X1.400000*%
%TD*%
%TA.AperFunction,SMDPad,CuDef*%
%ADD14R,0.530000X1.070000*%
%TD*%
%TA.AperFunction,SMDPad,CuDef*%
%ADD15R,1.600000X2.200000*%
%TD*%
%TA.AperFunction,SMDPad,CuDef*%
%ADD16R,1.200000X0.700000*%
%TD*%
%TA.AperFunction,SMDPad,CuDef*%
%ADD17R,1.200000X0.800000*%
%TD*%
%TA.AperFunction,ComponentPad*%
%ADD18O,1.900000X1.100000*%
%TD*%
%TA.AperFunction,SMDPad,CuDef*%
%ADD19R,1.490000X1.730000*%
%TD*%
%TA.AperFunction,SMDPad,CuDef*%
%ADD20R,1.410000X1.350000*%
%TD*%
%TA.AperFunction,ComponentPad*%
%ADD21R,1.800000X1.800000*%
%TD*%
%TA.AperFunction,ComponentPad*%
%ADD22C,1.800000*%
%TD*%
%TA.AperFunction,SMDPad,CuDef*%
%ADD23R,1.490000X1.620000*%
%TD*%
%TA.AperFunction,SMDPad,CuDef*%
%ADD24R,1.210000X1.700000*%
%TD*%
%TA.AperFunction,ComponentPad*%
%ADD25C,1.520000*%
%TD*%
%TA.AperFunction,ComponentPad*%
%ADD26C,3.200000*%
%TD*%
%TA.AperFunction,ComponentPad*%
%ADD27C,1.400000*%
%TD*%
%TA.AperFunction,SMDPad,CuDef*%
%ADD28R,0.500000X0.540000*%
%TD*%
%TA.AperFunction,SMDPad,CuDef*%
%ADD29R,0.280000X0.660000*%
%TD*%
%TA.AperFunction,SMDPad,CuDef*%
%ADD30R,0.660000X0.280000*%
%TD*%
%TA.AperFunction,SMDPad,CuDef*%
%ADD31R,2.700000X2.700000*%
%TD*%
G04 APERTURE END LIST*
D10*
%TO.P,R4,1,1*%
%TO.N,GND*%
X102640000Y-102870000D03*
%TO.P,R4,2,2*%
%TO.N,Net-(U2-FB)*%
X104140000Y-102870000D03*
%TD*%
D11*
%TO.P,D6,1,K*%
%TO.N,Net-(D6-K)*%
X76915000Y-100670000D03*
%TO.P,D6,2,A*%
%TO.N,/5 Vout*%
X81315000Y-100670000D03*
%TD*%
D12*
%TO.P,R11,1,1*%
%TO.N,Net-(U4-~{PG})*%
X72080000Y-87680000D03*
%TO.P,R11,2,2*%
%TO.N,Net-(LED1-K)*%
X74080000Y-87680000D03*
%TD*%
%TO.P,R6,1,1*%
%TO.N,Net-(U4-STAT1{slash}~{LBO})*%
X72080000Y-72730000D03*
%TO.P,R6,2,2*%
%TO.N,Net-(LED2-K)*%
X74080000Y-72730000D03*
%TD*%
D13*
%TO.P,LED3,1,A*%
%TO.N,VBUS*%
X88310000Y-101890000D03*
%TO.P,LED3,2,K*%
%TO.N,Net-(LED3-K)*%
X86210000Y-101890000D03*
%TD*%
D14*
%TO.P,U3,1,SW*%
%TO.N,Net-(D4-K)*%
X101390000Y-91790000D03*
%TO.P,U3,2,GND*%
%TO.N,GND*%
X102340000Y-91790000D03*
%TO.P,U3,3,FB*%
%TO.N,Net-(U3-FB)*%
X103290000Y-91790000D03*
%TO.P,U3,4,EN*%
%TO.N,/VSYS*%
X103290000Y-89490000D03*
%TO.P,U3,5,IN*%
%TO.N,Net-(U3-IN)*%
X102340000Y-89490000D03*
%TO.P,U3,6,NC*%
%TO.N,unconnected-(U3-NC-Pad6)*%
X101390000Y-89490000D03*
%TD*%
D11*
%TO.P,D4,1,K*%
%TO.N,Net-(D4-K)*%
X76915000Y-96660000D03*
%TO.P,D4,2,A*%
%TO.N,Net-(D4-A)*%
X81315000Y-96660000D03*
%TD*%
D15*
%TO.P,L2,1,1*%
%TO.N,Net-(U3-IN)*%
X76715000Y-81370000D03*
%TO.P,L2,2,2*%
%TO.N,Net-(D4-K)*%
X83115000Y-81370000D03*
%TD*%
D12*
%TO.P,R3,1,1*%
%TO.N,/5 Vout*%
X72080000Y-69740000D03*
%TO.P,R3,2,2*%
%TO.N,Net-(U2-FB)*%
X74080000Y-69740000D03*
%TD*%
D13*
%TO.P,LED1,1,A*%
%TO.N,VBUS*%
X88310000Y-98580000D03*
%TO.P,LED1,2,K*%
%TO.N,Net-(LED1-K)*%
X86210000Y-98580000D03*
%TD*%
D16*
%TO.P,J1,A5,CC1*%
%TO.N,Net-(J1-CC1)*%
X136400000Y-92100000D03*
%TO.P,J1,A9,VBUS*%
%TO.N,VBUS*%
X136400000Y-90100000D03*
D17*
%TO.P,J1,A12,GND*%
%TO.N,GND*%
X136400000Y-88900000D03*
D16*
%TO.P,J1,B5,CC2*%
%TO.N,Net-(J1-CC2)*%
X136400000Y-91100000D03*
%TO.P,J1,B9,VBUS*%
%TO.N,VBUS*%
X136400000Y-93100000D03*
D17*
%TO.P,J1,B12,GND*%
%TO.N,GND*%
X136400000Y-94300000D03*
D18*
%TO.P,J1,S1,SHIELD*%
X136650000Y-95920000D03*
X140460000Y-95920000D03*
X136650000Y-87280000D03*
X140460000Y-87280000D03*
%TD*%
D10*
%TO.P,R1,1,1*%
%TO.N,Net-(J1-CC1)*%
X102640000Y-97930000D03*
%TO.P,R1,2,2*%
%TO.N,GND*%
X104140000Y-97930000D03*
%TD*%
D19*
%TO.P,C4,1,1*%
%TO.N,Net-(U2-IN)*%
X85960000Y-88610000D03*
%TO.P,C4,2,2*%
%TO.N,GND*%
X89140000Y-88610000D03*
%TD*%
D20*
%TO.P,C6,1,1*%
%TO.N,Net-(U4-V_{BAT_SENSE})*%
X103290000Y-78590000D03*
%TO.P,C6,2,2*%
%TO.N,GND*%
X105290000Y-78590000D03*
%TD*%
D12*
%TO.P,R7,1,1*%
%TO.N,Net-(U4-STAT2)*%
X72080000Y-75720000D03*
%TO.P,R7,2,2*%
%TO.N,Net-(LED3-K)*%
X74080000Y-75720000D03*
%TD*%
%TO.P,R10,1,1*%
%TO.N,Net-(U3-FB)*%
X72080000Y-84690000D03*
%TO.P,R10,2,2*%
%TO.N,GND*%
X74080000Y-84690000D03*
%TD*%
D21*
%TO.P,H2,1,1*%
%TO.N,GND*%
X93955000Y-93425000D03*
D22*
%TO.P,H2,2,2*%
%TO.N,/5 Vout*%
X96495000Y-93425000D03*
%TD*%
D19*
%TO.P,C8,1,1*%
%TO.N,Net-(U3-IN)*%
X85960000Y-95270000D03*
%TO.P,C8,2,2*%
%TO.N,GND*%
X89140000Y-95270000D03*
%TD*%
D23*
%TO.P,LED2,1,A*%
%TO.N,VBUS*%
X104290000Y-94480000D03*
%TO.P,LED2,2,K*%
%TO.N,Net-(LED2-K)*%
X101310000Y-94480000D03*
%TD*%
D15*
%TO.P,L1,1,1*%
%TO.N,Net-(U2-IN)*%
X76715000Y-72620000D03*
%TO.P,L1,2,2*%
%TO.N,Net-(D6-K)*%
X83115000Y-72620000D03*
%TD*%
D14*
%TO.P,U2,1,SW*%
%TO.N,Net-(D6-K)*%
X101390000Y-87165000D03*
%TO.P,U2,2,GND*%
%TO.N,GND*%
X102340000Y-87165000D03*
%TO.P,U2,3,FB*%
%TO.N,Net-(U2-FB)*%
X103290000Y-87165000D03*
%TO.P,U2,4,EN*%
%TO.N,/VSYS*%
X103290000Y-84865000D03*
%TO.P,U2,5,IN*%
%TO.N,Net-(U2-IN)*%
X102340000Y-84865000D03*
%TO.P,U2,6,NC*%
%TO.N,unconnected-(U2-NC-Pad6)*%
X101390000Y-84865000D03*
%TD*%
D12*
%TO.P,RPROG3,1,1*%
%TO.N,Net-(R8-Pad1)*%
X72080000Y-90670000D03*
%TO.P,RPROG3,2,2*%
%TO.N,Net-(U4-PROG3)*%
X74080000Y-90670000D03*
%TD*%
D24*
%TO.P,RPROG1,1,1*%
%TO.N,Net-(R8-Pad1)*%
X103160000Y-81720000D03*
%TO.P,RPROG1,2,2*%
%TO.N,Net-(U4-PROG1)*%
X106120000Y-81720000D03*
%TD*%
D12*
%TO.P,R9,1,1*%
%TO.N,Net-(D4-A)*%
X72080000Y-81700000D03*
%TO.P,R9,2,2*%
%TO.N,Net-(U3-FB)*%
X74080000Y-81700000D03*
%TD*%
D10*
%TO.P,R2,1,1*%
%TO.N,Net-(J1-CC2)*%
X102640000Y-100400000D03*
%TO.P,R2,2,2*%
%TO.N,GND*%
X104140000Y-100400000D03*
%TD*%
D19*
%TO.P,C5,1,1*%
%TO.N,/5 Vout*%
X85960000Y-91940000D03*
%TO.P,C5,2,2*%
%TO.N,GND*%
X89140000Y-91940000D03*
%TD*%
D20*
%TO.P,C2,1,1*%
%TO.N,/VSYS*%
X103290000Y-75640000D03*
%TO.P,C2,2,2*%
%TO.N,GND*%
X105290000Y-75640000D03*
%TD*%
D19*
%TO.P,C3,1,1*%
%TO.N,Net-(D4-A)*%
X85960000Y-85280000D03*
%TO.P,C3,2,2*%
%TO.N,GND*%
X89140000Y-85280000D03*
%TD*%
D25*
%TO.P,J2,1,VBUS*%
%TO.N,/5 Vout*%
X89585000Y-69980000D03*
%TO.P,J2,2,D-*%
%TO.N,Net-(J2-D+)*%
X92085000Y-69980000D03*
%TO.P,J2,3,D+*%
X94085000Y-69980000D03*
%TO.P,J2,4,GND*%
%TO.N,GND*%
X96585000Y-69980000D03*
D26*
%TO.P,J2,5,Shield*%
X86515000Y-72680000D03*
X99655000Y-72680000D03*
%TD*%
D21*
%TO.P,H1,1,1*%
%TO.N,GND*%
X92710000Y-105410000D03*
D22*
%TO.P,H1,2,2*%
%TO.N,/12 Vout*%
X95250000Y-105410000D03*
%TD*%
D27*
%TO.P,U5,1,1*%
%TO.N,GND*%
X80040000Y-92685000D03*
%TO.P,U5,2,2*%
%TO.N,Net-(U4-V_{BAT_SENSE})*%
X78040000Y-92685000D03*
%TD*%
D28*
%TO.P,C7,1,1*%
%TO.N,VBUS*%
X76440000Y-103750000D03*
%TO.P,C7,2,2*%
%TO.N,GND*%
X77280000Y-103750000D03*
%TD*%
D12*
%TO.P,R8,1,1*%
%TO.N,Net-(R8-Pad1)*%
X72080000Y-78710000D03*
%TO.P,R8,2,2*%
%TO.N,Net-(U4-THERM)*%
X74080000Y-78710000D03*
%TD*%
D29*
%TO.P,U4,1,OUT*%
%TO.N,/VSYS*%
X103495000Y-72895000D03*
%TO.P,U4,2,VPCC*%
%TO.N,VBUS*%
X103995000Y-72895000D03*
%TO.P,U4,3,SEL*%
X104495000Y-72895000D03*
%TO.P,U4,4,PROG2*%
X104995000Y-72895000D03*
%TO.P,U4,5,THERM*%
%TO.N,Net-(U4-THERM)*%
X105495000Y-72895000D03*
D30*
%TO.P,U4,6,~{PG}*%
%TO.N,Net-(U4-~{PG})*%
X106405000Y-71985000D03*
%TO.P,U4,7,STAT2*%
%TO.N,Net-(U4-STAT2)*%
X106405000Y-71485000D03*
%TO.P,U4,8,STAT1/~{LBO}*%
%TO.N,Net-(U4-STAT1{slash}~{LBO})*%
X106405000Y-70985000D03*
%TO.P,U4,9,~{TE}*%
%TO.N,VBUS*%
X106405000Y-70485000D03*
%TO.P,U4,10,V_{SS}*%
%TO.N,GND*%
X106405000Y-69985000D03*
D29*
%TO.P,U4,11,V_{SS}*%
X105495000Y-69075000D03*
%TO.P,U4,12,PROG3*%
%TO.N,Net-(U4-PROG3)*%
X104995000Y-69075000D03*
%TO.P,U4,13,PROG1*%
%TO.N,Net-(U4-PROG1)*%
X104495000Y-69075000D03*
%TO.P,U4,14,V_{BAT}*%
%TO.N,Net-(U4-V_{BAT_SENSE})*%
X103995000Y-69075000D03*
%TO.P,U4,15,V_{BAT}*%
X103495000Y-69075000D03*
D30*
%TO.P,U4,16,V_{BAT_SENSE}*%
X102585000Y-69985000D03*
%TO.P,U4,17,CE*%
%TO.N,VBUS*%
X102585000Y-70485000D03*
%TO.P,U4,18,IN*%
X102585000Y-70985000D03*
%TO.P,U4,19,IN*%
X102585000Y-71485000D03*
%TO.P,U4,20,OUT*%
%TO.N,/VSYS*%
X102585000Y-71985000D03*
D31*
%TO.P,U4,21,V_{SS}*%
%TO.N,GND*%
X104495000Y-70985000D03*
%TD*%
M02*
