%TF.GenerationSoftware,KiCad,Pcbnew,9.0.7*%
%TF.CreationDate,2026-01-22T13:23:29-08:00*%
%TF.ProjectId,charging-circuit,63686172-6769-46e6-972d-636972637569,rev?*%
%TF.SameCoordinates,Original*%
%TF.FileFunction,Soldermask,Top*%
%TF.FilePolarity,Negative*%
%FSLAX46Y46*%
G04 Gerber Fmt 4.6, Leading zero omitted, Abs format (unit mm)*
G04 Created by KiCad (PCBNEW 9.0.7) date 2026-01-22 13:23:29*
%MOMM*%
%LPD*%
G01*
G04 APERTURE LIST*
%ADD10R,0.810000X0.860000*%
%ADD11R,2.000000X2.000000*%
%ADD12R,1.130000X1.380000*%
%ADD13R,1.000000X1.400000*%
%ADD14R,0.530000X1.070000*%
%ADD15R,1.600000X2.200000*%
%ADD16R,1.200000X0.700000*%
%ADD17R,1.200000X0.800000*%
%ADD18O,1.900000X1.100000*%
%ADD19R,1.490000X1.730000*%
%ADD20R,1.410000X1.350000*%
%ADD21R,1.800000X1.800000*%
%ADD22C,1.800000*%
%ADD23R,1.490000X1.620000*%
%ADD24R,1.210000X1.700000*%
%ADD25C,1.520000*%
%ADD26C,3.200000*%
%ADD27C,1.400000*%
%ADD28R,0.500000X0.540000*%
%ADD29R,0.280000X0.660000*%
%ADD30R,0.660000X0.280000*%
%ADD31R,2.700000X2.700000*%
G04 APERTURE END LIST*
D10*
%TO.C,R4*%
X102640000Y-102870000D03*
X104140000Y-102870000D03*
%TD*%
D11*
%TO.C,D6*%
X76915000Y-100670000D03*
X81315000Y-100670000D03*
%TD*%
D12*
%TO.C,R11*%
X72080000Y-87680000D03*
X74080000Y-87680000D03*
%TD*%
%TO.C,R6*%
X72080000Y-72730000D03*
X74080000Y-72730000D03*
%TD*%
D13*
%TO.C,LED3*%
X88310000Y-101890000D03*
X86210000Y-101890000D03*
%TD*%
D14*
%TO.C,U3*%
X101390000Y-91790000D03*
X102340000Y-91790000D03*
X103290000Y-91790000D03*
X103290000Y-89490000D03*
X102340000Y-89490000D03*
X101390000Y-89490000D03*
%TD*%
D11*
%TO.C,D4*%
X76915000Y-96660000D03*
X81315000Y-96660000D03*
%TD*%
D15*
%TO.C,L2*%
X76715000Y-81370000D03*
X83115000Y-81370000D03*
%TD*%
D12*
%TO.C,R3*%
X72080000Y-69740000D03*
X74080000Y-69740000D03*
%TD*%
D13*
%TO.C,LED1*%
X88310000Y-98580000D03*
X86210000Y-98580000D03*
%TD*%
D16*
%TO.C,J1*%
X136400000Y-92100000D03*
X136400000Y-90100000D03*
D17*
X136400000Y-88900000D03*
D16*
X136400000Y-91100000D03*
X136400000Y-93100000D03*
D17*
X136400000Y-94300000D03*
D18*
X136650000Y-95920000D03*
X140460000Y-95920000D03*
X136650000Y-87280000D03*
X140460000Y-87280000D03*
%TD*%
D10*
%TO.C,R1*%
X102640000Y-97930000D03*
X104140000Y-97930000D03*
%TD*%
D19*
%TO.C,C4*%
X85960000Y-88610000D03*
X89140000Y-88610000D03*
%TD*%
D20*
%TO.C,C6*%
X103290000Y-78590000D03*
X105290000Y-78590000D03*
%TD*%
D12*
%TO.C,R7*%
X72080000Y-75720000D03*
X74080000Y-75720000D03*
%TD*%
%TO.C,R10*%
X72080000Y-84690000D03*
X74080000Y-84690000D03*
%TD*%
D21*
%TO.C,H2*%
X93955000Y-93425000D03*
D22*
X96495000Y-93425000D03*
%TD*%
D19*
%TO.C,C8*%
X85960000Y-95270000D03*
X89140000Y-95270000D03*
%TD*%
D23*
%TO.C,LED2*%
X104290000Y-94480000D03*
X101310000Y-94480000D03*
%TD*%
D15*
%TO.C,L1*%
X76715000Y-72620000D03*
X83115000Y-72620000D03*
%TD*%
D14*
%TO.C,U2*%
X101390000Y-87165000D03*
X102340000Y-87165000D03*
X103290000Y-87165000D03*
X103290000Y-84865000D03*
X102340000Y-84865000D03*
X101390000Y-84865000D03*
%TD*%
D12*
%TO.C,RPROG3*%
X72080000Y-90670000D03*
X74080000Y-90670000D03*
%TD*%
D24*
%TO.C,RPROG1*%
X103160000Y-81720000D03*
X106120000Y-81720000D03*
%TD*%
D12*
%TO.C,R9*%
X72080000Y-81700000D03*
X74080000Y-81700000D03*
%TD*%
D10*
%TO.C,R2*%
X102640000Y-100400000D03*
X104140000Y-100400000D03*
%TD*%
D19*
%TO.C,C5*%
X85960000Y-91940000D03*
X89140000Y-91940000D03*
%TD*%
D20*
%TO.C,C2*%
X103290000Y-75640000D03*
X105290000Y-75640000D03*
%TD*%
D19*
%TO.C,C3*%
X85960000Y-85280000D03*
X89140000Y-85280000D03*
%TD*%
D25*
%TO.C,J2*%
X89585000Y-69980000D03*
X92085000Y-69980000D03*
X94085000Y-69980000D03*
X96585000Y-69980000D03*
D26*
X86515000Y-72680000D03*
X99655000Y-72680000D03*
%TD*%
D21*
%TO.C,H1*%
X92710000Y-105410000D03*
D22*
X95250000Y-105410000D03*
%TD*%
D27*
%TO.C,U5*%
X80040000Y-92685000D03*
X78040000Y-92685000D03*
%TD*%
D28*
%TO.C,C7*%
X76440000Y-103750000D03*
X77280000Y-103750000D03*
%TD*%
D12*
%TO.C,R8*%
X72080000Y-78710000D03*
X74080000Y-78710000D03*
%TD*%
D29*
%TO.C,U4*%
X103495000Y-72895000D03*
X103995000Y-72895000D03*
X104495000Y-72895000D03*
X104995000Y-72895000D03*
X105495000Y-72895000D03*
D30*
X106405000Y-71985000D03*
X106405000Y-71485000D03*
X106405000Y-70985000D03*
X106405000Y-70485000D03*
X106405000Y-69985000D03*
D29*
X105495000Y-69075000D03*
X104995000Y-69075000D03*
X104495000Y-69075000D03*
X103995000Y-69075000D03*
X103495000Y-69075000D03*
D30*
X102585000Y-69985000D03*
X102585000Y-70485000D03*
X102585000Y-70985000D03*
X102585000Y-71485000D03*
X102585000Y-71985000D03*
D31*
X104495000Y-70985000D03*
%TD*%
M02*
