#VRML V2.0 utf8
# 3D model generated by easyeda2kicad.py (https://github.com/uPesy/easyeda2kicad.py)

Shape{
    appearance Appearance {
        material  Material 	{
            diffuseColor 0.20784313725490197 0.20784313725490197 0.20784313725490197
            specularColor 0.01568627450980392 0.01568627450980392 0.01568627450980392
            ambientIntensity 0.2
            transparency 0
            shininess 0.5
        }
    }
    geometry IndexedFaceSet {
        ccw TRUE
        solid FALSE
        coord DEF co Coordinate {
            point [
                0.38 -0.3937 0.2953, 0.3937 -0.3937 0.2953, 0.3937 0.2453 0.2953, 0.3347 -0.3937 0.2953, 0.38 0.2453 0.2953, 0.3028 -0.3937 0.2953, 0.3347 0.2453 0.2953, 0.2449 0.2589 0.2953, 0.244 0.2588 0.2953, 0.2523 0.2588 0.2953, 0.3153 0.3224 0.2953, 0.3028 0.3224 0.2953, 0.3188 0.3131 0.2953, 0.3028 0.3128 0.2953, 0.3347 0.3128 0.2953, 0.3011 0.3224 0.2953, 0.2979 0.3131 0.2953, 0.2921 0.3128 0.2953, 0.293 0.3131 0.2953, 0.2921 0.3937 0.2953, 0.3028 0.3389 0.2953, 0.3028 0.3937 0.2953, 0.306 0.3472 0.2953, 0.3347 0.3937 0.2953, 0.3107 0.3472 0.2953, 0.3237 0.3131 0.2953, 0.2052 0.2588 0.2953, 0.2052 0.2591 0.2953, 0.187 0.2591 0.2953, 0.187 0.2932 0.2953, 0.1731 0.3028 0.2953, 0.1731 0.2588 0.2953, 0.2046 0.2932 0.2953, 0.2052 0.3028 0.2953, 0.2046 0.2892 0.2953, 0.1914 0.2892 0.2953, 0.1914 0.2783 0.2953, 0.1914 0.2744 0.2953, 0.1914 0.263 0.2953, 0.2036 0.2744 0.2953, 0.2052 0.263 0.2953, 0.2036 0.2783 0.2953, 0.2058 0.3028 0.2953, 0.2053 0.2591 0.2953, 0.2058 0.2588 0.2953, 0.2053 0.263 0.2953, 0.2304 0.3424 0.2953, 0.215 0.3194 0.2953, 0.2172 0.3178 0.2953, 0.228 0.3433 0.2953, 0.2141 0.3395 0.2953, 0.2125 0.3371 0.2953, 0.2114 0.3341 0.2953, 0.2238 0.3438 0.2953, 0.2225 0.3437 0.2953, 0.2146 0.34 0.2953, 0.2196 0.3431 0.2953, 0.2169 0.3419 0.2953, 0.211 0.3298 0.2953, 0.211 0.3285 0.2953, 0.2116 0.3251 0.2953, 0.2196 0.3169 0.2953, 0.2231 0.3165 0.2953, 0.2247 0.3165 0.2953, 0.2127 0.3223 0.2953, 0.2143 0.32 0.2953, 0.2333 0.3937 0.2953, 0.2304 0.3937 0.2953, 0.2304 0.3468 0.2953, 0.2285 0.3172 0.2953, 0.2304 0.3181 0.2953, 0.2315 0.342 0.2953, 0.2319 0.3187 0.2953, 0.2319 0.3417 0.2953, 0.2333 0.3128 0.2953, 0.2319 0.3463 0.2953, 0.2195 0.3128 0.2953, 0.2167 0.3134 0.2953, 0.2058 0.3128 0.2953, 0.2135 0.3149 0.2953, 0.2107 0.3172 0.2953, 0.2058 0.3937 0.2953, 0.2088 0.3395 0.2953, 0.2113 0.3427 0.2953, 0.2188 0.3471 0.2953, 0.2238 0.3477 0.2953, 0.2239 0.3477 0.2953, 0.2284 0.3474 0.2953, 0.2102 0.3178 0.2953, 0.2082 0.3208 0.2953, 0.2069 0.3244 0.2953, 0.2121 0.3435 0.2953, 0.2153 0.3457 0.2953, 0.2064 0.3295 0.2953, 0.2064 0.3313 0.2953, 0.2072 0.3357 0.2953, 0.2204 0.3126 0.2953, 0.2224 0.3125 0.2953, 0.2304 0.3028 0.2953, 0.2254 0.3128 0.2953, 0.2319 0.3145 0.2953, 0.2313 0.3142 0.2953, 0.2304 0.3128 0.2953, 0.2304 0.314 0.2953, 0.2276 0.313 0.2953, 0.2723 0.2834 0.2953, 0.2767 0.2834 0.2953, 0.279 0.3028 0.2953, 0.2534 0.2834 0.2953, 0.2523 0.3028 0.2953, 0.2629 0.2592 0.2953, 0.2581 0.2834 0.2953, 0.2645 0.2651 0.2953, 0.2656 0.2651 0.2953, 0.265 0.2631 0.2953, 0.2651 0.2631 0.2953, 0.2653 0.264 0.2953, 0.2602 0.2532 0.2953, 0.261 0.2547 0.2953, 0.2628 0.2588 0.2953, 0.2555 0.2477 0.2953, 0.2542 0.248 0.2953, 0.2523 0.2453 0.2953, 0.2542 0.2518 0.2953, 0.267 0.2588 0.2953, 0.2657 0.2554 0.2953, 0.279 0.2453 0.2953, 0.2643 0.2526 0.2953, 0.2625 0.2501 0.2953, 0.2618 0.2494 0.2953, 0.2603 0.2484 0.2953, 0.2586 0.2478 0.2953, 0.257 0.2477 0.2953, 0.2552 0.2515 0.2953, 0.2567 0.2513 0.2953, 0.2577 0.2514 0.2953, 0.2586 0.2518 0.2953, 0.2594 0.2523 0.2953, -0.2507 0.3028 0.2953, -0.2474 0.2985 0.2953, -0.1187 0.3028 0.2953, -0.2434 0.289 0.2953, -0.1187 0.2588 0.2953, -0.2421 0.2788 0.2953, -0.2434 0.2686 0.2953, -0.2536 0.3066 0.2953, -0.1187 0.3128 0.2953, -0.2617 0.3128 0.2953, -0.2916 0.3168 0.2953, -0.2815 0.3182 0.2953, -0.3937 0.3937 0.2953, -0.1187 0.3937 0.2953, -0.2713 0.3168 0.2953, -0.2618 0.3129 0.2953, -0.3937 0.3128 0.2953, -0.3937 0.3028 0.2953, -0.3122 0.3028 0.2953, -0.3093 0.3066 0.2953, -0.3012 0.3128 0.2953, -0.3011 0.3129 0.2953, -0.3208 0.2788 0.2953, -0.3195 0.2686 0.2953, -0.3156 0.2591 0.2953, -0.3195 0.289 0.2953, -0.3156 0.2985 0.2953, -0.3153 0.2588 0.2953, -0.3937 0.2588 0.2953, -0.3093 0.251 0.2953, -0.3937 0.2453 0.2953, -0.3019 0.2453 0.2953, -0.3011 0.2447 0.2953, -0.3937 -0.3937 0.2953, -0.2916 0.2408 0.2953, -0.261 0.2453 0.2953, -0.2618 0.2447 0.2953, -0.1187 -0.3937 0.2953, -0.2713 0.2408 0.2953, -0.2815 0.2394 0.2953, -0.2474 0.2591 0.2953, -0.2476 0.2588 0.2953, -0.1187 0.2453 0.2953, -0.2536 0.251 0.2953, 0.2497 0.2697 0.2953, 0.2505 0.2685 0.2953, 0.25 0.2788 0.2953, 0.2375 0.282 0.2953, 0.2385 0.2827 0.2953, 0.2367 0.3028 0.2953, 0.2408 0.2836 0.2953, 0.2442 0.284 0.2953, 0.251 0.2673 0.2953, 0.2512 0.2657 0.2953, 0.2509 0.264 0.2953, 0.2504 0.2626 0.2953, 0.2496 0.2615 0.2953, 0.25 0.2829 0.2953, 0.2472 0.2837 0.2953, 0.2484 0.2605 0.2953, 0.2472 0.2597 0.2953, 0.2438 0.2805 0.2953, 0.2425 0.2804 0.2953, 0.2391 0.2772 0.2953, 0.2414 0.2801 0.2953, 0.2404 0.2796 0.2953, 0.2392 0.2767 0.2953, 0.2394 0.276 0.2953, 0.2397 0.2754 0.2953, 0.2401 0.275 0.2953, 0.2416 0.274 0.2953, 0.2468 0.2801 0.2953, 0.2442 0.2729 0.2953, 0.2492 0.2792 0.2953, 0.2459 0.2722 0.2953, 0.2487 0.2706 0.2953, 0.2398 0.279 0.2953, 0.2394 0.2785 0.2953, 0.2392 0.2779 0.2953, 0.2363 0.2634 0.2953, 0.2367 0.2632 0.2953, 0.2367 0.2723 0.2953, 0.236 0.273 0.2953, 0.2354 0.2739 0.2953, 0.2347 0.2644 0.2953, 0.2349 0.2753 0.2953, 0.2348 0.2769 0.2953, 0.2333 0.3028 0.2953, 0.2349 0.2784 0.2953, 0.2355 0.2798 0.2953, 0.2363 0.281 0.2953, 0.2367 0.2813 0.2953, 0.2367 0.2723 0.2953, 0.2389 0.2624 0.2953, 0.2412 0.2698 0.2953, 0.2387 0.271 0.2953, 0.2417 0.262 0.2953, 0.2419 0.262 0.2953, 0.244 0.2686 0.2953, 0.2441 0.2623 0.2953, 0.2468 0.2653 0.2953, 0.2467 0.2658 0.2953, 0.2452 0.2627 0.2953, 0.2456 0.2629 0.2953, 0.2461 0.2633 0.2953, 0.2465 0.2639 0.2953, 0.2467 0.2645 0.2953, 0.2465 0.2665 0.2953, 0.2462 0.2671 0.2953, 0.2457 0.2676 0.2953, 0.2347 0.26 0.2953, 0.2333 0.2588 0.2953, 0.2367 0.2593 0.2953, 0.2367 0.2588 0.2953, 0.2377 0.2589 0.2953, 0.2386 0.2588 0.2953, 0.2413 0.2585 0.2953, 0.2367 0.2453 0.2953, 0.2148 0.2588 0.2953, 0.2143 0.2589 0.2953, 0.2118 0.2817 0.2953, 0.2118 0.2776 0.2953, 0.2289 0.2748 0.2953, 0.2289 0.2591 0.2953, 0.2304 0.2588 0.2953, 0.2247 0.2591 0.2953, 0.2127 0.2596 0.2953, 0.2115 0.2604 0.2953, 0.2111 0.2608 0.2953, 0.2245 0.2832 0.2953, 0.2259 0.2824 0.2953, 0.2227 0.2838 0.2953, 0.2247 0.2629 0.2953, 0.2246 0.2629 0.2953, 0.2236 0.2614 0.2953, 0.2222 0.2601 0.2953, 0.2102 0.2621 0.2953, 0.2097 0.2635 0.2953, 0.2094 0.2656 0.2953, 0.2094 0.2661 0.2953, 0.2097 0.268 0.2953, 0.2103 0.2695 0.2953, 0.2111 0.2707 0.2953, 0.2126 0.2822 0.2953, 0.2158 0.2834 0.2953, 0.2202 0.284 0.2953, 0.2271 0.2813 0.2953, 0.2279 0.28 0.2953, 0.2286 0.278 0.2953, 0.2124 0.2718 0.2953, 0.2143 0.2728 0.2953, 0.2148 0.2794 0.2953, 0.2175 0.2736 0.2953, 0.2174 0.2803 0.2953, 0.2247 0.2746 0.2953, 0.2246 0.2763 0.2953, 0.2241 0.2779 0.2953, 0.2236 0.2788 0.2953, 0.223 0.2795 0.2953, 0.2223 0.28 0.2953, 0.2213 0.2803 0.2953, 0.2198 0.2805 0.2953, 0.2163 0.2586 0.2953, 0.2058 0.2453 0.2953, 0.2171 0.2585 0.2953, 0.2304 0.2453 0.2953, 0.2195 0.2588 0.2953, 0.1435 0.3207 0.2953, 0.1501 0.3151 0.2953, 0.1731 0.3937 0.2953, 0.0081 0.3128 0.2953, 0.1113 0.351 0.2953, 0.1221 0.3437 0.2953, 0.1301 0.3345 0.2953, 0.1352 0.3246 0.2953, 0.1363 0.3242 0.2953, 0.0102 0.3176 0.2953, 0.0161 0.3251 0.2953, 0.0177 0.3266 0.2953, 0.0254 0.332 0.2953, 0.0344 0.3355 0.2953, 0.0439 0.3367 0.2953, 0.066 0.3505 0.2953, 0.0772 0.3548 0.2953, 0.0892 0.3563 0.2953, 0.0992 0.3552 0.2953, 0.0601 0.3469 0.2953, 0.0544 0.342 0.2953, 0.0467 0.3365 0.2953, 0.0495 0.3362 0.2953, 0.0224 0.2647 0.2953, 0.0149 0.2711 0.2953, 0.0311 0.2604 0.2953, 0.0094 0.2789 0.2953, 0.0059 0.2879 0.2953, 0.0047 0.2975 0.2953, 0.0048 0.2997 0.2953, 0.0053 0.3028 0.2953, 0.0064 0.3088 0.2953, 0.0472 0.2453 0.2953, 0.0449 0.2463 0.2953, 0.0342 0.2595 0.2953, 0.0345 0.2588 0.2953, 0.0366 0.2544 0.2953, 0.0402 0.2499 0.2953, 0.0505 0.2439 0.2953, 0.0673 0.2453 0.2953, 0.0629 0.2437 0.2953, 0.1731 -0.3937 0.2953, 0.0572 0.243 0.2953, 0.0562 0.243 0.2953, 0.0799 0.2588 0.2953, 0.0772 0.2535 0.2953, 0.1731 0.2453 0.2953, 0.0732 0.249 0.2953, 0.0683 0.2457 0.2953, 0.0754 0.2834 0.2953, 0.1078 0.3004 0.2953, 0.0712 0.2873 0.2953, 0.0661 0.29 0.2953, 0.1117 0.2595 0.2953, 0.11 0.2604 0.2953, 0.08 0.259 0.2953, 0.1086 0.2618 0.2953, 0.144 0.2947 0.2953, 0.1429 0.2994 0.2953, 0.141 0.3028 0.2953, 0.0205 0.3028 0.2953, 0.0219 0.2884 0.2953, 0.025 0.2832 0.2953, 0.0372 0.281 0.2953, 0.0294 0.2788 0.2953, 0.0345 0.2757 0.2953, 0.1096 0.2723 0.2953, 0.1111 0.2733 0.2953, 0.1153 0.2876 0.2953, 0.1128 0.2738 0.2953, 0.0462 0.289 0.2953, 0.0413 0.2856 0.2953, 0.02 0.298 0.2953, 0.0202 0.2943 0.2953, 0.155 0.2766 0.2953, 0.1502 0.2699 0.2953, 0.1436 0.2643 0.2953, 0.1362 0.2607 0.2953, 0.1572 0.3028 0.2953, 0.158 0.3008 0.2953, 0.1591 0.2929 0.2953, 0.158 0.2843 0.2953, 0.1144 0.274 0.2953, 0.1146 0.274 0.2953, 0.1153 0.2738 0.2953, 0.0516 0.291 0.2953, 0.0572 0.2917 0.2953, 0.0602 0.2915 0.2953, 0.1282 0.259 0.2953, 0.1139 0.259 0.2953, 0.1133 0.259 0.2953, 0.1069 0.2665 0.2953, 0.1069 0.2674 0.2953, 0.0814 0.2696 0.2953, 0.1074 0.2692 0.2953, 0.1083 0.2709 0.2953, 0.1076 0.2633 0.2953, 0.107 0.265 0.2953, 0.0813 0.265 0.2953, 0.0814 0.2672 0.2953, 0.1392 0.2798 0.2953, 0.1419 0.2836 0.2953, 0.1436 0.2879 0.2953, 0.1441 0.2926 0.2953, 0.1158 0.2738 0.2953, 0.1267 0.2738 0.2953, 0.131 0.2746 0.2953, 0.1353 0.2765 0.2953, 0.1389 0.2795 0.2953, 0.0227 0.309 0.2953, 0.0206 0.3036 0.2953, 0.1233 0.3115 0.2953, 0.1252 0.3115 0.2953, 0.1407 0.3035 0.2953, 0.1378 0.3067 0.2953, 0.1341 0.3093 0.2953, 0.1298 0.311 0.2953, 0.118 0.3262 0.2953, 0.1125 0.3327 0.2953, 0.057 0.3185 0.2953, 0.1121 0.3331 0.2953, 0.1053 0.3378 0.2953, 0.0607 0.3262 0.2953, 0.0252 0.3128 0.2953, 0.0551 0.3196 0.2953, 0.123 0.3128 0.2953, 0.1218 0.3184 0.2953, 0.0496 0.3215 0.2953, 0.0442 0.3222 0.2953, 0.0419 0.3221 0.2953, 0.0661 0.3327 0.2953, 0.0977 0.3408 0.2953, 0.0726 0.3374 0.2953, 0.0894 0.3418 0.2953, 0.0805 0.3406 0.2953, 0.0359 0.3207 0.2953, 0.0305 0.3179 0.2953, 0.026 0.3139 0.2953, 0.155 0.3082 0.2953, 0.1731 0.3128 0.2953, 0.1517 0.3128 0.2953, 0.2902 0.3244 0.2953, 0.2885 0.3209 0.2953, 0.279 0.3937 0.2953, 0.279 0.3463 0.2953, 0.2824 0.3451 0.2953, 0.286 0.3179 0.2953, 0.2824 0.3153 0.2953, 0.279 0.3128 0.2953, 0.286 0.3427 0.2953, 0.2872 0.3415 0.2953, 0.2893 0.3386 0.2953, 0.2905 0.3353 0.2953, 0.2911 0.3306 0.2953, 0.291 0.3284 0.2953, 0.2634 0.3472 0.2953, 0.2731 0.3472 0.2953, 0.2783 0.3466 0.2953, 0.279 0.314 0.2953, 0.2786 0.3138 0.2953, 0.2728 0.3131 0.2953, 0.2996 0.263 0.2953, 0.2996 0.2591 0.2953, 0.3028 0.2588 0.2953, 0.2921 0.2588 0.2953, 0.2857 0.2744 0.2953, 0.2857 0.263 0.2953, 0.2921 0.2744 0.2953, 0.2921 0.263 0.2953, 0.2979 0.2744 0.2953, 0.2979 0.2783 0.2953, 0.2857 0.2892 0.2953, 0.2857 0.2783 0.2953, 0.2921 0.2892 0.2953, 0.2921 0.2783 0.2953, 0.2988 0.2892 0.2953, 0.2921 0.2591 0.2953, 0.2813 0.2591 0.2953, 0.279 0.2588 0.2953, 0.2813 0.2932 0.2953, 0.2921 0.3028 0.2953, 0.2921 0.2932 0.2953, 0.3028 0.3028 0.2953, 0.2988 0.2932 0.2953, 0.257 0.3131 0.2953, 0.2634 0.3131 0.2953, 0.257 0.317 0.2953, 0.2552 0.3285 0.2953, 0.2523 0.317 0.2953, 0.2523 0.3285 0.2953, 0.2431 0.317 0.2953, 0.2431 0.3285 0.2953, 0.2552 0.3323 0.2953, 0.2562 0.3432 0.2953, 0.2523 0.3323 0.2953, 0.2523 0.3432 0.2953, 0.2431 0.3323 0.2953, 0.2431 0.3432 0.2953, 0.2387 0.3131 0.2953, 0.2367 0.3128 0.2953, 0.2523 0.3128 0.2953, 0.2523 0.3131 0.2953, 0.2367 0.3937 0.2953, 0.2387 0.3472 0.2953, 0.2523 0.3937 0.2953, 0.2523 0.3472 0.2953, 0.2562 0.3472 0.2953, 0.3028 0.2453 0.2953, 0.2921 -0.3937 0.2953, 0.2921 0.2453 0.2953, 0.279 -0.3937 0.2953, 0.2523 -0.3937 0.2953, 0.2367 -0.3937 0.2953, 0.2333 -0.3937 0.2953, 0.2333 0.2453 0.2953, 0.2304 -0.3937 0.2953, 0.2058 -0.3937 0.2953, 0.2052 -0.3937 0.2953, 0.2052 0.2453 0.2953, 0.2212 0.2595 0.2953, 0.38 0.2588 0.2953, 0.3347 0.2588 0.2953, 0.306 0.2591 0.2953, 0.3328 0.2704 0.2953, 0.3312 0.2669 0.2953, 0.3286 0.2639 0.2953, 0.3319 0.2846 0.2953, 0.3332 0.2813 0.2953, 0.3347 0.3028 0.2953, 0.3338 0.2766 0.2953, 0.3337 0.2744 0.2953, 0.3251 0.2613 0.2953, 0.3212 0.2598 0.2953, 0.3154 0.2591 0.2953, 0.306 0.2932 0.2953, 0.3158 0.2932 0.2953, 0.321 0.2926 0.2953, 0.3251 0.2911 0.2953, 0.3286 0.2886 0.2953, 0.3298 0.2875 0.2953, 0.3663 0.2591 0.2953, 0.3533 0.2932 0.2953, 0.38 0.3028 0.2953, 0.3486 0.2932 0.2953, 0.358 0.2684 0.2953, 0.3438 0.2684 0.2953, 0.3614 0.2591 0.2953, 0.3405 0.2591 0.2953, 0.3357 0.2591 0.2953, 0.2052 0.3128 0.2953, 0.205 0.317 0.2953, 0.205 0.3131 0.2953, 0.187 0.3131 0.2953, 0.187 0.3472 0.2953, 0.1914 0.3472 0.2953, 0.2052 0.3937 0.2953, 0.1914 0.317 0.2953, 0.38 0.3128 0.2953, 0.38 0.3937 0.2953, 0.3937 0.2588 0.2953, 0.3937 0.3028 0.2953, 0.3937 0.3128 0.2953, 0.3937 0.3937 0.2953, 0.2957 0.1969 0.0, 0.1854 -0.315 0.0, 0.1854 -0.1969 0.0, 0.3937 0.3937 0.0, 0.3937 0.315 0.0, 0.2957 0.315 0.0, -0.1969 0.2362 0.0, -0.3937 0.3937 0.0, -0.1181 0.315 0.0, 0.1969 0.315 0.0, 0.1969 -0.0591 0.0, 0.2957 -0.0591 0.0, 0.3937 -0.0591 0.0, 0.3937 -0.1969 0.0, -0.2957 0.0591 0.0, -0.3937 0.0591 0.0, -0.3937 0.1969 0.0, -0.1969 -0.0591 0.0, -0.1106 -0.1969 0.0, 0.3937 0.1969 0.0, 0.3937 0.0591 0.0, 0.2957 0.0591 0.0, 0.2957 -0.1969 0.0, 0.3937 -0.315 0.0, 0.3937 -0.3937 0.0, 0.2957 -0.315 0.0, -0.3937 -0.3937 0.0, -0.3937 -0.315 0.0, -0.2957 -0.315 0.0, -0.2957 -0.1969 0.0, -0.3937 -0.1969 0.0, -0.3937 -0.0591 0.0, -0.1106 -0.315 0.0, -0.2957 -0.0591 0.0, -0.3937 0.315 0.0, -0.2957 0.315 0.0, -0.2957 0.1969 0.0, 0.3937 -0.1969 0.0709, 0.3937 0.0591 0.0709, 0.3937 0.1969 0.0709, 0.3937 -0.315 0.0709, 0.3937 -0.0591 0.0709, 0.3937 0.315 0.0709, -0.3937 0.1969 0.0709, -0.3937 0.315 0.0709, -0.3937 0.0591 0.0709, -0.3937 -0.0591 0.0709, -0.3937 -0.1969 0.0709, -0.3937 -0.315 0.0709, -0.3937 -0.315 0.0709
            ]
        }
        coordIndex [
            0,1,2,-1,3,0,4,-1,5,3,6,-1,7,8,9,-1,10,11,12,-1,12,11,13,-1,12,13,14,-1,11,15,13,-1,13,15,16,-1,13,16,17,-1,17,16,18,-1,17,18,19,-1,19,18,20,-1,19,20,21,-1,21,20,22,-1,21,22,23,-1,23,22,24,-1,23,24,14,-1,14,24,25,-1,14,25,12,-1,26,27,28,-1,29,30,28,-1,28,30,31,-1,28,31,26,-1,29,32,33,-1,33,32,34,-1,34,35,36,-1,37,38,39,-1,39,38,40,-1,39,40,41,-1,36,41,34,-1,34,41,40,-1,34,40,33,-1,33,40,42,-1,27,26,43,-1,43,26,44,-1,43,44,45,-1,46,47,48,-1,49,50,46,-1,46,50,51,-1,46,51,52,-1,49,53,50,-1,50,53,54,-1,50,54,55,-1,55,54,56,-1,55,56,57,-1,52,58,46,-1,46,58,59,-1,46,59,60,-1,48,61,46,-1,46,61,62,-1,46,62,63,-1,60,64,46,-1,46,64,65,-1,46,65,47,-1,66,67,68,-1,63,69,46,-1,46,69,70,-1,46,70,71,-1,71,70,72,-1,71,72,73,-1,73,72,74,-1,73,74,75,-1,76,77,78,-1,78,77,79,-1,78,79,80,-1,81,82,83,-1,81,84,67,-1,67,84,85,-1,85,86,67,-1,67,86,87,-1,67,87,68,-1,80,88,78,-1,78,88,89,-1,78,89,90,-1,83,91,81,-1,81,91,92,-1,81,92,84,-1,93,94,81,-1,81,94,95,-1,81,95,82,-1,96,42,97,-1,97,42,98,-1,97,98,99,-1,72,100,74,-1,74,100,101,-1,74,101,102,-1,102,101,103,-1,102,103,104,-1,105,106,107,-1,108,109,9,-1,108,9,110,-1,109,108,107,-1,107,108,111,-1,107,111,105,-1,105,111,112,-1,105,112,113,-1,114,115,112,-1,112,115,116,-1,112,116,113,-1,117,118,9,-1,9,118,119,-1,9,119,110,-1,120,121,122,-1,122,121,123,-1,124,125,126,-1,125,127,126,-1,126,127,128,-1,126,128,129,-1,129,130,126,-1,126,130,131,-1,126,131,122,-1,122,131,132,-1,122,132,120,-1,133,134,9,-1,9,134,135,-1,135,136,9,-1,9,136,137,-1,9,137,117,-1,138,139,140,-1,140,139,141,-1,140,141,142,-1,142,141,143,-1,142,143,144,-1,138,140,145,-1,145,140,146,-1,145,146,147,-1,148,149,150,-1,150,149,151,-1,151,149,152,-1,151,152,153,-1,154,155,156,-1,156,157,154,-1,154,157,158,-1,154,158,150,-1,150,158,159,-1,150,159,148,-1,160,155,161,-1,161,155,162,-1,160,163,155,-1,155,163,164,-1,155,164,156,-1,162,155,165,-1,165,155,166,-1,165,166,167,-1,167,166,168,-1,167,168,169,-1,169,168,170,-1,170,168,171,-1,170,171,172,-1,173,174,175,-1,175,174,176,-1,175,176,171,-1,171,176,177,-1,171,177,172,-1,144,178,142,-1,142,178,179,-1,142,179,180,-1,180,179,181,-1,180,181,173,-1,182,183,184,-1,185,186,187,-1,186,188,187,-1,187,188,189,-1,187,189,109,-1,190,191,9,-1,191,192,9,-1,9,192,193,-1,9,193,194,-1,183,190,184,-1,184,190,9,-1,184,9,195,-1,195,9,109,-1,195,109,196,-1,196,109,189,-1,194,197,9,-1,9,197,198,-1,9,198,7,-1,199,200,201,-1,201,200,202,-1,201,202,203,-1,201,204,199,-1,199,204,205,-1,199,205,206,-1,206,207,199,-1,199,207,208,-1,199,208,209,-1,209,208,210,-1,209,210,211,-1,211,210,212,-1,211,212,184,-1,184,212,213,-1,184,213,182,-1,214,215,203,-1,203,215,216,-1,203,216,201,-1,217,218,219,-1,220,221,222,-1,221,223,222,-1,222,223,224,-1,222,224,225,-1,225,224,226,-1,226,227,225,-1,225,227,228,-1,225,228,187,-1,187,228,229,-1,187,229,185,-1,217,219,222,-1,222,219,230,-1,222,230,220,-1,231,232,218,-1,218,232,233,-1,218,233,219,-1,231,234,232,-1,232,234,235,-1,232,235,236,-1,236,235,237,-1,236,238,239,-1,237,240,236,-1,236,240,241,-1,236,241,242,-1,242,243,236,-1,236,243,244,-1,236,244,238,-1,239,245,236,-1,236,245,246,-1,236,246,247,-1,248,249,250,-1,250,249,251,-1,250,251,252,-1,252,251,253,-1,254,255,8,-1,8,255,122,-1,8,122,9,-1,9,122,123,-1,9,123,133,-1,44,256,257,-1,40,45,42,-1,42,45,44,-1,42,44,258,-1,258,44,259,-1,260,261,262,-1,262,261,263,-1,257,264,44,-1,44,264,265,-1,44,265,266,-1,267,268,98,-1,267,98,269,-1,270,271,263,-1,263,271,272,-1,263,272,273,-1,266,274,44,-1,44,274,275,-1,44,275,276,-1,276,277,44,-1,44,277,278,-1,44,278,259,-1,259,278,279,-1,259,279,280,-1,258,281,42,-1,42,281,282,-1,42,282,98,-1,98,282,283,-1,98,283,269,-1,268,284,98,-1,98,284,285,-1,98,285,286,-1,280,287,259,-1,259,287,288,-1,259,288,289,-1,289,288,290,-1,289,290,291,-1,292,293,290,-1,290,293,294,-1,294,295,290,-1,290,295,296,-1,290,296,297,-1,297,298,290,-1,290,298,299,-1,290,299,291,-1,300,301,302,-1,302,301,303,-1,302,303,304,-1,305,306,307,-1,308,151,146,-1,146,151,153,-1,146,153,147,-1,309,310,307,-1,307,310,311,-1,311,312,307,-1,307,312,313,-1,307,313,305,-1,308,314,151,-1,151,314,315,-1,151,315,316,-1,316,317,151,-1,151,317,318,-1,151,318,319,-1,320,321,151,-1,151,321,322,-1,151,322,307,-1,307,322,323,-1,307,323,309,-1,320,151,324,-1,324,151,319,-1,324,319,325,-1,325,319,326,-1,325,326,327,-1,328,329,142,-1,328,142,330,-1,329,331,142,-1,142,331,332,-1,142,332,140,-1,140,332,333,-1,333,334,140,-1,140,334,335,-1,140,335,146,-1,146,335,336,-1,146,336,308,-1,180,337,338,-1,339,330,340,-1,340,330,142,-1,340,142,341,-1,341,142,180,-1,341,180,342,-1,342,180,338,-1,173,175,180,-1,180,175,343,-1,180,343,337,-1,344,345,346,-1,346,345,347,-1,346,347,175,-1,175,347,348,-1,175,348,343,-1,349,350,351,-1,351,350,352,-1,351,352,353,-1,354,355,356,-1,356,355,357,-1,358,359,360,-1,360,359,361,-1,362,363,355,-1,355,363,364,-1,355,364,365,-1,366,367,368,-1,368,367,369,-1,368,369,370,-1,371,372,373,-1,373,372,374,-1,375,365,376,-1,376,365,377,-1,376,377,368,-1,368,377,378,-1,368,378,366,-1,379,380,31,-1,31,380,381,-1,31,381,382,-1,383,384,30,-1,30,384,385,-1,30,385,31,-1,31,385,386,-1,31,386,379,-1,374,387,373,-1,373,387,388,-1,373,388,389,-1,375,390,365,-1,365,390,391,-1,365,391,355,-1,355,391,392,-1,355,392,357,-1,382,393,31,-1,31,393,394,-1,31,394,360,-1,360,394,395,-1,360,395,358,-1,396,397,398,-1,398,397,399,-1,398,399,373,-1,373,399,400,-1,373,400,371,-1,361,401,360,-1,360,401,402,-1,360,402,403,-1,403,402,396,-1,403,396,404,-1,404,396,398,-1,405,406,373,-1,373,406,407,-1,373,407,355,-1,355,407,408,-1,355,408,362,-1,389,409,373,-1,373,409,410,-1,373,410,411,-1,411,412,373,-1,373,412,413,-1,373,413,405,-1,414,415,416,-1,415,365,416,-1,416,365,364,-1,416,364,417,-1,417,364,418,-1,418,419,417,-1,417,419,420,-1,417,420,421,-1,422,423,424,-1,423,425,424,-1,424,425,426,-1,424,426,427,-1,428,424,429,-1,414,416,428,-1,428,416,430,-1,428,430,424,-1,424,430,431,-1,424,431,422,-1,429,432,428,-1,428,432,433,-1,428,433,434,-1,427,426,435,-1,435,426,436,-1,435,436,437,-1,437,436,438,-1,437,438,439,-1,440,441,434,-1,434,441,442,-1,434,442,428,-1,383,30,443,-1,443,30,444,-1,443,444,445,-1,446,447,17,-1,448,449,19,-1,19,449,450,-1,447,451,17,-1,17,451,452,-1,17,452,453,-1,450,454,19,-1,19,454,455,-1,19,455,456,-1,456,457,19,-1,19,457,458,-1,19,458,17,-1,17,458,459,-1,17,459,446,-1,460,461,448,-1,448,461,462,-1,448,462,449,-1,452,463,453,-1,453,463,464,-1,453,464,465,-1,466,467,468,-1,468,467,469,-1,470,471,472,-1,472,471,473,-1,472,473,474,-1,474,473,466,-1,474,466,475,-1,476,477,478,-1,478,477,479,-1,478,479,480,-1,467,481,469,-1,469,481,482,-1,469,482,483,-1,483,482,484,-1,106,483,107,-1,107,483,484,-1,107,484,485,-1,485,484,486,-1,485,486,487,-1,487,486,488,-1,487,488,480,-1,489,490,491,-1,491,490,492,-1,491,492,493,-1,493,492,494,-1,493,494,495,-1,495,494,496,-1,497,498,499,-1,499,498,500,-1,499,500,501,-1,501,500,502,-1,503,504,505,-1,465,490,453,-1,453,490,489,-1,453,489,505,-1,505,489,506,-1,505,506,503,-1,507,508,509,-1,509,508,510,-1,509,510,448,-1,448,510,511,-1,448,511,460,-1,460,511,498,-1,460,498,490,-1,490,498,497,-1,490,497,492,-1,5,512,513,-1,513,512,514,-1,513,514,515,-1,515,514,126,-1,515,126,516,-1,516,126,122,-1,516,122,517,-1,517,122,255,-1,517,255,518,-1,518,255,519,-1,518,519,520,-1,520,519,303,-1,520,303,521,-1,521,303,301,-1,521,301,522,-1,522,301,523,-1,522,523,346,-1,346,523,351,-1,346,351,344,-1,344,351,353,-1,300,256,301,-1,301,256,44,-1,301,44,523,-1,523,44,26,-1,523,26,351,-1,351,26,31,-1,351,31,349,-1,349,31,360,-1,254,253,255,-1,255,253,251,-1,255,251,519,-1,519,251,249,-1,519,249,303,-1,303,249,262,-1,303,262,304,-1,304,262,263,-1,304,263,524,-1,524,263,273,-1,512,468,514,-1,514,468,469,-1,514,469,126,-1,126,469,483,-1,126,483,124,-1,124,483,106,-1,3,4,6,-1,6,4,525,-1,6,525,526,-1,248,222,249,-1,249,222,225,-1,249,225,262,-1,262,225,98,-1,262,98,260,-1,260,98,286,-1,479,475,480,-1,480,475,466,-1,480,466,487,-1,487,466,468,-1,487,468,527,-1,528,529,526,-1,526,529,530,-1,531,532,533,-1,533,532,534,-1,533,534,526,-1,526,534,535,-1,526,535,528,-1,530,536,526,-1,526,536,537,-1,526,537,538,-1,5,6,512,-1,512,6,526,-1,512,526,468,-1,468,526,538,-1,468,538,527,-1,527,539,487,-1,487,539,540,-1,487,540,533,-1,533,540,541,-1,533,541,542,-1,542,543,533,-1,533,543,544,-1,533,544,531,-1,545,525,546,-1,546,525,547,-1,546,547,548,-1,549,550,551,-1,551,550,552,-1,545,551,525,-1,525,551,552,-1,525,552,526,-1,526,552,553,-1,526,553,533,-1,533,553,548,-1,96,76,42,-1,42,76,78,-1,42,78,33,-1,33,78,554,-1,533,14,487,-1,487,14,13,-1,487,13,485,-1,485,13,17,-1,485,17,107,-1,107,17,453,-1,107,453,109,-1,109,453,505,-1,109,505,187,-1,187,505,504,-1,187,504,225,-1,225,504,74,-1,225,74,98,-1,98,74,102,-1,98,102,99,-1,99,102,104,-1,555,556,554,-1,554,556,557,-1,29,33,30,-1,30,33,554,-1,30,554,444,-1,444,554,557,-1,444,557,558,-1,559,560,558,-1,558,560,307,-1,558,307,444,-1,444,307,306,-1,444,306,445,-1,90,93,78,-1,78,93,81,-1,78,81,554,-1,554,81,560,-1,554,560,555,-1,555,560,559,-1,555,559,561,-1,503,508,504,-1,504,508,507,-1,504,507,74,-1,74,507,66,-1,74,66,75,-1,75,66,68,-1,548,547,533,-1,533,547,562,-1,533,562,14,-1,14,562,563,-1,14,563,23,-1,0,2,4,-1,4,2,564,-1,4,564,525,-1,525,564,565,-1,525,565,547,-1,547,565,566,-1,547,566,562,-1,562,566,567,-1,562,567,563,-1,568,569,570,-1,571,572,573,-1,574,575,576,-1,576,575,571,-1,576,571,577,-1,577,571,573,-1,577,573,578,-1,579,580,581,-1,582,583,584,-1,573,568,578,-1,578,568,570,-1,578,570,585,-1,585,570,586,-1,587,588,568,-1,568,588,589,-1,568,589,569,-1,569,589,579,-1,569,579,590,-1,590,579,581,-1,591,592,593,-1,593,592,594,-1,594,595,596,-1,597,598,599,-1,590,593,569,-1,569,593,594,-1,569,594,600,-1,600,594,596,-1,600,596,586,-1,586,596,597,-1,586,597,601,-1,601,597,599,-1,602,575,603,-1,603,575,574,-1,603,574,604,-1,604,574,585,-1,604,585,584,-1,584,585,586,-1,584,586,582,-1,582,586,601,-1,605,581,580,-1,1,592,591,-1,588,587,606,-1,606,587,607,-1,591,608,1,-1,1,608,605,-1,1,605,609,-1,609,605,580,-1,572,571,610,-1,610,571,567,-1,610,567,607,-1,607,567,1,-1,607,1,606,-1,606,1,609,-1,150,567,575,-1,575,567,571,-1,150,575,602,-1,611,584,583,-1,602,612,150,-1,150,612,611,-1,150,611,613,-1,613,611,583,-1,599,598,614,-1,614,598,615,-1,595,594,616,-1,616,594,171,-1,616,171,615,-1,615,171,150,-1,615,150,614,-1,614,150,613,-1,1,171,592,-1,592,171,594,-1,
        ]
    }
}
Shape{
    appearance Appearance {
        material  Material 	{
            diffuseColor 0.6666666666666666 0.6666666666666666 0.6666666666666666
            specularColor 0.4666666666666667 0.4666666666666667 0.4666666666666667
            ambientIntensity 0.2
            transparency 0
            shininess 0.5
        }
    }
    geometry IndexedFaceSet {
        ccw TRUE
        solid FALSE
        coord DEF co Coordinate {
            point [
                0.3941 0.1969 0.0709, 0.3941 0.315 0.0709, 0.3937 0.1969 0.0709, 0.3937 0.315 0.0709, 0.3937 0.1969 0.0, 0.2957 0.1969 0.0, 0.2957 0.1969 -0.0079, 0.3941 0.1969 -0.0079, 0.3937 0.315 0.0, 0.3941 0.315 -0.0079, 0.2957 0.315 0.0, 0.2957 0.315 -0.0079, 0.3941 -0.0591 0.0709, 0.3941 0.0591 0.0709, 0.3937 -0.0591 0.0709, 0.3937 0.0591 0.0709, 0.3937 -0.0591 0.0, 0.2957 -0.0591 0.0, 0.2957 -0.0591 -0.0079, 0.3941 -0.0591 -0.0079, 0.2957 0.0591 0.0, 0.2957 0.0591 -0.0079, 0.3937 0.0591 0.0, 0.3941 0.0591 -0.0079, 0.3941 -0.315 0.0709, 0.3941 -0.1969 0.0709, 0.3937 -0.315 0.0709, 0.3937 -0.1969 0.0709, 0.3937 -0.315 0.0, 0.2957 -0.315 0.0, 0.2957 -0.315 -0.0079, 0.3941 -0.315 -0.0079, 0.2957 -0.1969 0.0, 0.2957 -0.1969 -0.0079, 0.3937 -0.1969 0.0, 0.3941 -0.1969 -0.0079, -0.3941 -0.1969 0.0709, -0.3941 -0.315 0.0709, -0.3937 -0.1969 0.0709, -0.3937 -0.315 0.0709, -0.3937 -0.1969 0.0, -0.2957 -0.1969 0.0, -0.2957 -0.1969 -0.0079, -0.3941 -0.1969 -0.0079, -0.2957 -0.315 0.0, -0.2957 -0.315 -0.0079, -0.3937 -0.315 0.0, -0.3941 -0.315 -0.0079, -0.3941 0.0591 0.0709, -0.3941 -0.0591 0.0709, -0.3937 0.0591 0.0709, -0.3937 -0.0591 0.0709, -0.3937 0.0591 0.0, -0.2957 0.0591 0.0, -0.2957 0.0591 -0.0079, -0.3941 0.0591 -0.0079, -0.2957 -0.0591 0.0, -0.2957 -0.0591 -0.0079, -0.3937 -0.0591 0.0, -0.3941 -0.0591 -0.0079, -0.3941 0.315 0.0709, -0.3941 0.1969 0.0709, -0.3937 0.315 0.0709, -0.3937 0.1969 0.0709, -0.3937 0.315 0.0, -0.2957 0.315 0.0, -0.2957 0.315 -0.0079, -0.3941 0.315 -0.0079, -0.2957 0.1969 0.0, -0.2957 0.1969 -0.0079, -0.3937 0.1969 0.0, -0.3941 0.1969 -0.0079, 0.1969 -0.0591 -0.0079, 0.1969 0.315 -0.0079, 0.1969 -0.0591 0.0, 0.1969 0.315 0.0, -0.1969 -0.0591 -0.0079, -0.1969 -0.0591 0.0, -0.1969 0.2362 -0.0079, -0.1969 0.2362 0.0, -0.1181 0.315 -0.0079, -0.1181 0.315 0.0, 0.1854 -0.315 -0.0079, 0.1854 -0.1969 -0.0079, 0.1854 -0.315 0.0, 0.1854 -0.1969 0.0, -0.1106 -0.315 -0.0079, -0.1106 -0.315 0.0, -0.1106 -0.1969 -0.0079, -0.1106 -0.1969 0.0, -0.1106 -0.1969 0.0
            ]
        }
        coordIndex [
            0,1,2,-1,2,1,3,-1,0,2,4,-1,5,6,4,-1,4,6,7,-1,4,7,0,-1,3,1,8,-1,8,1,9,-1,8,9,10,-1,10,9,11,-1,10,11,5,-1,5,11,6,-1,1,0,9,-1,9,0,7,-1,9,7,11,-1,11,7,6,-1,12,13,14,-1,14,13,15,-1,12,14,16,-1,17,18,16,-1,16,18,19,-1,16,19,12,-1,20,21,17,-1,17,21,18,-1,15,13,22,-1,22,13,23,-1,22,23,20,-1,20,23,21,-1,13,12,23,-1,23,12,19,-1,23,19,21,-1,21,19,18,-1,24,25,26,-1,26,25,27,-1,24,26,28,-1,29,30,28,-1,28,30,31,-1,28,31,24,-1,32,33,29,-1,29,33,30,-1,27,25,34,-1,34,25,35,-1,34,35,32,-1,32,35,33,-1,25,24,35,-1,35,24,31,-1,35,31,33,-1,33,31,30,-1,36,37,38,-1,38,37,39,-1,36,38,40,-1,41,42,40,-1,40,42,43,-1,40,43,36,-1,44,45,41,-1,41,45,42,-1,39,37,46,-1,46,37,47,-1,46,47,44,-1,44,47,45,-1,37,36,47,-1,47,36,43,-1,47,43,45,-1,45,43,42,-1,48,49,50,-1,50,49,51,-1,48,50,52,-1,53,54,52,-1,52,54,55,-1,52,55,48,-1,56,57,53,-1,53,57,54,-1,51,49,58,-1,58,49,59,-1,58,59,56,-1,56,59,57,-1,49,48,59,-1,59,48,55,-1,59,55,57,-1,57,55,54,-1,60,61,62,-1,62,61,63,-1,60,62,64,-1,65,66,64,-1,64,66,67,-1,64,67,60,-1,68,69,65,-1,65,69,66,-1,63,61,70,-1,70,61,71,-1,70,71,68,-1,68,71,69,-1,61,60,71,-1,71,60,67,-1,71,67,69,-1,69,67,66,-1,72,73,74,-1,74,73,75,-1,76,72,77,-1,77,72,74,-1,78,76,79,-1,79,76,77,-1,80,78,81,-1,81,78,79,-1,73,80,75,-1,75,80,81,-1,80,73,78,-1,78,73,72,-1,78,72,76,-1,82,83,84,-1,84,83,85,-1,86,82,87,-1,87,82,84,-1,88,86,89,-1,89,86,87,-1,83,88,85,-1,85,88,89,-1,86,88,82,-1,82,88,83,-1,
        ]
    }
}
Shape{
    appearance Appearance {
        material  Material 	{
            diffuseColor 0.34901960784313724 0.34901960784313724 0.34901960784313724
            specularColor 0.023529411764705882 0.023529411764705882 0.023529411764705882
            ambientIntensity 0.2
            transparency 0
            shininess 0.5
        }
    }
    geometry IndexedFaceSet {
        ccw TRUE
        solid FALSE
        coord DEF co Coordinate {
            point [
                -0.2421 0.2788 0.2874, -0.2421 0.2788 0.2953, -0.2434 0.289 0.2874, -0.2434 0.289 0.2953, -0.2474 0.2985 0.2874, -0.2474 0.2985 0.2953, -0.2536 0.3066 0.2874, -0.2536 0.3066 0.2953, -0.2618 0.3129 0.2874, -0.2618 0.3129 0.2953, -0.2713 0.3168 0.2874, -0.2713 0.3168 0.2953, -0.2815 0.3182 0.2874, -0.2815 0.3182 0.2953, -0.2916 0.3168 0.2874, -0.2916 0.3168 0.2953, -0.3011 0.3129 0.2874, -0.3011 0.3129 0.2953, -0.3093 0.3066 0.2874, -0.3093 0.3066 0.2953, -0.3156 0.2985 0.2874, -0.3156 0.2985 0.2953, -0.3195 0.289 0.2874, -0.3195 0.289 0.2953, -0.3208 0.2788 0.2874, -0.3208 0.2788 0.2953, -0.3195 0.2686 0.2874, -0.3195 0.2686 0.2953, -0.3156 0.2591 0.2874, -0.3156 0.2591 0.2953, -0.3093 0.251 0.2874, -0.3093 0.251 0.2953, -0.3011 0.2447 0.2874, -0.3011 0.2447 0.2953, -0.2916 0.2408 0.2874, -0.2916 0.2408 0.2953, -0.2815 0.2394 0.2874, -0.2815 0.2394 0.2953, -0.2713 0.2408 0.2874, -0.2713 0.2408 0.2953, -0.2618 0.2447 0.2874, -0.2618 0.2447 0.2953, -0.2536 0.251 0.2874, -0.2536 0.251 0.2953, -0.2474 0.2591 0.2874, -0.2474 0.2591 0.2953, -0.2434 0.2686 0.2874, -0.2434 0.2686 0.2953, -0.2815 0.2788 0.2874, -0.2815 0.2788 0.2874
            ]
        }
        coordIndex [
            0,1,2,-1,2,1,3,-1,2,3,4,-1,4,3,5,-1,4,5,6,-1,6,5,7,-1,6,7,8,-1,8,7,9,-1,8,9,10,-1,10,9,11,-1,10,11,12,-1,12,11,13,-1,12,13,14,-1,14,13,15,-1,14,15,16,-1,16,15,17,-1,16,17,18,-1,18,17,19,-1,18,19,20,-1,20,19,21,-1,20,21,22,-1,22,21,23,-1,22,23,24,-1,24,23,25,-1,24,25,26,-1,26,25,27,-1,26,27,28,-1,28,27,29,-1,28,29,30,-1,30,29,31,-1,30,31,32,-1,32,31,33,-1,32,33,34,-1,34,33,35,-1,34,35,36,-1,36,35,37,-1,36,37,38,-1,38,37,39,-1,38,39,40,-1,40,39,41,-1,40,41,42,-1,42,41,43,-1,42,43,44,-1,44,43,45,-1,44,45,46,-1,46,45,47,-1,46,47,0,-1,0,47,1,-1,44,46,48,-1,48,46,0,-1,48,0,2,-1,38,40,48,-1,48,40,42,-1,48,42,44,-1,32,34,48,-1,48,34,36,-1,48,36,38,-1,26,28,48,-1,48,28,30,-1,48,30,32,-1,20,22,48,-1,48,22,24,-1,48,24,26,-1,14,16,48,-1,48,16,18,-1,48,18,20,-1,8,10,48,-1,48,10,12,-1,48,12,14,-1,2,4,48,-1,48,4,6,-1,48,6,8,-1,
        ]
    }
}
Shape{
    appearance Appearance {
        material  Material 	{
            diffuseColor 1.0 1.0 1.0
            specularColor 0.8784313725490196 0.8784313725490196 0.8784313725490196
            ambientIntensity 0.2
            transparency 0
            shininess 0.5
        }
    }
    geometry IndexedFaceSet {
        ccw TRUE
        solid FALSE
        coord DEF co Coordinate {
            point [
                0.3272 0.2686 0.2992, 0.3255 0.2665 0.2992, 0.3286 0.2639 0.2992, 0.3249 0.266 0.2992, 0.3251 0.2613 0.2992, 0.3226 0.2645 0.2992, 0.3212 0.2598 0.2992, 0.3197 0.2635 0.2992, 0.3154 0.2591 0.2992, 0.3154 0.263 0.2992, 0.306 0.2591 0.2992, 0.3104 0.263 0.2992, 0.306 0.2932 0.2992, 0.3104 0.2892 0.2992, 0.3158 0.2932 0.2992, 0.3156 0.2892 0.2992, 0.321 0.2926 0.2992, 0.32 0.2888 0.2992, 0.3251 0.2911 0.2992, 0.3229 0.2877 0.2992, 0.3286 0.2886 0.2992, 0.3254 0.286 0.2992, 0.3298 0.2875 0.2992, 0.3265 0.2849 0.2992, 0.3319 0.2846 0.2992, 0.3278 0.2829 0.2992, 0.3332 0.2813 0.2992, 0.3287 0.2804 0.2992, 0.3338 0.2766 0.2992, 0.3291 0.2764 0.2992, 0.3337 0.2744 0.2992, 0.329 0.2743 0.2992, 0.3328 0.2704 0.2992, 0.3284 0.2712 0.2992, 0.3312 0.2669 0.2992, 0.3286 0.2639 0.2953, 0.3312 0.2669 0.2953, 0.3328 0.2704 0.2953, 0.3337 0.2744 0.2953, 0.3338 0.2766 0.2953, 0.3332 0.2813 0.2953, 0.3319 0.2846 0.2953, 0.3298 0.2875 0.2953, 0.3286 0.2886 0.2953, 0.3251 0.2911 0.2953, 0.321 0.2926 0.2953, 0.3158 0.2932 0.2953, 0.306 0.2932 0.2953, 0.306 0.2591 0.2953, 0.3154 0.2591 0.2953, 0.3212 0.2598 0.2953, 0.3251 0.2613 0.2953, 0.3254 0.286 0.2953, 0.3265 0.2849 0.2953, 0.3278 0.2829 0.2953, 0.3287 0.2804 0.2953, 0.3291 0.2764 0.2953, 0.3156 0.2892 0.2953, 0.32 0.2888 0.2953, 0.3229 0.2877 0.2953, 0.3104 0.2892 0.2953, 0.3104 0.263 0.2953, 0.3154 0.263 0.2953, 0.3255 0.2665 0.2953, 0.3249 0.266 0.2953, 0.3226 0.2645 0.2953, 0.3197 0.2635 0.2953, 0.329 0.2743 0.2953, 0.3284 0.2712 0.2953, 0.3272 0.2686 0.2953, 0.3272 0.2686 0.2953
            ]
        }
        coordIndex [
            0,1,2,-1,2,1,3,-1,2,3,4,-1,4,3,5,-1,4,5,6,-1,6,5,7,-1,6,7,8,-1,8,7,9,-1,8,9,10,-1,10,9,11,-1,10,11,12,-1,12,11,13,-1,12,13,14,-1,14,13,15,-1,14,15,16,-1,16,15,17,-1,16,17,18,-1,18,17,19,-1,18,19,20,-1,20,19,21,-1,20,21,22,-1,22,21,23,-1,22,23,24,-1,24,23,25,-1,24,25,26,-1,26,25,27,-1,26,27,28,-1,28,27,29,-1,28,29,30,-1,30,29,31,-1,30,31,32,-1,32,31,33,-1,32,33,34,-1,34,33,0,-1,34,0,2,-1,2,35,36,-1,2,36,34,-1,34,36,37,-1,34,37,32,-1,32,37,38,-1,32,38,30,-1,30,38,39,-1,30,39,28,-1,28,39,40,-1,28,40,26,-1,26,40,41,-1,26,41,24,-1,24,41,42,-1,24,42,22,-1,22,42,43,-1,22,43,20,-1,20,43,44,-1,20,44,18,-1,18,44,45,-1,18,45,16,-1,16,45,46,-1,16,46,14,-1,12,14,47,-1,47,14,46,-1,10,12,48,-1,48,12,47,-1,8,10,49,-1,49,10,48,-1,8,49,50,-1,8,50,6,-1,6,50,51,-1,6,51,4,-1,4,51,35,-1,4,35,2,-1,21,52,53,-1,21,53,23,-1,23,53,54,-1,23,54,25,-1,25,54,55,-1,25,55,27,-1,27,55,56,-1,27,56,29,-1,15,57,58,-1,15,58,17,-1,17,58,59,-1,17,59,19,-1,19,59,52,-1,19,52,21,-1,15,13,57,-1,57,13,60,-1,13,11,60,-1,60,11,61,-1,11,9,61,-1,61,9,62,-1,1,63,64,-1,1,64,3,-1,3,64,65,-1,3,65,5,-1,5,65,66,-1,5,66,7,-1,7,66,62,-1,7,62,9,-1,29,56,67,-1,29,67,31,-1,31,67,68,-1,31,68,33,-1,33,68,69,-1,33,69,0,-1,0,69,63,-1,0,63,1,-1,
        ]
    }
}
Shape{
    appearance Appearance {
        material  Material 	{
            diffuseColor 0.20784313725490197 0.20784313725490197 0.20784313725490197
            specularColor 0.01568627450980392 0.01568627450980392 0.01568627450980392
            ambientIntensity 0.2
            transparency 0
            shininess 0.5
        }
    }
    geometry IndexedFaceSet {
        ccw TRUE
        solid FALSE
        coord DEF co Coordinate {
            point [
                0.3104 0.2892 0.2953, 0.3104 0.263 0.2953, 0.3156 0.2892 0.2953, 0.3154 0.263 0.2953, 0.3197 0.2635 0.2953, 0.3226 0.2645 0.2953, 0.3249 0.266 0.2953, 0.3255 0.2665 0.2953, 0.3272 0.2686 0.2953, 0.3284 0.2712 0.2953, 0.329 0.2743 0.2953, 0.3291 0.2764 0.2953, 0.3287 0.2804 0.2953, 0.3278 0.2829 0.2953, 0.3265 0.2849 0.2953, 0.3254 0.286 0.2953, 0.32 0.2888 0.2953, 0.3229 0.2877 0.2953, 0.3229 0.2877 0.2953
            ]
        }
        coordIndex [
            0,1,2,-1,2,1,3,-1,2,3,4,-1,4,5,2,-1,2,5,6,-1,2,6,7,-1,7,8,2,-1,2,8,9,-1,2,9,10,-1,10,11,2,-1,2,11,12,-1,2,12,13,-1,13,14,2,-1,2,14,15,-1,2,15,16,-1,16,15,17,-1,
        ]
    }
}
Shape{
    appearance Appearance {
        material  Material 	{
            diffuseColor 1.0 1.0 1.0
            specularColor 0.8784313725490196 0.8784313725490196 0.8784313725490196
            ambientIntensity 0.2
            transparency 0
            shininess 0.5
        }
    }
    geometry IndexedFaceSet {
        ccw TRUE
        solid FALSE
        coord DEF co Coordinate {
            point [
                0.2656 0.2651 0.2992, 0.2656 0.2651 0.2953, 0.2653 0.264 0.2953, 0.2653 0.264 0.2992, 0.2651 0.2631 0.2953, 0.2651 0.2631 0.2992, 0.265 0.2631 0.2992, 0.265 0.2631 0.2953, 0.2645 0.2651 0.2992, 0.2645 0.2651 0.2953, 0.2581 0.2834 0.2992, 0.2581 0.2834 0.2953, 0.2534 0.2834 0.2992, 0.2534 0.2834 0.2953, 0.2629 0.2592 0.2992, 0.2629 0.2592 0.2953, 0.261 0.2547 0.2953, 0.261 0.2547 0.2992, 0.2628 0.2588 0.2953, 0.2602 0.2532 0.2953, 0.2602 0.2532 0.2992, 0.2594 0.2523 0.2953, 0.2594 0.2523 0.2992, 0.2586 0.2518 0.2953, 0.2586 0.2518 0.2992, 0.2577 0.2514 0.2953, 0.2577 0.2514 0.2992, 0.2567 0.2513 0.2953, 0.2567 0.2513 0.2992, 0.2552 0.2515 0.2953, 0.2552 0.2515 0.2992, 0.2542 0.2518 0.2953, 0.2542 0.2518 0.2992, 0.2542 0.248 0.2992, 0.2542 0.248 0.2953, 0.2555 0.2477 0.2953, 0.2555 0.2477 0.2992, 0.257 0.2477 0.2953, 0.257 0.2477 0.2992, 0.2586 0.2478 0.2953, 0.2586 0.2478 0.2992, 0.2603 0.2484 0.2953, 0.2603 0.2484 0.2992, 0.2618 0.2494 0.2953, 0.2618 0.2494 0.2992, 0.2625 0.2501 0.2953, 0.2625 0.2501 0.2992, 0.2643 0.2526 0.2953, 0.2643 0.2526 0.2992, 0.2657 0.2554 0.2953, 0.2657 0.2554 0.2992, 0.2767 0.2834 0.2953, 0.2767 0.2834 0.2992, 0.267 0.2588 0.2953, 0.2723 0.2834 0.2992, 0.2723 0.2834 0.2953, 0.2413 0.2585 0.2953, 0.244 0.2588 0.2953, 0.2413 0.2585 0.2992, 0.2449 0.2589 0.2992, 0.2449 0.2589 0.2953, 0.2472 0.2597 0.2953, 0.2472 0.2597 0.2992, 0.2484 0.2605 0.2953, 0.2484 0.2605 0.2992, 0.2496 0.2615 0.2953, 0.2496 0.2615 0.2992, 0.2504 0.2626 0.2953, 0.2504 0.2626 0.2992, 0.2509 0.264 0.2953, 0.2509 0.264 0.2992, 0.2512 0.2657 0.2953, 0.2512 0.2657 0.2992, 0.251 0.2673 0.2953, 0.251 0.2673 0.2992, 0.2505 0.2685 0.2953, 0.2505 0.2685 0.2992, 0.2497 0.2697 0.2953, 0.2497 0.2697 0.2992, 0.2487 0.2706 0.2953, 0.2487 0.2706 0.2992, 0.2459 0.2722 0.2953, 0.2459 0.2722 0.2992, 0.2442 0.2729 0.2953, 0.2442 0.2729 0.2992, 0.2416 0.274 0.2953, 0.2416 0.274 0.2992, 0.2401 0.275 0.2953, 0.2401 0.275 0.2992, 0.2397 0.2754 0.2953, 0.2397 0.2754 0.2992, 0.2394 0.276 0.2953, 0.2394 0.276 0.2992, 0.2392 0.2767 0.2953, 0.2392 0.2767 0.2992, 0.2391 0.2772 0.2953, 0.2391 0.2772 0.2992, 0.2392 0.2779 0.2953, 0.2392 0.2779 0.2992, 0.2394 0.2785 0.2953, 0.2394 0.2785 0.2992, 0.2398 0.279 0.2953, 0.2398 0.279 0.2992, 0.2404 0.2796 0.2953, 0.2404 0.2796 0.2992, 0.2414 0.2801 0.2953, 0.2414 0.2801 0.2992, 0.2425 0.2804 0.2953, 0.2425 0.2804 0.2992, 0.2438 0.2805 0.2953, 0.2438 0.2805 0.2992, 0.2468 0.2801 0.2953, 0.2468 0.2801 0.2992, 0.2492 0.2792 0.2953, 0.2492 0.2792 0.2992, 0.25 0.2788 0.2953, 0.25 0.2788 0.2992, 0.25 0.2829 0.2992, 0.25 0.2829 0.2953, 0.2472 0.2837 0.2953, 0.2472 0.2837 0.2992, 0.2442 0.284 0.2953, 0.2442 0.284 0.2992, 0.2408 0.2836 0.2953, 0.2408 0.2836 0.2992, 0.2385 0.2827 0.2953, 0.2385 0.2827 0.2992, 0.2375 0.282 0.2953, 0.2375 0.282 0.2992, 0.2367 0.2813 0.2953, 0.2363 0.281 0.2992, 0.2363 0.281 0.2953, 0.2355 0.2798 0.2953, 0.2355 0.2798 0.2992, 0.2349 0.2784 0.2953, 0.2349 0.2784 0.2992, 0.2348 0.2769 0.2953, 0.2348 0.2769 0.2992, 0.2349 0.2753 0.2953, 0.2349 0.2753 0.2992, 0.2354 0.2739 0.2953, 0.2354 0.2739 0.2992, 0.236 0.273 0.2953, 0.236 0.273 0.2992, 0.2412 0.2698 0.2953, 0.2412 0.2698 0.2992, 0.2387 0.271 0.2992, 0.2367 0.2723 0.2953, 0.2367 0.2723 0.2992, 0.2367 0.2723 0.2953, 0.2387 0.271 0.2953, 0.244 0.2686 0.2953, 0.244 0.2686 0.2992, 0.2457 0.2676 0.2953, 0.2457 0.2676 0.2992, 0.2462 0.2671 0.2953, 0.2462 0.2671 0.2992, 0.2465 0.2665 0.2953, 0.2465 0.2665 0.2992, 0.2467 0.2658 0.2953, 0.2467 0.2658 0.2992, 0.2468 0.2653 0.2953, 0.2468 0.2653 0.2992, 0.2467 0.2645 0.2953, 0.2467 0.2645 0.2992, 0.2465 0.2639 0.2953, 0.2465 0.2639 0.2992, 0.2461 0.2633 0.2953, 0.2461 0.2633 0.2992, 0.2456 0.2629 0.2953, 0.2456 0.2629 0.2992, 0.2452 0.2627 0.2953, 0.2452 0.2627 0.2992, 0.2441 0.2623 0.2953, 0.2441 0.2623 0.2992, 0.2419 0.262 0.2953, 0.2419 0.262 0.2992, 0.2417 0.262 0.2953, 0.2417 0.262 0.2992, 0.2347 0.2644 0.2953, 0.2347 0.2644 0.2992, 0.2363 0.2634 0.2992, 0.2389 0.2624 0.2953, 0.2389 0.2624 0.2992, 0.2367 0.2632 0.2953, 0.2363 0.2634 0.2953, 0.2347 0.26 0.2992, 0.2347 0.26 0.2953, 0.2367 0.2593 0.2953, 0.2377 0.2589 0.2992, 0.2386 0.2588 0.2953, 0.2377 0.2589 0.2953, 0.2247 0.2591 0.2992, 0.2289 0.2591 0.2992, 0.2247 0.2629 0.2992, 0.2289 0.2748 0.2992, 0.2247 0.2746 0.2992, 0.2154 0.2695 0.2992, 0.2165 0.27 0.2992, 0.2246 0.2629 0.2992, 0.2223 0.2635 0.2992, 0.2236 0.2614 0.2992, 0.2211 0.2627 0.2992, 0.219 0.2705 0.2992, 0.2247 0.2713 0.2992, 0.2247 0.269 0.2992, 0.2247 0.2685 0.2992, 0.2244 0.2667 0.2992, 0.2238 0.2652 0.2992, 0.2229 0.264 0.2992, 0.2246 0.2763 0.2992, 0.2286 0.278 0.2992, 0.2241 0.2779 0.2992, 0.2279 0.28 0.2992, 0.2236 0.2788 0.2992, 0.2271 0.2813 0.2992, 0.223 0.2795 0.2992, 0.2259 0.2824 0.2992, 0.2223 0.28 0.2992, 0.2245 0.2832 0.2992, 0.2213 0.2803 0.2992, 0.2227 0.2838 0.2992, 0.2198 0.2805 0.2992, 0.2202 0.284 0.2992, 0.2174 0.2803 0.2992, 0.2158 0.2834 0.2992, 0.2148 0.2794 0.2992, 0.2126 0.2822 0.2992, 0.2118 0.2776 0.2992, 0.2118 0.2817 0.2992, 0.2146 0.2635 0.2992, 0.2115 0.2604 0.2992, 0.215 0.2631 0.2992, 0.2127 0.2596 0.2992, 0.2158 0.2625 0.2992, 0.2143 0.2589 0.2992, 0.2168 0.2622 0.2992, 0.2163 0.2586 0.2992, 0.2182 0.262 0.2992, 0.2171 0.2585 0.2992, 0.2195 0.2588 0.2992, 0.2198 0.2622 0.2992, 0.2212 0.2595 0.2992, 0.2222 0.2601 0.2992, 0.2138 0.2666 0.2992, 0.2094 0.2661 0.2992, 0.2137 0.266 0.2992, 0.2094 0.2656 0.2992, 0.2138 0.265 0.2992, 0.2097 0.2635 0.2992, 0.2141 0.2642 0.2992, 0.2102 0.2621 0.2992, 0.2111 0.2608 0.2992, 0.2175 0.2736 0.2992, 0.2143 0.2728 0.2992, 0.2149 0.269 0.2992, 0.2124 0.2718 0.2992, 0.2144 0.2684 0.2992, 0.2111 0.2707 0.2992, 0.214 0.2676 0.2992, 0.2103 0.2695 0.2992, 0.2097 0.268 0.2992, 0.2198 0.2805 0.2953, 0.2213 0.2803 0.2953, 0.2223 0.28 0.2953, 0.223 0.2795 0.2953, 0.2236 0.2788 0.2953, 0.2241 0.2779 0.2953, 0.2246 0.2763 0.2953, 0.2247 0.2746 0.2953, 0.2175 0.2736 0.2953, 0.2143 0.2728 0.2953, 0.2124 0.2718 0.2953, 0.2111 0.2707 0.2953, 0.2103 0.2695 0.2953, 0.2097 0.268 0.2953, 0.2094 0.2661 0.2953, 0.2094 0.2656 0.2953, 0.2097 0.2635 0.2953, 0.2102 0.2621 0.2953, 0.2111 0.2608 0.2953, 0.2115 0.2604 0.2953, 0.2171 0.2585 0.2953, 0.2127 0.2596 0.2953, 0.2143 0.2589 0.2953, 0.2148 0.2588 0.2953, 0.2163 0.2586 0.2953, 0.2195 0.2588 0.2953, 0.2212 0.2595 0.2953, 0.2222 0.2601 0.2953, 0.2236 0.2614 0.2953, 0.2246 0.2629 0.2953, 0.2247 0.2629 0.2953, 0.2247 0.2591 0.2953, 0.2289 0.2591 0.2953, 0.2289 0.2748 0.2953, 0.2286 0.278 0.2953, 0.2279 0.28 0.2953, 0.2271 0.2813 0.2953, 0.2259 0.2824 0.2953, 0.2245 0.2832 0.2953, 0.2227 0.2838 0.2953, 0.2202 0.284 0.2953, 0.2158 0.2834 0.2953, 0.2126 0.2822 0.2953, 0.2118 0.2817 0.2953, 0.2118 0.2776 0.2953, 0.2148 0.2794 0.2953, 0.2174 0.2803 0.2953, 0.2229 0.264 0.2953, 0.2223 0.2635 0.2953, 0.2211 0.2627 0.2953, 0.2198 0.2622 0.2953, 0.2182 0.262 0.2953, 0.2247 0.269 0.2953, 0.2247 0.2685 0.2953, 0.2244 0.2667 0.2953, 0.2238 0.2652 0.2953, 0.2247 0.2713 0.2953, 0.219 0.2705 0.2953, 0.2149 0.269 0.2953, 0.2154 0.2695 0.2953, 0.2165 0.27 0.2953, 0.2137 0.266 0.2953, 0.2138 0.2666 0.2953, 0.214 0.2676 0.2953, 0.2144 0.2684 0.2953, 0.215 0.2631 0.2953, 0.2146 0.2635 0.2953, 0.2141 0.2642 0.2953, 0.2138 0.265 0.2953, 0.2168 0.2622 0.2953, 0.2158 0.2625 0.2953, 0.2158 0.2625 0.2953
            ]
        }
        coordIndex [
            0,1,2,-1,0,2,3,-1,3,2,4,-1,3,4,5,-1,6,5,7,-1,7,5,4,-1,8,6,9,-1,9,6,7,-1,10,8,11,-1,11,8,9,-1,12,10,13,-1,13,10,11,-1,14,12,15,-1,15,12,13,-1,16,17,18,-1,18,17,14,-1,18,14,15,-1,17,16,19,-1,17,19,20,-1,20,19,21,-1,20,21,22,-1,22,21,23,-1,22,23,24,-1,24,23,25,-1,24,25,26,-1,26,25,27,-1,26,27,28,-1,28,27,29,-1,28,29,30,-1,30,29,31,-1,30,31,32,-1,33,32,34,-1,34,32,31,-1,33,34,35,-1,33,35,36,-1,36,35,37,-1,36,37,38,-1,38,37,39,-1,38,39,40,-1,40,39,41,-1,40,41,42,-1,42,41,43,-1,42,43,44,-1,44,43,45,-1,44,45,46,-1,46,45,47,-1,46,47,48,-1,48,47,49,-1,48,49,50,-1,51,52,53,-1,53,52,50,-1,53,50,49,-1,54,52,55,-1,55,52,51,-1,0,54,1,-1,1,54,55,-1,3,5,50,-1,52,54,50,-1,50,54,0,-1,50,0,3,-1,10,12,8,-1,8,12,14,-1,8,14,6,-1,32,33,30,-1,30,33,36,-1,30,36,28,-1,28,36,38,-1,28,38,26,-1,26,38,40,-1,26,40,24,-1,24,40,42,-1,24,42,22,-1,22,42,44,-1,22,44,20,-1,20,44,46,-1,20,46,17,-1,17,46,48,-1,17,48,14,-1,14,48,50,-1,14,50,6,-1,6,50,5,-1,56,57,58,-1,58,57,59,-1,57,60,59,-1,59,60,61,-1,59,61,62,-1,62,61,63,-1,62,63,64,-1,64,63,65,-1,64,65,66,-1,66,65,67,-1,66,67,68,-1,68,67,69,-1,68,69,70,-1,70,69,71,-1,70,71,72,-1,72,71,73,-1,72,73,74,-1,74,73,75,-1,74,75,76,-1,76,75,77,-1,76,77,78,-1,78,77,79,-1,78,79,80,-1,80,79,81,-1,80,81,82,-1,82,81,83,-1,82,83,84,-1,84,83,85,-1,84,85,86,-1,86,85,87,-1,86,87,88,-1,88,87,89,-1,88,89,90,-1,90,89,91,-1,90,91,92,-1,92,91,93,-1,92,93,94,-1,94,93,95,-1,94,95,96,-1,96,95,97,-1,96,97,98,-1,98,97,99,-1,98,99,100,-1,100,99,101,-1,100,101,102,-1,102,101,103,-1,102,103,104,-1,104,103,105,-1,104,105,106,-1,106,105,107,-1,106,107,108,-1,108,107,109,-1,108,109,110,-1,110,109,111,-1,110,111,112,-1,112,111,113,-1,112,113,114,-1,114,113,115,-1,114,115,116,-1,117,116,118,-1,118,116,115,-1,117,118,119,-1,117,119,120,-1,120,119,121,-1,120,121,122,-1,122,121,123,-1,122,123,124,-1,124,123,125,-1,124,125,126,-1,126,125,127,-1,126,127,128,-1,127,129,128,-1,128,129,130,-1,129,131,130,-1,130,131,132,-1,130,132,133,-1,133,132,134,-1,133,134,135,-1,135,134,136,-1,135,136,137,-1,137,136,138,-1,137,138,139,-1,139,138,140,-1,139,140,141,-1,141,140,142,-1,141,142,143,-1,144,145,146,-1,143,142,147,-1,143,147,148,-1,148,147,149,-1,148,149,146,-1,146,149,150,-1,146,150,144,-1,145,144,151,-1,145,151,152,-1,152,151,153,-1,152,153,154,-1,154,153,155,-1,154,155,156,-1,156,155,157,-1,156,157,158,-1,158,157,159,-1,158,159,160,-1,160,159,161,-1,160,161,162,-1,162,161,163,-1,162,163,164,-1,164,163,165,-1,164,165,166,-1,166,165,167,-1,166,167,168,-1,168,167,169,-1,168,169,170,-1,170,169,171,-1,170,171,172,-1,172,171,173,-1,172,173,174,-1,174,173,175,-1,174,175,176,-1,176,175,177,-1,176,177,178,-1,179,180,181,-1,178,177,182,-1,178,182,183,-1,183,182,184,-1,183,184,181,-1,181,184,185,-1,181,185,179,-1,186,180,187,-1,187,180,179,-1,187,188,186,-1,186,188,189,-1,56,58,190,-1,190,58,189,-1,190,189,191,-1,191,189,188,-1,102,104,126,-1,126,104,124,-1,152,84,145,-1,145,84,86,-1,62,64,168,-1,168,64,66,-1,168,66,166,-1,166,66,68,-1,166,68,164,-1,164,68,70,-1,164,70,162,-1,162,70,72,-1,162,72,160,-1,160,72,74,-1,160,74,158,-1,158,74,76,-1,158,76,156,-1,156,76,78,-1,156,78,154,-1,154,78,80,-1,154,80,152,-1,152,80,82,-1,152,82,84,-1,58,178,189,-1,189,178,183,-1,189,183,186,-1,186,183,181,-1,186,181,180,-1,104,106,124,-1,124,106,108,-1,124,108,122,-1,122,108,110,-1,122,110,120,-1,120,110,112,-1,120,112,117,-1,117,112,114,-1,117,114,116,-1,168,170,62,-1,62,170,172,-1,62,172,59,-1,59,172,174,-1,59,174,58,-1,58,174,176,-1,58,176,178,-1,126,128,102,-1,102,128,130,-1,102,130,100,-1,100,130,133,-1,100,133,98,-1,98,133,135,-1,98,135,96,-1,96,135,137,-1,96,137,94,-1,94,137,139,-1,94,139,92,-1,92,139,141,-1,92,141,90,-1,90,141,143,-1,90,143,88,-1,88,143,148,-1,88,148,86,-1,86,148,146,-1,86,146,145,-1,192,193,194,-1,194,193,195,-1,196,197,198,-1,199,200,201,-1,201,200,202,-1,203,204,195,-1,195,204,205,-1,205,206,195,-1,195,206,207,-1,195,207,194,-1,194,207,208,-1,194,208,199,-1,199,208,209,-1,199,209,200,-1,198,203,196,-1,196,203,195,-1,196,195,210,-1,210,195,211,-1,210,211,212,-1,212,211,213,-1,212,213,214,-1,214,213,215,-1,214,215,216,-1,216,215,217,-1,216,217,218,-1,218,217,219,-1,218,219,220,-1,220,219,221,-1,220,221,222,-1,222,221,223,-1,222,223,224,-1,224,223,225,-1,224,225,226,-1,226,225,227,-1,226,227,228,-1,228,227,229,-1,230,231,232,-1,232,231,233,-1,232,233,234,-1,234,233,235,-1,234,235,236,-1,236,235,237,-1,236,237,238,-1,237,239,238,-1,238,239,240,-1,238,240,241,-1,241,240,242,-1,241,242,202,-1,202,242,243,-1,202,243,201,-1,244,245,246,-1,246,245,247,-1,246,247,248,-1,248,247,249,-1,248,249,250,-1,250,249,251,-1,250,251,230,-1,230,251,252,-1,230,252,231,-1,196,253,197,-1,197,253,254,-1,197,254,255,-1,255,254,256,-1,255,256,257,-1,257,256,258,-1,257,258,259,-1,259,258,260,-1,259,260,244,-1,244,260,261,-1,244,261,245,-1,222,262,263,-1,222,263,220,-1,220,263,264,-1,220,264,218,-1,218,264,265,-1,218,265,216,-1,216,265,266,-1,216,266,214,-1,214,266,267,-1,214,267,212,-1,212,267,268,-1,212,268,210,-1,210,268,269,-1,210,269,196,-1,253,196,270,-1,270,196,269,-1,253,270,271,-1,253,271,254,-1,254,271,272,-1,254,272,256,-1,256,272,273,-1,256,273,258,-1,258,273,274,-1,258,274,260,-1,260,274,275,-1,260,275,261,-1,261,275,276,-1,261,276,245,-1,245,276,277,-1,245,277,247,-1,247,277,278,-1,247,278,249,-1,249,278,279,-1,249,279,251,-1,251,279,280,-1,251,280,252,-1,252,280,281,-1,252,281,231,-1,282,239,237,-1,231,281,283,-1,231,283,233,-1,233,283,284,-1,233,284,235,-1,235,284,285,-1,235,285,237,-1,237,285,286,-1,237,286,282,-1,239,282,287,-1,239,287,240,-1,240,287,288,-1,240,288,242,-1,242,288,289,-1,242,289,243,-1,243,289,290,-1,243,290,201,-1,201,290,291,-1,201,291,199,-1,194,199,292,-1,292,199,291,-1,192,194,293,-1,293,194,292,-1,193,192,294,-1,294,192,293,-1,195,193,295,-1,295,193,294,-1,195,295,296,-1,195,296,211,-1,211,296,297,-1,211,297,213,-1,213,297,298,-1,213,298,215,-1,215,298,299,-1,215,299,217,-1,217,299,300,-1,217,300,219,-1,219,300,301,-1,219,301,221,-1,221,301,302,-1,221,302,223,-1,223,302,303,-1,223,303,225,-1,225,303,304,-1,225,304,227,-1,227,304,305,-1,227,305,229,-1,228,229,306,-1,306,229,305,-1,228,306,307,-1,228,307,226,-1,226,307,308,-1,226,308,224,-1,224,308,262,-1,224,262,222,-1,209,309,310,-1,209,310,200,-1,200,310,311,-1,200,311,202,-1,202,311,312,-1,202,312,241,-1,241,312,313,-1,241,313,238,-1,205,314,315,-1,205,315,206,-1,206,315,316,-1,206,316,207,-1,207,316,317,-1,207,317,208,-1,208,317,309,-1,208,309,209,-1,205,204,314,-1,314,204,318,-1,204,203,318,-1,318,203,319,-1,255,320,321,-1,255,321,197,-1,197,321,322,-1,197,322,198,-1,198,322,319,-1,198,319,203,-1,246,323,324,-1,246,324,244,-1,244,324,325,-1,244,325,259,-1,259,325,326,-1,259,326,257,-1,257,326,320,-1,257,320,255,-1,232,327,328,-1,232,328,230,-1,230,328,329,-1,230,329,250,-1,250,329,330,-1,250,330,248,-1,248,330,323,-1,248,323,246,-1,238,313,331,-1,238,331,236,-1,236,331,332,-1,236,332,234,-1,234,332,327,-1,234,327,232,-1,
        ]
    }
}
Shape{
    appearance Appearance {
        material  Material 	{
            diffuseColor 0.20784313725490197 0.20784313725490197 0.20784313725490197
            specularColor 0.01568627450980392 0.01568627450980392 0.01568627450980392
            ambientIntensity 0.2
            transparency 0
            shininess 0.5
        }
    }
    geometry IndexedFaceSet {
        ccw TRUE
        solid FALSE
        coord DEF co Coordinate {
            point [
                0.2247 0.2713 0.2953, 0.219 0.2705 0.2953, 0.2247 0.269 0.2953, 0.2165 0.27 0.2953, 0.2154 0.2695 0.2953, 0.2149 0.269 0.2953, 0.2247 0.2685 0.2953, 0.2244 0.2667 0.2953, 0.2144 0.2684 0.2953, 0.2238 0.2652 0.2953, 0.2146 0.2635 0.2953, 0.215 0.2631 0.2953, 0.2223 0.2635 0.2953, 0.2141 0.2642 0.2953, 0.2211 0.2627 0.2953, 0.2198 0.2622 0.2953, 0.2182 0.262 0.2953, 0.214 0.2676 0.2953, 0.2138 0.2666 0.2953, 0.2229 0.264 0.2953, 0.2137 0.266 0.2953, 0.2138 0.265 0.2953, 0.2158 0.2625 0.2953, 0.2168 0.2622 0.2953, 0.2168 0.2622 0.2953
            ]
        }
        coordIndex [
            0,1,2,-1,2,1,3,-1,3,4,2,-1,2,4,5,-1,2,5,6,-1,6,5,7,-1,7,5,8,-1,7,8,9,-1,10,11,12,-1,10,12,13,-1,14,12,15,-1,15,12,16,-1,8,17,9,-1,9,17,18,-1,9,18,19,-1,19,18,20,-1,19,20,12,-1,12,20,21,-1,12,21,13,-1,11,22,12,-1,12,22,23,-1,12,23,16,-1,
        ]
    }
}
Shape{
    appearance Appearance {
        material  Material 	{
            diffuseColor 1.0 1.0 1.0
            specularColor 0.8784313725490196 0.8784313725490196 0.8784313725490196
            ambientIntensity 0.2
            transparency 0
            shininess 0.5
        }
    }
    geometry IndexedFaceSet {
        ccw TRUE
        solid FALSE
        coord DEF co Coordinate {
            point [
                0.0366 0.2544 0.2992, 0.0402 0.2499 0.2992, 0.0345 0.2757 0.2992, 0.0305 0.3179 0.2992, 0.0359 0.3207 0.2992, 0.0344 0.3355 0.2992, 0.0495 0.3362 0.2992, 0.057 0.3185 0.2992, 0.0607 0.3262 0.2992, 0.0814 0.2672 0.2992, 0.0814 0.2696 0.2992, 0.0609 0.2756 0.2992, 0.0586 0.2763 0.2992, 0.0439 0.3367 0.2992, 0.0645 0.2726 0.2992, 0.0657 0.2707 0.2992, 0.0813 0.265 0.2992, 0.1153 0.2876 0.2992, 0.1078 0.3004 0.2992, 0.0754 0.2834 0.2992, 0.057 0.2764 0.2992, 0.0547 0.2761 0.2992, 0.0516 0.291 0.2992, 0.0526 0.2753 0.2992, 0.0462 0.289 0.2992, 0.0507 0.274 0.2992, 0.0413 0.2856 0.2992, 0.0495 0.2727 0.2992, 0.0372 0.281 0.2992, 0.0483 0.2707 0.2992, 0.0477 0.2684 0.2992, 0.0661 0.29 0.2992, 0.0602 0.2915 0.2992, 0.0572 0.2917 0.2992, 0.0629 0.2743 0.2992, 0.0506 0.26 0.2992, 0.0526 0.2586 0.2992, 0.0449 0.2463 0.2992, 0.0548 0.2578 0.2992, 0.1233 0.3115 0.2992, 0.1252 0.3115 0.2992, 0.1352 0.3246 0.2992, 0.1298 0.311 0.2992, 0.1363 0.3242 0.2992, 0.1341 0.3093 0.2992, 0.1435 0.3207 0.2992, 0.1501 0.3151 0.2992, 0.0544 0.342 0.2992, 0.0661 0.3327 0.2992, 0.0601 0.3469 0.2992, 0.0726 0.3374 0.2992, 0.066 0.3505 0.2992, 0.0294 0.2788 0.2992, 0.0311 0.2604 0.2992, 0.0342 0.2595 0.2992, 0.0419 0.3221 0.2992, 0.0442 0.3222 0.2992, 0.0467 0.3365 0.2992, 0.0496 0.3215 0.2992, 0.0551 0.3196 0.2992, 0.0712 0.2873 0.2992, 0.1378 0.3067 0.2992, 0.1407 0.3035 0.2992, 0.155 0.3082 0.2992, 0.1429 0.2994 0.2992, 0.158 0.3008 0.2992, 0.1591 0.2929 0.2992, 0.144 0.2947 0.2992, 0.1441 0.2926 0.2992, 0.158 0.2843 0.2992, 0.1436 0.2879 0.2992, 0.155 0.2766 0.2992, 0.1419 0.2836 0.2992, 0.1502 0.2699 0.2992, 0.0254 0.332 0.2992, 0.0177 0.3266 0.2992, 0.026 0.3139 0.2992, 0.0161 0.3251 0.2992, 0.0227 0.309 0.2992, 0.0102 0.3176 0.2992, 0.0206 0.3036 0.2992, 0.0491 0.2618 0.2992, 0.0481 0.2638 0.2992, 0.0476 0.266 0.2992, 0.1221 0.3437 0.2992, 0.1125 0.3327 0.2992, 0.1301 0.3345 0.2992, 0.118 0.3262 0.2992, 0.1218 0.3184 0.2992, 0.0663 0.2685 0.2992, 0.0664 0.2662 0.2992, 0.08 0.259 0.2992, 0.0659 0.2638 0.2992, 0.0772 0.2535 0.2992, 0.0648 0.2617 0.2992, 0.0732 0.249 0.2992, 0.0633 0.2599 0.2992, 0.0683 0.2457 0.2992, 0.0614 0.2586 0.2992, 0.0629 0.2437 0.2992, 0.0593 0.2578 0.2992, 0.0572 0.243 0.2992, 0.057 0.2575 0.2992, 0.0562 0.243 0.2992, 0.0505 0.2439 0.2992, 0.0772 0.3548 0.2992, 0.0805 0.3406 0.2992, 0.0892 0.3563 0.2992, 0.0894 0.3418 0.2992, 0.0992 0.3552 0.2992, 0.0977 0.3408 0.2992, 0.1113 0.351 0.2992, 0.1053 0.3378 0.2992, 0.1121 0.3331 0.2992, 0.0064 0.3088 0.2992, 0.0048 0.2997 0.2992, 0.02 0.298 0.2992, 0.0047 0.2975 0.2992, 0.0202 0.2943 0.2992, 0.0059 0.2879 0.2992, 0.0219 0.2884 0.2992, 0.0094 0.2789 0.2992, 0.025 0.2832 0.2992, 0.0149 0.2711 0.2992, 0.0224 0.2647 0.2992, 0.107 0.265 0.2992, 0.1076 0.2633 0.2992, 0.1146 0.274 0.2992, 0.1086 0.2618 0.2992, 0.1069 0.2665 0.2992, 0.1144 0.274 0.2992, 0.1069 0.2674 0.2992, 0.1128 0.2738 0.2992, 0.1111 0.2733 0.2992, 0.1392 0.2798 0.2992, 0.1389 0.2795 0.2992, 0.1436 0.2643 0.2992, 0.1353 0.2765 0.2992, 0.1362 0.2607 0.2992, 0.131 0.2746 0.2992, 0.1282 0.259 0.2992, 0.1267 0.2738 0.2992, 0.1139 0.259 0.2992, 0.1158 0.2738 0.2992, 0.1133 0.259 0.2992, 0.1153 0.2738 0.2992, 0.1117 0.2595 0.2992, 0.11 0.2604 0.2992, 0.1096 0.2723 0.2992, 0.1083 0.2709 0.2992, 0.1074 0.2692 0.2992, 0.1517 0.3128 0.2953, 0.155 0.3082 0.2953, 0.1572 0.3028 0.2953, 0.158 0.3008 0.2953, 0.1591 0.2929 0.2953, 0.1501 0.3151 0.2953, 0.1435 0.3207 0.2953, 0.1363 0.3242 0.2953, 0.1352 0.3246 0.2953, 0.1301 0.3345 0.2953, 0.1221 0.3437 0.2953, 0.1113 0.351 0.2953, 0.0992 0.3552 0.2953, 0.0892 0.3563 0.2953, 0.0772 0.3548 0.2953, 0.066 0.3505 0.2953, 0.0601 0.3469 0.2953, 0.0544 0.342 0.2953, 0.0495 0.3362 0.2953, 0.0467 0.3365 0.2953, 0.0439 0.3367 0.2953, 0.0344 0.3355 0.2953, 0.0254 0.332 0.2953, 0.0177 0.3266 0.2953, 0.0161 0.3251 0.2953, 0.0102 0.3176 0.2953, 0.0081 0.3128 0.2953, 0.0064 0.3088 0.2953, 0.0053 0.3028 0.2953, 0.0048 0.2997 0.2953, 0.0047 0.2975 0.2953, 0.0059 0.2879 0.2953, 0.0094 0.2789 0.2953, 0.0149 0.2711 0.2953, 0.0224 0.2647 0.2953, 0.0311 0.2604 0.2953, 0.0342 0.2595 0.2953, 0.0345 0.2588 0.2953, 0.0366 0.2544 0.2953, 0.0402 0.2499 0.2953, 0.0449 0.2463 0.2953, 0.0472 0.2453 0.2953, 0.0505 0.2439 0.2953, 0.0562 0.243 0.2953, 0.0572 0.243 0.2953, 0.0629 0.2437 0.2953, 0.0673 0.2453 0.2953, 0.0683 0.2457 0.2953, 0.0732 0.249 0.2953, 0.0772 0.2535 0.2953, 0.0799 0.2588 0.2953, 0.08 0.259 0.2953, 0.0813 0.265 0.2953, 0.0814 0.2672 0.2953, 0.0814 0.2696 0.2953, 0.1153 0.2876 0.2953, 0.1078 0.3004 0.2953, 0.0754 0.2834 0.2953, 0.0712 0.2873 0.2953, 0.0661 0.29 0.2953, 0.0602 0.2915 0.2953, 0.0572 0.2917 0.2953, 0.0516 0.291 0.2953, 0.0462 0.289 0.2953, 0.0413 0.2856 0.2953, 0.0372 0.281 0.2953, 0.0345 0.2757 0.2953, 0.0294 0.2788 0.2953, 0.025 0.2832 0.2953, 0.0219 0.2884 0.2953, 0.0202 0.2943 0.2953, 0.02 0.298 0.2953, 0.0205 0.3028 0.2953, 0.0206 0.3036 0.2953, 0.0227 0.309 0.2953, 0.0252 0.3128 0.2953, 0.026 0.3139 0.2953, 0.0305 0.3179 0.2953, 0.0359 0.3207 0.2953, 0.0419 0.3221 0.2953, 0.0442 0.3222 0.2953, 0.0496 0.3215 0.2953, 0.0551 0.3196 0.2953, 0.057 0.3185 0.2953, 0.0607 0.3262 0.2953, 0.0661 0.3327 0.2953, 0.0726 0.3374 0.2953, 0.0805 0.3406 0.2953, 0.0894 0.3418 0.2953, 0.1233 0.3115 0.2953, 0.123 0.3128 0.2953, 0.1218 0.3184 0.2953, 0.118 0.3262 0.2953, 0.1125 0.3327 0.2953, 0.1121 0.3331 0.2953, 0.1053 0.3378 0.2953, 0.0977 0.3408 0.2953, 0.1252 0.3115 0.2953, 0.1298 0.311 0.2953, 0.1341 0.3093 0.2953, 0.1378 0.3067 0.2953, 0.1407 0.3035 0.2953, 0.141 0.3028 0.2953, 0.1429 0.2994 0.2953, 0.144 0.2947 0.2953, 0.1441 0.2926 0.2953, 0.1436 0.2879 0.2953, 0.1419 0.2836 0.2953, 0.1392 0.2798 0.2953, 0.1389 0.2795 0.2953, 0.1353 0.2765 0.2953, 0.131 0.2746 0.2953, 0.1267 0.2738 0.2953, 0.1158 0.2738 0.2953, 0.1153 0.2738 0.2953, 0.1146 0.274 0.2953, 0.1144 0.274 0.2953, 0.1128 0.2738 0.2953, 0.1111 0.2733 0.2953, 0.1096 0.2723 0.2953, 0.1083 0.2709 0.2953, 0.1074 0.2692 0.2953, 0.1069 0.2674 0.2953, 0.1069 0.2665 0.2953, 0.107 0.265 0.2953, 0.1076 0.2633 0.2953, 0.1086 0.2618 0.2953, 0.11 0.2604 0.2953, 0.1117 0.2595 0.2953, 0.1133 0.259 0.2953, 0.1139 0.259 0.2953, 0.1282 0.259 0.2953, 0.1362 0.2607 0.2953, 0.1436 0.2643 0.2953, 0.1502 0.2699 0.2953, 0.155 0.2766 0.2953, 0.158 0.2843 0.2953, 0.057 0.2764 0.2953, 0.0586 0.2763 0.2953, 0.0609 0.2756 0.2953, 0.0629 0.2743 0.2953, 0.0645 0.2726 0.2953, 0.0657 0.2707 0.2953, 0.0663 0.2685 0.2953, 0.0664 0.2662 0.2953, 0.0659 0.2638 0.2953, 0.0648 0.2617 0.2953, 0.0633 0.2599 0.2953, 0.0614 0.2586 0.2953, 0.0593 0.2578 0.2953, 0.057 0.2575 0.2953, 0.0548 0.2578 0.2953, 0.0526 0.2586 0.2953, 0.0506 0.26 0.2953, 0.0491 0.2618 0.2953, 0.0481 0.2638 0.2953, 0.0476 0.266 0.2953, 0.0477 0.2684 0.2953, 0.0483 0.2707 0.2953, 0.0495 0.2727 0.2953, 0.0507 0.274 0.2953, 0.0526 0.2753 0.2953, 0.0547 0.2761 0.2953, 0.0547 0.2761 0.2953
            ]
        }
        coordIndex [
            0,1,2,-1,3,4,5,-1,6,7,8,-1,9,10,11,-1,11,10,12,-1,5,4,13,-1,14,15,16,-1,17,18,10,-1,10,18,19,-1,10,19,12,-1,12,19,20,-1,21,22,23,-1,23,22,24,-1,23,24,25,-1,25,24,26,-1,25,26,27,-1,27,26,28,-1,27,28,29,-1,29,28,2,-1,29,2,30,-1,31,32,21,-1,21,32,33,-1,21,33,22,-1,9,11,16,-1,16,11,34,-1,16,34,14,-1,35,1,36,-1,36,1,37,-1,36,37,38,-1,39,40,41,-1,41,40,42,-1,41,42,43,-1,43,42,44,-1,43,44,45,-1,45,44,46,-1,6,8,47,-1,47,8,48,-1,47,48,49,-1,49,48,50,-1,49,50,51,-1,52,53,2,-1,2,53,54,-1,2,54,0,-1,4,55,13,-1,13,55,56,-1,13,56,57,-1,57,56,58,-1,57,58,6,-1,6,58,59,-1,6,59,7,-1,20,19,21,-1,21,19,60,-1,21,60,31,-1,44,61,46,-1,46,61,62,-1,46,62,63,-1,63,62,64,-1,63,64,65,-1,65,64,66,-1,64,67,66,-1,66,67,68,-1,66,68,69,-1,69,68,70,-1,69,70,71,-1,71,70,72,-1,71,72,73,-1,5,74,3,-1,3,74,75,-1,3,75,76,-1,76,75,77,-1,76,77,78,-1,78,77,79,-1,78,79,80,-1,35,81,1,-1,1,81,82,-1,1,82,2,-1,2,82,83,-1,2,83,30,-1,84,85,86,-1,86,85,87,-1,86,87,41,-1,41,87,88,-1,41,88,39,-1,15,89,16,-1,16,89,90,-1,16,90,91,-1,91,90,92,-1,91,92,93,-1,93,92,94,-1,93,94,95,-1,95,94,96,-1,95,96,97,-1,97,96,98,-1,97,98,99,-1,99,98,100,-1,99,100,101,-1,101,100,102,-1,101,102,103,-1,103,102,38,-1,103,38,104,-1,104,38,37,-1,51,50,105,-1,105,50,106,-1,105,106,107,-1,107,106,108,-1,107,108,109,-1,109,108,110,-1,109,110,111,-1,111,110,112,-1,111,112,84,-1,84,112,113,-1,84,113,85,-1,79,114,80,-1,80,114,115,-1,80,115,116,-1,116,115,117,-1,116,117,118,-1,118,117,119,-1,118,119,120,-1,120,119,121,-1,120,121,122,-1,122,121,123,-1,122,123,52,-1,52,123,124,-1,52,124,53,-1,125,126,127,-1,127,126,128,-1,125,127,129,-1,129,127,130,-1,129,130,131,-1,131,130,132,-1,131,132,133,-1,72,134,73,-1,73,134,135,-1,73,135,136,-1,136,135,137,-1,136,137,138,-1,138,137,139,-1,138,139,140,-1,140,139,141,-1,140,141,142,-1,142,141,143,-1,142,143,144,-1,144,143,145,-1,144,145,146,-1,146,145,127,-1,146,127,147,-1,147,127,128,-1,133,148,131,-1,131,148,149,-1,131,149,150,-1,151,46,152,-1,152,46,63,-1,152,63,153,-1,153,63,65,-1,153,65,154,-1,154,65,66,-1,154,66,155,-1,151,156,46,-1,46,156,157,-1,46,157,45,-1,45,157,158,-1,45,158,43,-1,43,158,159,-1,43,159,41,-1,41,159,160,-1,41,160,86,-1,86,160,161,-1,86,161,84,-1,84,161,162,-1,84,162,111,-1,111,162,163,-1,111,163,109,-1,109,163,164,-1,109,164,107,-1,107,164,165,-1,107,165,105,-1,105,165,166,-1,105,166,51,-1,51,166,167,-1,51,167,49,-1,49,167,168,-1,49,168,47,-1,47,168,169,-1,47,169,6,-1,6,169,170,-1,6,170,57,-1,57,170,171,-1,57,171,13,-1,13,171,172,-1,13,172,5,-1,5,172,173,-1,5,173,74,-1,74,173,174,-1,74,174,75,-1,75,174,175,-1,75,175,77,-1,114,79,176,-1,176,79,77,-1,176,77,175,-1,176,177,114,-1,114,177,178,-1,114,178,115,-1,115,178,179,-1,179,180,115,-1,115,180,181,-1,115,181,117,-1,117,181,182,-1,117,182,119,-1,119,182,183,-1,119,183,121,-1,121,183,184,-1,121,184,123,-1,123,184,185,-1,123,185,124,-1,124,185,186,-1,124,186,53,-1,53,186,187,-1,53,187,54,-1,54,187,188,-1,54,188,0,-1,188,189,0,-1,0,189,190,-1,0,190,1,-1,1,190,191,-1,1,191,37,-1,37,191,192,-1,37,192,104,-1,192,193,104,-1,104,193,194,-1,104,194,103,-1,103,194,195,-1,103,195,101,-1,101,195,196,-1,101,196,99,-1,99,196,197,-1,99,197,97,-1,197,198,97,-1,97,198,199,-1,97,199,95,-1,95,199,200,-1,95,200,93,-1,93,200,201,-1,93,201,91,-1,201,202,91,-1,91,202,203,-1,91,203,16,-1,16,203,204,-1,16,204,9,-1,10,9,205,-1,205,9,204,-1,17,10,206,-1,206,10,205,-1,18,17,207,-1,207,17,206,-1,19,18,208,-1,208,18,207,-1,19,208,209,-1,19,209,60,-1,60,209,210,-1,60,210,31,-1,31,210,211,-1,31,211,32,-1,32,211,212,-1,32,212,33,-1,33,212,213,-1,33,213,22,-1,22,213,214,-1,22,214,24,-1,24,214,215,-1,24,215,26,-1,26,215,216,-1,26,216,28,-1,28,216,217,-1,28,217,2,-1,2,217,218,-1,2,218,52,-1,52,218,219,-1,52,219,122,-1,122,219,220,-1,122,220,120,-1,120,220,221,-1,120,221,118,-1,118,221,222,-1,118,222,116,-1,222,223,116,-1,116,223,80,-1,223,224,80,-1,80,224,225,-1,80,225,78,-1,78,225,226,-1,78,226,76,-1,226,227,76,-1,76,227,228,-1,76,228,3,-1,3,228,229,-1,3,229,4,-1,4,229,230,-1,4,230,55,-1,55,230,231,-1,55,231,56,-1,56,231,232,-1,56,232,58,-1,58,232,233,-1,58,233,59,-1,59,233,234,-1,59,234,7,-1,7,234,235,-1,7,235,8,-1,8,235,236,-1,8,236,48,-1,48,236,237,-1,48,237,50,-1,50,237,238,-1,50,238,106,-1,106,238,239,-1,106,239,108,-1,240,39,241,-1,241,39,88,-1,241,88,242,-1,242,88,87,-1,242,87,243,-1,243,87,85,-1,243,85,244,-1,244,85,113,-1,244,113,245,-1,245,113,112,-1,245,112,246,-1,246,112,110,-1,246,110,247,-1,247,110,108,-1,247,108,239,-1,40,39,248,-1,248,39,240,-1,40,248,249,-1,40,249,42,-1,42,249,250,-1,42,250,44,-1,44,250,251,-1,44,251,61,-1,61,251,252,-1,61,252,62,-1,62,252,253,-1,62,253,64,-1,253,254,64,-1,64,254,255,-1,64,255,67,-1,67,255,256,-1,67,256,68,-1,68,256,257,-1,68,257,70,-1,70,257,258,-1,70,258,72,-1,72,258,259,-1,72,259,134,-1,134,259,260,-1,134,260,135,-1,135,260,261,-1,135,261,137,-1,137,261,262,-1,137,262,139,-1,139,262,263,-1,139,263,141,-1,143,141,264,-1,264,141,263,-1,143,264,265,-1,143,265,145,-1,145,265,266,-1,145,266,127,-1,127,266,267,-1,127,267,130,-1,130,267,268,-1,130,268,132,-1,132,268,269,-1,132,269,133,-1,133,269,270,-1,133,270,148,-1,148,270,271,-1,148,271,149,-1,149,271,272,-1,149,272,150,-1,150,272,273,-1,150,273,131,-1,131,273,274,-1,131,274,129,-1,129,274,275,-1,129,275,125,-1,125,275,276,-1,125,276,126,-1,126,276,277,-1,126,277,128,-1,128,277,278,-1,128,278,147,-1,147,278,279,-1,147,279,146,-1,146,279,280,-1,146,280,144,-1,144,280,281,-1,144,281,142,-1,140,142,282,-1,282,142,281,-1,140,282,283,-1,140,283,138,-1,138,283,284,-1,138,284,136,-1,136,284,285,-1,136,285,73,-1,73,285,286,-1,73,286,71,-1,71,286,287,-1,71,287,69,-1,69,287,155,-1,69,155,66,-1,20,288,289,-1,20,289,12,-1,12,289,290,-1,12,290,11,-1,11,290,291,-1,11,291,34,-1,34,291,292,-1,34,292,14,-1,14,292,293,-1,14,293,15,-1,15,293,294,-1,15,294,89,-1,89,294,295,-1,89,295,90,-1,90,295,296,-1,90,296,92,-1,92,296,297,-1,92,297,94,-1,94,297,298,-1,94,298,96,-1,96,298,299,-1,96,299,98,-1,98,299,300,-1,98,300,100,-1,100,300,301,-1,100,301,102,-1,102,301,302,-1,102,302,38,-1,38,302,303,-1,38,303,36,-1,36,303,304,-1,36,304,35,-1,35,304,305,-1,35,305,81,-1,81,305,306,-1,81,306,82,-1,82,306,307,-1,82,307,83,-1,83,307,308,-1,83,308,30,-1,30,308,309,-1,30,309,29,-1,29,309,310,-1,29,310,27,-1,27,310,311,-1,27,311,25,-1,25,311,312,-1,25,312,23,-1,23,312,313,-1,23,313,21,-1,21,313,288,-1,21,288,20,-1,
        ]
    }
}
Shape{
    appearance Appearance {
        material  Material 	{
            diffuseColor 0.20784313725490197 0.20784313725490197 0.20784313725490197
            specularColor 0.01568627450980392 0.01568627450980392 0.01568627450980392
            ambientIntensity 0.2
            transparency 0
            shininess 0.5
        }
    }
    geometry IndexedFaceSet {
        ccw TRUE
        solid FALSE
        coord DEF co Coordinate {
            point [
                0.057 0.2575 0.2953, 0.0507 0.274 0.2953, 0.0495 0.2727 0.2953, 0.057 0.2764 0.2953, 0.0586 0.2763 0.2953, 0.0593 0.2578 0.2953, 0.0547 0.2761 0.2953, 0.0526 0.2753 0.2953, 0.0633 0.2599 0.2953, 0.0645 0.2726 0.2953, 0.0629 0.2743 0.2953, 0.0481 0.2638 0.2953, 0.0491 0.2618 0.2953, 0.0506 0.26 0.2953, 0.0614 0.2586 0.2953, 0.0609 0.2756 0.2953, 0.0483 0.2707 0.2953, 0.0477 0.2684 0.2953, 0.0476 0.266 0.2953, 0.0526 0.2586 0.2953, 0.0548 0.2578 0.2953, 0.0659 0.2638 0.2953, 0.0664 0.2662 0.2953, 0.0648 0.2617 0.2953, 0.0663 0.2685 0.2953, 0.0657 0.2707 0.2953, 0.0657 0.2707 0.2953
            ]
        }
        coordIndex [
            0,1,2,-1,3,0,4,-1,4,0,5,-1,3,6,0,-1,0,6,7,-1,0,7,1,-1,8,9,10,-1,11,12,2,-1,2,12,13,-1,5,14,4,-1,4,14,8,-1,4,8,15,-1,15,8,10,-1,16,17,2,-1,2,17,18,-1,2,18,11,-1,13,19,2,-1,2,19,20,-1,2,20,0,-1,21,22,23,-1,23,22,24,-1,23,24,8,-1,8,24,25,-1,8,25,9,-1,
        ]
    }
}
Shape{
    appearance Appearance {
        material  Material 	{
            diffuseColor 1.0 1.0 1.0
            specularColor 0.8784313725490196 0.8784313725490196 0.8784313725490196
            ambientIntensity 0.2
            transparency 0
            shininess 0.5
        }
    }
    geometry IndexedFaceSet {
        ccw TRUE
        solid FALSE
        coord DEF co Coordinate {
            point [
                0.2846 0.3226 0.2992, 0.2829 0.3205 0.2992, 0.286 0.3179 0.2992, 0.2822 0.32 0.2992, 0.2824 0.3153 0.2992, 0.28 0.3185 0.2992, 0.2786 0.3138 0.2992, 0.2771 0.3175 0.2992, 0.2728 0.3131 0.2992, 0.2728 0.317 0.2992, 0.2634 0.3131 0.2992, 0.2678 0.317 0.2992, 0.2634 0.3472 0.2992, 0.2678 0.3432 0.2992, 0.2731 0.3472 0.2992, 0.273 0.3432 0.2992, 0.2783 0.3466 0.2992, 0.2773 0.3428 0.2992, 0.2824 0.3451 0.2992, 0.2803 0.3417 0.2992, 0.286 0.3427 0.2992, 0.2828 0.34 0.2992, 0.2872 0.3415 0.2992, 0.2839 0.3389 0.2992, 0.2893 0.3386 0.2992, 0.2852 0.3369 0.2992, 0.2905 0.3353 0.2992, 0.2861 0.3344 0.2992, 0.2911 0.3306 0.2992, 0.2865 0.3305 0.2992, 0.291 0.3284 0.2992, 0.2864 0.3283 0.2992, 0.2902 0.3244 0.2992, 0.2857 0.3252 0.2992, 0.2885 0.3209 0.2992, 0.286 0.3179 0.2953, 0.2885 0.3209 0.2953, 0.2902 0.3244 0.2953, 0.291 0.3284 0.2953, 0.2911 0.3306 0.2953, 0.2905 0.3353 0.2953, 0.2893 0.3386 0.2953, 0.2872 0.3415 0.2953, 0.286 0.3427 0.2953, 0.2731 0.3472 0.2953, 0.2824 0.3451 0.2953, 0.279 0.3463 0.2953, 0.2783 0.3466 0.2953, 0.2634 0.3472 0.2953, 0.2634 0.3131 0.2953, 0.2728 0.3131 0.2953, 0.2786 0.3138 0.2953, 0.279 0.314 0.2953, 0.2824 0.3153 0.2953, 0.2828 0.34 0.2953, 0.2839 0.3389 0.2953, 0.2852 0.3369 0.2953, 0.2861 0.3344 0.2953, 0.2865 0.3305 0.2953, 0.273 0.3432 0.2953, 0.2773 0.3428 0.2953, 0.2803 0.3417 0.2953, 0.2678 0.3432 0.2953, 0.2678 0.317 0.2953, 0.2728 0.317 0.2953, 0.2829 0.3205 0.2953, 0.2822 0.32 0.2953, 0.28 0.3185 0.2953, 0.2771 0.3175 0.2953, 0.2864 0.3283 0.2953, 0.2857 0.3252 0.2953, 0.2846 0.3226 0.2953, 0.2846 0.3226 0.2953
            ]
        }
        coordIndex [
            0,1,2,-1,2,1,3,-1,2,3,4,-1,4,3,5,-1,4,5,6,-1,6,5,7,-1,6,7,8,-1,8,7,9,-1,8,9,10,-1,10,9,11,-1,10,11,12,-1,12,11,13,-1,12,13,14,-1,14,13,15,-1,14,15,16,-1,16,15,17,-1,16,17,18,-1,18,17,19,-1,18,19,20,-1,20,19,21,-1,20,21,22,-1,22,21,23,-1,22,23,24,-1,24,23,25,-1,24,25,26,-1,26,25,27,-1,26,27,28,-1,28,27,29,-1,28,29,30,-1,30,29,31,-1,30,31,32,-1,32,31,33,-1,32,33,34,-1,34,33,0,-1,34,0,2,-1,2,35,36,-1,2,36,34,-1,34,36,37,-1,34,37,32,-1,32,37,38,-1,32,38,30,-1,30,38,39,-1,30,39,28,-1,28,39,40,-1,28,40,26,-1,26,40,41,-1,26,41,24,-1,24,41,42,-1,24,42,22,-1,22,42,43,-1,22,43,20,-1,44,14,16,-1,20,43,45,-1,20,45,18,-1,18,45,46,-1,18,46,16,-1,16,46,47,-1,16,47,44,-1,12,14,48,-1,48,14,44,-1,10,12,49,-1,49,12,48,-1,8,10,50,-1,50,10,49,-1,35,2,4,-1,8,50,51,-1,8,51,6,-1,6,51,52,-1,6,52,4,-1,4,52,53,-1,4,53,35,-1,21,54,55,-1,21,55,23,-1,23,55,56,-1,23,56,25,-1,25,56,57,-1,25,57,27,-1,27,57,58,-1,27,58,29,-1,15,59,60,-1,15,60,17,-1,17,60,61,-1,17,61,19,-1,19,61,54,-1,19,54,21,-1,15,13,59,-1,59,13,62,-1,13,11,62,-1,62,11,63,-1,11,9,63,-1,63,9,64,-1,1,65,66,-1,1,66,3,-1,3,66,67,-1,3,67,5,-1,5,67,68,-1,5,68,7,-1,7,68,64,-1,7,64,9,-1,29,58,69,-1,29,69,31,-1,31,69,70,-1,31,70,33,-1,33,70,71,-1,33,71,0,-1,0,71,65,-1,0,65,1,-1,
        ]
    }
}
Shape{
    appearance Appearance {
        material  Material 	{
            diffuseColor 0.20784313725490197 0.20784313725490197 0.20784313725490197
            specularColor 0.01568627450980392 0.01568627450980392 0.01568627450980392
            ambientIntensity 0.2
            transparency 0
            shininess 0.5
        }
    }
    geometry IndexedFaceSet {
        ccw TRUE
        solid FALSE
        coord DEF co Coordinate {
            point [
                0.2678 0.3432 0.2953, 0.2678 0.317 0.2953, 0.273 0.3432 0.2953, 0.2728 0.317 0.2953, 0.2771 0.3175 0.2953, 0.28 0.3185 0.2953, 0.2822 0.32 0.2953, 0.2829 0.3205 0.2953, 0.2846 0.3226 0.2953, 0.2857 0.3252 0.2953, 0.2864 0.3283 0.2953, 0.2865 0.3305 0.2953, 0.2861 0.3344 0.2953, 0.2852 0.3369 0.2953, 0.2839 0.3389 0.2953, 0.2828 0.34 0.2953, 0.2773 0.3428 0.2953, 0.2803 0.3417 0.2953, 0.2803 0.3417 0.2953
            ]
        }
        coordIndex [
            0,1,2,-1,2,1,3,-1,2,3,4,-1,4,5,2,-1,2,5,6,-1,2,6,7,-1,7,8,2,-1,2,8,9,-1,2,9,10,-1,10,11,2,-1,2,11,12,-1,2,12,13,-1,13,14,2,-1,2,14,15,-1,2,15,16,-1,16,15,17,-1,
        ]
    }
}
Shape{
    appearance Appearance {
        material  Material 	{
            diffuseColor 1.0 1.0 1.0
            specularColor 0.8784313725490196 0.8784313725490196 0.8784313725490196
            ambientIntensity 0.2
            transparency 0
            shininess 0.5
        }
    }
    geometry IndexedFaceSet {
        ccw TRUE
        solid FALSE
        coord DEF co Coordinate {
            point [
                0.2231 0.3165 0.2992, 0.2231 0.3165 0.2953, 0.2196 0.3169 0.2953, 0.2196 0.3169 0.2992, 0.2172 0.3178 0.2953, 0.2172 0.3178 0.2992, 0.215 0.3194 0.2953, 0.215 0.3194 0.2992, 0.2143 0.32 0.2953, 0.2143 0.32 0.2992, 0.2127 0.3223 0.2953, 0.2127 0.3223 0.2992, 0.2116 0.3251 0.2953, 0.2116 0.3251 0.2992, 0.211 0.3285 0.2953, 0.211 0.3285 0.2992, 0.211 0.3298 0.2953, 0.211 0.3298 0.2992, 0.2114 0.3341 0.2953, 0.2114 0.3341 0.2992, 0.2125 0.3371 0.2953, 0.2125 0.3371 0.2992, 0.2141 0.3395 0.2953, 0.2141 0.3395 0.2992, 0.2146 0.34 0.2953, 0.2146 0.34 0.2992, 0.2169 0.3419 0.2953, 0.2169 0.3419 0.2992, 0.2196 0.3431 0.2953, 0.2196 0.3431 0.2992, 0.2225 0.3437 0.2953, 0.2225 0.3437 0.2992, 0.2238 0.3438 0.2953, 0.2238 0.3438 0.2992, 0.2319 0.3417 0.2953, 0.2319 0.3417 0.2992, 0.2315 0.342 0.2992, 0.228 0.3433 0.2953, 0.228 0.3433 0.2992, 0.2304 0.3424 0.2953, 0.2315 0.342 0.2953, 0.2319 0.3463 0.2992, 0.2319 0.3463 0.2953, 0.2304 0.3468 0.2953, 0.2284 0.3474 0.2992, 0.2284 0.3474 0.2953, 0.2239 0.3477 0.2953, 0.2239 0.3477 0.2992, 0.2238 0.3477 0.2953, 0.2238 0.3477 0.2992, 0.2188 0.3471 0.2953, 0.2188 0.3471 0.2992, 0.2153 0.3457 0.2953, 0.2153 0.3457 0.2992, 0.2121 0.3435 0.2953, 0.2121 0.3435 0.2992, 0.2113 0.3427 0.2953, 0.2113 0.3427 0.2992, 0.2088 0.3395 0.2953, 0.2088 0.3395 0.2992, 0.2072 0.3357 0.2953, 0.2072 0.3357 0.2992, 0.2064 0.3313 0.2953, 0.2064 0.3313 0.2992, 0.2064 0.3295 0.2953, 0.2064 0.3295 0.2992, 0.2069 0.3244 0.2953, 0.2069 0.3244 0.2992, 0.2082 0.3208 0.2953, 0.2082 0.3208 0.2992, 0.2102 0.3178 0.2953, 0.2102 0.3178 0.2992, 0.2107 0.3172 0.2953, 0.2107 0.3172 0.2992, 0.2224 0.3125 0.2953, 0.2224 0.3125 0.2992, 0.2204 0.3126 0.2992, 0.2135 0.3149 0.2953, 0.2135 0.3149 0.2992, 0.2167 0.3134 0.2953, 0.2167 0.3134 0.2992, 0.2195 0.3128 0.2953, 0.2204 0.3126 0.2953, 0.2319 0.3145 0.2953, 0.2319 0.3145 0.2992, 0.2313 0.3142 0.2992, 0.2254 0.3128 0.2953, 0.2276 0.313 0.2992, 0.2276 0.313 0.2953, 0.2304 0.314 0.2953, 0.2313 0.3142 0.2953, 0.2319 0.3187 0.2992, 0.2319 0.3187 0.2953, 0.2304 0.3181 0.2953, 0.2285 0.3172 0.2992, 0.2285 0.3172 0.2953, 0.2247 0.3165 0.2953, 0.2247 0.3165 0.2992, 0.3452 0.2723 0.2992, 0.3438 0.2684 0.2992, 0.3566 0.2723 0.2992, 0.358 0.2684 0.2992, 0.3503 0.2864 0.2992, 0.3486 0.2932 0.2992, 0.3357 0.2591 0.2992, 0.3405 0.2591 0.2992, 0.3506 0.2874 0.2992, 0.3508 0.2888 0.2992, 0.3533 0.2932 0.2992, 0.3509 0.2888 0.2992, 0.3512 0.2874 0.2992, 0.3515 0.2864 0.2992, 0.3663 0.2591 0.2992, 0.3614 0.2591 0.2992, 0.3486 0.2932 0.2953, 0.3533 0.2932 0.2953, 0.3357 0.2591 0.2953, 0.3405 0.2591 0.2953, 0.3438 0.2684 0.2953, 0.358 0.2684 0.2953, 0.3614 0.2591 0.2953, 0.3663 0.2591 0.2953, 0.3503 0.2864 0.2953, 0.3506 0.2874 0.2953, 0.3508 0.2888 0.2953, 0.3452 0.2723 0.2953, 0.3566 0.2723 0.2953, 0.3515 0.2864 0.2953, 0.3509 0.2888 0.2953, 0.3512 0.2874 0.2953, 0.3512 0.2874 0.2953
            ]
        }
        coordIndex [
            0,1,2,-1,0,2,3,-1,3,2,4,-1,3,4,5,-1,5,4,6,-1,5,6,7,-1,7,6,8,-1,7,8,9,-1,9,8,10,-1,9,10,11,-1,11,10,12,-1,11,12,13,-1,13,12,14,-1,13,14,15,-1,15,14,16,-1,15,16,17,-1,17,16,18,-1,17,18,19,-1,19,18,20,-1,19,20,21,-1,21,20,22,-1,21,22,23,-1,23,22,24,-1,23,24,25,-1,25,24,26,-1,25,26,27,-1,27,26,28,-1,27,28,29,-1,29,28,30,-1,29,30,31,-1,31,30,32,-1,31,32,33,-1,34,35,36,-1,33,32,37,-1,33,37,38,-1,38,37,39,-1,38,39,36,-1,36,39,40,-1,36,40,34,-1,41,35,42,-1,42,35,34,-1,41,42,43,-1,41,43,44,-1,43,45,44,-1,44,45,46,-1,44,46,47,-1,47,46,48,-1,47,48,49,-1,49,48,50,-1,49,50,51,-1,51,50,52,-1,51,52,53,-1,53,52,54,-1,53,54,55,-1,55,54,56,-1,55,56,57,-1,57,56,58,-1,57,58,59,-1,59,58,60,-1,59,60,61,-1,61,60,62,-1,61,62,63,-1,63,62,64,-1,63,64,65,-1,65,64,66,-1,65,66,67,-1,67,66,68,-1,67,68,69,-1,69,68,70,-1,69,70,71,-1,71,70,72,-1,71,72,73,-1,74,75,76,-1,73,72,77,-1,73,77,78,-1,78,77,79,-1,78,79,80,-1,80,79,81,-1,80,81,76,-1,76,81,82,-1,76,82,74,-1,83,84,85,-1,74,86,75,-1,75,86,87,-1,86,88,87,-1,87,88,89,-1,87,89,85,-1,85,89,90,-1,85,90,83,-1,91,84,92,-1,92,84,83,-1,91,92,93,-1,91,93,94,-1,93,95,94,-1,94,95,96,-1,94,96,97,-1,97,96,1,-1,97,1,0,-1,36,35,41,-1,19,21,59,-1,36,41,38,-1,38,41,44,-1,38,44,33,-1,33,44,47,-1,33,47,31,-1,31,47,49,-1,31,49,29,-1,29,49,51,-1,29,51,27,-1,84,91,85,-1,85,91,94,-1,85,94,87,-1,87,94,97,-1,87,97,75,-1,75,97,0,-1,75,0,76,-1,76,0,3,-1,76,3,80,-1,80,3,5,-1,80,5,78,-1,78,5,7,-1,78,7,73,-1,73,7,9,-1,73,9,71,-1,71,9,11,-1,71,11,69,-1,59,21,57,-1,51,53,27,-1,27,53,55,-1,27,55,25,-1,25,55,57,-1,25,57,23,-1,23,57,21,-1,65,17,63,-1,63,17,19,-1,63,19,61,-1,61,19,59,-1,69,11,67,-1,67,11,13,-1,67,13,65,-1,65,13,15,-1,65,15,17,-1,98,99,100,-1,100,99,101,-1,102,103,98,-1,98,103,104,-1,98,104,99,-1,99,104,105,-1,102,106,103,-1,103,106,107,-1,103,107,108,-1,108,107,109,-1,108,109,110,-1,110,111,108,-1,108,111,100,-1,108,100,112,-1,112,100,101,-1,112,101,113,-1,103,108,114,-1,114,108,115,-1,104,103,116,-1,116,103,114,-1,105,104,117,-1,117,104,116,-1,99,105,118,-1,118,105,117,-1,101,99,119,-1,119,99,118,-1,113,101,120,-1,120,101,119,-1,112,113,121,-1,121,113,120,-1,108,112,115,-1,115,112,121,-1,102,122,123,-1,102,123,106,-1,106,123,124,-1,106,124,107,-1,102,98,122,-1,122,98,125,-1,98,100,125,-1,125,100,126,-1,100,111,126,-1,126,111,127,-1,109,128,129,-1,109,129,110,-1,110,129,127,-1,110,127,111,-1,109,107,128,-1,128,107,124,-1,
        ]
    }
}
Shape{
    appearance Appearance {
        material  Material 	{
            diffuseColor 0.20784313725490197 0.20784313725490197 0.20784313725490197
            specularColor 0.01568627450980392 0.01568627450980392 0.01568627450980392
            ambientIntensity 0.2
            transparency 0
            shininess 0.5
        }
    }
    geometry IndexedFaceSet {
        ccw TRUE
        solid FALSE
        coord DEF co Coordinate {
            point [
                0.3509 0.2888 0.2953, 0.3508 0.2888 0.2953, 0.3512 0.2874 0.2953, 0.3506 0.2874 0.2953, 0.3515 0.2864 0.2953, 0.3503 0.2864 0.2953, 0.3566 0.2723 0.2953, 0.3452 0.2723 0.2953, 0.3452 0.2723 0.2953
            ]
        }
        coordIndex [
            0,1,2,-1,2,1,3,-1,2,3,4,-1,4,3,5,-1,4,5,6,-1,6,5,7,-1,
        ]
    }
}
Shape{
    appearance Appearance {
        material  Material 	{
            diffuseColor 1.0 1.0 1.0
            specularColor 0.8784313725490196 0.8784313725490196 0.8784313725490196
            ambientIntensity 0.2
            transparency 0
            shininess 0.5
        }
    }
    geometry IndexedFaceSet {
        ccw TRUE
        solid FALSE
        coord DEF co Coordinate {
            point [
                0.2996 0.263 0.2992, 0.2996 0.263 0.2953, 0.2857 0.263 0.2992, 0.2921 0.263 0.2953, 0.2857 0.263 0.2953, 0.2857 0.2744 0.2992, 0.2857 0.2744 0.2953, 0.2979 0.2744 0.2992, 0.2921 0.2744 0.2953, 0.2979 0.2744 0.2953, 0.2979 0.2783 0.2992, 0.2979 0.2783 0.2953, 0.2857 0.2783 0.2953, 0.2857 0.2783 0.2992, 0.2921 0.2783 0.2953, 0.2857 0.2892 0.2992, 0.2857 0.2892 0.2953, 0.2988 0.2892 0.2953, 0.2988 0.2892 0.2992, 0.2921 0.2892 0.2953, 0.2988 0.2932 0.2992, 0.2988 0.2932 0.2953, 0.2813 0.2932 0.2953, 0.2813 0.2932 0.2992, 0.2921 0.2932 0.2953, 0.2813 0.2591 0.2992, 0.2813 0.2591 0.2953, 0.2996 0.2591 0.2992, 0.2921 0.2591 0.2953, 0.2996 0.2591 0.2953, 0.1914 0.263 0.2953, 0.1914 0.263 0.2992, 0.2052 0.263 0.2953, 0.2053 0.263 0.2992, 0.2053 0.263 0.2953, 0.1914 0.2744 0.2992, 0.1914 0.2744 0.2953, 0.2036 0.2744 0.2992, 0.2036 0.2744 0.2953, 0.2036 0.2783 0.2992, 0.2036 0.2783 0.2953, 0.1914 0.2783 0.2992, 0.1914 0.2783 0.2953, 0.1914 0.2892 0.2992, 0.1914 0.2892 0.2953, 0.2046 0.2892 0.2992, 0.2046 0.2892 0.2953, 0.2046 0.2932 0.2992, 0.2046 0.2932 0.2953, 0.187 0.2932 0.2992, 0.187 0.2932 0.2953, 0.187 0.2591 0.2992, 0.187 0.2591 0.2953, 0.2053 0.2591 0.2953, 0.2053 0.2591 0.2992, 0.2052 0.2591 0.2953, 0.3025 0.3263 0.2992, 0.3011 0.3224 0.2992, 0.314 0.3263 0.2992, 0.3153 0.3224 0.2992, 0.3076 0.3404 0.2992, 0.306 0.3472 0.2992, 0.293 0.3131 0.2992, 0.2979 0.3131 0.2992, 0.3079 0.3414 0.2992, 0.3082 0.3428 0.2992, 0.3107 0.3472 0.2992, 0.3083 0.3428 0.2992, 0.3086 0.3414 0.2992, 0.3088 0.3404 0.2992, 0.3237 0.3131 0.2992, 0.3188 0.3131 0.2992, 0.306 0.3472 0.2953, 0.3107 0.3472 0.2953, 0.293 0.3131 0.2953, 0.3028 0.3389 0.2953, 0.2979 0.3131 0.2953, 0.3011 0.3224 0.2953, 0.3153 0.3224 0.2953, 0.3028 0.3224 0.2953, 0.3188 0.3131 0.2953, 0.3237 0.3131 0.2953, 0.3076 0.3404 0.2953, 0.3079 0.3414 0.2953, 0.3082 0.3428 0.2953, 0.3025 0.3263 0.2953, 0.314 0.3263 0.2953, 0.3088 0.3404 0.2953, 0.3083 0.3428 0.2953, 0.3086 0.3414 0.2953, 0.3086 0.3414 0.2953
            ]
        }
        coordIndex [
            0,1,2,-1,2,1,3,-1,2,3,4,-1,5,2,6,-1,6,2,4,-1,5,6,7,-1,7,6,8,-1,7,8,9,-1,10,7,11,-1,11,7,9,-1,12,13,14,-1,14,13,10,-1,14,10,11,-1,15,13,16,-1,16,13,12,-1,17,18,19,-1,19,18,15,-1,19,15,16,-1,20,18,21,-1,21,18,17,-1,22,23,24,-1,24,23,20,-1,24,20,21,-1,25,23,26,-1,26,23,22,-1,25,26,27,-1,27,26,28,-1,27,28,29,-1,0,27,1,-1,1,27,29,-1,25,27,0,-1,0,2,25,-1,25,2,5,-1,25,5,23,-1,18,20,15,-1,15,20,23,-1,15,23,13,-1,13,23,5,-1,13,5,10,-1,10,5,7,-1,30,31,32,-1,32,31,33,-1,32,33,34,-1,35,31,36,-1,36,31,30,-1,37,35,38,-1,38,35,36,-1,39,37,40,-1,40,37,38,-1,41,39,42,-1,42,39,40,-1,43,41,44,-1,44,41,42,-1,45,43,46,-1,46,43,44,-1,47,45,48,-1,48,45,46,-1,49,47,50,-1,50,47,48,-1,51,49,52,-1,52,49,50,-1,53,54,55,-1,55,54,51,-1,55,51,52,-1,33,54,34,-1,34,54,53,-1,51,54,33,-1,33,31,51,-1,51,31,35,-1,51,35,49,-1,45,47,43,-1,43,47,49,-1,43,49,41,-1,41,49,35,-1,41,35,39,-1,39,35,37,-1,56,57,58,-1,58,57,59,-1,60,61,56,-1,56,61,62,-1,56,62,57,-1,57,62,63,-1,60,64,61,-1,61,64,65,-1,61,65,66,-1,66,65,67,-1,66,67,68,-1,68,69,66,-1,66,69,58,-1,66,58,70,-1,70,58,59,-1,70,59,71,-1,61,66,72,-1,72,66,73,-1,74,62,75,-1,75,62,61,-1,75,61,72,-1,63,62,76,-1,76,62,74,-1,57,63,77,-1,77,63,76,-1,78,59,79,-1,79,59,57,-1,79,57,77,-1,71,59,80,-1,80,59,78,-1,70,71,81,-1,81,71,80,-1,66,70,73,-1,73,70,81,-1,60,82,83,-1,60,83,64,-1,64,83,84,-1,64,84,65,-1,60,56,82,-1,82,56,85,-1,56,58,85,-1,85,58,86,-1,58,69,86,-1,86,69,87,-1,67,88,89,-1,67,89,68,-1,68,89,87,-1,68,87,69,-1,67,65,88,-1,88,65,84,-1,
        ]
    }
}
Shape{
    appearance Appearance {
        material  Material 	{
            diffuseColor 0.20784313725490197 0.20784313725490197 0.20784313725490197
            specularColor 0.01568627450980392 0.01568627450980392 0.01568627450980392
            ambientIntensity 0.2
            transparency 0
            shininess 0.5
        }
    }
    geometry IndexedFaceSet {
        ccw TRUE
        solid FALSE
        coord DEF co Coordinate {
            point [
                0.3083 0.3428 0.2953, 0.3082 0.3428 0.2953, 0.3086 0.3414 0.2953, 0.3079 0.3414 0.2953, 0.3088 0.3404 0.2953, 0.3076 0.3404 0.2953, 0.314 0.3263 0.2953, 0.3025 0.3263 0.2953, 0.3025 0.3263 0.2953
            ]
        }
        coordIndex [
            0,1,2,-1,2,1,3,-1,2,3,4,-1,4,3,5,-1,4,5,6,-1,6,5,7,-1,
        ]
    }
}
Shape{
    appearance Appearance {
        material  Material 	{
            diffuseColor 1.0 1.0 1.0
            specularColor 0.8784313725490196 0.8784313725490196 0.8784313725490196
            ambientIntensity 0.2
            transparency 0
            shininess 0.5
        }
    }
    geometry IndexedFaceSet {
        ccw TRUE
        solid FALSE
        coord DEF co Coordinate {
            point [
                0.2431 0.317 0.2953, 0.2431 0.317 0.2992, 0.2523 0.317 0.2953, 0.257 0.317 0.2992, 0.257 0.317 0.2953, 0.2431 0.3285 0.2992, 0.2431 0.3285 0.2953, 0.2552 0.3285 0.2992, 0.2523 0.3285 0.2953, 0.2552 0.3285 0.2953, 0.2552 0.3323 0.2992, 0.2552 0.3323 0.2953, 0.2431 0.3323 0.2953, 0.2431 0.3323 0.2992, 0.2523 0.3323 0.2953, 0.2431 0.3432 0.2992, 0.2431 0.3432 0.2953, 0.2562 0.3432 0.2992, 0.2523 0.3432 0.2953, 0.2562 0.3432 0.2953, 0.2562 0.3472 0.2992, 0.2562 0.3472 0.2953, 0.2387 0.3472 0.2953, 0.2387 0.3472 0.2992, 0.2523 0.3472 0.2953, 0.2387 0.3131 0.2992, 0.2387 0.3131 0.2953, 0.257 0.3131 0.2992, 0.2523 0.3131 0.2953, 0.257 0.3131 0.2953, 0.1914 0.317 0.2992, 0.205 0.317 0.2992, 0.1914 0.317 0.2953, 0.205 0.317 0.2953, 0.1914 0.3472 0.2992, 0.1914 0.3472 0.2953, 0.187 0.3472 0.2992, 0.187 0.3472 0.2953, 0.187 0.3131 0.2992, 0.187 0.3131 0.2953, 0.205 0.3131 0.2992, 0.205 0.3131 0.2953, 0.205 0.3131 0.2953
            ]
        }
        coordIndex [
            0,1,2,-1,2,1,3,-1,2,3,4,-1,5,1,6,-1,6,1,0,-1,5,6,7,-1,7,6,8,-1,7,8,9,-1,10,7,11,-1,11,7,9,-1,12,13,14,-1,14,13,10,-1,14,10,11,-1,15,13,16,-1,16,13,12,-1,15,16,17,-1,17,16,18,-1,17,18,19,-1,20,17,21,-1,21,17,19,-1,22,23,24,-1,24,23,20,-1,24,20,21,-1,25,23,26,-1,26,23,22,-1,25,26,27,-1,27,26,28,-1,27,28,29,-1,3,27,4,-1,4,27,29,-1,25,27,3,-1,3,1,25,-1,25,1,5,-1,25,5,23,-1,17,20,15,-1,15,20,23,-1,15,23,13,-1,13,23,5,-1,13,5,10,-1,10,5,7,-1,30,31,32,-1,32,31,33,-1,34,30,35,-1,35,30,32,-1,36,34,37,-1,37,34,35,-1,38,36,39,-1,39,36,37,-1,40,38,41,-1,41,38,39,-1,31,40,33,-1,33,40,41,-1,34,36,30,-1,30,36,38,-1,30,38,31,-1,31,38,40,-1,
        ]
    }
}