#VRML V2.0 utf8
# 3D model generated by easyeda2kicad.py (https://github.com/uPesy/easyeda2kicad.py)

Shape{
    appearance Appearance {
        material  Material 	{
            diffuseColor 0.19607843137254902 0.19607843137254902 0.19607843137254902
            specularColor 0.09803921568627451 0.09803921568627451 0.09803921568627451
            ambientIntensity 0.1961
            transparency 0.0
            shininess 0.5
        }
    }
    geometry IndexedFaceSet {
        ccw TRUE
        solid FALSE
        coord DEF co Coordinate {
            point [
                -0.0335 0.1253 0.1628, 0.0599 0.1253 0.1628, 0.0599 0.0648 0.1628, -0.0335 0.0648 0.1628, -0.0335 0.0446 0.1628, -0.0512 -0.0539 0.1628, -0.0335 0.1455 0.1628, -0.0512 2.5 0.1628, 0.0775 0.1455 0.1628, 0.3324 -0.0311 0.1628, 0.3097 0.0482 0.1628, 0.297 0.0985 0.1628, 0.2634 0.134 0.1628, 0.2125 0.1503 0.1628, 0.2038 0.1506 0.1628, 0.1557 0.1404 0.1628, 0.1356 0.128 0.1628, 0.0775 -0.0513 0.1628, 0.1179 0.1094 0.1628, 0.1241 0.1171 0.1628, 0.0599 0.0446 0.1628, 0.0599 -0.0311 0.1628, -0.0335 -0.0311 0.1628, -0.0335 -0.0513 0.1628, 0.4258 -0.0513 0.1628, 0.2176 -0.0539 0.1628, 0.3324 -0.0513 0.1628, 0.2481 -0.0484 0.1628, 0.2673 -0.0379 0.1628, 0.2485 0.1196 0.1628, 0.279 0.0921 0.1628, 0.2049 0.1304 0.1628, 0.2917 0.0548 0.1628, 0.292 0.0469 0.1628, 0.2818 0.0063 0.1628, 0.2547 -0.0221 0.1628, 0.2161 -0.0355 0.1628, 0.2785 -0.0286 0.1628, 0.2847 -0.022 0.1628, 0.3037 0.0108 0.1628, 0.1557 -0.0462 0.1628, 0.1179 -0.0151 0.1628, 0.1334 -0.0034 0.1628, 0.1334 0.0976 0.1628, 0.1648 -0.0279 0.1628, 0.1653 0.1223 0.1628, 0.2037 -0.0362 0.1628, 0.1838 0.1283 0.1628, 0.1967 0.1301 0.1628, 0.1787 -0.0539 0.1628, 0.1937 -0.056 0.1628, -0.0512 -2.5 0.1628, 0.2035 -0.0564 0.1628, 0.4081 -0.0311 0.1628, 0.4081 0.1455 0.1628, 0.4258 0.1455 0.1628, 1.0983 2.5 0.1628, 1.0983 -0.0539 0.1628, 1.0983 -2.5 0.1628, -1.0983 -2.5 0.1628, -1.0983 -0.0539 0.1628, 0.178 -0.0538 0.1628, -0.2749 -0.0513 0.1628, -0.2556 -0.0513 0.1628, -0.4232 -0.0513 0.1628, -0.3941 0.0118 0.1628, -0.3048 0.0118 0.1628, -0.1711 0.1384 0.1628, -0.2065 0.1145 0.1628, -0.349 0.1455 0.1628, -0.1908 -0.0376 0.1628, -0.1511 -0.0502 0.1628, -0.1299 -0.0513 0.1628, -0.1401 0.1443 0.1628, -1.0983 2.5 0.1628, -0.3515 0.1455 0.1628, -0.4424 -0.0513 0.1628, -0.2267 0.0756 0.1628, -0.2304 0.0446 0.1628, -0.2193 -0.0049 0.1628, -0.0689 -0.0513 0.1628, -0.0689 0.1455 0.1628, -0.1086 0.1455 0.1628
            ]
        }
        coordIndex [
            0,1,2,-1,3,4,5,-1,2,3,0,-1,0,3,5,-1,0,5,6,-1,6,5,7,-1,6,7,8,-1,7,9,10,-1,10,11,7,-1,7,11,12,-1,7,12,13,-1,13,14,7,-1,7,14,15,-1,7,15,16,-1,17,8,18,-1,18,8,7,-1,18,7,19,-1,19,7,16,-1,20,21,4,-1,4,21,22,-1,4,22,5,-1,5,22,23,-1,5,23,17,-1,24,25,26,-1,26,25,27,-1,26,27,28,-1,29,30,31,-1,31,30,32,-1,31,32,33,-1,33,34,31,-1,31,34,35,-1,31,35,36,-1,28,37,26,-1,26,37,38,-1,26,38,9,-1,9,38,39,-1,9,39,10,-1,40,17,41,-1,41,17,18,-1,41,18,42,-1,42,18,43,-1,42,43,44,-1,44,43,45,-1,44,45,46,-1,46,45,47,-1,46,47,36,-1,36,47,48,-1,36,48,31,-1,49,50,51,-1,51,50,52,-1,51,52,25,-1,53,9,54,-1,54,9,7,-1,54,7,55,-1,55,7,56,-1,55,56,24,-1,24,56,57,-1,24,57,25,-1,25,57,58,-1,25,58,51,-1,59,60,51,-1,51,60,5,-1,51,5,49,-1,49,5,17,-1,49,17,61,-1,61,17,40,-1,62,63,5,-1,64,65,66,-1,67,68,69,-1,70,71,63,-1,63,71,72,-1,63,72,5,-1,73,67,7,-1,7,67,69,-1,7,69,74,-1,74,69,75,-1,74,75,60,-1,60,75,76,-1,60,76,5,-1,5,76,64,-1,5,64,62,-1,62,64,66,-1,68,77,69,-1,69,77,78,-1,69,78,63,-1,63,78,79,-1,63,79,70,-1,72,80,5,-1,5,80,81,-1,5,81,7,-1,7,81,82,-1,7,82,73,-1,
        ]
    }
}
Shape{
    appearance Appearance {
        material  Material 	{
            diffuseColor 0.7529411764705882 0.7529411764705882 0.7529411764705882
            specularColor 0.3764705882352941 0.3764705882352941 0.3764705882352941
            ambientIntensity 0.7529
            transparency 0.0
            shininess 0.5
        }
    }
    geometry IndexedFaceSet {
        ccw TRUE
        solid FALSE
        coord DEF co Coordinate {
            point [
                2.4291 0.9843 0.0, 2.4291 0.1181 0.0, 1.1709 0.9843 0.0, 1.6751 0.1181 0.0, 1.6751 -0.1181 0.0, 2.4291 -0.1181 0.0, 2.4291 -0.9843 0.0, 1.1709 -0.9843 0.0, 1.0528 -0.8661 0.0, 1.0528 0.8661 0.0, 2.4864 0.9843 0.0114, 2.4864 0.1181 0.0114, 2.5349 0.9843 0.0438, 2.5349 0.1181 0.0438, 2.5674 0.9843 0.0924, 2.5674 0.1181 0.0924, 2.5787 0.9843 0.1496, 2.5787 0.1181 0.1496, 2.5787 0.9843 0.4665, 2.5787 0.1181 0.4665, 2.5674 0.9843 0.5237, 2.5674 0.1181 0.5237, 2.5349 0.9843 0.5723, 2.5349 0.1181 0.5723, 2.4864 0.9843 0.6047, 2.4864 0.1181 0.6047, 2.4291 0.9843 0.6161, 2.4291 0.1181 0.6161, 2.3819 0.9843 0.6161, 2.3819 0.1181 0.6161, 2.3819 0.9843 0.5373, 2.4213 0.9843 0.5373, 2.3819 0.1181 0.5373, 2.4213 0.1181 0.5373, 2.453 0.1181 0.5307, 2.453 0.9843 0.5307, 2.4793 0.1181 0.5118, 2.4793 0.9843 0.5118, 2.5 0.1181 0.1575, 2.5 0.9843 0.1575, 2.494 0.1181 0.1273, 2.494 0.9843 0.1273, 2.4769 0.1181 0.1018, 2.4769 0.9843 0.1018, 2.4514 0.1181 0.0847, 2.4514 0.9843 0.0847, 2.4213 0.1181 0.0787, 2.4213 0.9843 0.0787, 2.4213 -0.9843 0.0787, 2.4213 -0.1181 0.0787, 1.1709 -0.9843 0.0787, 1.6751 -0.1181 0.0787, 1.6751 0.1181 0.0787, 1.1709 0.9843 0.0787, 1.0528 0.8661 0.0787, 1.0528 -0.8661 0.0787, -2.4793 -0.9843 0.5118, -2.4793 -0.1181 0.5118, -2.453 -0.9843 0.5307, -2.453 -0.1181 0.5307, -2.4213 -0.9843 0.5373, -2.4213 -0.1181 0.5373, -2.5787 -0.9843 0.1496, -2.5787 -0.1181 0.1496, -2.5674 -0.1181 0.0924, -2.5674 -0.9843 0.0924, -2.5349 -0.1181 0.0438, -2.5349 -0.9843 0.0438, -2.4864 -0.1181 0.0114, -2.4864 -0.9843 0.0114, -2.4291 -0.1181 0.0, -2.4291 -0.9843 0.0, -2.4213 -0.9843 0.0787, -2.4213 -0.1181 0.0787, -2.4514 -0.9843 0.0847, -2.4514 -0.1181 0.0847, -2.4769 -0.9843 0.1018, -2.4769 -0.1181 0.1018, -2.494 -0.9843 0.1273, -2.494 -0.1181 0.1273, -2.5 -0.9843 0.1575, -2.5 -0.1181 0.1575, -2.3819 -0.9843 0.5373, -2.3819 -0.1181 0.5373, -2.4291 -0.9843 0.6161, -2.3819 -0.9843 0.6161, -2.4291 -0.1181 0.6161, -2.3819 -0.1181 0.6161, -2.4864 -0.1181 0.6047, -2.4864 -0.9843 0.6047, -2.5349 -0.1181 0.5723, -2.5349 -0.9843 0.5723, -2.5674 -0.1181 0.5237, -2.5674 -0.9843 0.5237, -2.5787 -0.1181 0.4665, -2.5787 -0.9843 0.4665
            ]
        }
        coordIndex [
            0,1,2,-1,2,1,3,-1,4,5,6,-1,6,7,4,-1,4,7,8,-1,4,8,3,-1,3,8,9,-1,3,9,2,-1,1,0,10,-1,1,10,11,-1,11,10,12,-1,11,12,13,-1,13,12,14,-1,13,14,15,-1,15,14,16,-1,15,16,17,-1,16,18,17,-1,17,18,19,-1,19,18,20,-1,19,20,21,-1,21,20,22,-1,21,22,23,-1,23,22,24,-1,23,24,25,-1,25,24,26,-1,25,26,27,-1,26,28,27,-1,27,28,29,-1,30,31,32,-1,32,31,33,-1,33,31,34,-1,34,31,35,-1,34,35,36,-1,36,35,37,-1,38,39,40,-1,40,39,41,-1,40,41,42,-1,42,41,43,-1,42,43,44,-1,44,43,45,-1,44,45,46,-1,46,45,47,-1,48,49,50,-1,50,49,51,-1,52,46,47,-1,47,53,52,-1,52,53,54,-1,52,54,51,-1,51,54,55,-1,51,55,50,-1,56,57,58,-1,58,57,59,-1,58,59,60,-1,60,59,61,-1,62,63,64,-1,62,64,65,-1,65,64,66,-1,65,66,67,-1,67,66,68,-1,67,68,69,-1,69,68,70,-1,69,70,71,-1,72,73,74,-1,74,73,75,-1,74,75,76,-1,76,75,77,-1,76,77,78,-1,78,77,79,-1,78,79,80,-1,80,79,81,-1,82,60,83,-1,83,60,61,-1,84,85,86,-1,86,85,87,-1,84,86,88,-1,84,88,89,-1,89,88,90,-1,89,90,91,-1,91,90,92,-1,91,92,93,-1,93,92,94,-1,93,94,95,-1,62,95,63,-1,63,95,94,-1,
        ]
    }
}
Shape{
    appearance Appearance {
        material  Material 	{
            diffuseColor 0.19607843137254902 0.19607843137254902 0.19607843137254902
            specularColor 0.09803921568627451 0.09803921568627451 0.09803921568627451
            ambientIntensity 0.1961
            transparency 0.0
            shininess 0.5
        }
    }
    geometry IndexedFaceSet {
        ccw TRUE
        solid FALSE
        coord DEF co Coordinate {
            point [
                -2.5 -1.1811 0.1575, -2.5 -1.1811 0.0394, -2.5 -2.1063 0.0394, -2.5 0.9843 0.1575, -2.5 0.9843 0.5118, -2.5 1.1811 0.1575, -2.5 1.4213 0.5118, -2.5 1.4213 0.6693, -2.5 2.1063 0.0394, -2.5 1.1811 0.0394, -2.5 -1.4213 0.5118, -2.5 -0.9843 0.5118, -2.5 -0.9843 0.1575, -2.5 -1.4213 0.6693, -2.5 -2.1063 3.3465, -2.5 2.1063 3.3465, -2.3819 1.4213 0.5118, -2.4793 0.9843 0.5118, -2.4793 0.1181 0.5118, -2.3819 -1.4213 0.5118, -2.4793 -0.9843 0.5118, -2.4793 -0.1181 0.5118, -2.5 -0.1181 0.5118, -2.5 0.1181 0.5118, -2.3819 0.9843 0.6161, -2.3819 1.4213 0.6693, -2.3819 0.9843 0.5373, -2.3819 0.1181 0.5373, -2.3819 -0.1181 0.5373, -2.3819 0.1181 0.6161, -2.3819 -0.1181 0.6161, -2.3819 -1.4213 0.6693, -2.3819 -0.9843 0.6161, -2.3819 -0.9843 0.5373, 2.5 1.1811 0.1575, 2.5 1.1811 0.0394, 2.5 2.1063 0.0394, 2.5 -0.9843 0.1575, 2.5 -0.9843 0.5118, 2.5 -1.1811 0.1575, 2.5 -1.4213 0.5118, 2.5 -1.4213 0.6693, 2.5 -2.1063 0.0394, 2.5 -1.1811 0.0394, 2.5 1.4213 0.5118, 2.5 0.9843 0.5118, 2.5 0.9843 0.1575, 2.5 1.4213 0.6693, 2.5 2.1063 3.3465, 2.5 -2.1063 3.3465, -2.1063 2.5 0.0394, -1.2615 2.5 0.0394, -1.2615 1.1811 0.0394, -2.4473 2.3031 0.0394, -2.3031 2.4473 0.0394, 2.1063 2.5 0.0394, 2.3031 2.4473 0.0394, 2.4473 2.3031 0.0394, 1.2615 1.1811 0.0394, 1.2615 2.5 0.0394, -2.1063 -2.5 0.0394, -2.3031 -2.4473 0.0394, -2.4473 -2.3031 0.0394, -1.2615 -1.1811 0.0394, -1.2615 -2.5 0.0394, -1.1506 -1.5523 3.2283, -1.1506 -1.5523 3.3465, -0.7971 -1.7601 3.2283, -0.7971 -1.7601 3.3465, -0.4077 -1.8887 3.2283, -0.4077 -1.8887 3.3465, 0.0 -1.9322 3.2283, 0.0 -1.9322 3.3465, 0.4077 -1.8887 3.2283, 0.4077 -1.8887 3.3465, 0.7971 -1.7601 3.2283, 0.7971 -1.7601 3.3465, 1.1506 -1.5523 3.2283, 1.1506 -1.5523 3.3465, 1.5523 -1.1506 3.2283, 1.5523 -1.1506 3.3465, 1.7601 -0.7971 3.2283, 1.7601 -0.7971 3.3465, 1.8887 -0.4077 3.2283, 1.8887 -0.4077 3.3465, 1.9322 0.0 3.2283, 1.9322 0.0 3.3465, 1.8887 0.4077 3.2283, 1.8887 0.4077 3.3465, 1.7601 0.7971 3.2283, 1.7601 0.7971 3.3465, 1.5523 1.1506 3.2283, 1.5523 1.1506 3.3465, 1.1506 1.5523 3.2283, 1.1506 1.5523 3.3465, 0.7971 1.7601 3.2283, 0.7971 1.7601 3.3465, 0.4077 1.8887 3.2283, 0.4077 1.8887 3.3465, 0.0 1.9322 3.2283, 0.0 1.9322 3.3465, -0.4077 1.8887 3.2283, -0.4077 1.8887 3.3465, -0.7971 1.7601 3.2283, -0.7971 1.7601 3.3465, -1.1506 1.5523 3.2283, -1.1506 1.5523 3.3465, -1.0983 2.5 0.1628, -2.1063 2.5 3.3465, 2.1063 2.5 3.3465, 1.0983 2.5 0.1628, -0.0512 2.5 0.1628, -2.1063 -2.5 3.3465, 1.2615 -2.5 0.0394, 2.1063 -2.5 0.0394, 1.0983 -2.5 0.1628, 2.1063 -2.5 3.3465, -0.0512 -2.5 0.1628, -1.0983 -2.5 0.1628, -1.2582 -1.6298 3.3465, 1.2582 1.6298 3.3465, 1.3892 1.6502 3.3465, 1.5153 1.609 3.3465, -1.3892 -1.6502 3.3465, -1.5153 -1.609 3.3465, -1.6502 -1.3892 3.3465, -1.6298 -1.2582 3.3465, -1.5153 1.609 3.3465, -1.3892 1.6502 3.3465, -1.2582 1.6298 3.3465, 2.3031 2.4473 3.3465, 1.609 1.5153 3.3465, 2.4473 2.3031 3.3465, 2.3031 -2.4473 3.3465, 2.4473 -2.3031 3.3465, -1.5523 -1.1506 3.3465, -1.7601 -0.7971 3.3465, -1.8887 -0.4077 3.3465, -1.9322 0.0 3.3465, -1.8887 0.4077 3.3465, -2.3031 2.4473 3.3465, -2.4473 2.3031 3.3465, -1.609 1.5153 3.3465, -1.6502 1.3892 3.3465, -1.6298 1.2582 3.3465, -1.7601 0.7971 3.3465, -1.5523 1.1506 3.3465, 1.6502 1.3892 3.3465, 1.6298 1.2582 3.3465, -2.3031 -2.4473 3.3465, -2.4473 -2.3031 3.3465, -1.609 -1.5153 3.3465, 1.609 -1.5153 3.3465, 1.6502 -1.3892 3.3465, 1.6298 -1.2582 3.3465, 1.5153 -1.609 3.3465, 1.3892 -1.6502 3.3465, 1.2582 -1.6298 3.3465, 2.4473 -2.3031 0.0394, 2.3031 -2.4473 0.0394, 1.2615 -1.1811 0.0394, -1.5523 1.1506 3.2283, -1.7601 0.7971 3.2283, -1.8887 0.4077 3.2283, -1.9322 0.0 3.2283, -1.8887 -0.4077 3.2283, -1.7601 -0.7971 3.2283, -1.5523 -1.1506 3.2283, -1.6502 1.3892 3.2283, -1.6298 1.2582 3.2283, 1.3892 1.6502 3.2283, 1.2582 1.6298 3.2283, 1.6502 -1.3892 3.2283, 1.6298 -1.2582 3.2283, -1.5153 -1.609 3.2283, -1.3892 -1.6502 3.2283, -1.2582 -1.6298 3.2283, 1.609 1.5153 3.2283, 1.5153 1.609 3.2283, -1.2582 1.6298 3.2283, -1.3892 1.6502 3.2283, -1.1737 1.1737 3.2283, -1.5153 1.609 3.2283, -1.609 1.5153 3.2283, 1.6298 1.2582 3.2283, 1.1737 1.1737 3.2283, 1.6502 1.3892 3.2283, -1.4375 0.8299 3.2283, -1.6033 0.4296 3.2283, -1.6599 0.0 3.2283, -1.6033 -0.4296 3.2283, -1.4375 -0.8299 3.2283, -1.1737 -1.1737 3.2283, 0.8299 1.4375 3.2283, 0.4296 1.6033 3.2283, 0.0 1.6599 3.2283, -0.4296 1.6033 3.2283, -0.8299 1.4375 3.2283, 1.2582 -1.6298 3.2283, 1.3892 -1.6502 3.2283, 1.1737 -1.1737 3.2283, 1.5153 -1.609 3.2283, 1.4375 0.8299 3.2283, 1.6033 0.4296 3.2283, 1.6599 0.0 3.2283, 1.6033 -0.4296 3.2283, 1.4375 -0.8299 3.2283, 1.609 -1.5153 3.2283, -1.6502 -1.3892 3.2283, -1.609 -1.5153 3.2283, -1.6298 -1.2582 3.2283, -0.8299 -1.4375 3.2283, -0.4296 -1.6033 3.2283, 0.0 -1.6599 3.2283, 0.4296 -1.6033 3.2283, 0.8299 -1.4375 3.2283, 1.6599 0.0 3.3465, 1.6033 0.4296 3.3465, 1.4375 0.8299 3.3465, 1.1737 1.1737 3.3465, 0.8299 1.4375 3.3465, 0.4296 1.6033 3.3465, 0.0 1.6599 3.3465, -0.4296 1.6033 3.3465, -0.8299 1.4375 3.3465, -1.1737 1.1737 3.3465, -1.4375 0.8299 3.3465, -1.6033 0.4296 3.3465, -1.6599 0.0 3.3465, -1.6033 -0.4296 3.3465, -1.4375 -0.8299 3.3465, -1.1737 -1.1737 3.3465, -0.8299 -1.4375 3.3465, -0.4296 -1.6033 3.3465, 0.0 -1.6599 3.3465, 0.4296 -1.6033 3.3465, 0.8299 -1.4375 3.3465, 1.1737 -1.1737 3.3465, 1.4375 -0.8299 3.3465, 1.6033 -0.4296 3.3465, 0.0 0.0 3.3465, -1.1053 1.1811 0.1575, -1.1053 -1.1811 0.1575, -1.0983 -0.0539 0.1628, 1.1053 -1.1811 0.1575, 1.0983 -0.0539 0.1628, 1.1053 1.1811 0.1575, 2.5 0.1181 0.1575, 2.5 -0.1181 0.1575, -2.5 -0.1181 0.1575, -2.5 0.1181 0.1575, 2.3819 -1.4213 0.5118, 2.4793 -0.9843 0.5118, 2.4793 -0.1181 0.5118, 2.3819 1.4213 0.5118, 2.4793 0.9843 0.5118, 2.4793 0.1181 0.5118, 2.5 0.1181 0.5118, 2.5 -0.1181 0.5118, 2.3819 -1.4213 0.6693, 2.3819 1.4213 0.6693, 2.3819 -0.1181 0.6161, 2.3819 -0.1181 0.5373, 2.3819 -0.9843 0.5373, 2.3819 -0.9843 0.6161, 2.3819 0.1181 0.5373, 2.3819 0.1181 0.6161, 2.3819 0.9843 0.6161, 2.3819 0.9843 0.5373
            ]
        }
        coordIndex [
            0,1,2,-1,3,4,5,-1,5,4,6,-1,7,8,6,-1,6,8,9,-1,6,9,5,-1,10,11,12,-1,12,0,10,-1,10,0,2,-1,10,2,13,-1,13,2,14,-1,13,14,7,-1,7,14,15,-1,7,15,8,-1,16,6,4,-1,4,17,16,-1,16,17,18,-1,16,18,19,-1,11,10,20,-1,20,10,19,-1,20,19,21,-1,21,19,18,-1,21,18,22,-1,22,18,23,-1,24,25,26,-1,26,25,16,-1,26,16,27,-1,16,19,27,-1,27,19,28,-1,27,28,29,-1,29,28,30,-1,24,29,25,-1,25,29,30,-1,25,30,31,-1,31,30,32,-1,31,32,19,-1,19,32,33,-1,19,33,28,-1,34,35,36,-1,37,38,39,-1,39,38,40,-1,41,42,40,-1,40,42,43,-1,40,43,39,-1,44,45,46,-1,46,34,44,-1,44,34,36,-1,44,36,47,-1,47,36,48,-1,47,48,41,-1,41,48,49,-1,41,49,42,-1,50,51,52,-1,53,54,8,-1,8,54,50,-1,8,50,9,-1,9,50,52,-1,55,56,57,-1,58,59,35,-1,35,59,55,-1,35,55,36,-1,36,55,57,-1,60,61,62,-1,63,64,1,-1,1,64,60,-1,1,60,2,-1,2,60,62,-1,65,66,67,-1,67,66,68,-1,67,68,69,-1,69,68,70,-1,69,70,71,-1,71,70,72,-1,71,72,73,-1,73,72,74,-1,73,74,75,-1,75,74,76,-1,75,76,77,-1,77,76,78,-1,79,80,81,-1,81,80,82,-1,81,82,83,-1,83,82,84,-1,83,84,85,-1,85,84,86,-1,85,86,87,-1,87,86,88,-1,87,88,89,-1,89,88,90,-1,89,90,91,-1,91,90,92,-1,93,94,95,-1,95,94,96,-1,95,96,97,-1,97,96,98,-1,97,98,99,-1,99,98,100,-1,99,100,101,-1,101,100,102,-1,101,102,103,-1,103,102,104,-1,103,104,105,-1,105,104,106,-1,51,50,107,-1,107,50,108,-1,55,59,109,-1,109,59,110,-1,109,110,108,-1,108,110,111,-1,108,111,107,-1,112,60,64,-1,113,114,115,-1,115,114,116,-1,115,116,117,-1,117,116,112,-1,117,112,118,-1,118,112,64,-1,66,119,68,-1,68,119,70,-1,94,120,96,-1,96,120,98,-1,121,122,109,-1,112,123,124,-1,14,125,126,-1,127,128,108,-1,108,128,129,-1,109,122,130,-1,130,122,131,-1,130,131,132,-1,133,134,49,-1,135,136,126,-1,126,136,137,-1,126,137,14,-1,14,137,138,-1,14,138,15,-1,15,138,139,-1,108,140,127,-1,127,140,141,-1,127,141,142,-1,142,141,15,-1,142,15,143,-1,143,15,139,-1,143,139,144,-1,144,139,145,-1,144,145,146,-1,120,121,98,-1,98,121,109,-1,98,109,100,-1,100,109,108,-1,100,108,102,-1,102,108,129,-1,102,129,104,-1,104,129,106,-1,132,131,48,-1,48,131,147,-1,48,147,148,-1,149,112,150,-1,150,112,124,-1,150,124,14,-1,14,124,151,-1,14,151,125,-1,84,49,86,-1,86,49,48,-1,86,48,88,-1,88,48,148,-1,88,148,90,-1,90,148,92,-1,116,133,152,-1,152,133,49,-1,152,49,153,-1,153,49,84,-1,153,84,154,-1,154,84,82,-1,154,82,80,-1,152,155,116,-1,116,155,156,-1,116,156,157,-1,119,123,70,-1,70,123,112,-1,70,112,72,-1,72,112,116,-1,72,116,74,-1,74,116,157,-1,74,157,76,-1,76,157,78,-1,42,158,159,-1,160,43,113,-1,113,43,42,-1,113,42,114,-1,114,42,159,-1,161,146,162,-1,162,146,145,-1,162,145,163,-1,163,145,139,-1,163,139,164,-1,164,139,138,-1,164,138,165,-1,165,138,137,-1,165,137,166,-1,166,137,136,-1,166,136,167,-1,167,136,135,-1,168,169,161,-1,170,171,93,-1,172,173,79,-1,174,175,176,-1,177,178,170,-1,179,180,181,-1,181,180,182,-1,181,182,183,-1,91,184,185,-1,185,184,186,-1,185,186,177,-1,183,168,181,-1,181,168,161,-1,181,161,187,-1,187,161,162,-1,187,162,188,-1,188,162,163,-1,188,163,189,-1,189,163,164,-1,189,164,190,-1,190,164,165,-1,190,165,191,-1,191,165,166,-1,191,166,192,-1,192,166,167,-1,177,170,185,-1,185,170,93,-1,185,93,193,-1,193,93,95,-1,193,95,194,-1,194,95,97,-1,194,97,195,-1,195,97,99,-1,195,99,196,-1,196,99,101,-1,196,101,197,-1,197,101,103,-1,197,103,181,-1,181,103,105,-1,181,105,179,-1,198,199,200,-1,200,199,201,-1,91,185,89,-1,89,185,202,-1,89,202,87,-1,87,202,203,-1,87,203,85,-1,85,203,204,-1,85,204,83,-1,83,204,205,-1,83,205,81,-1,81,205,206,-1,81,206,79,-1,79,206,200,-1,79,200,172,-1,172,200,201,-1,172,201,207,-1,208,209,210,-1,210,209,174,-1,210,174,167,-1,167,174,176,-1,167,176,192,-1,192,176,65,-1,192,65,211,-1,211,65,67,-1,211,67,212,-1,212,67,69,-1,212,69,213,-1,213,69,71,-1,213,71,214,-1,214,71,73,-1,214,73,215,-1,215,73,75,-1,215,75,200,-1,200,75,77,-1,200,77,198,-1,216,203,217,-1,217,203,202,-1,217,202,218,-1,218,202,185,-1,218,185,219,-1,219,185,193,-1,219,193,220,-1,220,193,194,-1,220,194,221,-1,221,194,195,-1,221,195,222,-1,222,195,196,-1,222,196,223,-1,223,196,197,-1,223,197,224,-1,224,197,181,-1,224,181,225,-1,225,181,187,-1,225,187,226,-1,226,187,188,-1,226,188,227,-1,227,188,189,-1,227,189,228,-1,228,189,190,-1,228,190,229,-1,229,190,191,-1,229,191,230,-1,230,191,192,-1,230,192,231,-1,231,192,211,-1,231,211,232,-1,232,211,212,-1,232,212,233,-1,233,212,213,-1,233,213,234,-1,234,213,214,-1,234,214,235,-1,235,214,215,-1,235,215,236,-1,236,215,200,-1,236,200,237,-1,237,200,206,-1,237,206,238,-1,238,206,205,-1,238,205,239,-1,239,205,204,-1,239,204,216,-1,216,204,203,-1,238,239,240,-1,240,239,216,-1,240,216,217,-1,235,236,240,-1,240,236,237,-1,240,237,238,-1,232,233,240,-1,240,233,234,-1,240,234,235,-1,229,230,240,-1,240,230,231,-1,240,231,232,-1,226,227,240,-1,240,227,228,-1,240,228,229,-1,223,224,240,-1,240,224,225,-1,240,225,226,-1,220,221,240,-1,240,221,222,-1,240,222,223,-1,217,218,240,-1,240,218,219,-1,240,219,220,-1,105,106,179,-1,179,106,129,-1,179,129,180,-1,180,129,128,-1,180,128,182,-1,182,128,127,-1,182,127,183,-1,183,127,142,-1,183,142,168,-1,168,142,143,-1,168,143,169,-1,169,143,144,-1,169,144,161,-1,161,144,146,-1,91,92,184,-1,184,92,148,-1,184,148,186,-1,186,148,147,-1,186,147,177,-1,177,147,131,-1,177,131,178,-1,178,131,122,-1,178,122,170,-1,170,122,121,-1,170,121,171,-1,171,121,120,-1,171,120,93,-1,93,120,94,-1,77,78,198,-1,198,78,157,-1,198,157,199,-1,199,157,156,-1,199,156,201,-1,201,156,155,-1,201,155,207,-1,207,155,152,-1,207,152,172,-1,172,152,153,-1,172,153,173,-1,173,153,154,-1,173,154,79,-1,79,154,80,-1,167,135,210,-1,210,135,126,-1,210,126,208,-1,208,126,125,-1,208,125,209,-1,209,125,151,-1,209,151,174,-1,174,151,124,-1,174,124,175,-1,175,124,123,-1,175,123,176,-1,176,123,119,-1,176,119,65,-1,65,119,66,-1,241,52,51,-1,64,63,118,-1,118,63,242,-1,118,242,243,-1,243,242,241,-1,243,241,107,-1,107,241,51,-1,244,160,113,-1,113,115,244,-1,244,115,245,-1,244,245,246,-1,246,245,110,-1,246,110,58,-1,58,110,59,-1,37,39,244,-1,34,46,246,-1,246,46,247,-1,246,247,244,-1,244,247,248,-1,244,248,37,-1,43,160,39,-1,39,160,244,-1,34,246,35,-1,35,246,58,-1,9,52,5,-1,5,52,241,-1,0,242,1,-1,1,242,63,-1,3,5,241,-1,0,12,242,-1,242,12,249,-1,242,249,241,-1,241,249,250,-1,241,250,3,-1,16,25,6,-1,6,25,7,-1,25,31,7,-1,7,31,13,-1,31,19,13,-1,13,19,10,-1,251,40,38,-1,38,252,251,-1,251,252,253,-1,251,253,254,-1,45,44,255,-1,255,44,254,-1,255,254,256,-1,256,254,253,-1,256,253,257,-1,257,253,258,-1,251,259,40,-1,40,259,41,-1,259,260,41,-1,41,260,47,-1,260,254,47,-1,47,254,44,-1,261,260,259,-1,262,263,251,-1,251,263,259,-1,259,263,264,-1,259,264,261,-1,251,254,262,-1,262,254,265,-1,262,265,261,-1,261,265,266,-1,261,266,260,-1,260,266,267,-1,260,267,254,-1,254,267,268,-1,254,268,265,-1,
        ]
    }
}
Shape{
    appearance Appearance {
        material  Material 	{
            diffuseColor 0.7529411764705882 0.7529411764705882 0.7529411764705882
            specularColor 0.3764705882352941 0.3764705882352941 0.3764705882352941
            ambientIntensity 0.7529
            transparency 0.0
            shininess 0.5
        }
    }
    geometry IndexedFaceSet {
        ccw TRUE
        solid FALSE
        coord DEF co Coordinate {
            point [
                2.3819 -0.9843 0.6161, 2.3819 -0.9843 0.5373, 2.4291 -0.9843 0.6161, 2.4213 -0.9843 0.5373, 2.4864 -0.9843 0.6047, 2.5 -0.9843 0.5118, 2.5349 -0.9843 0.5723, 2.4793 -0.9843 0.5118, 2.453 -0.9843 0.5307, 1.1709 -0.9843 0.0787, 1.1709 -0.9843 0.0, 2.4213 -0.9843 0.0787, 2.4291 -0.9843 0.0, 2.4514 -0.9843 0.0847, 2.4864 -0.9843 0.0114, 2.4769 -0.9843 0.1018, 2.5349 -0.9843 0.0438, 2.494 -0.9843 0.1273, 2.5674 -0.9843 0.0924, 2.5 -0.9843 0.1575, 2.5787 -0.9843 0.1496, 2.5787 -0.9843 0.4665, 2.5674 -0.9843 0.5237, 2.4864 0.9843 0.6047, 2.5349 0.9843 0.5723, 2.5 0.9843 0.5118, 2.3819 0.9843 0.5373, 2.3819 0.9843 0.6161, 2.4213 0.9843 0.5373, 2.4291 0.9843 0.6161, 2.453 0.9843 0.5307, 2.4793 0.9843 0.5118, 1.1709 0.9843 0.0, 1.1709 0.9843 0.0787, 2.4291 0.9843 0.0, 2.4213 0.9843 0.0787, 2.4864 0.9843 0.0114, 2.4514 0.9843 0.0847, 2.5349 0.9843 0.0438, 2.4769 0.9843 0.1018, 2.5674 0.9843 0.0924, 2.494 0.9843 0.1273, 2.5787 0.9843 0.1496, 2.5 0.9843 0.1575, 2.5787 0.9843 0.4665, 2.5674 0.9843 0.5237, 1.0528 -0.8661 0.0787, 1.0528 0.8661 0.0787, 1.0528 -0.8661 0.0, 1.0528 0.8661 0.0, 2.4291 -0.1181 0.0, 2.4864 -0.1181 0.0114, 2.5349 -0.1181 0.0438, 2.5674 -0.1181 0.0924, 2.5787 -0.1181 0.1496, 2.5787 -0.1181 0.4665, 2.5674 -0.1181 0.5237, 2.5349 -0.1181 0.5723, 2.4864 -0.1181 0.6047, 2.4291 -0.1181 0.6161, 2.3819 -0.1181 0.6161, 2.4213 -0.1181 0.5373, 2.3819 -0.1181 0.5373, 2.453 -0.1181 0.5307, 2.4793 -0.1181 0.5118, 2.5 -0.1181 0.1575, 2.494 -0.1181 0.1273, 2.4769 -0.1181 0.1018, 2.4514 -0.1181 0.0847, 2.4213 -0.1181 0.0787, -2.4793 0.1181 0.5118, -2.4793 0.9843 0.5118, -2.453 0.1181 0.5307, -2.453 0.9843 0.5307, -2.4213 0.1181 0.5373, -2.4213 0.9843 0.5373, -2.4864 -0.9843 0.6047, -2.5349 -0.9843 0.5723, -2.5 -0.9843 0.5118, -2.3819 -0.9843 0.5373, -2.3819 -0.9843 0.6161, -2.4213 -0.9843 0.5373, -2.4291 -0.9843 0.6161, -2.453 -0.9843 0.5307, -2.4793 -0.9843 0.5118, -1.1709 -0.9843 0.0, -1.1709 -0.9843 0.0787, -2.4291 -0.9843 0.0, -2.4213 -0.9843 0.0787, -2.4864 -0.9843 0.0114, -2.4514 -0.9843 0.0847, -2.5349 -0.9843 0.0438, -2.4769 -0.9843 0.1018, -2.5674 -0.9843 0.0924, -2.494 -0.9843 0.1273, -2.5787 -0.9843 0.1496, -2.5 -0.9843 0.1575, -2.5787 -0.9843 0.4665, -2.5674 -0.9843 0.5237, -2.3819 0.9843 0.6161, -2.3819 0.9843 0.5373, -2.4291 0.9843 0.6161, -2.4864 0.9843 0.6047, -2.5 0.9843 0.5118, -2.5349 0.9843 0.5723, -1.1709 0.9843 0.0787, -1.1709 0.9843 0.0, -2.4213 0.9843 0.0787, -2.4291 0.9843 0.0, -2.4514 0.9843 0.0847, -2.4864 0.9843 0.0114, -2.4769 0.9843 0.1018, -2.5349 0.9843 0.0438, -2.494 0.9843 0.1273, -2.5674 0.9843 0.0924, -2.5 0.9843 0.1575, -2.5787 0.9843 0.1496, -2.5787 0.9843 0.4665, -2.5674 0.9843 0.5237, -2.5787 0.1181 0.1496, -2.5674 0.1181 0.0924, -2.5349 0.1181 0.0438, -2.4864 0.1181 0.0114, -2.4291 0.1181 0.0, -1.6751 -0.1181 0.0, -1.6751 0.1181 0.0, -1.0528 0.8661 0.0, -2.4291 -0.1181 0.0, -1.0528 -0.8661 0.0, -1.0528 0.8661 0.0787, -1.0528 -0.8661 0.0787, -2.4213 0.1181 0.0787, -1.6751 0.1181 0.0787, -1.6751 -0.1181 0.0787, -2.4213 -0.1181 0.0787, -2.4514 0.1181 0.0847, -2.4769 0.1181 0.1018, -2.494 0.1181 0.1273, -2.5 0.1181 0.1575, -2.3819 0.1181 0.5373, -2.3819 0.1181 0.6161, -2.4291 0.1181 0.6161, -2.4864 0.1181 0.6047, -2.5349 0.1181 0.5723, -2.5674 0.1181 0.5237, -2.5787 0.1181 0.4665, -2.5 0.1181 0.5118, -2.5 -0.1181 0.5118, -2.5 -0.1181 0.1575, -2.3819 -0.1181 0.6161, -2.3819 -0.1181 0.5373, -2.4291 -0.1181 0.6161, -2.4213 -0.1181 0.5373, -2.4864 -0.1181 0.6047, -2.5349 -0.1181 0.5723, -2.4793 -0.1181 0.5118, -2.453 -0.1181 0.5307, -2.4514 -0.1181 0.0847, -2.4864 -0.1181 0.0114, -2.4769 -0.1181 0.1018, -2.5349 -0.1181 0.0438, -2.494 -0.1181 0.1273, -2.5674 -0.1181 0.0924, -2.5787 -0.1181 0.1496, -2.5787 -0.1181 0.4665, -2.5674 -0.1181 0.5237, 2.5 0.1181 0.1575, 2.5 0.1181 0.5118, 2.5 -0.1181 0.5118, 1.6751 0.1181 0.0, 1.6751 0.1181 0.0787, 1.6751 -0.1181 0.0, 1.6751 -0.1181 0.0787, 2.3819 0.1181 0.6161, 2.3819 0.1181 0.5373, 2.4291 0.1181 0.6161, 2.4213 0.1181 0.5373, 2.4864 0.1181 0.6047, 2.5349 0.1181 0.5723, 2.4793 0.1181 0.5118, 2.453 0.1181 0.5307, 2.4213 0.1181 0.0787, 2.4291 0.1181 0.0, 2.4514 0.1181 0.0847, 2.4864 0.1181 0.0114, 2.4769 0.1181 0.1018, 2.5349 0.1181 0.0438, 2.494 0.1181 0.1273, 2.5674 0.1181 0.0924, 2.5787 0.1181 0.1496, 2.5787 0.1181 0.4665, 2.5674 0.1181 0.5237
            ]
        }
        coordIndex [
            0,1,2,-1,2,1,3,-1,2,3,4,-1,5,6,7,-1,7,6,4,-1,7,4,8,-1,8,4,3,-1,9,10,11,-1,11,10,12,-1,11,12,13,-1,13,12,14,-1,13,14,15,-1,15,14,16,-1,15,16,17,-1,17,16,18,-1,17,18,19,-1,19,18,20,-1,19,20,5,-1,5,20,21,-1,5,21,6,-1,6,21,22,-1,23,24,25,-1,26,27,28,-1,28,27,29,-1,28,29,30,-1,30,29,23,-1,30,23,31,-1,31,23,25,-1,32,33,34,-1,34,33,35,-1,34,35,36,-1,36,35,37,-1,36,37,38,-1,38,37,39,-1,38,39,40,-1,40,39,41,-1,40,41,42,-1,42,41,43,-1,42,43,44,-1,44,43,25,-1,44,25,45,-1,45,25,24,-1,46,47,48,-1,48,47,49,-1,12,50,51,-1,12,51,14,-1,14,51,52,-1,14,52,16,-1,16,52,53,-1,16,53,18,-1,18,53,54,-1,18,54,20,-1,55,21,54,-1,54,21,20,-1,21,55,56,-1,21,56,22,-1,22,56,57,-1,22,57,6,-1,6,57,58,-1,6,58,4,-1,4,58,59,-1,4,59,2,-1,60,0,59,-1,59,0,2,-1,61,3,62,-1,62,3,1,-1,3,61,8,-1,8,61,63,-1,8,63,7,-1,7,63,64,-1,19,65,17,-1,17,65,66,-1,17,66,15,-1,15,66,67,-1,15,67,13,-1,13,67,68,-1,13,68,11,-1,11,68,69,-1,70,71,72,-1,72,71,73,-1,72,73,74,-1,74,73,75,-1,76,77,78,-1,79,80,81,-1,81,80,82,-1,81,82,83,-1,83,82,76,-1,83,76,84,-1,84,76,78,-1,85,86,87,-1,87,86,88,-1,87,88,89,-1,89,88,90,-1,89,90,91,-1,91,90,92,-1,91,92,93,-1,93,92,94,-1,93,94,95,-1,95,94,96,-1,95,96,97,-1,97,96,78,-1,97,78,98,-1,98,78,77,-1,99,100,101,-1,101,100,75,-1,101,75,102,-1,103,104,71,-1,71,104,102,-1,71,102,73,-1,73,102,75,-1,105,106,107,-1,107,106,108,-1,107,108,109,-1,109,108,110,-1,109,110,111,-1,111,110,112,-1,111,112,113,-1,113,112,114,-1,113,114,115,-1,115,114,116,-1,115,116,103,-1,103,116,117,-1,103,117,104,-1,104,117,118,-1,119,116,114,-1,119,114,120,-1,120,114,112,-1,120,112,121,-1,121,112,110,-1,121,110,122,-1,122,110,108,-1,122,108,123,-1,124,125,126,-1,123,108,125,-1,125,108,106,-1,125,106,126,-1,87,127,85,-1,85,127,124,-1,85,124,128,-1,128,124,126,-1,129,130,126,-1,126,130,128,-1,107,131,105,-1,105,131,132,-1,133,134,88,-1,88,86,133,-1,133,86,130,-1,133,130,132,-1,132,130,129,-1,132,129,105,-1,131,107,135,-1,135,107,109,-1,135,109,136,-1,136,109,111,-1,136,111,137,-1,137,111,113,-1,137,113,138,-1,138,113,115,-1,74,75,139,-1,139,75,100,-1,140,99,141,-1,141,99,101,-1,141,101,102,-1,141,102,142,-1,142,102,104,-1,142,104,143,-1,143,104,118,-1,143,118,144,-1,144,118,117,-1,144,117,145,-1,145,117,119,-1,119,117,116,-1,105,129,106,-1,106,129,126,-1,130,86,128,-1,128,86,85,-1,48,10,46,-1,46,10,9,-1,32,49,33,-1,33,49,47,-1,132,125,133,-1,133,125,124,-1,146,138,147,-1,147,138,148,-1,142,143,146,-1,139,140,74,-1,74,140,141,-1,74,141,72,-1,72,141,142,-1,72,142,70,-1,70,142,146,-1,125,132,123,-1,123,132,131,-1,123,131,122,-1,122,131,135,-1,122,135,121,-1,121,135,136,-1,121,136,120,-1,120,136,137,-1,120,137,119,-1,119,137,138,-1,119,138,145,-1,145,138,146,-1,145,146,144,-1,144,146,143,-1,149,150,151,-1,151,150,152,-1,151,152,153,-1,147,154,155,-1,155,154,153,-1,155,153,156,-1,156,153,152,-1,133,124,134,-1,134,124,127,-1,134,127,157,-1,157,127,158,-1,157,158,159,-1,159,158,160,-1,159,160,161,-1,161,160,162,-1,161,162,148,-1,148,162,163,-1,148,163,147,-1,147,163,164,-1,147,164,154,-1,154,164,165,-1,166,167,65,-1,65,167,168,-1,169,170,171,-1,171,170,172,-1,173,174,175,-1,175,174,176,-1,175,176,177,-1,167,178,179,-1,179,178,177,-1,179,177,180,-1,180,177,176,-1,170,169,181,-1,181,169,182,-1,181,182,183,-1,183,182,184,-1,183,184,185,-1,185,184,186,-1,185,186,187,-1,187,186,188,-1,187,188,166,-1,166,188,189,-1,166,189,167,-1,167,189,190,-1,167,190,178,-1,178,190,191,-1,58,57,168,-1,62,60,61,-1,61,60,59,-1,61,59,63,-1,63,59,58,-1,63,58,64,-1,64,58,168,-1,171,172,50,-1,50,172,69,-1,50,69,51,-1,51,69,68,-1,51,68,52,-1,52,68,67,-1,52,67,53,-1,53,67,66,-1,53,66,54,-1,54,66,65,-1,54,65,55,-1,55,65,168,-1,55,168,56,-1,56,168,57,-1,
        ]
    }
}
Shape{
    appearance Appearance {
        material  Material 	{
            diffuseColor 0.19607843137254902 0.19607843137254902 0.19607843137254902
            specularColor 0.09803921568627451 0.09803921568627451 0.09803921568627451
            ambientIntensity 0.1961
            transparency 0.0
            shininess 0.5
        }
    }
    geometry IndexedFaceSet {
        ccw TRUE
        solid FALSE
        coord DEF co Coordinate {
            point [
                2.1063 -2.5 3.3465, 2.1063 -2.5 0.0394, 2.3031 -2.4473 0.0394, 2.3031 -2.4473 3.3465, 2.4473 -2.3031 0.0394, 2.4473 -2.3031 3.3465, 2.5 -2.1063 0.0394, 2.5 -2.1063 3.3465, 2.5 2.1063 3.3465, 2.5 2.1063 0.0394, 2.4473 2.3031 0.0394, 2.4473 2.3031 3.3465, 2.3031 2.4473 0.0394, 2.3031 2.4473 3.3465, 2.1063 2.5 0.0394, 2.1063 2.5 3.3465, -2.1063 2.5 3.3465, -2.1063 2.5 0.0394, -2.3031 2.4473 0.0394, -2.3031 2.4473 3.3465, -2.4473 2.3031 0.0394, -2.4473 2.3031 3.3465, -2.5 2.1063 0.0394, -2.5 2.1063 3.3465, -2.5 -2.1063 3.3465, -2.5 -2.1063 0.0394, -2.4473 -2.3031 0.0394, -2.4473 -2.3031 3.3465, -2.3031 -2.4473 0.0394, -2.3031 -2.4473 3.3465, -2.1063 -2.5 0.0394, -2.1063 -2.5 3.3465
            ]
        }
        coordIndex [
            0,1,2,-1,0,2,3,-1,3,2,4,-1,3,4,5,-1,5,4,6,-1,5,6,7,-1,8,9,10,-1,8,10,11,-1,11,10,12,-1,11,12,13,-1,13,12,14,-1,13,14,15,-1,16,17,18,-1,16,18,19,-1,19,18,20,-1,19,20,21,-1,21,20,22,-1,21,22,23,-1,24,25,26,-1,24,26,27,-1,27,26,28,-1,27,28,29,-1,29,28,30,-1,29,30,31,-1,
        ]
    }
}
Shape{
    appearance Appearance {
        material  Material 	{
            diffuseColor 0.7529411764705882 0.7529411764705882 0.7529411764705882
            specularColor 0.3764705882352941 0.3764705882352941 0.3764705882352941
            ambientIntensity 0.7529
            transparency 0.0
            shininess 0.5
        }
    }
    geometry IndexedFaceSet {
        ccw TRUE
        solid FALSE
        coord DEF co Coordinate {
            point [
                -0.349 0.1455 0.2022, -0.3515 0.1455 0.2022, -0.349 0.1455 0.1628, -0.3515 0.1455 0.1628, -0.4424 -0.0513 0.2022, -0.4424 -0.0513 0.1628, -0.4232 -0.0513 0.2022, -0.4232 -0.0513 0.1628, -0.3941 0.0118 0.2022, -0.3941 0.0118 0.1628, -0.3048 0.0118 0.2022, -0.3048 0.0118 0.1628, -0.2749 -0.0513 0.2022, -0.2749 -0.0513 0.1628, -0.2556 -0.0513 0.2022, -0.2556 -0.0513 0.1628, -0.3848 0.0319 0.2022, -0.3144 0.0319 0.2022, -0.3501 0.1071 0.2022, -0.3848 0.0319 0.1628, -0.3501 0.1071 0.1628, -0.3144 0.0319 0.1628, -0.1299 -0.0513 0.2022, -0.0689 -0.0513 0.2022, -0.1299 -0.0513 0.1628, -0.0689 -0.0513 0.1628, -0.0689 0.1455 0.2022, -0.0689 0.1455 0.1628, -0.1086 0.1455 0.2022, -0.1086 0.1455 0.1628, -0.1711 0.1384 0.2022, -0.1711 0.1384 0.1628, -0.1401 0.1443 0.1628, -0.1401 0.1443 0.2022, -0.2304 0.0446 0.2022, -0.2304 0.0446 0.1628, -0.2267 0.0756 0.1628, -0.2267 0.0756 0.2022, -0.2065 0.1145 0.1628, -0.2065 0.1145 0.2022, -0.1511 -0.0502 0.1628, -0.1511 -0.0502 0.2022, -0.1908 -0.0376 0.1628, -0.1908 -0.0376 0.2022, -0.2193 -0.0049 0.1628, -0.2193 -0.0049 0.2022, -0.2096 0.0201 0.2022, -0.1935 -0.0087 0.2022, -0.1654 -0.0261 0.2022, -0.1374 -0.0304 0.2022, -0.1091 -0.0311 0.2022, -0.0865 -0.0311 0.2022, -0.0865 0.1253 0.2022, -0.1004 0.1253 0.2022, -0.1308 0.1244 0.2022, -0.1609 0.1198 0.2022, -0.1826 0.1093 0.2022, -0.2041 0.084 0.2022, -0.2127 0.0446 0.2022, -0.0865 0.1253 0.1628, -0.0865 -0.0311 0.1628, -0.1004 0.1253 0.1628, -0.1308 0.1244 0.1628, -0.1609 0.1198 0.1628, -0.1826 0.1093 0.1628, -0.2041 0.084 0.1628, -0.2127 0.0446 0.1628, -0.2096 0.0201 0.1628, -0.1935 -0.0087 0.1628, -0.1654 -0.0261 0.1628, -0.1374 -0.0304 0.1628, -0.1091 -0.0311 0.1628, 0.0775 -0.0513 0.2022, 0.0775 0.1455 0.2022, 0.0775 -0.0513 0.1628, 0.0775 0.1455 0.1628, -0.0335 0.1455 0.2022, -0.0335 0.1455 0.1628, -0.0335 0.1253 0.2022, -0.0335 0.1253 0.1628, 0.0599 0.1253 0.2022, 0.0599 0.1253 0.1628, 0.0599 0.0648 0.2022, 0.0599 0.0648 0.1628, -0.0335 0.0648 0.2022, -0.0335 0.0648 0.1628, -0.0335 0.0446 0.2022, -0.0335 0.0446 0.1628, 0.0599 0.0446 0.2022, 0.0599 0.0446 0.1628, 0.0599 -0.0311 0.2022, 0.0599 -0.0311 0.1628, -0.0335 -0.0311 0.2022, -0.0335 -0.0311 0.1628, -0.0335 -0.0513 0.2022, -0.0335 -0.0513 0.1628, 0.1179 0.1094 0.2022, 0.1179 0.1094 0.1628, 0.1241 0.1171 0.1628, 0.1241 0.1171 0.2022, 0.1356 0.128 0.1628, 0.1356 0.128 0.2022, 0.1557 0.1404 0.1628, 0.1557 0.1404 0.2022, 0.2038 0.1506 0.1628, 0.2038 0.1506 0.2022, 0.1334 0.0976 0.2022, 0.1334 0.0976 0.1628, 0.2049 0.1304 0.2022, 0.2049 0.1304 0.1628, 0.1967 0.1301 0.1628, 0.1967 0.1301 0.2022, 0.1838 0.1283 0.1628, 0.1838 0.1283 0.2022, 0.1653 0.1223 0.1628, 0.1653 0.1223 0.2022, 0.292 0.0469 0.2022, 0.292 0.0469 0.1628, 0.2917 0.0548 0.1628, 0.2917 0.0548 0.2022, 0.279 0.0921 0.1628, 0.279 0.0921 0.2022, 0.2485 0.1196 0.1628, 0.2485 0.1196 0.2022, 0.2037 -0.0362 0.2022, 0.2037 -0.0362 0.1628, 0.2161 -0.0355 0.1628, 0.2161 -0.0355 0.2022, 0.2547 -0.0221 0.1628, 0.2547 -0.0221 0.2022, 0.2818 0.0063 0.1628, 0.2818 0.0063 0.2022, 0.1334 -0.0034 0.2022, 0.1334 -0.0034 0.1628, 0.1648 -0.0279 0.1628, 0.1648 -0.0279 0.2022, 0.1179 -0.0151 0.2022, 0.1179 -0.0151 0.1628, 0.2035 -0.0564 0.2022, 0.2035 -0.0564 0.1628, 0.1937 -0.056 0.1628, 0.1937 -0.056 0.2022, 0.1787 -0.0539 0.1628, 0.178 -0.0538 0.2022, 0.178 -0.0538 0.1628, 0.1557 -0.0462 0.1628, 0.1557 -0.0462 0.2022, 0.2176 -0.0539 0.1628, 0.2481 -0.0484 0.2022, 0.2481 -0.0484 0.1628, 0.2673 -0.0379 0.2022, 0.2673 -0.0379 0.1628, 0.2785 -0.0286 0.2022, 0.2785 -0.0286 0.1628, 0.2847 -0.022 0.2022, 0.2847 -0.022 0.1628, 0.3097 0.0482 0.2022, 0.3097 0.0482 0.1628, 0.3037 0.0108 0.1628, 0.3037 0.0108 0.2022, 0.2125 0.1503 0.1628, 0.2125 0.1503 0.2022, 0.2634 0.134 0.1628, 0.2634 0.134 0.2022, 0.297 0.0985 0.1628, 0.297 0.0985 0.2022, 0.4258 -0.0513 0.2022, 0.4258 0.1455 0.2022, 0.4258 -0.0513 0.1628, 0.4258 0.1455 0.1628, 0.4081 0.1455 0.2022, 0.4081 0.1455 0.1628, 0.4081 -0.0311 0.2022, 0.4081 -0.0311 0.1628, 0.3324 -0.0311 0.2022, 0.3324 -0.0311 0.1628, 0.3324 -0.0513 0.2022, 0.3324 -0.0513 0.1628
            ]
        }
        coordIndex [
            0,1,2,-1,2,1,3,-1,1,4,3,-1,3,4,5,-1,4,6,5,-1,5,6,7,-1,6,8,7,-1,7,8,9,-1,8,10,9,-1,9,10,11,-1,10,12,11,-1,11,12,13,-1,12,14,13,-1,13,14,15,-1,14,0,15,-1,15,0,2,-1,16,4,1,-1,0,17,1,-1,1,17,18,-1,1,18,16,-1,14,12,10,-1,6,4,8,-1,8,4,16,-1,8,16,10,-1,10,16,17,-1,10,17,14,-1,14,17,0,-1,16,18,19,-1,19,18,20,-1,17,16,21,-1,21,16,19,-1,18,17,20,-1,20,17,21,-1,22,23,24,-1,24,23,25,-1,23,26,25,-1,25,26,27,-1,26,28,27,-1,27,28,29,-1,30,31,32,-1,30,32,33,-1,33,32,29,-1,33,29,28,-1,34,35,36,-1,34,36,37,-1,37,36,38,-1,37,38,39,-1,39,38,31,-1,39,31,30,-1,22,24,40,-1,22,40,41,-1,41,40,42,-1,41,42,43,-1,43,42,44,-1,43,44,45,-1,45,44,35,-1,45,35,34,-1,46,47,43,-1,43,47,48,-1,43,48,41,-1,41,48,49,-1,41,49,22,-1,22,49,50,-1,22,50,23,-1,23,50,51,-1,23,51,26,-1,26,51,52,-1,26,52,28,-1,28,52,53,-1,28,53,33,-1,33,53,54,-1,33,54,30,-1,30,54,55,-1,30,55,39,-1,39,55,56,-1,39,56,37,-1,37,56,57,-1,37,57,34,-1,34,57,58,-1,34,58,45,-1,45,58,46,-1,45,46,43,-1,52,51,59,-1,59,51,60,-1,53,52,61,-1,61,52,59,-1,53,61,62,-1,53,62,54,-1,54,62,63,-1,54,63,55,-1,55,63,64,-1,55,64,56,-1,56,64,65,-1,56,65,57,-1,57,65,66,-1,57,66,58,-1,58,66,67,-1,58,67,46,-1,46,67,68,-1,46,68,47,-1,47,68,69,-1,47,69,48,-1,48,69,70,-1,48,70,49,-1,49,70,71,-1,49,71,50,-1,51,50,60,-1,60,50,71,-1,72,73,74,-1,74,73,75,-1,73,76,75,-1,75,76,77,-1,76,78,77,-1,77,78,79,-1,78,80,79,-1,79,80,81,-1,80,82,81,-1,81,82,83,-1,82,84,83,-1,83,84,85,-1,84,86,85,-1,85,86,87,-1,86,88,87,-1,87,88,89,-1,88,90,89,-1,89,90,91,-1,90,92,91,-1,91,92,93,-1,92,94,93,-1,93,94,95,-1,94,72,95,-1,95,72,74,-1,72,94,92,-1,92,90,72,-1,72,90,88,-1,72,88,73,-1,78,76,80,-1,80,76,73,-1,80,73,82,-1,82,73,88,-1,82,88,84,-1,84,88,86,-1,96,97,98,-1,96,98,99,-1,99,98,100,-1,99,100,101,-1,101,100,102,-1,101,102,103,-1,103,102,104,-1,103,104,105,-1,96,106,97,-1,97,106,107,-1,108,109,110,-1,108,110,111,-1,111,110,112,-1,111,112,113,-1,113,112,114,-1,113,114,115,-1,115,114,107,-1,115,107,106,-1,116,117,118,-1,116,118,119,-1,119,118,120,-1,119,120,121,-1,121,120,122,-1,121,122,123,-1,123,122,109,-1,123,109,108,-1,124,125,126,-1,124,126,127,-1,127,126,128,-1,127,128,129,-1,129,128,130,-1,129,130,131,-1,131,130,117,-1,131,117,116,-1,132,133,134,-1,132,134,135,-1,135,134,125,-1,135,125,124,-1,132,136,133,-1,133,136,137,-1,138,139,140,-1,138,140,141,-1,141,140,142,-1,141,142,143,-1,142,144,143,-1,143,144,145,-1,143,145,146,-1,146,145,137,-1,146,137,136,-1,139,138,147,-1,147,138,148,-1,147,148,149,-1,149,148,150,-1,149,150,151,-1,151,150,152,-1,151,152,153,-1,153,152,154,-1,153,154,155,-1,156,157,158,-1,156,158,159,-1,159,158,155,-1,159,155,154,-1,105,104,160,-1,105,160,161,-1,161,160,162,-1,161,162,163,-1,163,162,164,-1,163,164,165,-1,165,164,157,-1,165,157,156,-1,136,132,146,-1,146,132,135,-1,156,159,131,-1,131,159,129,-1,129,159,154,-1,129,154,152,-1,106,96,99,-1,106,99,115,-1,115,99,101,-1,115,101,103,-1,152,150,129,-1,129,150,148,-1,129,148,127,-1,127,148,138,-1,127,138,124,-1,124,138,141,-1,124,141,135,-1,135,141,143,-1,135,143,146,-1,131,116,156,-1,156,116,119,-1,156,119,165,-1,165,119,121,-1,165,121,163,-1,163,121,123,-1,163,123,161,-1,161,123,108,-1,161,108,105,-1,105,108,111,-1,105,111,103,-1,103,111,113,-1,103,113,115,-1,166,167,168,-1,168,167,169,-1,167,170,169,-1,169,170,171,-1,170,172,171,-1,171,172,173,-1,172,174,173,-1,173,174,175,-1,174,176,175,-1,175,176,177,-1,176,166,177,-1,177,166,168,-1,170,167,172,-1,172,167,166,-1,172,166,174,-1,174,166,176,-1,
        ]
    }
}
Shape{
    appearance Appearance {
        material  Material 	{
            diffuseColor 0.19607843137254902 0.19607843137254902 0.19607843137254902
            specularColor 0.09803921568627451 0.09803921568627451 0.09803921568627451
            ambientIntensity 0.1961
            transparency 0.0
            shininess 0.5
        }
    }
    geometry IndexedFaceSet {
        ccw TRUE
        solid FALSE
        coord DEF co Coordinate {
            point [
                -0.3501 0.1071 0.1628, -0.3144 0.0319 0.1628, -0.3848 0.0319 0.1628, -0.0865 0.1253 0.1628, -0.0865 -0.0311 0.1628, -0.1004 0.1253 0.1628, -0.1091 -0.0311 0.1628, -0.1308 0.1244 0.1628, -0.1374 -0.0304 0.1628, -0.1609 0.1198 0.1628, -0.1654 -0.0261 0.1628, -0.1935 -0.0087 0.1628, -0.2096 0.0201 0.1628, -0.2127 0.0446 0.1628, -0.2041 0.084 0.1628, -0.1826 0.1093 0.1628
            ]
        }
        coordIndex [
            0,1,2,-1,3,4,5,-1,5,4,6,-1,5,6,7,-1,7,6,8,-1,7,8,9,-1,10,11,8,-1,8,11,12,-1,8,12,13,-1,13,14,8,-1,8,14,15,-1,8,15,9,-1,
        ]
    }
}