M48
; DRILL file {KiCad 9.0.7} date 2026-03-16T21:06:40-0700
; FORMAT={-:-/ absolute / metric / decimal}
; #@! TF.CreationDate,2026-03-16T21:06:40-07:00
; #@! TF.GenerationSoftware,Kicad,Pcbnew,9.0.7
; #@! TF.FileFunction,Plated,1,2,PTH
FMAT,2
METRIC
; #@! TA.AperFunction,Plated,PTH,ViaDrill
T1C0.300
; #@! TA.AperFunction,Plated,PTH,ComponentDrill
T2C0.700
; #@! TA.AperFunction,Plated,PTH,ComponentDrill
T3C0.750
; #@! TA.AperFunction,Plated,PTH,ComponentDrill
T4C0.762
; #@! TA.AperFunction,Plated,PTH,ComponentDrill
T5C0.800
; #@! TA.AperFunction,Plated,PTH,ComponentDrill
T6C0.900
; #@! TA.AperFunction,Plated,PTH,ComponentDrill
T7C0.914
; #@! TA.AperFunction,Plated,PTH,ComponentDrill
T8C1.000
; #@! TA.AperFunction,Plated,PTH,ComponentDrill
T9C1.000
; #@! TA.AperFunction,Plated,PTH,ComponentDrill
T10C1.100
; #@! TA.AperFunction,Plated,PTH,ComponentDrill
T11C1.200
%
G90
G05
T1
X31.489Y-94.9
X33.239Y-100.9
X34.489Y-93.15
X35.799Y-28.221
X36.479Y-26.021
X37.489Y-99.4
X37.739Y-95.15
X38.089Y-30.371
X38.399Y-32.651
X39.089Y-33.201
X39.189Y-27.381
X39.339Y-29.121
X41.539Y-38.081
X48.419Y-92.68
X49.81Y-68.35
X50.763Y-72.05
X50.912Y-82.55
X51.127Y-27.201
X51.513Y-73.84
X51.513Y-83.55
X52.363Y-72.57
X53.807Y-33.041
X54.647Y-26.951
X54.919Y-96.83
X55.763Y-72.45
X56.347Y-36.821
X56.669Y-96.58
X58.316Y-78.127
X58.468Y-83.005
X60.263Y-74.55
X60.924Y-38.311
X63.864Y-31.611
X65.474Y-27.241
X66.674Y-26.671
X67.229Y-60.285
X68.024Y-32.151
X68.729Y-56.785
X68.925Y-52.339
X69.069Y-97.655
X69.709Y-27.431
X69.88Y-95.375
X70.204Y-37.591
X70.48Y-96.905
X71.03Y-95.165
X73.06Y-94.155
X73.479Y-55.235
X73.479Y-56.035
X74.029Y-53.835
X74.64Y-95.025
X75.328Y-53.459
X75.979Y-54.285
X77.91Y-75.7
X78.16Y-77.45
X78.627Y-52.783
X78.91Y-76.15
X78.979Y-59.285
X79.479Y-56.035
X79.729Y-54.285
X79.91Y-80.95
X80.16Y-68.45
X80.497Y-92.581
X80.66Y-75.7
X81.16Y-77.7
X81.779Y-73.7
X82.16Y-71.45
X82.328Y-106.72
X82.41Y-66.7
X82.418Y-95.66
X83.058Y-98.31
X83.098Y-100.281
X83.91Y-75.2
X83.91Y-76.7
X83.918Y-98.29
X83.948Y-100.01
X84.16Y-69.45
X84.173Y-90.157
X84.579Y-73.425
X84.66Y-71.45
X84.728Y-108.102
X84.979Y-55.285
X85.44Y-78.466
X85.66Y-67.95
X85.66Y-74.71
X85.91Y-73.51
X85.91Y-75.95
X86.16Y-76.85
X86.229Y-72.131
X86.668Y-105.781
X86.91Y-83.45
X87.41Y-70.95
X87.84Y-100.81
X87.91Y-66.45
X89.51Y-69.675
X89.51Y-70.95
X90.16Y-81.7
X91.41Y-77.2
X91.66Y-66.45
X91.779Y-77.91
X92.66Y-75.2
X92.91Y-71.45
X93.91Y-81.7
X94.061Y-79.052
X94.409Y-33.891
X94.91Y-68.2
X95.66Y-75.45
X95.911Y-71.449
X97.81Y-101.35
X98.335Y-30.641
X98.387Y-74.894
X98.969Y-76.009
X99.921Y-53.846
X99.994Y-102.2
X100.56Y-101.6
X101.56Y-94.1
X102.06Y-98.1
X102.836Y-53.839
X103.628Y-99.676
X104.359Y-47.571
X104.469Y-102.009
X105.109Y-59.321
X105.55Y-58.571
X106.06Y-97.85
X106.15Y-55.032
T2
X30.719Y-93.15
X31.989Y-93.15
X32.816Y-23.733
X33.259Y-93.15
X34.086Y-23.733
X35.356Y-23.733
X46.149Y-91.33
X47.347Y-23.751
X47.419Y-91.33
X48.617Y-23.751
X48.689Y-91.33
X49.887Y-23.751
X61.194Y-23.831
X62.464Y-23.831
X63.734Y-23.831
X77.91Y-80.95
X77.91Y-82.22
X77.91Y-83.49
X81.344Y-27.081
X81.344Y-28.351
X81.344Y-29.621
X89.139Y-25.641
X90.409Y-25.641
X91.679Y-25.641
X98.109Y-49.551
X98.109Y-50.821
X98.109Y-52.091
T3
X34.005Y-75.548
X34.005Y-81.348
T4
X87.61Y-98.745
X90.15Y-98.745
X92.69Y-98.745
T6
X33.895Y-68.698
X33.895Y-70.698
T7
X66.69Y-76.415
X66.69Y-78.955
X68.051Y-103.237
X68.051Y-105.777
X69.23Y-76.415
X69.23Y-78.955
X70.591Y-103.237
X70.591Y-105.777
T8
X75.594Y-38.601
X80.594Y-36.101
X80.594Y-41.101
T9
X61.621Y-46.393
X61.621Y-48.933
X61.621Y-52.658
X61.621Y-55.198
X61.621Y-57.738
X61.621Y-60.278
T10
X31.172Y-57.07
X31.172Y-59.61
X33.712Y-57.07
X33.712Y-59.61
X36.252Y-57.07
X36.252Y-59.61
X38.792Y-57.07
X38.792Y-59.61
X40.295Y-70.368
X40.295Y-72.908
X40.295Y-75.448
X40.295Y-77.988
X40.295Y-80.528
X41.332Y-57.07
X41.332Y-59.61
X43.872Y-57.07
X43.872Y-59.61
X46.412Y-57.07
X46.412Y-59.61
X48.952Y-57.07
X48.952Y-59.61
X51.492Y-57.07
X51.492Y-59.61
X54.032Y-57.07
X54.032Y-59.61
X63.011Y-110.277
X65.551Y-110.277
X68.091Y-110.277
X70.631Y-110.277
X73.171Y-110.277
X78.818Y-109.76
X81.358Y-109.76
X83.898Y-109.76
X86.438Y-109.76
X88.978Y-109.76
X91.518Y-109.76
X98.06Y-88.83
X98.06Y-91.37
X100.79Y-88.85
X100.79Y-91.6
X103.33Y-88.85
X103.33Y-91.6
X106.06Y-88.83
X106.06Y-91.37
T11
X49.013Y-70.7
X49.013Y-73.24
X49.013Y-75.78
X49.013Y-78.32
X49.013Y-80.86
X49.013Y-83.4
X78.668Y-89.06
X78.668Y-91.6
X78.668Y-94.14
X78.668Y-96.68
X78.668Y-99.22
X78.668Y-101.76
X89.979Y-48.955
X89.979Y-51.495
X89.979Y-54.035
X89.979Y-56.575
X89.979Y-59.115
X89.979Y-61.655
T2
G00X97.74Y-105.42
M15
G01X97.74Y-106.22
M16
G05
G00X97.74Y-109.23
M15
G01X97.74Y-110.03
M16
G05
G00X106.38Y-105.42
M15
G01X106.38Y-106.22
M16
G05
G00X106.38Y-109.23
M15
G01X106.38Y-110.03
M16
G05
T5
G00X30.625Y-74.118
M15
G01X30.025Y-74.118
M16
G05
G00X30.625Y-82.778
M15
G01X30.025Y-82.778
M16
G05
G00X34.905Y-74.118
M15
G01X34.105Y-74.118
M16
G05
G00X34.905Y-82.778
M15
G01X34.105Y-82.778
M16
G05
M30
