M48
; DRILL file {KiCad 9.0.7} date 2026-03-16T18:44:06-0700
; FORMAT={-:-/ absolute / metric / decimal}
; #@! TF.CreationDate,2026-03-16T18:44:06-07:00
; #@! TF.GenerationSoftware,Kicad,Pcbnew,9.0.7
; #@! TF.FileFunction,NonPlated,1,2,NPTH
FMAT,2
METRIC
; #@! TA.AperFunction,NonPlated,NPTH,ComponentDrill
T1C0.500
%
G90
G05
T1
X28.558Y-85.9
X29.164Y-64.09
X29.737Y-43.48
X30.258Y-85.9
X30.864Y-64.09
X31.437Y-43.48
X31.958Y-85.9
X32.564Y-64.09
X33.137Y-43.48
X33.577Y-85.9
X34.183Y-64.09
X34.757Y-43.48
X35.277Y-85.9
X35.883Y-64.09
X36.457Y-43.48
X36.977Y-85.9
X37.583Y-64.09
X38.157Y-43.48
X38.597Y-85.9
X39.203Y-64.09
X39.776Y-43.48
X40.297Y-85.9
X40.903Y-64.09
X41.476Y-43.48
X41.997Y-85.9
X42.603Y-64.09
X42.96Y-87.492
X42.96Y-89.192
X42.96Y-90.892
X42.96Y-92.511
X42.96Y-94.211
X42.96Y-95.911
X42.96Y-97.531
X42.96Y-99.231
X42.96Y-100.931
X42.96Y-102.55
X42.96Y-104.25
X42.96Y-105.95
X42.96Y-107.24
X42.96Y-108.94
X42.96Y-110.64
X43.176Y-43.48
X43.616Y-85.9
X44.02Y-22.322
X44.02Y-24.022
X44.02Y-25.722
X44.02Y-27.341
X44.02Y-29.041
X44.02Y-30.741
X44.02Y-32.361
X44.02Y-34.061
X44.02Y-35.761
X44.02Y-37.38
X44.02Y-39.08
X44.02Y-40.78
X44.222Y-64.09
X44.61Y-65.622
X44.61Y-67.322
X44.61Y-69.022
X44.61Y-70.641
X44.61Y-72.341
X44.61Y-74.041
X44.61Y-75.661
X44.61Y-77.361
X44.61Y-79.061
X44.61Y-80.68
X44.61Y-82.38
X44.61Y-84.08
X44.795Y-43.48
X45.316Y-85.9
X45.922Y-64.09
X46.495Y-43.48
X47.016Y-85.9
X47.622Y-64.09
X48.195Y-43.48
X48.635Y-85.9
X49.241Y-64.09
X49.815Y-43.48
X50.335Y-85.9
X50.941Y-64.09
X51.515Y-43.48
X52.035Y-85.9
X52.641Y-64.09
X53.215Y-43.48
X53.655Y-85.9
X54.261Y-64.09
X54.834Y-43.48
X55.355Y-85.9
X55.961Y-64.09
X56.534Y-43.48
X57.055Y-85.9
X57.661Y-64.09
X58.234Y-43.48
X58.45Y-45.532
X58.45Y-47.232
X58.45Y-48.932
X58.45Y-50.551
X58.45Y-52.251
X58.45Y-53.951
X58.45Y-55.571
X58.45Y-57.271
X58.45Y-58.971
X58.45Y-60.59
X58.45Y-62.29
X58.45Y-63.99
X58.56Y-21.613
X58.56Y-23.313
X58.56Y-25.013
X58.56Y-26.632
X58.56Y-28.332
X58.56Y-30.032
X58.56Y-31.652
X58.56Y-33.352
X58.56Y-35.052
X58.56Y-36.671
X58.56Y-38.371
X58.56Y-40.071
X58.674Y-85.9
X59.28Y-64.09
X59.853Y-43.48
X60.22Y-87.821
X60.22Y-89.521
X60.22Y-91.221
X60.22Y-92.841
X60.22Y-94.541
X60.22Y-96.241
X60.22Y-97.86
X60.22Y-99.56
X60.22Y-101.26
X60.22Y-102.879
X60.22Y-104.579
X60.22Y-106.279
X60.22Y-107.569
X60.22Y-109.269
X60.22Y-110.969
X60.374Y-85.9
X60.98Y-64.09
X61.553Y-43.48
X62.074Y-85.9
X62.68Y-64.09
X63.253Y-43.48
X63.693Y-85.9
X64.2Y-66.112
X64.2Y-67.812
X64.2Y-69.512
X64.2Y-71.131
X64.2Y-72.831
X64.2Y-74.531
X64.2Y-76.151
X64.2Y-77.851
X64.2Y-79.551
X64.2Y-81.17
X64.2Y-82.87
X64.2Y-84.57
X64.299Y-64.09
X64.873Y-43.48
X65.393Y-85.9
X65.999Y-64.09
X66.573Y-43.48
X67.093Y-85.9
X67.699Y-64.09
X68.273Y-43.48
X68.713Y-85.9
X69.319Y-64.09
X69.892Y-43.48
X70.413Y-85.9
X71.019Y-64.09
X71.592Y-43.48
X71.87Y-65.992
X71.87Y-67.692
X71.87Y-69.392
X71.87Y-71.011
X71.87Y-72.711
X71.87Y-74.411
X71.87Y-76.031
X71.87Y-77.731
X71.87Y-79.431
X71.87Y-81.05
X71.87Y-82.75
X71.87Y-84.45
X72.113Y-85.9
X72.54Y-22.612
X72.54Y-24.312
X72.54Y-26.012
X72.54Y-27.631
X72.54Y-29.331
X72.54Y-31.031
X72.54Y-32.651
X72.54Y-34.351
X72.54Y-36.051
X72.54Y-37.67
X72.54Y-39.37
X72.54Y-41.07
X72.719Y-64.09
X73.292Y-43.48
X73.732Y-85.9
X74.338Y-64.09
X74.911Y-43.48
X75.432Y-85.9
X76.038Y-64.09
X76.3Y-88.011
X76.3Y-89.711
X76.3Y-91.411
X76.3Y-93.031
X76.3Y-94.731
X76.3Y-96.431
X76.3Y-98.05
X76.3Y-99.75
X76.3Y-101.45
X76.3Y-103.069
X76.3Y-104.769
X76.3Y-106.469
X76.3Y-107.759
X76.3Y-109.459
X76.3Y-111.159
X76.611Y-43.48
X77.132Y-85.9
X77.738Y-64.09
X78.311Y-43.48
X78.751Y-85.9
X79.357Y-64.09
X79.931Y-43.48
X80.451Y-85.9
X81.057Y-64.09
X81.631Y-43.48
X82.151Y-85.9
X82.757Y-64.09
X83.331Y-43.48
X83.771Y-85.9
X84.377Y-64.09
X84.95Y-43.48
X85.471Y-85.9
X85.93Y-22.032
X85.93Y-23.732
X85.93Y-25.432
X85.93Y-27.051
X85.93Y-28.751
X85.93Y-30.451
X85.93Y-32.071
X85.93Y-33.771
X85.93Y-35.471
X85.93Y-37.09
X85.93Y-38.79
X85.93Y-40.49
X86.077Y-64.09
X86.65Y-43.48
X87.171Y-85.9
X87.777Y-64.09
X88.35Y-43.48
X88.79Y-85.9
X89.396Y-64.09
X89.969Y-43.48
X90.49Y-85.9
X91.096Y-64.09
X91.669Y-43.48
X92.19Y-85.9
X92.796Y-64.09
X93.369Y-43.48
X93.809Y-85.9
X94.08Y-44.542
X94.08Y-46.242
X94.08Y-47.942
X94.08Y-49.561
X94.08Y-51.261
X94.08Y-52.961
X94.08Y-54.581
X94.08Y-56.281
X94.08Y-57.981
X94.08Y-59.6
X94.08Y-61.3
X94.08Y-63.0
X94.415Y-64.09
X94.94Y-87.501
X94.94Y-89.201
X94.94Y-90.901
X94.94Y-92.521
X94.94Y-94.221
X94.94Y-95.921
X94.94Y-97.54
X94.94Y-99.24
X94.94Y-100.94
X94.94Y-102.559
X94.94Y-104.259
X94.94Y-105.959
X94.94Y-107.249
X94.94Y-108.949
X94.94Y-110.649
X94.989Y-43.48
X95.509Y-85.9
X96.115Y-64.09
X96.689Y-43.48
X97.209Y-85.9
X97.815Y-64.09
X98.389Y-43.48
X98.829Y-85.9
X99.435Y-64.09
X100.008Y-43.48
X100.529Y-85.9
X101.135Y-64.09
X101.708Y-43.48
X102.229Y-85.9
X102.835Y-64.09
X103.408Y-43.48
X103.848Y-85.9
X104.454Y-64.09
X105.027Y-43.48
X105.548Y-85.9
X106.154Y-64.09
X106.727Y-43.48
X107.248Y-85.9
X107.854Y-64.09
X108.427Y-43.48
M30
