%TF.GenerationSoftware,KiCad,Pcbnew,9.0.7*%
%TF.CreationDate,2026-03-13T12:58:59-07:00*%
%TF.ProjectId,charging-circuit,63686172-6769-46e6-972d-636972637569,rev?*%
%TF.SameCoordinates,Original*%
%TF.FileFunction,Legend,Top*%
%TF.FilePolarity,Positive*%
%FSLAX46Y46*%
G04 Gerber Fmt 4.6, Leading zero omitted, Abs format (unit mm)*
G04 Created by KiCad (PCBNEW 9.0.7) date 2026-03-13 12:58:59*
%MOMM*%
%LPD*%
G01*
G04 APERTURE LIST*
%ADD10C,0.080000*%
%ADD11C,0.150000*%
%ADD12C,0.200000*%
%ADD13C,0.250000*%
%ADD14C,0.120000*%
%ADD15C,0.300000*%
%ADD16C,0.130000*%
%ADD17C,0.400000*%
%ADD18C,0.100000*%
%ADD19C,0.600000*%
G04 APERTURE END LIST*
D10*
X69593340Y-74617130D02*
X69617149Y-74545702D01*
X69617149Y-74545702D02*
X69617149Y-74426654D01*
X69617149Y-74426654D02*
X69593340Y-74379035D01*
X69593340Y-74379035D02*
X69569530Y-74355226D01*
X69569530Y-74355226D02*
X69521911Y-74331416D01*
X69521911Y-74331416D02*
X69474292Y-74331416D01*
X69474292Y-74331416D02*
X69426673Y-74355226D01*
X69426673Y-74355226D02*
X69402863Y-74379035D01*
X69402863Y-74379035D02*
X69379054Y-74426654D01*
X69379054Y-74426654D02*
X69355244Y-74521892D01*
X69355244Y-74521892D02*
X69331435Y-74569511D01*
X69331435Y-74569511D02*
X69307625Y-74593321D01*
X69307625Y-74593321D02*
X69260006Y-74617130D01*
X69260006Y-74617130D02*
X69212387Y-74617130D01*
X69212387Y-74617130D02*
X69164768Y-74593321D01*
X69164768Y-74593321D02*
X69140959Y-74569511D01*
X69140959Y-74569511D02*
X69117149Y-74521892D01*
X69117149Y-74521892D02*
X69117149Y-74402845D01*
X69117149Y-74402845D02*
X69140959Y-74331416D01*
X69569530Y-73831417D02*
X69593340Y-73855226D01*
X69593340Y-73855226D02*
X69617149Y-73926655D01*
X69617149Y-73926655D02*
X69617149Y-73974274D01*
X69617149Y-73974274D02*
X69593340Y-74045702D01*
X69593340Y-74045702D02*
X69545720Y-74093321D01*
X69545720Y-74093321D02*
X69498101Y-74117131D01*
X69498101Y-74117131D02*
X69402863Y-74140940D01*
X69402863Y-74140940D02*
X69331435Y-74140940D01*
X69331435Y-74140940D02*
X69236197Y-74117131D01*
X69236197Y-74117131D02*
X69188578Y-74093321D01*
X69188578Y-74093321D02*
X69140959Y-74045702D01*
X69140959Y-74045702D02*
X69117149Y-73974274D01*
X69117149Y-73974274D02*
X69117149Y-73926655D01*
X69117149Y-73926655D02*
X69140959Y-73855226D01*
X69140959Y-73855226D02*
X69164768Y-73831417D01*
X69617149Y-73379036D02*
X69617149Y-73617131D01*
X69617149Y-73617131D02*
X69117149Y-73617131D01*
X65855244Y-81676654D02*
X65879054Y-81605226D01*
X65879054Y-81605226D02*
X65902863Y-81581416D01*
X65902863Y-81581416D02*
X65950482Y-81557607D01*
X65950482Y-81557607D02*
X66021911Y-81557607D01*
X66021911Y-81557607D02*
X66069530Y-81581416D01*
X66069530Y-81581416D02*
X66093340Y-81605226D01*
X66093340Y-81605226D02*
X66117149Y-81652845D01*
X66117149Y-81652845D02*
X66117149Y-81843321D01*
X66117149Y-81843321D02*
X65617149Y-81843321D01*
X65617149Y-81843321D02*
X65617149Y-81676654D01*
X65617149Y-81676654D02*
X65640959Y-81629035D01*
X65640959Y-81629035D02*
X65664768Y-81605226D01*
X65664768Y-81605226D02*
X65712387Y-81581416D01*
X65712387Y-81581416D02*
X65760006Y-81581416D01*
X65760006Y-81581416D02*
X65807625Y-81605226D01*
X65807625Y-81605226D02*
X65831435Y-81629035D01*
X65831435Y-81629035D02*
X65855244Y-81676654D01*
X65855244Y-81676654D02*
X65855244Y-81843321D01*
X65974292Y-81367130D02*
X65974292Y-81129035D01*
X66117149Y-81414749D02*
X65617149Y-81248083D01*
X65617149Y-81248083D02*
X66117149Y-81081416D01*
X65617149Y-80986178D02*
X65617149Y-80700464D01*
X66117149Y-80843321D02*
X65617149Y-80843321D01*
X70093340Y-81617130D02*
X70117149Y-81545702D01*
X70117149Y-81545702D02*
X70117149Y-81426654D01*
X70117149Y-81426654D02*
X70093340Y-81379035D01*
X70093340Y-81379035D02*
X70069530Y-81355226D01*
X70069530Y-81355226D02*
X70021911Y-81331416D01*
X70021911Y-81331416D02*
X69974292Y-81331416D01*
X69974292Y-81331416D02*
X69926673Y-81355226D01*
X69926673Y-81355226D02*
X69902863Y-81379035D01*
X69902863Y-81379035D02*
X69879054Y-81426654D01*
X69879054Y-81426654D02*
X69855244Y-81521892D01*
X69855244Y-81521892D02*
X69831435Y-81569511D01*
X69831435Y-81569511D02*
X69807625Y-81593321D01*
X69807625Y-81593321D02*
X69760006Y-81617130D01*
X69760006Y-81617130D02*
X69712387Y-81617130D01*
X69712387Y-81617130D02*
X69664768Y-81593321D01*
X69664768Y-81593321D02*
X69640959Y-81569511D01*
X69640959Y-81569511D02*
X69617149Y-81521892D01*
X69617149Y-81521892D02*
X69617149Y-81402845D01*
X69617149Y-81402845D02*
X69640959Y-81331416D01*
X70117149Y-81117131D02*
X69617149Y-81117131D01*
X69617149Y-81117131D02*
X69617149Y-80998083D01*
X69617149Y-80998083D02*
X69640959Y-80926655D01*
X69640959Y-80926655D02*
X69688578Y-80879036D01*
X69688578Y-80879036D02*
X69736197Y-80855226D01*
X69736197Y-80855226D02*
X69831435Y-80831417D01*
X69831435Y-80831417D02*
X69902863Y-80831417D01*
X69902863Y-80831417D02*
X69998101Y-80855226D01*
X69998101Y-80855226D02*
X70045720Y-80879036D01*
X70045720Y-80879036D02*
X70093340Y-80926655D01*
X70093340Y-80926655D02*
X70117149Y-80998083D01*
X70117149Y-80998083D02*
X70117149Y-81117131D01*
X69974292Y-80640940D02*
X69974292Y-80402845D01*
X70117149Y-80688559D02*
X69617149Y-80521893D01*
X69617149Y-80521893D02*
X70117149Y-80355226D01*
X66390959Y-74331416D02*
X66367149Y-74379035D01*
X66367149Y-74379035D02*
X66367149Y-74450464D01*
X66367149Y-74450464D02*
X66390959Y-74521892D01*
X66390959Y-74521892D02*
X66438578Y-74569511D01*
X66438578Y-74569511D02*
X66486197Y-74593321D01*
X66486197Y-74593321D02*
X66581435Y-74617130D01*
X66581435Y-74617130D02*
X66652863Y-74617130D01*
X66652863Y-74617130D02*
X66748101Y-74593321D01*
X66748101Y-74593321D02*
X66795720Y-74569511D01*
X66795720Y-74569511D02*
X66843340Y-74521892D01*
X66843340Y-74521892D02*
X66867149Y-74450464D01*
X66867149Y-74450464D02*
X66867149Y-74402845D01*
X66867149Y-74402845D02*
X66843340Y-74331416D01*
X66843340Y-74331416D02*
X66819530Y-74307607D01*
X66819530Y-74307607D02*
X66652863Y-74307607D01*
X66652863Y-74307607D02*
X66652863Y-74402845D01*
X66867149Y-74093321D02*
X66367149Y-74093321D01*
X66367149Y-74093321D02*
X66867149Y-73807607D01*
X66867149Y-73807607D02*
X66367149Y-73807607D01*
X66867149Y-73569511D02*
X66367149Y-73569511D01*
X66367149Y-73569511D02*
X66367149Y-73450463D01*
X66367149Y-73450463D02*
X66390959Y-73379035D01*
X66390959Y-73379035D02*
X66438578Y-73331416D01*
X66438578Y-73331416D02*
X66486197Y-73307606D01*
X66486197Y-73307606D02*
X66581435Y-73283797D01*
X66581435Y-73283797D02*
X66652863Y-73283797D01*
X66652863Y-73283797D02*
X66748101Y-73307606D01*
X66748101Y-73307606D02*
X66795720Y-73331416D01*
X66795720Y-73331416D02*
X66843340Y-73379035D01*
X66843340Y-73379035D02*
X66867149Y-73450463D01*
X66867149Y-73450463D02*
X66867149Y-73569511D01*
X45579417Y-71920149D02*
X45746083Y-72420149D01*
X45746083Y-72420149D02*
X45912750Y-71920149D01*
X46246083Y-72158244D02*
X46317511Y-72182054D01*
X46317511Y-72182054D02*
X46341321Y-72205863D01*
X46341321Y-72205863D02*
X46365130Y-72253482D01*
X46365130Y-72253482D02*
X46365130Y-72324911D01*
X46365130Y-72324911D02*
X46341321Y-72372530D01*
X46341321Y-72372530D02*
X46317511Y-72396340D01*
X46317511Y-72396340D02*
X46269892Y-72420149D01*
X46269892Y-72420149D02*
X46079416Y-72420149D01*
X46079416Y-72420149D02*
X46079416Y-71920149D01*
X46079416Y-71920149D02*
X46246083Y-71920149D01*
X46246083Y-71920149D02*
X46293702Y-71943959D01*
X46293702Y-71943959D02*
X46317511Y-71967768D01*
X46317511Y-71967768D02*
X46341321Y-72015387D01*
X46341321Y-72015387D02*
X46341321Y-72063006D01*
X46341321Y-72063006D02*
X46317511Y-72110625D01*
X46317511Y-72110625D02*
X46293702Y-72134435D01*
X46293702Y-72134435D02*
X46246083Y-72158244D01*
X46246083Y-72158244D02*
X46079416Y-72158244D01*
X46579416Y-71920149D02*
X46579416Y-72324911D01*
X46579416Y-72324911D02*
X46603226Y-72372530D01*
X46603226Y-72372530D02*
X46627035Y-72396340D01*
X46627035Y-72396340D02*
X46674654Y-72420149D01*
X46674654Y-72420149D02*
X46769892Y-72420149D01*
X46769892Y-72420149D02*
X46817511Y-72396340D01*
X46817511Y-72396340D02*
X46841321Y-72372530D01*
X46841321Y-72372530D02*
X46865130Y-72324911D01*
X46865130Y-72324911D02*
X46865130Y-71920149D01*
X47079417Y-72396340D02*
X47150845Y-72420149D01*
X47150845Y-72420149D02*
X47269893Y-72420149D01*
X47269893Y-72420149D02*
X47317512Y-72396340D01*
X47317512Y-72396340D02*
X47341321Y-72372530D01*
X47341321Y-72372530D02*
X47365131Y-72324911D01*
X47365131Y-72324911D02*
X47365131Y-72277292D01*
X47365131Y-72277292D02*
X47341321Y-72229673D01*
X47341321Y-72229673D02*
X47317512Y-72205863D01*
X47317512Y-72205863D02*
X47269893Y-72182054D01*
X47269893Y-72182054D02*
X47174655Y-72158244D01*
X47174655Y-72158244D02*
X47127036Y-72134435D01*
X47127036Y-72134435D02*
X47103226Y-72110625D01*
X47103226Y-72110625D02*
X47079417Y-72063006D01*
X47079417Y-72063006D02*
X47079417Y-72015387D01*
X47079417Y-72015387D02*
X47103226Y-71967768D01*
X47103226Y-71967768D02*
X47127036Y-71943959D01*
X47127036Y-71943959D02*
X47174655Y-71920149D01*
X47174655Y-71920149D02*
X47293702Y-71920149D01*
X47293702Y-71920149D02*
X47365131Y-71943959D01*
X46317511Y-76943959D02*
X46269892Y-76920149D01*
X46269892Y-76920149D02*
X46198463Y-76920149D01*
X46198463Y-76920149D02*
X46127035Y-76943959D01*
X46127035Y-76943959D02*
X46079416Y-76991578D01*
X46079416Y-76991578D02*
X46055606Y-77039197D01*
X46055606Y-77039197D02*
X46031797Y-77134435D01*
X46031797Y-77134435D02*
X46031797Y-77205863D01*
X46031797Y-77205863D02*
X46055606Y-77301101D01*
X46055606Y-77301101D02*
X46079416Y-77348720D01*
X46079416Y-77348720D02*
X46127035Y-77396340D01*
X46127035Y-77396340D02*
X46198463Y-77420149D01*
X46198463Y-77420149D02*
X46246082Y-77420149D01*
X46246082Y-77420149D02*
X46317511Y-77396340D01*
X46317511Y-77396340D02*
X46341320Y-77372530D01*
X46341320Y-77372530D02*
X46341320Y-77205863D01*
X46341320Y-77205863D02*
X46246082Y-77205863D01*
X46555606Y-77420149D02*
X46555606Y-76920149D01*
X46555606Y-76920149D02*
X46841320Y-77420149D01*
X46841320Y-77420149D02*
X46841320Y-76920149D01*
X47079416Y-77420149D02*
X47079416Y-76920149D01*
X47079416Y-76920149D02*
X47198464Y-76920149D01*
X47198464Y-76920149D02*
X47269892Y-76943959D01*
X47269892Y-76943959D02*
X47317511Y-76991578D01*
X47317511Y-76991578D02*
X47341321Y-77039197D01*
X47341321Y-77039197D02*
X47365130Y-77134435D01*
X47365130Y-77134435D02*
X47365130Y-77205863D01*
X47365130Y-77205863D02*
X47341321Y-77301101D01*
X47341321Y-77301101D02*
X47317511Y-77348720D01*
X47317511Y-77348720D02*
X47269892Y-77396340D01*
X47269892Y-77396340D02*
X47198464Y-77420149D01*
X47198464Y-77420149D02*
X47079416Y-77420149D01*
X45769894Y-74420149D02*
X45936560Y-74920149D01*
X45936560Y-74920149D02*
X46103227Y-74420149D01*
X46436560Y-74658244D02*
X46507988Y-74682054D01*
X46507988Y-74682054D02*
X46531798Y-74705863D01*
X46531798Y-74705863D02*
X46555607Y-74753482D01*
X46555607Y-74753482D02*
X46555607Y-74824911D01*
X46555607Y-74824911D02*
X46531798Y-74872530D01*
X46531798Y-74872530D02*
X46507988Y-74896340D01*
X46507988Y-74896340D02*
X46460369Y-74920149D01*
X46460369Y-74920149D02*
X46269893Y-74920149D01*
X46269893Y-74920149D02*
X46269893Y-74420149D01*
X46269893Y-74420149D02*
X46436560Y-74420149D01*
X46436560Y-74420149D02*
X46484179Y-74443959D01*
X46484179Y-74443959D02*
X46507988Y-74467768D01*
X46507988Y-74467768D02*
X46531798Y-74515387D01*
X46531798Y-74515387D02*
X46531798Y-74563006D01*
X46531798Y-74563006D02*
X46507988Y-74610625D01*
X46507988Y-74610625D02*
X46484179Y-74634435D01*
X46484179Y-74634435D02*
X46436560Y-74658244D01*
X46436560Y-74658244D02*
X46269893Y-74658244D01*
X46746084Y-74777292D02*
X46984179Y-74777292D01*
X46698465Y-74920149D02*
X46865131Y-74420149D01*
X46865131Y-74420149D02*
X47031798Y-74920149D01*
X47127036Y-74420149D02*
X47412750Y-74420149D01*
X47269893Y-74920149D02*
X47269893Y-74420149D01*
X46460368Y-79920149D02*
X46460368Y-79420149D01*
X46460368Y-79420149D02*
X46579416Y-79420149D01*
X46579416Y-79420149D02*
X46650844Y-79443959D01*
X46650844Y-79443959D02*
X46698463Y-79491578D01*
X46698463Y-79491578D02*
X46722273Y-79539197D01*
X46722273Y-79539197D02*
X46746082Y-79634435D01*
X46746082Y-79634435D02*
X46746082Y-79705863D01*
X46746082Y-79705863D02*
X46722273Y-79801101D01*
X46722273Y-79801101D02*
X46698463Y-79848720D01*
X46698463Y-79848720D02*
X46650844Y-79896340D01*
X46650844Y-79896340D02*
X46579416Y-79920149D01*
X46579416Y-79920149D02*
X46460368Y-79920149D01*
X46960368Y-79729673D02*
X47341321Y-79729673D01*
X47150844Y-79920149D02*
X47150844Y-79539197D01*
X45698466Y-69420149D02*
X45865132Y-69920149D01*
X45865132Y-69920149D02*
X46031799Y-69420149D01*
X46174656Y-69896340D02*
X46246084Y-69920149D01*
X46246084Y-69920149D02*
X46365132Y-69920149D01*
X46365132Y-69920149D02*
X46412751Y-69896340D01*
X46412751Y-69896340D02*
X46436560Y-69872530D01*
X46436560Y-69872530D02*
X46460370Y-69824911D01*
X46460370Y-69824911D02*
X46460370Y-69777292D01*
X46460370Y-69777292D02*
X46436560Y-69729673D01*
X46436560Y-69729673D02*
X46412751Y-69705863D01*
X46412751Y-69705863D02*
X46365132Y-69682054D01*
X46365132Y-69682054D02*
X46269894Y-69658244D01*
X46269894Y-69658244D02*
X46222275Y-69634435D01*
X46222275Y-69634435D02*
X46198465Y-69610625D01*
X46198465Y-69610625D02*
X46174656Y-69563006D01*
X46174656Y-69563006D02*
X46174656Y-69515387D01*
X46174656Y-69515387D02*
X46198465Y-69467768D01*
X46198465Y-69467768D02*
X46222275Y-69443959D01*
X46222275Y-69443959D02*
X46269894Y-69420149D01*
X46269894Y-69420149D02*
X46388941Y-69420149D01*
X46388941Y-69420149D02*
X46460370Y-69443959D01*
X46769893Y-69682054D02*
X46769893Y-69920149D01*
X46603227Y-69420149D02*
X46769893Y-69682054D01*
X46769893Y-69682054D02*
X46936560Y-69420149D01*
X47079417Y-69896340D02*
X47150845Y-69920149D01*
X47150845Y-69920149D02*
X47269893Y-69920149D01*
X47269893Y-69920149D02*
X47317512Y-69896340D01*
X47317512Y-69896340D02*
X47341321Y-69872530D01*
X47341321Y-69872530D02*
X47365131Y-69824911D01*
X47365131Y-69824911D02*
X47365131Y-69777292D01*
X47365131Y-69777292D02*
X47341321Y-69729673D01*
X47341321Y-69729673D02*
X47317512Y-69705863D01*
X47317512Y-69705863D02*
X47269893Y-69682054D01*
X47269893Y-69682054D02*
X47174655Y-69658244D01*
X47174655Y-69658244D02*
X47127036Y-69634435D01*
X47127036Y-69634435D02*
X47103226Y-69610625D01*
X47103226Y-69610625D02*
X47079417Y-69563006D01*
X47079417Y-69563006D02*
X47079417Y-69515387D01*
X47079417Y-69515387D02*
X47103226Y-69467768D01*
X47103226Y-69467768D02*
X47127036Y-69443959D01*
X47127036Y-69443959D02*
X47174655Y-69420149D01*
X47174655Y-69420149D02*
X47293702Y-69420149D01*
X47293702Y-69420149D02*
X47365131Y-69443959D01*
X46460368Y-82670149D02*
X46460368Y-82170149D01*
X46460368Y-82170149D02*
X46579416Y-82170149D01*
X46579416Y-82170149D02*
X46650844Y-82193959D01*
X46650844Y-82193959D02*
X46698463Y-82241578D01*
X46698463Y-82241578D02*
X46722273Y-82289197D01*
X46722273Y-82289197D02*
X46746082Y-82384435D01*
X46746082Y-82384435D02*
X46746082Y-82455863D01*
X46746082Y-82455863D02*
X46722273Y-82551101D01*
X46722273Y-82551101D02*
X46698463Y-82598720D01*
X46698463Y-82598720D02*
X46650844Y-82646340D01*
X46650844Y-82646340D02*
X46579416Y-82670149D01*
X46579416Y-82670149D02*
X46460368Y-82670149D01*
X46960368Y-82479673D02*
X47341321Y-82479673D01*
X42990038Y-75697069D02*
X43037657Y-75720879D01*
X43037657Y-75720879D02*
X43109086Y-75720879D01*
X43109086Y-75720879D02*
X43180514Y-75697069D01*
X43180514Y-75697069D02*
X43228133Y-75649450D01*
X43228133Y-75649450D02*
X43251943Y-75601831D01*
X43251943Y-75601831D02*
X43275752Y-75506593D01*
X43275752Y-75506593D02*
X43275752Y-75435165D01*
X43275752Y-75435165D02*
X43251943Y-75339927D01*
X43251943Y-75339927D02*
X43228133Y-75292308D01*
X43228133Y-75292308D02*
X43180514Y-75244689D01*
X43180514Y-75244689D02*
X43109086Y-75220879D01*
X43109086Y-75220879D02*
X43061467Y-75220879D01*
X43061467Y-75220879D02*
X42990038Y-75244689D01*
X42990038Y-75244689D02*
X42966229Y-75268498D01*
X42966229Y-75268498D02*
X42966229Y-75435165D01*
X42966229Y-75435165D02*
X43061467Y-75435165D01*
X42751943Y-75220879D02*
X42751943Y-75720879D01*
X42751943Y-75720879D02*
X42466229Y-75220879D01*
X42466229Y-75220879D02*
X42466229Y-75720879D01*
X42228133Y-75220879D02*
X42228133Y-75720879D01*
X42228133Y-75720879D02*
X42109085Y-75720879D01*
X42109085Y-75720879D02*
X42037657Y-75697069D01*
X42037657Y-75697069D02*
X41990038Y-75649450D01*
X41990038Y-75649450D02*
X41966228Y-75601831D01*
X41966228Y-75601831D02*
X41942419Y-75506593D01*
X41942419Y-75506593D02*
X41942419Y-75435165D01*
X41942419Y-75435165D02*
X41966228Y-75339927D01*
X41966228Y-75339927D02*
X41990038Y-75292308D01*
X41990038Y-75292308D02*
X42037657Y-75244689D01*
X42037657Y-75244689D02*
X42109085Y-75220879D01*
X42109085Y-75220879D02*
X42228133Y-75220879D01*
X42847181Y-77720879D02*
X42847181Y-78220879D01*
X42847181Y-78220879D02*
X42728133Y-78220879D01*
X42728133Y-78220879D02*
X42656705Y-78197069D01*
X42656705Y-78197069D02*
X42609086Y-78149450D01*
X42609086Y-78149450D02*
X42585276Y-78101831D01*
X42585276Y-78101831D02*
X42561467Y-78006593D01*
X42561467Y-78006593D02*
X42561467Y-77935165D01*
X42561467Y-77935165D02*
X42585276Y-77839927D01*
X42585276Y-77839927D02*
X42609086Y-77792308D01*
X42609086Y-77792308D02*
X42656705Y-77744689D01*
X42656705Y-77744689D02*
X42728133Y-77720879D01*
X42728133Y-77720879D02*
X42847181Y-77720879D01*
X42347181Y-77911355D02*
X41966229Y-77911355D01*
X43537655Y-73220879D02*
X43370989Y-72720879D01*
X43370989Y-72720879D02*
X43204322Y-73220879D01*
X42870989Y-72982784D02*
X42799561Y-72958974D01*
X42799561Y-72958974D02*
X42775751Y-72935165D01*
X42775751Y-72935165D02*
X42751942Y-72887546D01*
X42751942Y-72887546D02*
X42751942Y-72816117D01*
X42751942Y-72816117D02*
X42775751Y-72768498D01*
X42775751Y-72768498D02*
X42799561Y-72744689D01*
X42799561Y-72744689D02*
X42847180Y-72720879D01*
X42847180Y-72720879D02*
X43037656Y-72720879D01*
X43037656Y-72720879D02*
X43037656Y-73220879D01*
X43037656Y-73220879D02*
X42870989Y-73220879D01*
X42870989Y-73220879D02*
X42823370Y-73197069D01*
X42823370Y-73197069D02*
X42799561Y-73173260D01*
X42799561Y-73173260D02*
X42775751Y-73125641D01*
X42775751Y-73125641D02*
X42775751Y-73078022D01*
X42775751Y-73078022D02*
X42799561Y-73030403D01*
X42799561Y-73030403D02*
X42823370Y-73006593D01*
X42823370Y-73006593D02*
X42870989Y-72982784D01*
X42870989Y-72982784D02*
X43037656Y-72982784D01*
X42561465Y-72863736D02*
X42323370Y-72863736D01*
X42609084Y-72720879D02*
X42442418Y-73220879D01*
X42442418Y-73220879D02*
X42275751Y-72720879D01*
X42180513Y-73220879D02*
X41894799Y-73220879D01*
X42037656Y-72720879D02*
X42037656Y-73220879D01*
X42847181Y-80220879D02*
X42847181Y-80720879D01*
X42847181Y-80720879D02*
X42728133Y-80720879D01*
X42728133Y-80720879D02*
X42656705Y-80697069D01*
X42656705Y-80697069D02*
X42609086Y-80649450D01*
X42609086Y-80649450D02*
X42585276Y-80601831D01*
X42585276Y-80601831D02*
X42561467Y-80506593D01*
X42561467Y-80506593D02*
X42561467Y-80435165D01*
X42561467Y-80435165D02*
X42585276Y-80339927D01*
X42585276Y-80339927D02*
X42609086Y-80292308D01*
X42609086Y-80292308D02*
X42656705Y-80244689D01*
X42656705Y-80244689D02*
X42728133Y-80220879D01*
X42728133Y-80220879D02*
X42847181Y-80220879D01*
X42347181Y-80411355D02*
X41966229Y-80411355D01*
X42156705Y-80220879D02*
X42156705Y-80601831D01*
X43728132Y-70470879D02*
X43561466Y-69970879D01*
X43561466Y-69970879D02*
X43394799Y-70470879D01*
X43061466Y-70232784D02*
X42990038Y-70208974D01*
X42990038Y-70208974D02*
X42966228Y-70185165D01*
X42966228Y-70185165D02*
X42942419Y-70137546D01*
X42942419Y-70137546D02*
X42942419Y-70066117D01*
X42942419Y-70066117D02*
X42966228Y-70018498D01*
X42966228Y-70018498D02*
X42990038Y-69994689D01*
X42990038Y-69994689D02*
X43037657Y-69970879D01*
X43037657Y-69970879D02*
X43228133Y-69970879D01*
X43228133Y-69970879D02*
X43228133Y-70470879D01*
X43228133Y-70470879D02*
X43061466Y-70470879D01*
X43061466Y-70470879D02*
X43013847Y-70447069D01*
X43013847Y-70447069D02*
X42990038Y-70423260D01*
X42990038Y-70423260D02*
X42966228Y-70375641D01*
X42966228Y-70375641D02*
X42966228Y-70328022D01*
X42966228Y-70328022D02*
X42990038Y-70280403D01*
X42990038Y-70280403D02*
X43013847Y-70256593D01*
X43013847Y-70256593D02*
X43061466Y-70232784D01*
X43061466Y-70232784D02*
X43228133Y-70232784D01*
X42728133Y-70470879D02*
X42728133Y-70066117D01*
X42728133Y-70066117D02*
X42704323Y-70018498D01*
X42704323Y-70018498D02*
X42680514Y-69994689D01*
X42680514Y-69994689D02*
X42632895Y-69970879D01*
X42632895Y-69970879D02*
X42537657Y-69970879D01*
X42537657Y-69970879D02*
X42490038Y-69994689D01*
X42490038Y-69994689D02*
X42466228Y-70018498D01*
X42466228Y-70018498D02*
X42442419Y-70066117D01*
X42442419Y-70066117D02*
X42442419Y-70470879D01*
X42228132Y-69994689D02*
X42156704Y-69970879D01*
X42156704Y-69970879D02*
X42037656Y-69970879D01*
X42037656Y-69970879D02*
X41990037Y-69994689D01*
X41990037Y-69994689D02*
X41966228Y-70018498D01*
X41966228Y-70018498D02*
X41942418Y-70066117D01*
X41942418Y-70066117D02*
X41942418Y-70113736D01*
X41942418Y-70113736D02*
X41966228Y-70161355D01*
X41966228Y-70161355D02*
X41990037Y-70185165D01*
X41990037Y-70185165D02*
X42037656Y-70208974D01*
X42037656Y-70208974D02*
X42132894Y-70232784D01*
X42132894Y-70232784D02*
X42180513Y-70256593D01*
X42180513Y-70256593D02*
X42204323Y-70280403D01*
X42204323Y-70280403D02*
X42228132Y-70328022D01*
X42228132Y-70328022D02*
X42228132Y-70375641D01*
X42228132Y-70375641D02*
X42204323Y-70423260D01*
X42204323Y-70423260D02*
X42180513Y-70447069D01*
X42180513Y-70447069D02*
X42132894Y-70470879D01*
X42132894Y-70470879D02*
X42013847Y-70470879D01*
X42013847Y-70470879D02*
X41942418Y-70447069D01*
X75607370Y-81177149D02*
X75321656Y-81177149D01*
X75464513Y-81177149D02*
X75464513Y-80677149D01*
X75464513Y-80677149D02*
X75416894Y-80748578D01*
X75416894Y-80748578D02*
X75369275Y-80796197D01*
X75369275Y-80796197D02*
X75321656Y-80820006D01*
X75797846Y-80724768D02*
X75821655Y-80700959D01*
X75821655Y-80700959D02*
X75869274Y-80677149D01*
X75869274Y-80677149D02*
X75988322Y-80677149D01*
X75988322Y-80677149D02*
X76035941Y-80700959D01*
X76035941Y-80700959D02*
X76059750Y-80724768D01*
X76059750Y-80724768D02*
X76083560Y-80772387D01*
X76083560Y-80772387D02*
X76083560Y-80820006D01*
X76083560Y-80820006D02*
X76059750Y-80891435D01*
X76059750Y-80891435D02*
X75774036Y-81177149D01*
X75774036Y-81177149D02*
X76083560Y-81177149D01*
X76226417Y-80677149D02*
X76393083Y-81177149D01*
X76393083Y-81177149D02*
X76559750Y-80677149D01*
X73583558Y-83629530D02*
X73559749Y-83653340D01*
X73559749Y-83653340D02*
X73488320Y-83677149D01*
X73488320Y-83677149D02*
X73440701Y-83677149D01*
X73440701Y-83677149D02*
X73369273Y-83653340D01*
X73369273Y-83653340D02*
X73321654Y-83605720D01*
X73321654Y-83605720D02*
X73297844Y-83558101D01*
X73297844Y-83558101D02*
X73274035Y-83462863D01*
X73274035Y-83462863D02*
X73274035Y-83391435D01*
X73274035Y-83391435D02*
X73297844Y-83296197D01*
X73297844Y-83296197D02*
X73321654Y-83248578D01*
X73321654Y-83248578D02*
X73369273Y-83200959D01*
X73369273Y-83200959D02*
X73440701Y-83177149D01*
X73440701Y-83177149D02*
X73488320Y-83177149D01*
X73488320Y-83177149D02*
X73559749Y-83200959D01*
X73559749Y-83200959D02*
X73583558Y-83224768D01*
X73797844Y-83677149D02*
X73797844Y-83177149D01*
X73797844Y-83415244D02*
X74083558Y-83415244D01*
X74083558Y-83677149D02*
X74083558Y-83177149D01*
X74583559Y-83200959D02*
X74535940Y-83177149D01*
X74535940Y-83177149D02*
X74464511Y-83177149D01*
X74464511Y-83177149D02*
X74393083Y-83200959D01*
X74393083Y-83200959D02*
X74345464Y-83248578D01*
X74345464Y-83248578D02*
X74321654Y-83296197D01*
X74321654Y-83296197D02*
X74297845Y-83391435D01*
X74297845Y-83391435D02*
X74297845Y-83462863D01*
X74297845Y-83462863D02*
X74321654Y-83558101D01*
X74321654Y-83558101D02*
X74345464Y-83605720D01*
X74345464Y-83605720D02*
X74393083Y-83653340D01*
X74393083Y-83653340D02*
X74464511Y-83677149D01*
X74464511Y-83677149D02*
X74512130Y-83677149D01*
X74512130Y-83677149D02*
X74583559Y-83653340D01*
X74583559Y-83653340D02*
X74607368Y-83629530D01*
X74607368Y-83629530D02*
X74607368Y-83462863D01*
X74607368Y-83462863D02*
X74512130Y-83462863D01*
X74702607Y-83724768D02*
X75083559Y-83724768D01*
X75464511Y-83200959D02*
X75416892Y-83177149D01*
X75416892Y-83177149D02*
X75345463Y-83177149D01*
X75345463Y-83177149D02*
X75274035Y-83200959D01*
X75274035Y-83200959D02*
X75226416Y-83248578D01*
X75226416Y-83248578D02*
X75202606Y-83296197D01*
X75202606Y-83296197D02*
X75178797Y-83391435D01*
X75178797Y-83391435D02*
X75178797Y-83462863D01*
X75178797Y-83462863D02*
X75202606Y-83558101D01*
X75202606Y-83558101D02*
X75226416Y-83605720D01*
X75226416Y-83605720D02*
X75274035Y-83653340D01*
X75274035Y-83653340D02*
X75345463Y-83677149D01*
X75345463Y-83677149D02*
X75393082Y-83677149D01*
X75393082Y-83677149D02*
X75464511Y-83653340D01*
X75464511Y-83653340D02*
X75488320Y-83629530D01*
X75488320Y-83629530D02*
X75488320Y-83462863D01*
X75488320Y-83462863D02*
X75393082Y-83462863D01*
X75702606Y-83677149D02*
X75702606Y-83177149D01*
X75702606Y-83177149D02*
X75988320Y-83677149D01*
X75988320Y-83677149D02*
X75988320Y-83177149D01*
X76226416Y-83677149D02*
X76226416Y-83177149D01*
X76226416Y-83177149D02*
X76345464Y-83177149D01*
X76345464Y-83177149D02*
X76416892Y-83200959D01*
X76416892Y-83200959D02*
X76464511Y-83248578D01*
X76464511Y-83248578D02*
X76488321Y-83296197D01*
X76488321Y-83296197D02*
X76512130Y-83391435D01*
X76512130Y-83391435D02*
X76512130Y-83462863D01*
X76512130Y-83462863D02*
X76488321Y-83558101D01*
X76488321Y-83558101D02*
X76464511Y-83605720D01*
X76464511Y-83605720D02*
X76416892Y-83653340D01*
X76416892Y-83653340D02*
X76345464Y-83677149D01*
X76345464Y-83677149D02*
X76226416Y-83677149D01*
X73369274Y-82379530D02*
X73345465Y-82403340D01*
X73345465Y-82403340D02*
X73274036Y-82427149D01*
X73274036Y-82427149D02*
X73226417Y-82427149D01*
X73226417Y-82427149D02*
X73154989Y-82403340D01*
X73154989Y-82403340D02*
X73107370Y-82355720D01*
X73107370Y-82355720D02*
X73083560Y-82308101D01*
X73083560Y-82308101D02*
X73059751Y-82212863D01*
X73059751Y-82212863D02*
X73059751Y-82141435D01*
X73059751Y-82141435D02*
X73083560Y-82046197D01*
X73083560Y-82046197D02*
X73107370Y-81998578D01*
X73107370Y-81998578D02*
X73154989Y-81950959D01*
X73154989Y-81950959D02*
X73226417Y-81927149D01*
X73226417Y-81927149D02*
X73274036Y-81927149D01*
X73274036Y-81927149D02*
X73345465Y-81950959D01*
X73345465Y-81950959D02*
X73369274Y-81974768D01*
X73583560Y-82427149D02*
X73583560Y-81927149D01*
X73583560Y-82165244D02*
X73869274Y-82165244D01*
X73869274Y-82427149D02*
X73869274Y-81927149D01*
X74369275Y-81950959D02*
X74321656Y-81927149D01*
X74321656Y-81927149D02*
X74250227Y-81927149D01*
X74250227Y-81927149D02*
X74178799Y-81950959D01*
X74178799Y-81950959D02*
X74131180Y-81998578D01*
X74131180Y-81998578D02*
X74107370Y-82046197D01*
X74107370Y-82046197D02*
X74083561Y-82141435D01*
X74083561Y-82141435D02*
X74083561Y-82212863D01*
X74083561Y-82212863D02*
X74107370Y-82308101D01*
X74107370Y-82308101D02*
X74131180Y-82355720D01*
X74131180Y-82355720D02*
X74178799Y-82403340D01*
X74178799Y-82403340D02*
X74250227Y-82427149D01*
X74250227Y-82427149D02*
X74297846Y-82427149D01*
X74297846Y-82427149D02*
X74369275Y-82403340D01*
X74369275Y-82403340D02*
X74393084Y-82379530D01*
X74393084Y-82379530D02*
X74393084Y-82212863D01*
X74393084Y-82212863D02*
X74297846Y-82212863D01*
X74488323Y-82474768D02*
X74869275Y-82474768D01*
X74916894Y-81927149D02*
X75083560Y-82427149D01*
X75083560Y-82427149D02*
X75250227Y-81927149D01*
X75583560Y-82165244D02*
X75654988Y-82189054D01*
X75654988Y-82189054D02*
X75678798Y-82212863D01*
X75678798Y-82212863D02*
X75702607Y-82260482D01*
X75702607Y-82260482D02*
X75702607Y-82331911D01*
X75702607Y-82331911D02*
X75678798Y-82379530D01*
X75678798Y-82379530D02*
X75654988Y-82403340D01*
X75654988Y-82403340D02*
X75607369Y-82427149D01*
X75607369Y-82427149D02*
X75416893Y-82427149D01*
X75416893Y-82427149D02*
X75416893Y-81927149D01*
X75416893Y-81927149D02*
X75583560Y-81927149D01*
X75583560Y-81927149D02*
X75631179Y-81950959D01*
X75631179Y-81950959D02*
X75654988Y-81974768D01*
X75654988Y-81974768D02*
X75678798Y-82022387D01*
X75678798Y-82022387D02*
X75678798Y-82070006D01*
X75678798Y-82070006D02*
X75654988Y-82117625D01*
X75654988Y-82117625D02*
X75631179Y-82141435D01*
X75631179Y-82141435D02*
X75583560Y-82165244D01*
X75583560Y-82165244D02*
X75416893Y-82165244D01*
X75893084Y-82284292D02*
X76131179Y-82284292D01*
X75845465Y-82427149D02*
X76012131Y-81927149D01*
X76012131Y-81927149D02*
X76178798Y-82427149D01*
X76274036Y-81927149D02*
X76559750Y-81927149D01*
X76416893Y-82427149D02*
X76416893Y-81927149D01*
X91667040Y-107335511D02*
X91690850Y-107287892D01*
X91690850Y-107287892D02*
X91690850Y-107216463D01*
X91690850Y-107216463D02*
X91667040Y-107145035D01*
X91667040Y-107145035D02*
X91619421Y-107097416D01*
X91619421Y-107097416D02*
X91571802Y-107073606D01*
X91571802Y-107073606D02*
X91476564Y-107049797D01*
X91476564Y-107049797D02*
X91405136Y-107049797D01*
X91405136Y-107049797D02*
X91309898Y-107073606D01*
X91309898Y-107073606D02*
X91262279Y-107097416D01*
X91262279Y-107097416D02*
X91214660Y-107145035D01*
X91214660Y-107145035D02*
X91190850Y-107216463D01*
X91190850Y-107216463D02*
X91190850Y-107264082D01*
X91190850Y-107264082D02*
X91214660Y-107335511D01*
X91214660Y-107335511D02*
X91238469Y-107359320D01*
X91238469Y-107359320D02*
X91405136Y-107359320D01*
X91405136Y-107359320D02*
X91405136Y-107264082D01*
X91190850Y-107573606D02*
X91690850Y-107573606D01*
X91690850Y-107573606D02*
X91190850Y-107859320D01*
X91190850Y-107859320D02*
X91690850Y-107859320D01*
X91190850Y-108097416D02*
X91690850Y-108097416D01*
X91690850Y-108097416D02*
X91690850Y-108216464D01*
X91690850Y-108216464D02*
X91667040Y-108287892D01*
X91667040Y-108287892D02*
X91619421Y-108335511D01*
X91619421Y-108335511D02*
X91571802Y-108359321D01*
X91571802Y-108359321D02*
X91476564Y-108383130D01*
X91476564Y-108383130D02*
X91405136Y-108383130D01*
X91405136Y-108383130D02*
X91309898Y-108359321D01*
X91309898Y-108359321D02*
X91262279Y-108335511D01*
X91262279Y-108335511D02*
X91214660Y-108287892D01*
X91214660Y-108287892D02*
X91190850Y-108216464D01*
X91190850Y-108216464D02*
X91190850Y-108097416D01*
X84190850Y-107466465D02*
X84190850Y-107775989D01*
X84190850Y-107775989D02*
X84000374Y-107609322D01*
X84000374Y-107609322D02*
X84000374Y-107680751D01*
X84000374Y-107680751D02*
X83976564Y-107728370D01*
X83976564Y-107728370D02*
X83952755Y-107752179D01*
X83952755Y-107752179D02*
X83905136Y-107775989D01*
X83905136Y-107775989D02*
X83786088Y-107775989D01*
X83786088Y-107775989D02*
X83738469Y-107752179D01*
X83738469Y-107752179D02*
X83714660Y-107728370D01*
X83714660Y-107728370D02*
X83690850Y-107680751D01*
X83690850Y-107680751D02*
X83690850Y-107537894D01*
X83690850Y-107537894D02*
X83714660Y-107490275D01*
X83714660Y-107490275D02*
X83738469Y-107466465D01*
X84024183Y-107942655D02*
X83690850Y-108061703D01*
X83690850Y-108061703D02*
X84024183Y-108180750D01*
X84190850Y-108323607D02*
X84190850Y-108633131D01*
X84190850Y-108633131D02*
X84000374Y-108466464D01*
X84000374Y-108466464D02*
X84000374Y-108537893D01*
X84000374Y-108537893D02*
X83976564Y-108585512D01*
X83976564Y-108585512D02*
X83952755Y-108609321D01*
X83952755Y-108609321D02*
X83905136Y-108633131D01*
X83905136Y-108633131D02*
X83786088Y-108633131D01*
X83786088Y-108633131D02*
X83738469Y-108609321D01*
X83738469Y-108609321D02*
X83714660Y-108585512D01*
X83714660Y-108585512D02*
X83690850Y-108537893D01*
X83690850Y-108537893D02*
X83690850Y-108395036D01*
X83690850Y-108395036D02*
X83714660Y-108347417D01*
X83714660Y-108347417D02*
X83738469Y-108323607D01*
X88833707Y-106645036D02*
X88833707Y-106883131D01*
X88690850Y-106597417D02*
X89190850Y-106764083D01*
X89190850Y-106764083D02*
X88690850Y-106930750D01*
X88690850Y-107097416D02*
X89190850Y-107097416D01*
X89190850Y-107097416D02*
X89190850Y-107216464D01*
X89190850Y-107216464D02*
X89167040Y-107287892D01*
X89167040Y-107287892D02*
X89119421Y-107335511D01*
X89119421Y-107335511D02*
X89071802Y-107359321D01*
X89071802Y-107359321D02*
X88976564Y-107383130D01*
X88976564Y-107383130D02*
X88905136Y-107383130D01*
X88905136Y-107383130D02*
X88809898Y-107359321D01*
X88809898Y-107359321D02*
X88762279Y-107335511D01*
X88762279Y-107335511D02*
X88714660Y-107287892D01*
X88714660Y-107287892D02*
X88690850Y-107216464D01*
X88690850Y-107216464D02*
X88690850Y-107097416D01*
X88690850Y-107597416D02*
X89190850Y-107597416D01*
X89190850Y-107597416D02*
X89190850Y-107716464D01*
X89190850Y-107716464D02*
X89167040Y-107787892D01*
X89167040Y-107787892D02*
X89119421Y-107835511D01*
X89119421Y-107835511D02*
X89071802Y-107859321D01*
X89071802Y-107859321D02*
X88976564Y-107883130D01*
X88976564Y-107883130D02*
X88905136Y-107883130D01*
X88905136Y-107883130D02*
X88809898Y-107859321D01*
X88809898Y-107859321D02*
X88762279Y-107835511D01*
X88762279Y-107835511D02*
X88714660Y-107787892D01*
X88714660Y-107787892D02*
X88690850Y-107716464D01*
X88690850Y-107716464D02*
X88690850Y-107597416D01*
X88690850Y-108383130D02*
X88928945Y-108216464D01*
X88690850Y-108097416D02*
X89190850Y-108097416D01*
X89190850Y-108097416D02*
X89190850Y-108287892D01*
X89190850Y-108287892D02*
X89167040Y-108335511D01*
X89167040Y-108335511D02*
X89143231Y-108359321D01*
X89143231Y-108359321D02*
X89095612Y-108383130D01*
X89095612Y-108383130D02*
X89024183Y-108383130D01*
X89024183Y-108383130D02*
X88976564Y-108359321D01*
X88976564Y-108359321D02*
X88952755Y-108335511D01*
X88952755Y-108335511D02*
X88928945Y-108287892D01*
X88928945Y-108287892D02*
X88928945Y-108097416D01*
X86333707Y-106645036D02*
X86333707Y-106883131D01*
X86190850Y-106597417D02*
X86690850Y-106764083D01*
X86690850Y-106764083D02*
X86190850Y-106930750D01*
X86190850Y-107097416D02*
X86690850Y-107097416D01*
X86690850Y-107097416D02*
X86690850Y-107216464D01*
X86690850Y-107216464D02*
X86667040Y-107287892D01*
X86667040Y-107287892D02*
X86619421Y-107335511D01*
X86619421Y-107335511D02*
X86571802Y-107359321D01*
X86571802Y-107359321D02*
X86476564Y-107383130D01*
X86476564Y-107383130D02*
X86405136Y-107383130D01*
X86405136Y-107383130D02*
X86309898Y-107359321D01*
X86309898Y-107359321D02*
X86262279Y-107335511D01*
X86262279Y-107335511D02*
X86214660Y-107287892D01*
X86214660Y-107287892D02*
X86190850Y-107216464D01*
X86190850Y-107216464D02*
X86190850Y-107097416D01*
X86190850Y-107597416D02*
X86690850Y-107597416D01*
X86690850Y-107597416D02*
X86690850Y-107716464D01*
X86690850Y-107716464D02*
X86667040Y-107787892D01*
X86667040Y-107787892D02*
X86619421Y-107835511D01*
X86619421Y-107835511D02*
X86571802Y-107859321D01*
X86571802Y-107859321D02*
X86476564Y-107883130D01*
X86476564Y-107883130D02*
X86405136Y-107883130D01*
X86405136Y-107883130D02*
X86309898Y-107859321D01*
X86309898Y-107859321D02*
X86262279Y-107835511D01*
X86262279Y-107835511D02*
X86214660Y-107787892D01*
X86214660Y-107787892D02*
X86190850Y-107716464D01*
X86190850Y-107716464D02*
X86190850Y-107597416D01*
X86190850Y-108383130D02*
X86428945Y-108216464D01*
X86190850Y-108097416D02*
X86690850Y-108097416D01*
X86690850Y-108097416D02*
X86690850Y-108287892D01*
X86690850Y-108287892D02*
X86667040Y-108335511D01*
X86667040Y-108335511D02*
X86643231Y-108359321D01*
X86643231Y-108359321D02*
X86595612Y-108383130D01*
X86595612Y-108383130D02*
X86524183Y-108383130D01*
X86524183Y-108383130D02*
X86476564Y-108359321D01*
X86476564Y-108359321D02*
X86452755Y-108335511D01*
X86452755Y-108335511D02*
X86428945Y-108287892D01*
X86428945Y-108287892D02*
X86428945Y-108097416D01*
X43138572Y-54984649D02*
X43305238Y-55484649D01*
X43305238Y-55484649D02*
X43471905Y-54984649D01*
X43614762Y-55460840D02*
X43686190Y-55484649D01*
X43686190Y-55484649D02*
X43805238Y-55484649D01*
X43805238Y-55484649D02*
X43852857Y-55460840D01*
X43852857Y-55460840D02*
X43876666Y-55437030D01*
X43876666Y-55437030D02*
X43900476Y-55389411D01*
X43900476Y-55389411D02*
X43900476Y-55341792D01*
X43900476Y-55341792D02*
X43876666Y-55294173D01*
X43876666Y-55294173D02*
X43852857Y-55270363D01*
X43852857Y-55270363D02*
X43805238Y-55246554D01*
X43805238Y-55246554D02*
X43710000Y-55222744D01*
X43710000Y-55222744D02*
X43662381Y-55198935D01*
X43662381Y-55198935D02*
X43638571Y-55175125D01*
X43638571Y-55175125D02*
X43614762Y-55127506D01*
X43614762Y-55127506D02*
X43614762Y-55079887D01*
X43614762Y-55079887D02*
X43638571Y-55032268D01*
X43638571Y-55032268D02*
X43662381Y-55008459D01*
X43662381Y-55008459D02*
X43710000Y-54984649D01*
X43710000Y-54984649D02*
X43829047Y-54984649D01*
X43829047Y-54984649D02*
X43900476Y-55008459D01*
X44114761Y-55222744D02*
X44281428Y-55222744D01*
X44352856Y-55484649D02*
X44114761Y-55484649D01*
X44114761Y-55484649D02*
X44114761Y-54984649D01*
X44114761Y-54984649D02*
X44352856Y-54984649D01*
X44495714Y-54984649D02*
X44781428Y-54984649D01*
X44638571Y-55484649D02*
X44638571Y-54984649D01*
X38329047Y-61819649D02*
X38329047Y-61319649D01*
X38329047Y-61319649D02*
X38519523Y-61319649D01*
X38519523Y-61319649D02*
X38567142Y-61343459D01*
X38567142Y-61343459D02*
X38590952Y-61367268D01*
X38590952Y-61367268D02*
X38614761Y-61414887D01*
X38614761Y-61414887D02*
X38614761Y-61486316D01*
X38614761Y-61486316D02*
X38590952Y-61533935D01*
X38590952Y-61533935D02*
X38567142Y-61557744D01*
X38567142Y-61557744D02*
X38519523Y-61581554D01*
X38519523Y-61581554D02*
X38329047Y-61581554D01*
X39090952Y-61343459D02*
X39043333Y-61319649D01*
X39043333Y-61319649D02*
X38971904Y-61319649D01*
X38971904Y-61319649D02*
X38900476Y-61343459D01*
X38900476Y-61343459D02*
X38852857Y-61391078D01*
X38852857Y-61391078D02*
X38829047Y-61438697D01*
X38829047Y-61438697D02*
X38805238Y-61533935D01*
X38805238Y-61533935D02*
X38805238Y-61605363D01*
X38805238Y-61605363D02*
X38829047Y-61700601D01*
X38829047Y-61700601D02*
X38852857Y-61748220D01*
X38852857Y-61748220D02*
X38900476Y-61795840D01*
X38900476Y-61795840D02*
X38971904Y-61819649D01*
X38971904Y-61819649D02*
X39019523Y-61819649D01*
X39019523Y-61819649D02*
X39090952Y-61795840D01*
X39090952Y-61795840D02*
X39114761Y-61772030D01*
X39114761Y-61772030D02*
X39114761Y-61605363D01*
X39114761Y-61605363D02*
X39019523Y-61605363D01*
X80233350Y-96350477D02*
X80233350Y-96064763D01*
X80233350Y-96207620D02*
X80733350Y-96207620D01*
X80733350Y-96207620D02*
X80661921Y-96160001D01*
X80661921Y-96160001D02*
X80614302Y-96112382D01*
X80614302Y-96112382D02*
X80590493Y-96064763D01*
X80685731Y-96540953D02*
X80709540Y-96564762D01*
X80709540Y-96564762D02*
X80733350Y-96612381D01*
X80733350Y-96612381D02*
X80733350Y-96731429D01*
X80733350Y-96731429D02*
X80709540Y-96779048D01*
X80709540Y-96779048D02*
X80685731Y-96802857D01*
X80685731Y-96802857D02*
X80638112Y-96826667D01*
X80638112Y-96826667D02*
X80590493Y-96826667D01*
X80590493Y-96826667D02*
X80519064Y-96802857D01*
X80519064Y-96802857D02*
X80233350Y-96517143D01*
X80233350Y-96517143D02*
X80233350Y-96826667D01*
X80733350Y-96969524D02*
X80233350Y-97136190D01*
X80233350Y-97136190D02*
X80733350Y-97302857D01*
X50876666Y-55484649D02*
X50710000Y-55246554D01*
X50590952Y-55484649D02*
X50590952Y-54984649D01*
X50590952Y-54984649D02*
X50781428Y-54984649D01*
X50781428Y-54984649D02*
X50829047Y-55008459D01*
X50829047Y-55008459D02*
X50852857Y-55032268D01*
X50852857Y-55032268D02*
X50876666Y-55079887D01*
X50876666Y-55079887D02*
X50876666Y-55151316D01*
X50876666Y-55151316D02*
X50852857Y-55198935D01*
X50852857Y-55198935D02*
X50829047Y-55222744D01*
X50829047Y-55222744D02*
X50781428Y-55246554D01*
X50781428Y-55246554D02*
X50590952Y-55246554D01*
X51090952Y-55222744D02*
X51257619Y-55222744D01*
X51329047Y-55484649D02*
X51090952Y-55484649D01*
X51090952Y-55484649D02*
X51090952Y-54984649D01*
X51090952Y-54984649D02*
X51329047Y-54984649D01*
X51805238Y-55008459D02*
X51757619Y-54984649D01*
X51757619Y-54984649D02*
X51686190Y-54984649D01*
X51686190Y-54984649D02*
X51614762Y-55008459D01*
X51614762Y-55008459D02*
X51567143Y-55056078D01*
X51567143Y-55056078D02*
X51543333Y-55103697D01*
X51543333Y-55103697D02*
X51519524Y-55198935D01*
X51519524Y-55198935D02*
X51519524Y-55270363D01*
X51519524Y-55270363D02*
X51543333Y-55365601D01*
X51543333Y-55365601D02*
X51567143Y-55413220D01*
X51567143Y-55413220D02*
X51614762Y-55460840D01*
X51614762Y-55460840D02*
X51686190Y-55484649D01*
X51686190Y-55484649D02*
X51733809Y-55484649D01*
X51733809Y-55484649D02*
X51805238Y-55460840D01*
X51805238Y-55460840D02*
X51829047Y-55437030D01*
X51829047Y-55437030D02*
X51829047Y-55270363D01*
X51829047Y-55270363D02*
X51733809Y-55270363D01*
X52043333Y-55484649D02*
X52043333Y-54984649D01*
X52043333Y-54984649D02*
X52329047Y-55484649D01*
X52329047Y-55484649D02*
X52329047Y-54984649D01*
X35065910Y-22480680D02*
X35565910Y-22314014D01*
X35565910Y-22314014D02*
X35065910Y-22147347D01*
X35542101Y-22004490D02*
X35565910Y-21933062D01*
X35565910Y-21933062D02*
X35565910Y-21814014D01*
X35565910Y-21814014D02*
X35542101Y-21766395D01*
X35542101Y-21766395D02*
X35518291Y-21742586D01*
X35518291Y-21742586D02*
X35470672Y-21718776D01*
X35470672Y-21718776D02*
X35423053Y-21718776D01*
X35423053Y-21718776D02*
X35375434Y-21742586D01*
X35375434Y-21742586D02*
X35351624Y-21766395D01*
X35351624Y-21766395D02*
X35327815Y-21814014D01*
X35327815Y-21814014D02*
X35304005Y-21909252D01*
X35304005Y-21909252D02*
X35280196Y-21956871D01*
X35280196Y-21956871D02*
X35256386Y-21980681D01*
X35256386Y-21980681D02*
X35208767Y-22004490D01*
X35208767Y-22004490D02*
X35161148Y-22004490D01*
X35161148Y-22004490D02*
X35113529Y-21980681D01*
X35113529Y-21980681D02*
X35089720Y-21956871D01*
X35089720Y-21956871D02*
X35065910Y-21909252D01*
X35065910Y-21909252D02*
X35065910Y-21790205D01*
X35065910Y-21790205D02*
X35089720Y-21718776D01*
X35327815Y-21409253D02*
X35565910Y-21409253D01*
X35065910Y-21575919D02*
X35327815Y-21409253D01*
X35327815Y-21409253D02*
X35065910Y-21242586D01*
X35542101Y-21099729D02*
X35565910Y-21028301D01*
X35565910Y-21028301D02*
X35565910Y-20909253D01*
X35565910Y-20909253D02*
X35542101Y-20861634D01*
X35542101Y-20861634D02*
X35518291Y-20837825D01*
X35518291Y-20837825D02*
X35470672Y-20814015D01*
X35470672Y-20814015D02*
X35423053Y-20814015D01*
X35423053Y-20814015D02*
X35375434Y-20837825D01*
X35375434Y-20837825D02*
X35351624Y-20861634D01*
X35351624Y-20861634D02*
X35327815Y-20909253D01*
X35327815Y-20909253D02*
X35304005Y-21004491D01*
X35304005Y-21004491D02*
X35280196Y-21052110D01*
X35280196Y-21052110D02*
X35256386Y-21075920D01*
X35256386Y-21075920D02*
X35208767Y-21099729D01*
X35208767Y-21099729D02*
X35161148Y-21099729D01*
X35161148Y-21099729D02*
X35113529Y-21075920D01*
X35113529Y-21075920D02*
X35089720Y-21052110D01*
X35089720Y-21052110D02*
X35065910Y-21004491D01*
X35065910Y-21004491D02*
X35065910Y-20885444D01*
X35065910Y-20885444D02*
X35089720Y-20814015D01*
X105082850Y-92700250D02*
X104582850Y-92866916D01*
X104582850Y-92866916D02*
X105082850Y-93033583D01*
X104606660Y-93176440D02*
X104582850Y-93247868D01*
X104582850Y-93247868D02*
X104582850Y-93366916D01*
X104582850Y-93366916D02*
X104606660Y-93414535D01*
X104606660Y-93414535D02*
X104630469Y-93438344D01*
X104630469Y-93438344D02*
X104678088Y-93462154D01*
X104678088Y-93462154D02*
X104725707Y-93462154D01*
X104725707Y-93462154D02*
X104773326Y-93438344D01*
X104773326Y-93438344D02*
X104797136Y-93414535D01*
X104797136Y-93414535D02*
X104820945Y-93366916D01*
X104820945Y-93366916D02*
X104844755Y-93271678D01*
X104844755Y-93271678D02*
X104868564Y-93224059D01*
X104868564Y-93224059D02*
X104892374Y-93200249D01*
X104892374Y-93200249D02*
X104939993Y-93176440D01*
X104939993Y-93176440D02*
X104987612Y-93176440D01*
X104987612Y-93176440D02*
X105035231Y-93200249D01*
X105035231Y-93200249D02*
X105059040Y-93224059D01*
X105059040Y-93224059D02*
X105082850Y-93271678D01*
X105082850Y-93271678D02*
X105082850Y-93390725D01*
X105082850Y-93390725D02*
X105059040Y-93462154D01*
X104844755Y-93676439D02*
X104844755Y-93843106D01*
X104582850Y-93914534D02*
X104582850Y-93676439D01*
X104582850Y-93676439D02*
X105082850Y-93676439D01*
X105082850Y-93676439D02*
X105082850Y-93914534D01*
X105082850Y-94057392D02*
X105082850Y-94343106D01*
X104582850Y-94200249D02*
X105082850Y-94200249D01*
X34315910Y-22147347D02*
X34315910Y-22433061D01*
X34315910Y-22290204D02*
X33815910Y-22290204D01*
X33815910Y-22290204D02*
X33887339Y-22337823D01*
X33887339Y-22337823D02*
X33934958Y-22385442D01*
X33934958Y-22385442D02*
X33958767Y-22433061D01*
X33863529Y-21956871D02*
X33839720Y-21933062D01*
X33839720Y-21933062D02*
X33815910Y-21885443D01*
X33815910Y-21885443D02*
X33815910Y-21766395D01*
X33815910Y-21766395D02*
X33839720Y-21718776D01*
X33839720Y-21718776D02*
X33863529Y-21694967D01*
X33863529Y-21694967D02*
X33911148Y-21671157D01*
X33911148Y-21671157D02*
X33958767Y-21671157D01*
X33958767Y-21671157D02*
X34030196Y-21694967D01*
X34030196Y-21694967D02*
X34315910Y-21980681D01*
X34315910Y-21980681D02*
X34315910Y-21671157D01*
X33815910Y-21528300D02*
X34315910Y-21361634D01*
X34315910Y-21361634D02*
X33815910Y-21194967D01*
X45840953Y-61557744D02*
X45912381Y-61581554D01*
X45912381Y-61581554D02*
X45936191Y-61605363D01*
X45936191Y-61605363D02*
X45960000Y-61652982D01*
X45960000Y-61652982D02*
X45960000Y-61724411D01*
X45960000Y-61724411D02*
X45936191Y-61772030D01*
X45936191Y-61772030D02*
X45912381Y-61795840D01*
X45912381Y-61795840D02*
X45864762Y-61819649D01*
X45864762Y-61819649D02*
X45674286Y-61819649D01*
X45674286Y-61819649D02*
X45674286Y-61319649D01*
X45674286Y-61319649D02*
X45840953Y-61319649D01*
X45840953Y-61319649D02*
X45888572Y-61343459D01*
X45888572Y-61343459D02*
X45912381Y-61367268D01*
X45912381Y-61367268D02*
X45936191Y-61414887D01*
X45936191Y-61414887D02*
X45936191Y-61462506D01*
X45936191Y-61462506D02*
X45912381Y-61510125D01*
X45912381Y-61510125D02*
X45888572Y-61533935D01*
X45888572Y-61533935D02*
X45840953Y-61557744D01*
X45840953Y-61557744D02*
X45674286Y-61557744D01*
X46150477Y-61676792D02*
X46388572Y-61676792D01*
X46102858Y-61819649D02*
X46269524Y-61319649D01*
X46269524Y-61319649D02*
X46436191Y-61819649D01*
X46531429Y-61319649D02*
X46817143Y-61319649D01*
X46674286Y-61819649D02*
X46674286Y-61319649D01*
X35471906Y-61795840D02*
X35543334Y-61819649D01*
X35543334Y-61819649D02*
X35662382Y-61819649D01*
X35662382Y-61819649D02*
X35710001Y-61795840D01*
X35710001Y-61795840D02*
X35733810Y-61772030D01*
X35733810Y-61772030D02*
X35757620Y-61724411D01*
X35757620Y-61724411D02*
X35757620Y-61676792D01*
X35757620Y-61676792D02*
X35733810Y-61629173D01*
X35733810Y-61629173D02*
X35710001Y-61605363D01*
X35710001Y-61605363D02*
X35662382Y-61581554D01*
X35662382Y-61581554D02*
X35567144Y-61557744D01*
X35567144Y-61557744D02*
X35519525Y-61533935D01*
X35519525Y-61533935D02*
X35495715Y-61510125D01*
X35495715Y-61510125D02*
X35471906Y-61462506D01*
X35471906Y-61462506D02*
X35471906Y-61414887D01*
X35471906Y-61414887D02*
X35495715Y-61367268D01*
X35495715Y-61367268D02*
X35519525Y-61343459D01*
X35519525Y-61343459D02*
X35567144Y-61319649D01*
X35567144Y-61319649D02*
X35686191Y-61319649D01*
X35686191Y-61319649D02*
X35757620Y-61343459D01*
X35900477Y-61319649D02*
X36186191Y-61319649D01*
X36043334Y-61819649D02*
X36043334Y-61319649D01*
X36329048Y-61676792D02*
X36567143Y-61676792D01*
X36281429Y-61819649D02*
X36448095Y-61319649D01*
X36448095Y-61319649D02*
X36614762Y-61819649D01*
X36710000Y-61319649D02*
X36995714Y-61319649D01*
X36852857Y-61819649D02*
X36852857Y-61319649D01*
X60944720Y-22217347D02*
X60920910Y-22264966D01*
X60920910Y-22264966D02*
X60920910Y-22336395D01*
X60920910Y-22336395D02*
X60944720Y-22407823D01*
X60944720Y-22407823D02*
X60992339Y-22455442D01*
X60992339Y-22455442D02*
X61039958Y-22479252D01*
X61039958Y-22479252D02*
X61135196Y-22503061D01*
X61135196Y-22503061D02*
X61206624Y-22503061D01*
X61206624Y-22503061D02*
X61301862Y-22479252D01*
X61301862Y-22479252D02*
X61349481Y-22455442D01*
X61349481Y-22455442D02*
X61397101Y-22407823D01*
X61397101Y-22407823D02*
X61420910Y-22336395D01*
X61420910Y-22336395D02*
X61420910Y-22288776D01*
X61420910Y-22288776D02*
X61397101Y-22217347D01*
X61397101Y-22217347D02*
X61373291Y-22193538D01*
X61373291Y-22193538D02*
X61206624Y-22193538D01*
X61206624Y-22193538D02*
X61206624Y-22288776D01*
X61420910Y-21979252D02*
X60920910Y-21979252D01*
X60920910Y-21979252D02*
X61420910Y-21693538D01*
X61420910Y-21693538D02*
X60920910Y-21693538D01*
X61420910Y-21455442D02*
X60920910Y-21455442D01*
X60920910Y-21455442D02*
X60920910Y-21336394D01*
X60920910Y-21336394D02*
X60944720Y-21264966D01*
X60944720Y-21264966D02*
X60992339Y-21217347D01*
X60992339Y-21217347D02*
X61039958Y-21193537D01*
X61039958Y-21193537D02*
X61135196Y-21169728D01*
X61135196Y-21169728D02*
X61206624Y-21169728D01*
X61206624Y-21169728D02*
X61301862Y-21193537D01*
X61301862Y-21193537D02*
X61349481Y-21217347D01*
X61349481Y-21217347D02*
X61397101Y-21264966D01*
X61397101Y-21264966D02*
X61420910Y-21336394D01*
X61420910Y-21336394D02*
X61420910Y-21455442D01*
X81690850Y-103607369D02*
X81190850Y-103774035D01*
X81190850Y-103774035D02*
X81690850Y-103940702D01*
X81381326Y-104107368D02*
X81381326Y-104488321D01*
X53424285Y-61819649D02*
X53424285Y-61319649D01*
X53424285Y-61319649D02*
X53614761Y-61319649D01*
X53614761Y-61319649D02*
X53662380Y-61343459D01*
X53662380Y-61343459D02*
X53686190Y-61367268D01*
X53686190Y-61367268D02*
X53709999Y-61414887D01*
X53709999Y-61414887D02*
X53709999Y-61486316D01*
X53709999Y-61486316D02*
X53686190Y-61533935D01*
X53686190Y-61533935D02*
X53662380Y-61557744D01*
X53662380Y-61557744D02*
X53614761Y-61581554D01*
X53614761Y-61581554D02*
X53424285Y-61581554D01*
X53924285Y-61819649D02*
X53924285Y-61319649D01*
X53924285Y-61319649D02*
X54090952Y-61676792D01*
X54090952Y-61676792D02*
X54257618Y-61319649D01*
X54257618Y-61319649D02*
X54257618Y-61819649D01*
X54495714Y-61819649D02*
X54495714Y-61319649D01*
X54733809Y-61819649D02*
X54733809Y-61319649D01*
X54733809Y-61319649D02*
X54852857Y-61319649D01*
X54852857Y-61319649D02*
X54924285Y-61343459D01*
X54924285Y-61343459D02*
X54971904Y-61391078D01*
X54971904Y-61391078D02*
X54995714Y-61438697D01*
X54995714Y-61438697D02*
X55019523Y-61533935D01*
X55019523Y-61533935D02*
X55019523Y-61605363D01*
X55019523Y-61605363D02*
X54995714Y-61700601D01*
X54995714Y-61700601D02*
X54971904Y-61748220D01*
X54971904Y-61748220D02*
X54924285Y-61795840D01*
X54924285Y-61795840D02*
X54852857Y-61819649D01*
X54852857Y-61819649D02*
X54733809Y-61819649D01*
X35721904Y-54984649D02*
X35817142Y-54984649D01*
X35817142Y-54984649D02*
X35864761Y-55008459D01*
X35864761Y-55008459D02*
X35912380Y-55056078D01*
X35912380Y-55056078D02*
X35936190Y-55151316D01*
X35936190Y-55151316D02*
X35936190Y-55317982D01*
X35936190Y-55317982D02*
X35912380Y-55413220D01*
X35912380Y-55413220D02*
X35864761Y-55460840D01*
X35864761Y-55460840D02*
X35817142Y-55484649D01*
X35817142Y-55484649D02*
X35721904Y-55484649D01*
X35721904Y-55484649D02*
X35674285Y-55460840D01*
X35674285Y-55460840D02*
X35626666Y-55413220D01*
X35626666Y-55413220D02*
X35602857Y-55317982D01*
X35602857Y-55317982D02*
X35602857Y-55151316D01*
X35602857Y-55151316D02*
X35626666Y-55056078D01*
X35626666Y-55056078D02*
X35674285Y-55008459D01*
X35674285Y-55008459D02*
X35721904Y-54984649D01*
X36079048Y-54984649D02*
X36364762Y-54984649D01*
X36221905Y-55484649D02*
X36221905Y-54984649D01*
X36793333Y-55008459D02*
X36745714Y-54984649D01*
X36745714Y-54984649D02*
X36674285Y-54984649D01*
X36674285Y-54984649D02*
X36602857Y-55008459D01*
X36602857Y-55008459D02*
X36555238Y-55056078D01*
X36555238Y-55056078D02*
X36531428Y-55103697D01*
X36531428Y-55103697D02*
X36507619Y-55198935D01*
X36507619Y-55198935D02*
X36507619Y-55270363D01*
X36507619Y-55270363D02*
X36531428Y-55365601D01*
X36531428Y-55365601D02*
X36555238Y-55413220D01*
X36555238Y-55413220D02*
X36602857Y-55460840D01*
X36602857Y-55460840D02*
X36674285Y-55484649D01*
X36674285Y-55484649D02*
X36721904Y-55484649D01*
X36721904Y-55484649D02*
X36793333Y-55460840D01*
X36793333Y-55460840D02*
X36817142Y-55437030D01*
X36817142Y-55437030D02*
X36817142Y-55270363D01*
X36817142Y-55270363D02*
X36721904Y-55270363D01*
X79190850Y-103607369D02*
X78690850Y-103774035D01*
X78690850Y-103774035D02*
X79190850Y-103940702D01*
X78881326Y-104107368D02*
X78881326Y-104488321D01*
X78690850Y-104297844D02*
X79071802Y-104297844D01*
X30579048Y-61319649D02*
X30745714Y-61819649D01*
X30745714Y-61819649D02*
X30912381Y-61319649D01*
X31055238Y-61676792D02*
X31293333Y-61676792D01*
X31007619Y-61819649D02*
X31174285Y-61319649D01*
X31174285Y-61319649D02*
X31340952Y-61819649D01*
X31793332Y-61772030D02*
X31769523Y-61795840D01*
X31769523Y-61795840D02*
X31698094Y-61819649D01*
X31698094Y-61819649D02*
X31650475Y-61819649D01*
X31650475Y-61819649D02*
X31579047Y-61795840D01*
X31579047Y-61795840D02*
X31531428Y-61748220D01*
X31531428Y-61748220D02*
X31507618Y-61700601D01*
X31507618Y-61700601D02*
X31483809Y-61605363D01*
X31483809Y-61605363D02*
X31483809Y-61533935D01*
X31483809Y-61533935D02*
X31507618Y-61438697D01*
X31507618Y-61438697D02*
X31531428Y-61391078D01*
X31531428Y-61391078D02*
X31579047Y-61343459D01*
X31579047Y-61343459D02*
X31650475Y-61319649D01*
X31650475Y-61319649D02*
X31698094Y-61319649D01*
X31698094Y-61319649D02*
X31769523Y-61343459D01*
X31769523Y-61343459D02*
X31793332Y-61367268D01*
X33269523Y-55484649D02*
X33269523Y-54984649D01*
X33269523Y-54984649D02*
X33388571Y-54984649D01*
X33388571Y-54984649D02*
X33459999Y-55008459D01*
X33459999Y-55008459D02*
X33507618Y-55056078D01*
X33507618Y-55056078D02*
X33531428Y-55103697D01*
X33531428Y-55103697D02*
X33555237Y-55198935D01*
X33555237Y-55198935D02*
X33555237Y-55270363D01*
X33555237Y-55270363D02*
X33531428Y-55365601D01*
X33531428Y-55365601D02*
X33507618Y-55413220D01*
X33507618Y-55413220D02*
X33459999Y-55460840D01*
X33459999Y-55460840D02*
X33388571Y-55484649D01*
X33388571Y-55484649D02*
X33269523Y-55484649D01*
X33769523Y-55294173D02*
X34150476Y-55294173D01*
X66318628Y-104070107D02*
X66080533Y-104236773D01*
X66318628Y-104355821D02*
X65818628Y-104355821D01*
X65818628Y-104355821D02*
X65818628Y-104165345D01*
X65818628Y-104165345D02*
X65842438Y-104117726D01*
X65842438Y-104117726D02*
X65866247Y-104093916D01*
X65866247Y-104093916D02*
X65913866Y-104070107D01*
X65913866Y-104070107D02*
X65985295Y-104070107D01*
X65985295Y-104070107D02*
X66032914Y-104093916D01*
X66032914Y-104093916D02*
X66056723Y-104117726D01*
X66056723Y-104117726D02*
X66080533Y-104165345D01*
X66080533Y-104165345D02*
X66080533Y-104355821D01*
X65818628Y-103903440D02*
X66318628Y-103570107D01*
X65818628Y-103570107D02*
X66318628Y-103903440D01*
X66366247Y-103498679D02*
X66366247Y-103117726D01*
X66318628Y-102736774D02*
X66318628Y-103022488D01*
X66318628Y-102879631D02*
X65818628Y-102879631D01*
X65818628Y-102879631D02*
X65890057Y-102927250D01*
X65890057Y-102927250D02*
X65937676Y-102974869D01*
X65937676Y-102974869D02*
X65961485Y-103022488D01*
X65818628Y-102570108D02*
X65818628Y-102260584D01*
X65818628Y-102260584D02*
X66009104Y-102427251D01*
X66009104Y-102427251D02*
X66009104Y-102355822D01*
X66009104Y-102355822D02*
X66032914Y-102308203D01*
X66032914Y-102308203D02*
X66056723Y-102284394D01*
X66056723Y-102284394D02*
X66104342Y-102260584D01*
X66104342Y-102260584D02*
X66223390Y-102260584D01*
X66223390Y-102260584D02*
X66271009Y-102284394D01*
X66271009Y-102284394D02*
X66294819Y-102308203D01*
X66294819Y-102308203D02*
X66318628Y-102355822D01*
X66318628Y-102355822D02*
X66318628Y-102498679D01*
X66318628Y-102498679D02*
X66294819Y-102546298D01*
X66294819Y-102546298D02*
X66271009Y-102570108D01*
X65818628Y-102117727D02*
X66318628Y-101951061D01*
X66318628Y-101951061D02*
X65818628Y-101784394D01*
X38352857Y-55484649D02*
X38352857Y-54984649D01*
X38829047Y-55484649D02*
X38590952Y-55484649D01*
X38590952Y-55484649D02*
X38590952Y-54984649D01*
X38995714Y-55484649D02*
X38995714Y-54984649D01*
X39233809Y-55484649D02*
X39233809Y-54984649D01*
X39233809Y-54984649D02*
X39400476Y-55341792D01*
X39400476Y-55341792D02*
X39567142Y-54984649D01*
X39567142Y-54984649D02*
X39567142Y-55484649D01*
X32215670Y-91466416D02*
X32215670Y-91752130D01*
X32215670Y-91609273D02*
X31715670Y-91609273D01*
X31715670Y-91609273D02*
X31787099Y-91656892D01*
X31787099Y-91656892D02*
X31834718Y-91704511D01*
X31834718Y-91704511D02*
X31858527Y-91752130D01*
X31763289Y-91275940D02*
X31739480Y-91252131D01*
X31739480Y-91252131D02*
X31715670Y-91204512D01*
X31715670Y-91204512D02*
X31715670Y-91085464D01*
X31715670Y-91085464D02*
X31739480Y-91037845D01*
X31739480Y-91037845D02*
X31763289Y-91014036D01*
X31763289Y-91014036D02*
X31810908Y-90990226D01*
X31810908Y-90990226D02*
X31858527Y-90990226D01*
X31858527Y-90990226D02*
X31929956Y-91014036D01*
X31929956Y-91014036D02*
X32215670Y-91299750D01*
X32215670Y-91299750D02*
X32215670Y-90990226D01*
X31715670Y-90847369D02*
X32215670Y-90680703D01*
X32215670Y-90680703D02*
X31715670Y-90514036D01*
X72318628Y-104427249D02*
X72318628Y-104141535D01*
X72818628Y-104284392D02*
X72318628Y-104284392D01*
X72318628Y-104022488D02*
X72818628Y-103689155D01*
X72318628Y-103689155D02*
X72818628Y-104022488D01*
X72866247Y-103617727D02*
X72866247Y-103236774D01*
X72818628Y-102855822D02*
X72818628Y-103141536D01*
X72818628Y-102998679D02*
X72318628Y-102998679D01*
X72318628Y-102998679D02*
X72390057Y-103046298D01*
X72390057Y-103046298D02*
X72437676Y-103093917D01*
X72437676Y-103093917D02*
X72461485Y-103141536D01*
X72318628Y-102689156D02*
X72318628Y-102379632D01*
X72318628Y-102379632D02*
X72509104Y-102546299D01*
X72509104Y-102546299D02*
X72509104Y-102474870D01*
X72509104Y-102474870D02*
X72532914Y-102427251D01*
X72532914Y-102427251D02*
X72556723Y-102403442D01*
X72556723Y-102403442D02*
X72604342Y-102379632D01*
X72604342Y-102379632D02*
X72723390Y-102379632D01*
X72723390Y-102379632D02*
X72771009Y-102403442D01*
X72771009Y-102403442D02*
X72794819Y-102427251D01*
X72794819Y-102427251D02*
X72818628Y-102474870D01*
X72818628Y-102474870D02*
X72818628Y-102617727D01*
X72818628Y-102617727D02*
X72794819Y-102665346D01*
X72794819Y-102665346D02*
X72771009Y-102689156D01*
X72318628Y-102236775D02*
X72818628Y-102070109D01*
X72818628Y-102070109D02*
X72318628Y-101903442D01*
X87116845Y-51250244D02*
X87188273Y-51274054D01*
X87188273Y-51274054D02*
X87212083Y-51297863D01*
X87212083Y-51297863D02*
X87235892Y-51345482D01*
X87235892Y-51345482D02*
X87235892Y-51416911D01*
X87235892Y-51416911D02*
X87212083Y-51464530D01*
X87212083Y-51464530D02*
X87188273Y-51488340D01*
X87188273Y-51488340D02*
X87140654Y-51512149D01*
X87140654Y-51512149D02*
X86950178Y-51512149D01*
X86950178Y-51512149D02*
X86950178Y-51012149D01*
X86950178Y-51012149D02*
X87116845Y-51012149D01*
X87116845Y-51012149D02*
X87164464Y-51035959D01*
X87164464Y-51035959D02*
X87188273Y-51059768D01*
X87188273Y-51059768D02*
X87212083Y-51107387D01*
X87212083Y-51107387D02*
X87212083Y-51155006D01*
X87212083Y-51155006D02*
X87188273Y-51202625D01*
X87188273Y-51202625D02*
X87164464Y-51226435D01*
X87164464Y-51226435D02*
X87116845Y-51250244D01*
X87116845Y-51250244D02*
X86950178Y-51250244D01*
X87712083Y-51512149D02*
X87426369Y-51512149D01*
X87569226Y-51512149D02*
X87569226Y-51012149D01*
X87569226Y-51012149D02*
X87521607Y-51083578D01*
X87521607Y-51083578D02*
X87473988Y-51131197D01*
X87473988Y-51131197D02*
X87426369Y-51155006D01*
X87926368Y-51321673D02*
X88307321Y-51321673D01*
X96582850Y-89450250D02*
X96082850Y-89616916D01*
X96082850Y-89616916D02*
X96582850Y-89783583D01*
X96582850Y-90045487D02*
X96582850Y-90140725D01*
X96582850Y-90140725D02*
X96559040Y-90188344D01*
X96559040Y-90188344D02*
X96511421Y-90235963D01*
X96511421Y-90235963D02*
X96416183Y-90259773D01*
X96416183Y-90259773D02*
X96249517Y-90259773D01*
X96249517Y-90259773D02*
X96154279Y-90235963D01*
X96154279Y-90235963D02*
X96106660Y-90188344D01*
X96106660Y-90188344D02*
X96082850Y-90140725D01*
X96082850Y-90140725D02*
X96082850Y-90045487D01*
X96082850Y-90045487D02*
X96106660Y-89997868D01*
X96106660Y-89997868D02*
X96154279Y-89950249D01*
X96154279Y-89950249D02*
X96249517Y-89926440D01*
X96249517Y-89926440D02*
X96416183Y-89926440D01*
X96416183Y-89926440D02*
X96511421Y-89950249D01*
X96511421Y-89950249D02*
X96559040Y-89997868D01*
X96559040Y-89997868D02*
X96582850Y-90045487D01*
X96582850Y-90474059D02*
X96178088Y-90474059D01*
X96178088Y-90474059D02*
X96130469Y-90497869D01*
X96130469Y-90497869D02*
X96106660Y-90521678D01*
X96106660Y-90521678D02*
X96082850Y-90569297D01*
X96082850Y-90569297D02*
X96082850Y-90664535D01*
X96082850Y-90664535D02*
X96106660Y-90712154D01*
X96106660Y-90712154D02*
X96130469Y-90735964D01*
X96130469Y-90735964D02*
X96178088Y-90759773D01*
X96178088Y-90759773D02*
X96582850Y-90759773D01*
X96582850Y-90926441D02*
X96582850Y-91212155D01*
X96082850Y-91069298D02*
X96582850Y-91069298D01*
X30489480Y-91466416D02*
X30465670Y-91514035D01*
X30465670Y-91514035D02*
X30465670Y-91585464D01*
X30465670Y-91585464D02*
X30489480Y-91656892D01*
X30489480Y-91656892D02*
X30537099Y-91704511D01*
X30537099Y-91704511D02*
X30584718Y-91728321D01*
X30584718Y-91728321D02*
X30679956Y-91752130D01*
X30679956Y-91752130D02*
X30751384Y-91752130D01*
X30751384Y-91752130D02*
X30846622Y-91728321D01*
X30846622Y-91728321D02*
X30894241Y-91704511D01*
X30894241Y-91704511D02*
X30941861Y-91656892D01*
X30941861Y-91656892D02*
X30965670Y-91585464D01*
X30965670Y-91585464D02*
X30965670Y-91537845D01*
X30965670Y-91537845D02*
X30941861Y-91466416D01*
X30941861Y-91466416D02*
X30918051Y-91442607D01*
X30918051Y-91442607D02*
X30751384Y-91442607D01*
X30751384Y-91442607D02*
X30751384Y-91537845D01*
X30965670Y-91228321D02*
X30465670Y-91228321D01*
X30465670Y-91228321D02*
X30965670Y-90942607D01*
X30965670Y-90942607D02*
X30465670Y-90942607D01*
X30965670Y-90704511D02*
X30465670Y-90704511D01*
X30465670Y-90704511D02*
X30465670Y-90585463D01*
X30465670Y-90585463D02*
X30489480Y-90514035D01*
X30489480Y-90514035D02*
X30537099Y-90466416D01*
X30537099Y-90466416D02*
X30584718Y-90442606D01*
X30584718Y-90442606D02*
X30679956Y-90418797D01*
X30679956Y-90418797D02*
X30751384Y-90418797D01*
X30751384Y-90418797D02*
X30846622Y-90442606D01*
X30846622Y-90442606D02*
X30894241Y-90466416D01*
X30894241Y-90466416D02*
X30941861Y-90514035D01*
X30941861Y-90514035D02*
X30965670Y-90585463D01*
X30965670Y-90585463D02*
X30965670Y-90704511D01*
X62818628Y-108677249D02*
X62818628Y-108391535D01*
X63318628Y-108534392D02*
X62818628Y-108534392D01*
X62818628Y-108272488D02*
X63318628Y-107939155D01*
X62818628Y-107939155D02*
X63318628Y-108272488D01*
X49484144Y-22380680D02*
X49984144Y-22214014D01*
X49984144Y-22214014D02*
X49484144Y-22047347D01*
X49960335Y-21904490D02*
X49984144Y-21833062D01*
X49984144Y-21833062D02*
X49984144Y-21714014D01*
X49984144Y-21714014D02*
X49960335Y-21666395D01*
X49960335Y-21666395D02*
X49936525Y-21642586D01*
X49936525Y-21642586D02*
X49888906Y-21618776D01*
X49888906Y-21618776D02*
X49841287Y-21618776D01*
X49841287Y-21618776D02*
X49793668Y-21642586D01*
X49793668Y-21642586D02*
X49769858Y-21666395D01*
X49769858Y-21666395D02*
X49746049Y-21714014D01*
X49746049Y-21714014D02*
X49722239Y-21809252D01*
X49722239Y-21809252D02*
X49698430Y-21856871D01*
X49698430Y-21856871D02*
X49674620Y-21880681D01*
X49674620Y-21880681D02*
X49627001Y-21904490D01*
X49627001Y-21904490D02*
X49579382Y-21904490D01*
X49579382Y-21904490D02*
X49531763Y-21880681D01*
X49531763Y-21880681D02*
X49507954Y-21856871D01*
X49507954Y-21856871D02*
X49484144Y-21809252D01*
X49484144Y-21809252D02*
X49484144Y-21690205D01*
X49484144Y-21690205D02*
X49507954Y-21618776D01*
X49746049Y-21309253D02*
X49984144Y-21309253D01*
X49484144Y-21475919D02*
X49746049Y-21309253D01*
X49746049Y-21309253D02*
X49484144Y-21142586D01*
X49960335Y-20999729D02*
X49984144Y-20928301D01*
X49984144Y-20928301D02*
X49984144Y-20809253D01*
X49984144Y-20809253D02*
X49960335Y-20761634D01*
X49960335Y-20761634D02*
X49936525Y-20737825D01*
X49936525Y-20737825D02*
X49888906Y-20714015D01*
X49888906Y-20714015D02*
X49841287Y-20714015D01*
X49841287Y-20714015D02*
X49793668Y-20737825D01*
X49793668Y-20737825D02*
X49769858Y-20761634D01*
X49769858Y-20761634D02*
X49746049Y-20809253D01*
X49746049Y-20809253D02*
X49722239Y-20904491D01*
X49722239Y-20904491D02*
X49698430Y-20952110D01*
X49698430Y-20952110D02*
X49674620Y-20975920D01*
X49674620Y-20975920D02*
X49627001Y-20999729D01*
X49627001Y-20999729D02*
X49579382Y-20999729D01*
X49579382Y-20999729D02*
X49531763Y-20975920D01*
X49531763Y-20975920D02*
X49507954Y-20952110D01*
X49507954Y-20952110D02*
X49484144Y-20904491D01*
X49484144Y-20904491D02*
X49484144Y-20785444D01*
X49484144Y-20785444D02*
X49507954Y-20714015D01*
X45864763Y-55460840D02*
X45936191Y-55484649D01*
X45936191Y-55484649D02*
X46055239Y-55484649D01*
X46055239Y-55484649D02*
X46102858Y-55460840D01*
X46102858Y-55460840D02*
X46126667Y-55437030D01*
X46126667Y-55437030D02*
X46150477Y-55389411D01*
X46150477Y-55389411D02*
X46150477Y-55341792D01*
X46150477Y-55341792D02*
X46126667Y-55294173D01*
X46126667Y-55294173D02*
X46102858Y-55270363D01*
X46102858Y-55270363D02*
X46055239Y-55246554D01*
X46055239Y-55246554D02*
X45960001Y-55222744D01*
X45960001Y-55222744D02*
X45912382Y-55198935D01*
X45912382Y-55198935D02*
X45888572Y-55175125D01*
X45888572Y-55175125D02*
X45864763Y-55127506D01*
X45864763Y-55127506D02*
X45864763Y-55079887D01*
X45864763Y-55079887D02*
X45888572Y-55032268D01*
X45888572Y-55032268D02*
X45912382Y-55008459D01*
X45912382Y-55008459D02*
X45960001Y-54984649D01*
X45960001Y-54984649D02*
X46079048Y-54984649D01*
X46079048Y-54984649D02*
X46150477Y-55008459D01*
X46460000Y-55246554D02*
X46460000Y-55484649D01*
X46293334Y-54984649D02*
X46460000Y-55246554D01*
X46460000Y-55246554D02*
X46626667Y-54984649D01*
X46769524Y-55460840D02*
X46840952Y-55484649D01*
X46840952Y-55484649D02*
X46960000Y-55484649D01*
X46960000Y-55484649D02*
X47007619Y-55460840D01*
X47007619Y-55460840D02*
X47031428Y-55437030D01*
X47031428Y-55437030D02*
X47055238Y-55389411D01*
X47055238Y-55389411D02*
X47055238Y-55341792D01*
X47055238Y-55341792D02*
X47031428Y-55294173D01*
X47031428Y-55294173D02*
X47007619Y-55270363D01*
X47007619Y-55270363D02*
X46960000Y-55246554D01*
X46960000Y-55246554D02*
X46864762Y-55222744D01*
X46864762Y-55222744D02*
X46817143Y-55198935D01*
X46817143Y-55198935D02*
X46793333Y-55175125D01*
X46793333Y-55175125D02*
X46769524Y-55127506D01*
X46769524Y-55127506D02*
X46769524Y-55079887D01*
X46769524Y-55079887D02*
X46793333Y-55032268D01*
X46793333Y-55032268D02*
X46817143Y-55008459D01*
X46817143Y-55008459D02*
X46864762Y-54984649D01*
X46864762Y-54984649D02*
X46983809Y-54984649D01*
X46983809Y-54984649D02*
X47055238Y-55008459D01*
X48234144Y-22071157D02*
X48234144Y-22309252D01*
X48234144Y-22309252D02*
X48472239Y-22333061D01*
X48472239Y-22333061D02*
X48448430Y-22309252D01*
X48448430Y-22309252D02*
X48424620Y-22261633D01*
X48424620Y-22261633D02*
X48424620Y-22142585D01*
X48424620Y-22142585D02*
X48448430Y-22094966D01*
X48448430Y-22094966D02*
X48472239Y-22071157D01*
X48472239Y-22071157D02*
X48519858Y-22047347D01*
X48519858Y-22047347D02*
X48638906Y-22047347D01*
X48638906Y-22047347D02*
X48686525Y-22071157D01*
X48686525Y-22071157D02*
X48710335Y-22094966D01*
X48710335Y-22094966D02*
X48734144Y-22142585D01*
X48734144Y-22142585D02*
X48734144Y-22261633D01*
X48734144Y-22261633D02*
X48710335Y-22309252D01*
X48710335Y-22309252D02*
X48686525Y-22333061D01*
X48234144Y-21904490D02*
X48734144Y-21737824D01*
X48734144Y-21737824D02*
X48234144Y-21571157D01*
X87116845Y-49000244D02*
X87188273Y-49024054D01*
X87188273Y-49024054D02*
X87212083Y-49047863D01*
X87212083Y-49047863D02*
X87235892Y-49095482D01*
X87235892Y-49095482D02*
X87235892Y-49166911D01*
X87235892Y-49166911D02*
X87212083Y-49214530D01*
X87212083Y-49214530D02*
X87188273Y-49238340D01*
X87188273Y-49238340D02*
X87140654Y-49262149D01*
X87140654Y-49262149D02*
X86950178Y-49262149D01*
X86950178Y-49262149D02*
X86950178Y-48762149D01*
X86950178Y-48762149D02*
X87116845Y-48762149D01*
X87116845Y-48762149D02*
X87164464Y-48785959D01*
X87164464Y-48785959D02*
X87188273Y-48809768D01*
X87188273Y-48809768D02*
X87212083Y-48857387D01*
X87212083Y-48857387D02*
X87212083Y-48905006D01*
X87212083Y-48905006D02*
X87188273Y-48952625D01*
X87188273Y-48952625D02*
X87164464Y-48976435D01*
X87164464Y-48976435D02*
X87116845Y-49000244D01*
X87116845Y-49000244D02*
X86950178Y-49000244D01*
X87712083Y-49262149D02*
X87426369Y-49262149D01*
X87569226Y-49262149D02*
X87569226Y-48762149D01*
X87569226Y-48762149D02*
X87521607Y-48833578D01*
X87521607Y-48833578D02*
X87473988Y-48881197D01*
X87473988Y-48881197D02*
X87426369Y-48905006D01*
X87926368Y-49071673D02*
X88307321Y-49071673D01*
X88116844Y-49262149D02*
X88116844Y-48881197D01*
X82694011Y-26828080D02*
X82860677Y-27328080D01*
X82860677Y-27328080D02*
X83027344Y-26828080D01*
X83170201Y-27304271D02*
X83241629Y-27328080D01*
X83241629Y-27328080D02*
X83360677Y-27328080D01*
X83360677Y-27328080D02*
X83408296Y-27304271D01*
X83408296Y-27304271D02*
X83432105Y-27280461D01*
X83432105Y-27280461D02*
X83455915Y-27232842D01*
X83455915Y-27232842D02*
X83455915Y-27185223D01*
X83455915Y-27185223D02*
X83432105Y-27137604D01*
X83432105Y-27137604D02*
X83408296Y-27113794D01*
X83408296Y-27113794D02*
X83360677Y-27089985D01*
X83360677Y-27089985D02*
X83265439Y-27066175D01*
X83265439Y-27066175D02*
X83217820Y-27042366D01*
X83217820Y-27042366D02*
X83194010Y-27018556D01*
X83194010Y-27018556D02*
X83170201Y-26970937D01*
X83170201Y-26970937D02*
X83170201Y-26923318D01*
X83170201Y-26923318D02*
X83194010Y-26875699D01*
X83194010Y-26875699D02*
X83217820Y-26851890D01*
X83217820Y-26851890D02*
X83265439Y-26828080D01*
X83265439Y-26828080D02*
X83384486Y-26828080D01*
X83384486Y-26828080D02*
X83455915Y-26851890D01*
X83765438Y-27089985D02*
X83765438Y-27328080D01*
X83598772Y-26828080D02*
X83765438Y-27089985D01*
X83765438Y-27089985D02*
X83932105Y-26828080D01*
X84074962Y-27304271D02*
X84146390Y-27328080D01*
X84146390Y-27328080D02*
X84265438Y-27328080D01*
X84265438Y-27328080D02*
X84313057Y-27304271D01*
X84313057Y-27304271D02*
X84336866Y-27280461D01*
X84336866Y-27280461D02*
X84360676Y-27232842D01*
X84360676Y-27232842D02*
X84360676Y-27185223D01*
X84360676Y-27185223D02*
X84336866Y-27137604D01*
X84336866Y-27137604D02*
X84313057Y-27113794D01*
X84313057Y-27113794D02*
X84265438Y-27089985D01*
X84265438Y-27089985D02*
X84170200Y-27066175D01*
X84170200Y-27066175D02*
X84122581Y-27042366D01*
X84122581Y-27042366D02*
X84098771Y-27018556D01*
X84098771Y-27018556D02*
X84074962Y-26970937D01*
X84074962Y-26970937D02*
X84074962Y-26923318D01*
X84074962Y-26923318D02*
X84098771Y-26875699D01*
X84098771Y-26875699D02*
X84122581Y-26851890D01*
X84122581Y-26851890D02*
X84170200Y-26828080D01*
X84170200Y-26828080D02*
X84289247Y-26828080D01*
X84289247Y-26828080D02*
X84360676Y-26851890D01*
X80709540Y-101279047D02*
X80733350Y-101231428D01*
X80733350Y-101231428D02*
X80733350Y-101159999D01*
X80733350Y-101159999D02*
X80709540Y-101088571D01*
X80709540Y-101088571D02*
X80661921Y-101040952D01*
X80661921Y-101040952D02*
X80614302Y-101017142D01*
X80614302Y-101017142D02*
X80519064Y-100993333D01*
X80519064Y-100993333D02*
X80447636Y-100993333D01*
X80447636Y-100993333D02*
X80352398Y-101017142D01*
X80352398Y-101017142D02*
X80304779Y-101040952D01*
X80304779Y-101040952D02*
X80257160Y-101088571D01*
X80257160Y-101088571D02*
X80233350Y-101159999D01*
X80233350Y-101159999D02*
X80233350Y-101207618D01*
X80233350Y-101207618D02*
X80257160Y-101279047D01*
X80257160Y-101279047D02*
X80280969Y-101302856D01*
X80280969Y-101302856D02*
X80447636Y-101302856D01*
X80447636Y-101302856D02*
X80447636Y-101207618D01*
X80233350Y-101517142D02*
X80733350Y-101517142D01*
X80733350Y-101517142D02*
X80233350Y-101802856D01*
X80233350Y-101802856D02*
X80733350Y-101802856D01*
X80233350Y-102040952D02*
X80733350Y-102040952D01*
X80733350Y-102040952D02*
X80733350Y-102160000D01*
X80733350Y-102160000D02*
X80709540Y-102231428D01*
X80709540Y-102231428D02*
X80661921Y-102279047D01*
X80661921Y-102279047D02*
X80614302Y-102302857D01*
X80614302Y-102302857D02*
X80519064Y-102326666D01*
X80519064Y-102326666D02*
X80447636Y-102326666D01*
X80447636Y-102326666D02*
X80352398Y-102302857D01*
X80352398Y-102302857D02*
X80304779Y-102279047D01*
X80304779Y-102279047D02*
X80257160Y-102231428D01*
X80257160Y-102231428D02*
X80233350Y-102160000D01*
X80233350Y-102160000D02*
X80233350Y-102040952D01*
X63340910Y-22550680D02*
X63840910Y-22384014D01*
X63840910Y-22384014D02*
X63340910Y-22217347D01*
X63817101Y-22074490D02*
X63840910Y-22003062D01*
X63840910Y-22003062D02*
X63840910Y-21884014D01*
X63840910Y-21884014D02*
X63817101Y-21836395D01*
X63817101Y-21836395D02*
X63793291Y-21812586D01*
X63793291Y-21812586D02*
X63745672Y-21788776D01*
X63745672Y-21788776D02*
X63698053Y-21788776D01*
X63698053Y-21788776D02*
X63650434Y-21812586D01*
X63650434Y-21812586D02*
X63626624Y-21836395D01*
X63626624Y-21836395D02*
X63602815Y-21884014D01*
X63602815Y-21884014D02*
X63579005Y-21979252D01*
X63579005Y-21979252D02*
X63555196Y-22026871D01*
X63555196Y-22026871D02*
X63531386Y-22050681D01*
X63531386Y-22050681D02*
X63483767Y-22074490D01*
X63483767Y-22074490D02*
X63436148Y-22074490D01*
X63436148Y-22074490D02*
X63388529Y-22050681D01*
X63388529Y-22050681D02*
X63364720Y-22026871D01*
X63364720Y-22026871D02*
X63340910Y-21979252D01*
X63340910Y-21979252D02*
X63340910Y-21860205D01*
X63340910Y-21860205D02*
X63364720Y-21788776D01*
X63602815Y-21479253D02*
X63840910Y-21479253D01*
X63340910Y-21645919D02*
X63602815Y-21479253D01*
X63602815Y-21479253D02*
X63340910Y-21312586D01*
X63817101Y-21169729D02*
X63840910Y-21098301D01*
X63840910Y-21098301D02*
X63840910Y-20979253D01*
X63840910Y-20979253D02*
X63817101Y-20931634D01*
X63817101Y-20931634D02*
X63793291Y-20907825D01*
X63793291Y-20907825D02*
X63745672Y-20884015D01*
X63745672Y-20884015D02*
X63698053Y-20884015D01*
X63698053Y-20884015D02*
X63650434Y-20907825D01*
X63650434Y-20907825D02*
X63626624Y-20931634D01*
X63626624Y-20931634D02*
X63602815Y-20979253D01*
X63602815Y-20979253D02*
X63579005Y-21074491D01*
X63579005Y-21074491D02*
X63555196Y-21122110D01*
X63555196Y-21122110D02*
X63531386Y-21145920D01*
X63531386Y-21145920D02*
X63483767Y-21169729D01*
X63483767Y-21169729D02*
X63436148Y-21169729D01*
X63436148Y-21169729D02*
X63388529Y-21145920D01*
X63388529Y-21145920D02*
X63364720Y-21122110D01*
X63364720Y-21122110D02*
X63340910Y-21074491D01*
X63340910Y-21074491D02*
X63340910Y-20955444D01*
X63340910Y-20955444D02*
X63364720Y-20884015D01*
X50876667Y-61557744D02*
X50948095Y-61581554D01*
X50948095Y-61581554D02*
X50971905Y-61605363D01*
X50971905Y-61605363D02*
X50995714Y-61652982D01*
X50995714Y-61652982D02*
X50995714Y-61724411D01*
X50995714Y-61724411D02*
X50971905Y-61772030D01*
X50971905Y-61772030D02*
X50948095Y-61795840D01*
X50948095Y-61795840D02*
X50900476Y-61819649D01*
X50900476Y-61819649D02*
X50710000Y-61819649D01*
X50710000Y-61819649D02*
X50710000Y-61319649D01*
X50710000Y-61319649D02*
X50876667Y-61319649D01*
X50876667Y-61319649D02*
X50924286Y-61343459D01*
X50924286Y-61343459D02*
X50948095Y-61367268D01*
X50948095Y-61367268D02*
X50971905Y-61414887D01*
X50971905Y-61414887D02*
X50971905Y-61462506D01*
X50971905Y-61462506D02*
X50948095Y-61510125D01*
X50948095Y-61510125D02*
X50924286Y-61533935D01*
X50924286Y-61533935D02*
X50876667Y-61557744D01*
X50876667Y-61557744D02*
X50710000Y-61557744D01*
X51138572Y-61319649D02*
X51424286Y-61319649D01*
X51281429Y-61819649D02*
X51281429Y-61319649D01*
X51567143Y-61795840D02*
X51638571Y-61819649D01*
X51638571Y-61819649D02*
X51757619Y-61819649D01*
X51757619Y-61819649D02*
X51805238Y-61795840D01*
X51805238Y-61795840D02*
X51829047Y-61772030D01*
X51829047Y-61772030D02*
X51852857Y-61724411D01*
X51852857Y-61724411D02*
X51852857Y-61676792D01*
X51852857Y-61676792D02*
X51829047Y-61629173D01*
X51829047Y-61629173D02*
X51805238Y-61605363D01*
X51805238Y-61605363D02*
X51757619Y-61581554D01*
X51757619Y-61581554D02*
X51662381Y-61557744D01*
X51662381Y-61557744D02*
X51614762Y-61533935D01*
X51614762Y-61533935D02*
X51590952Y-61510125D01*
X51590952Y-61510125D02*
X51567143Y-61462506D01*
X51567143Y-61462506D02*
X51567143Y-61414887D01*
X51567143Y-61414887D02*
X51590952Y-61367268D01*
X51590952Y-61367268D02*
X51614762Y-61343459D01*
X51614762Y-61343459D02*
X51662381Y-61319649D01*
X51662381Y-61319649D02*
X51781428Y-61319649D01*
X51781428Y-61319649D02*
X51852857Y-61343459D01*
X51995714Y-61319649D02*
X52281428Y-61319649D01*
X52138571Y-61819649D02*
X52138571Y-61319649D01*
X99082850Y-93021678D02*
X99582850Y-93021678D01*
X99106660Y-93235964D02*
X99082850Y-93307392D01*
X99082850Y-93307392D02*
X99082850Y-93426440D01*
X99082850Y-93426440D02*
X99106660Y-93474059D01*
X99106660Y-93474059D02*
X99130469Y-93497868D01*
X99130469Y-93497868D02*
X99178088Y-93521678D01*
X99178088Y-93521678D02*
X99225707Y-93521678D01*
X99225707Y-93521678D02*
X99273326Y-93497868D01*
X99273326Y-93497868D02*
X99297136Y-93474059D01*
X99297136Y-93474059D02*
X99320945Y-93426440D01*
X99320945Y-93426440D02*
X99344755Y-93331202D01*
X99344755Y-93331202D02*
X99368564Y-93283583D01*
X99368564Y-93283583D02*
X99392374Y-93259773D01*
X99392374Y-93259773D02*
X99439993Y-93235964D01*
X99439993Y-93235964D02*
X99487612Y-93235964D01*
X99487612Y-93235964D02*
X99535231Y-93259773D01*
X99535231Y-93259773D02*
X99559040Y-93283583D01*
X99559040Y-93283583D02*
X99582850Y-93331202D01*
X99582850Y-93331202D02*
X99582850Y-93450249D01*
X99582850Y-93450249D02*
X99559040Y-93521678D01*
X99344755Y-93735963D02*
X99344755Y-93902630D01*
X99082850Y-93974058D02*
X99082850Y-93735963D01*
X99082850Y-93735963D02*
X99582850Y-93735963D01*
X99582850Y-93735963D02*
X99582850Y-93974058D01*
X99582850Y-94116916D02*
X99582850Y-94402630D01*
X99082850Y-94259773D02*
X99582850Y-94259773D01*
X87116845Y-61347758D02*
X87188273Y-61371568D01*
X87188273Y-61371568D02*
X87212083Y-61395377D01*
X87212083Y-61395377D02*
X87235892Y-61442996D01*
X87235892Y-61442996D02*
X87235892Y-61514425D01*
X87235892Y-61514425D02*
X87212083Y-61562044D01*
X87212083Y-61562044D02*
X87188273Y-61585854D01*
X87188273Y-61585854D02*
X87140654Y-61609663D01*
X87140654Y-61609663D02*
X86950178Y-61609663D01*
X86950178Y-61609663D02*
X86950178Y-61109663D01*
X86950178Y-61109663D02*
X87116845Y-61109663D01*
X87116845Y-61109663D02*
X87164464Y-61133473D01*
X87164464Y-61133473D02*
X87188273Y-61157282D01*
X87188273Y-61157282D02*
X87212083Y-61204901D01*
X87212083Y-61204901D02*
X87212083Y-61252520D01*
X87212083Y-61252520D02*
X87188273Y-61300139D01*
X87188273Y-61300139D02*
X87164464Y-61323949D01*
X87164464Y-61323949D02*
X87116845Y-61347758D01*
X87116845Y-61347758D02*
X86950178Y-61347758D01*
X87402559Y-61109663D02*
X87712083Y-61109663D01*
X87712083Y-61109663D02*
X87545416Y-61300139D01*
X87545416Y-61300139D02*
X87616845Y-61300139D01*
X87616845Y-61300139D02*
X87664464Y-61323949D01*
X87664464Y-61323949D02*
X87688273Y-61347758D01*
X87688273Y-61347758D02*
X87712083Y-61395377D01*
X87712083Y-61395377D02*
X87712083Y-61514425D01*
X87712083Y-61514425D02*
X87688273Y-61562044D01*
X87688273Y-61562044D02*
X87664464Y-61585854D01*
X87664464Y-61585854D02*
X87616845Y-61609663D01*
X87616845Y-61609663D02*
X87473988Y-61609663D01*
X87473988Y-61609663D02*
X87426369Y-61585854D01*
X87426369Y-61585854D02*
X87402559Y-61562044D01*
X87926368Y-61419187D02*
X88307321Y-61419187D01*
X87283511Y-61938445D02*
X87235892Y-61914635D01*
X87235892Y-61914635D02*
X87164463Y-61914635D01*
X87164463Y-61914635D02*
X87093035Y-61938445D01*
X87093035Y-61938445D02*
X87045416Y-61986064D01*
X87045416Y-61986064D02*
X87021606Y-62033683D01*
X87021606Y-62033683D02*
X86997797Y-62128921D01*
X86997797Y-62128921D02*
X86997797Y-62200349D01*
X86997797Y-62200349D02*
X87021606Y-62295587D01*
X87021606Y-62295587D02*
X87045416Y-62343206D01*
X87045416Y-62343206D02*
X87093035Y-62390826D01*
X87093035Y-62390826D02*
X87164463Y-62414635D01*
X87164463Y-62414635D02*
X87212082Y-62414635D01*
X87212082Y-62414635D02*
X87283511Y-62390826D01*
X87283511Y-62390826D02*
X87307320Y-62367016D01*
X87307320Y-62367016D02*
X87307320Y-62200349D01*
X87307320Y-62200349D02*
X87212082Y-62200349D01*
X87521606Y-62414635D02*
X87521606Y-61914635D01*
X87521606Y-61914635D02*
X87807320Y-62414635D01*
X87807320Y-62414635D02*
X87807320Y-61914635D01*
X88045416Y-62414635D02*
X88045416Y-61914635D01*
X88045416Y-61914635D02*
X88164464Y-61914635D01*
X88164464Y-61914635D02*
X88235892Y-61938445D01*
X88235892Y-61938445D02*
X88283511Y-61986064D01*
X88283511Y-61986064D02*
X88307321Y-62033683D01*
X88307321Y-62033683D02*
X88331130Y-62128921D01*
X88331130Y-62128921D02*
X88331130Y-62200349D01*
X88331130Y-62200349D02*
X88307321Y-62295587D01*
X88307321Y-62295587D02*
X88283511Y-62343206D01*
X88283511Y-62343206D02*
X88235892Y-62390826D01*
X88235892Y-62390826D02*
X88164464Y-62414635D01*
X88164464Y-62414635D02*
X88045416Y-62414635D01*
X72818628Y-108653440D02*
X72818628Y-108343916D01*
X72818628Y-108343916D02*
X73009104Y-108510583D01*
X73009104Y-108510583D02*
X73009104Y-108439154D01*
X73009104Y-108439154D02*
X73032914Y-108391535D01*
X73032914Y-108391535D02*
X73056723Y-108367726D01*
X73056723Y-108367726D02*
X73104342Y-108343916D01*
X73104342Y-108343916D02*
X73223390Y-108343916D01*
X73223390Y-108343916D02*
X73271009Y-108367726D01*
X73271009Y-108367726D02*
X73294819Y-108391535D01*
X73294819Y-108391535D02*
X73318628Y-108439154D01*
X73318628Y-108439154D02*
X73318628Y-108582011D01*
X73318628Y-108582011D02*
X73294819Y-108629630D01*
X73294819Y-108629630D02*
X73271009Y-108653440D01*
X72985295Y-108177250D02*
X73318628Y-108058202D01*
X73318628Y-108058202D02*
X72985295Y-107939155D01*
X72818628Y-107796298D02*
X72818628Y-107486774D01*
X72818628Y-107486774D02*
X73009104Y-107653441D01*
X73009104Y-107653441D02*
X73009104Y-107582012D01*
X73009104Y-107582012D02*
X73032914Y-107534393D01*
X73032914Y-107534393D02*
X73056723Y-107510584D01*
X73056723Y-107510584D02*
X73104342Y-107486774D01*
X73104342Y-107486774D02*
X73223390Y-107486774D01*
X73223390Y-107486774D02*
X73271009Y-107510584D01*
X73271009Y-107510584D02*
X73294819Y-107534393D01*
X73294819Y-107534393D02*
X73318628Y-107582012D01*
X73318628Y-107582012D02*
X73318628Y-107724869D01*
X73318628Y-107724869D02*
X73294819Y-107772488D01*
X73294819Y-107772488D02*
X73271009Y-107796298D01*
X101493583Y-86850959D02*
X101445964Y-86827149D01*
X101445964Y-86827149D02*
X101374535Y-86827149D01*
X101374535Y-86827149D02*
X101303107Y-86850959D01*
X101303107Y-86850959D02*
X101255488Y-86898578D01*
X101255488Y-86898578D02*
X101231678Y-86946197D01*
X101231678Y-86946197D02*
X101207869Y-87041435D01*
X101207869Y-87041435D02*
X101207869Y-87112863D01*
X101207869Y-87112863D02*
X101231678Y-87208101D01*
X101231678Y-87208101D02*
X101255488Y-87255720D01*
X101255488Y-87255720D02*
X101303107Y-87303340D01*
X101303107Y-87303340D02*
X101374535Y-87327149D01*
X101374535Y-87327149D02*
X101422154Y-87327149D01*
X101422154Y-87327149D02*
X101493583Y-87303340D01*
X101493583Y-87303340D02*
X101517392Y-87279530D01*
X101517392Y-87279530D02*
X101517392Y-87112863D01*
X101517392Y-87112863D02*
X101422154Y-87112863D01*
X101731678Y-87327149D02*
X101731678Y-86827149D01*
X101731678Y-86827149D02*
X102017392Y-87327149D01*
X102017392Y-87327149D02*
X102017392Y-86827149D01*
X102255488Y-87327149D02*
X102255488Y-86827149D01*
X102255488Y-86827149D02*
X102374536Y-86827149D01*
X102374536Y-86827149D02*
X102445964Y-86850959D01*
X102445964Y-86850959D02*
X102493583Y-86898578D01*
X102493583Y-86898578D02*
X102517393Y-86946197D01*
X102517393Y-86946197D02*
X102541202Y-87041435D01*
X102541202Y-87041435D02*
X102541202Y-87112863D01*
X102541202Y-87112863D02*
X102517393Y-87208101D01*
X102517393Y-87208101D02*
X102493583Y-87255720D01*
X102493583Y-87255720D02*
X102445964Y-87303340D01*
X102445964Y-87303340D02*
X102374536Y-87327149D01*
X102374536Y-87327149D02*
X102255488Y-87327149D01*
X32965670Y-91799749D02*
X33465670Y-91633083D01*
X33465670Y-91633083D02*
X32965670Y-91466416D01*
X33441861Y-91323559D02*
X33465670Y-91252131D01*
X33465670Y-91252131D02*
X33465670Y-91133083D01*
X33465670Y-91133083D02*
X33441861Y-91085464D01*
X33441861Y-91085464D02*
X33418051Y-91061655D01*
X33418051Y-91061655D02*
X33370432Y-91037845D01*
X33370432Y-91037845D02*
X33322813Y-91037845D01*
X33322813Y-91037845D02*
X33275194Y-91061655D01*
X33275194Y-91061655D02*
X33251384Y-91085464D01*
X33251384Y-91085464D02*
X33227575Y-91133083D01*
X33227575Y-91133083D02*
X33203765Y-91228321D01*
X33203765Y-91228321D02*
X33179956Y-91275940D01*
X33179956Y-91275940D02*
X33156146Y-91299750D01*
X33156146Y-91299750D02*
X33108527Y-91323559D01*
X33108527Y-91323559D02*
X33060908Y-91323559D01*
X33060908Y-91323559D02*
X33013289Y-91299750D01*
X33013289Y-91299750D02*
X32989480Y-91275940D01*
X32989480Y-91275940D02*
X32965670Y-91228321D01*
X32965670Y-91228321D02*
X32965670Y-91109274D01*
X32965670Y-91109274D02*
X32989480Y-91037845D01*
X33227575Y-90728322D02*
X33465670Y-90728322D01*
X32965670Y-90894988D02*
X33227575Y-90728322D01*
X33227575Y-90728322D02*
X32965670Y-90561655D01*
X33441861Y-90418798D02*
X33465670Y-90347370D01*
X33465670Y-90347370D02*
X33465670Y-90228322D01*
X33465670Y-90228322D02*
X33441861Y-90180703D01*
X33441861Y-90180703D02*
X33418051Y-90156894D01*
X33418051Y-90156894D02*
X33370432Y-90133084D01*
X33370432Y-90133084D02*
X33322813Y-90133084D01*
X33322813Y-90133084D02*
X33275194Y-90156894D01*
X33275194Y-90156894D02*
X33251384Y-90180703D01*
X33251384Y-90180703D02*
X33227575Y-90228322D01*
X33227575Y-90228322D02*
X33203765Y-90323560D01*
X33203765Y-90323560D02*
X33179956Y-90371179D01*
X33179956Y-90371179D02*
X33156146Y-90394989D01*
X33156146Y-90394989D02*
X33108527Y-90418798D01*
X33108527Y-90418798D02*
X33060908Y-90418798D01*
X33060908Y-90418798D02*
X33013289Y-90394989D01*
X33013289Y-90394989D02*
X32989480Y-90371179D01*
X32989480Y-90371179D02*
X32965670Y-90323560D01*
X32965670Y-90323560D02*
X32965670Y-90204513D01*
X32965670Y-90204513D02*
X32989480Y-90133084D01*
X87116845Y-58597758D02*
X87188273Y-58621568D01*
X87188273Y-58621568D02*
X87212083Y-58645377D01*
X87212083Y-58645377D02*
X87235892Y-58692996D01*
X87235892Y-58692996D02*
X87235892Y-58764425D01*
X87235892Y-58764425D02*
X87212083Y-58812044D01*
X87212083Y-58812044D02*
X87188273Y-58835854D01*
X87188273Y-58835854D02*
X87140654Y-58859663D01*
X87140654Y-58859663D02*
X86950178Y-58859663D01*
X86950178Y-58859663D02*
X86950178Y-58359663D01*
X86950178Y-58359663D02*
X87116845Y-58359663D01*
X87116845Y-58359663D02*
X87164464Y-58383473D01*
X87164464Y-58383473D02*
X87188273Y-58407282D01*
X87188273Y-58407282D02*
X87212083Y-58454901D01*
X87212083Y-58454901D02*
X87212083Y-58502520D01*
X87212083Y-58502520D02*
X87188273Y-58550139D01*
X87188273Y-58550139D02*
X87164464Y-58573949D01*
X87164464Y-58573949D02*
X87116845Y-58597758D01*
X87116845Y-58597758D02*
X86950178Y-58597758D01*
X87426369Y-58407282D02*
X87450178Y-58383473D01*
X87450178Y-58383473D02*
X87497797Y-58359663D01*
X87497797Y-58359663D02*
X87616845Y-58359663D01*
X87616845Y-58359663D02*
X87664464Y-58383473D01*
X87664464Y-58383473D02*
X87688273Y-58407282D01*
X87688273Y-58407282D02*
X87712083Y-58454901D01*
X87712083Y-58454901D02*
X87712083Y-58502520D01*
X87712083Y-58502520D02*
X87688273Y-58573949D01*
X87688273Y-58573949D02*
X87402559Y-58859663D01*
X87402559Y-58859663D02*
X87712083Y-58859663D01*
X87926368Y-58669187D02*
X88307321Y-58669187D01*
X87116845Y-59402730D02*
X87188273Y-59426540D01*
X87188273Y-59426540D02*
X87212083Y-59450349D01*
X87212083Y-59450349D02*
X87235892Y-59497968D01*
X87235892Y-59497968D02*
X87235892Y-59569397D01*
X87235892Y-59569397D02*
X87212083Y-59617016D01*
X87212083Y-59617016D02*
X87188273Y-59640826D01*
X87188273Y-59640826D02*
X87140654Y-59664635D01*
X87140654Y-59664635D02*
X86950178Y-59664635D01*
X86950178Y-59664635D02*
X86950178Y-59164635D01*
X86950178Y-59164635D02*
X87116845Y-59164635D01*
X87116845Y-59164635D02*
X87164464Y-59188445D01*
X87164464Y-59188445D02*
X87188273Y-59212254D01*
X87188273Y-59212254D02*
X87212083Y-59259873D01*
X87212083Y-59259873D02*
X87212083Y-59307492D01*
X87212083Y-59307492D02*
X87188273Y-59355111D01*
X87188273Y-59355111D02*
X87164464Y-59378921D01*
X87164464Y-59378921D02*
X87116845Y-59402730D01*
X87116845Y-59402730D02*
X86950178Y-59402730D01*
X87402559Y-59164635D02*
X87712083Y-59164635D01*
X87712083Y-59164635D02*
X87545416Y-59355111D01*
X87545416Y-59355111D02*
X87616845Y-59355111D01*
X87616845Y-59355111D02*
X87664464Y-59378921D01*
X87664464Y-59378921D02*
X87688273Y-59402730D01*
X87688273Y-59402730D02*
X87712083Y-59450349D01*
X87712083Y-59450349D02*
X87712083Y-59569397D01*
X87712083Y-59569397D02*
X87688273Y-59617016D01*
X87688273Y-59617016D02*
X87664464Y-59640826D01*
X87664464Y-59640826D02*
X87616845Y-59664635D01*
X87616845Y-59664635D02*
X87473988Y-59664635D01*
X87473988Y-59664635D02*
X87426369Y-59640826D01*
X87426369Y-59640826D02*
X87402559Y-59617016D01*
X87926368Y-59474159D02*
X88307321Y-59474159D01*
X88116844Y-59664635D02*
X88116844Y-59283683D01*
X43329048Y-61319649D02*
X43614762Y-61319649D01*
X43471905Y-61819649D02*
X43471905Y-61319649D01*
X43757619Y-61795840D02*
X43829047Y-61819649D01*
X43829047Y-61819649D02*
X43948095Y-61819649D01*
X43948095Y-61819649D02*
X43995714Y-61795840D01*
X43995714Y-61795840D02*
X44019523Y-61772030D01*
X44019523Y-61772030D02*
X44043333Y-61724411D01*
X44043333Y-61724411D02*
X44043333Y-61676792D01*
X44043333Y-61676792D02*
X44019523Y-61629173D01*
X44019523Y-61629173D02*
X43995714Y-61605363D01*
X43995714Y-61605363D02*
X43948095Y-61581554D01*
X43948095Y-61581554D02*
X43852857Y-61557744D01*
X43852857Y-61557744D02*
X43805238Y-61533935D01*
X43805238Y-61533935D02*
X43781428Y-61510125D01*
X43781428Y-61510125D02*
X43757619Y-61462506D01*
X43757619Y-61462506D02*
X43757619Y-61414887D01*
X43757619Y-61414887D02*
X43781428Y-61367268D01*
X43781428Y-61367268D02*
X43805238Y-61343459D01*
X43805238Y-61343459D02*
X43852857Y-61319649D01*
X43852857Y-61319649D02*
X43971904Y-61319649D01*
X43971904Y-61319649D02*
X44043333Y-61343459D01*
X80257160Y-93648096D02*
X80233350Y-93719524D01*
X80233350Y-93719524D02*
X80233350Y-93838572D01*
X80233350Y-93838572D02*
X80257160Y-93886191D01*
X80257160Y-93886191D02*
X80280969Y-93910000D01*
X80280969Y-93910000D02*
X80328588Y-93933810D01*
X80328588Y-93933810D02*
X80376207Y-93933810D01*
X80376207Y-93933810D02*
X80423826Y-93910000D01*
X80423826Y-93910000D02*
X80447636Y-93886191D01*
X80447636Y-93886191D02*
X80471445Y-93838572D01*
X80471445Y-93838572D02*
X80495255Y-93743334D01*
X80495255Y-93743334D02*
X80519064Y-93695715D01*
X80519064Y-93695715D02*
X80542874Y-93671905D01*
X80542874Y-93671905D02*
X80590493Y-93648096D01*
X80590493Y-93648096D02*
X80638112Y-93648096D01*
X80638112Y-93648096D02*
X80685731Y-93671905D01*
X80685731Y-93671905D02*
X80709540Y-93695715D01*
X80709540Y-93695715D02*
X80733350Y-93743334D01*
X80733350Y-93743334D02*
X80733350Y-93862381D01*
X80733350Y-93862381D02*
X80709540Y-93933810D01*
X80233350Y-94148095D02*
X80733350Y-94148095D01*
X80709540Y-94648095D02*
X80733350Y-94600476D01*
X80733350Y-94600476D02*
X80733350Y-94529047D01*
X80733350Y-94529047D02*
X80709540Y-94457619D01*
X80709540Y-94457619D02*
X80661921Y-94410000D01*
X80661921Y-94410000D02*
X80614302Y-94386190D01*
X80614302Y-94386190D02*
X80519064Y-94362381D01*
X80519064Y-94362381D02*
X80447636Y-94362381D01*
X80447636Y-94362381D02*
X80352398Y-94386190D01*
X80352398Y-94386190D02*
X80304779Y-94410000D01*
X80304779Y-94410000D02*
X80257160Y-94457619D01*
X80257160Y-94457619D02*
X80233350Y-94529047D01*
X80233350Y-94529047D02*
X80233350Y-94576666D01*
X80233350Y-94576666D02*
X80257160Y-94648095D01*
X80257160Y-94648095D02*
X80280969Y-94671904D01*
X80280969Y-94671904D02*
X80447636Y-94671904D01*
X80447636Y-94671904D02*
X80447636Y-94576666D01*
X32579720Y-22147347D02*
X32555910Y-22194966D01*
X32555910Y-22194966D02*
X32555910Y-22266395D01*
X32555910Y-22266395D02*
X32579720Y-22337823D01*
X32579720Y-22337823D02*
X32627339Y-22385442D01*
X32627339Y-22385442D02*
X32674958Y-22409252D01*
X32674958Y-22409252D02*
X32770196Y-22433061D01*
X32770196Y-22433061D02*
X32841624Y-22433061D01*
X32841624Y-22433061D02*
X32936862Y-22409252D01*
X32936862Y-22409252D02*
X32984481Y-22385442D01*
X32984481Y-22385442D02*
X33032101Y-22337823D01*
X33032101Y-22337823D02*
X33055910Y-22266395D01*
X33055910Y-22266395D02*
X33055910Y-22218776D01*
X33055910Y-22218776D02*
X33032101Y-22147347D01*
X33032101Y-22147347D02*
X33008291Y-22123538D01*
X33008291Y-22123538D02*
X32841624Y-22123538D01*
X32841624Y-22123538D02*
X32841624Y-22218776D01*
X33055910Y-21909252D02*
X32555910Y-21909252D01*
X32555910Y-21909252D02*
X33055910Y-21623538D01*
X33055910Y-21623538D02*
X32555910Y-21623538D01*
X33055910Y-21385442D02*
X32555910Y-21385442D01*
X32555910Y-21385442D02*
X32555910Y-21266394D01*
X32555910Y-21266394D02*
X32579720Y-21194966D01*
X32579720Y-21194966D02*
X32627339Y-21147347D01*
X32627339Y-21147347D02*
X32674958Y-21123537D01*
X32674958Y-21123537D02*
X32770196Y-21099728D01*
X32770196Y-21099728D02*
X32841624Y-21099728D01*
X32841624Y-21099728D02*
X32936862Y-21123537D01*
X32936862Y-21123537D02*
X32984481Y-21147347D01*
X32984481Y-21147347D02*
X33032101Y-21194966D01*
X33032101Y-21194966D02*
X33055910Y-21266394D01*
X33055910Y-21266394D02*
X33055910Y-21385442D01*
X96336149Y-51470749D02*
X96836149Y-51304083D01*
X96836149Y-51304083D02*
X96336149Y-51137416D01*
X96812340Y-50994559D02*
X96836149Y-50923131D01*
X96836149Y-50923131D02*
X96836149Y-50804083D01*
X96836149Y-50804083D02*
X96812340Y-50756464D01*
X96812340Y-50756464D02*
X96788530Y-50732655D01*
X96788530Y-50732655D02*
X96740911Y-50708845D01*
X96740911Y-50708845D02*
X96693292Y-50708845D01*
X96693292Y-50708845D02*
X96645673Y-50732655D01*
X96645673Y-50732655D02*
X96621863Y-50756464D01*
X96621863Y-50756464D02*
X96598054Y-50804083D01*
X96598054Y-50804083D02*
X96574244Y-50899321D01*
X96574244Y-50899321D02*
X96550435Y-50946940D01*
X96550435Y-50946940D02*
X96526625Y-50970750D01*
X96526625Y-50970750D02*
X96479006Y-50994559D01*
X96479006Y-50994559D02*
X96431387Y-50994559D01*
X96431387Y-50994559D02*
X96383768Y-50970750D01*
X96383768Y-50970750D02*
X96359959Y-50946940D01*
X96359959Y-50946940D02*
X96336149Y-50899321D01*
X96336149Y-50899321D02*
X96336149Y-50780274D01*
X96336149Y-50780274D02*
X96359959Y-50708845D01*
X96598054Y-50399322D02*
X96836149Y-50399322D01*
X96336149Y-50565988D02*
X96598054Y-50399322D01*
X96598054Y-50399322D02*
X96336149Y-50232655D01*
X96812340Y-50089798D02*
X96836149Y-50018370D01*
X96836149Y-50018370D02*
X96836149Y-49899322D01*
X96836149Y-49899322D02*
X96812340Y-49851703D01*
X96812340Y-49851703D02*
X96788530Y-49827894D01*
X96788530Y-49827894D02*
X96740911Y-49804084D01*
X96740911Y-49804084D02*
X96693292Y-49804084D01*
X96693292Y-49804084D02*
X96645673Y-49827894D01*
X96645673Y-49827894D02*
X96621863Y-49851703D01*
X96621863Y-49851703D02*
X96598054Y-49899322D01*
X96598054Y-49899322D02*
X96574244Y-49994560D01*
X96574244Y-49994560D02*
X96550435Y-50042179D01*
X96550435Y-50042179D02*
X96526625Y-50065989D01*
X96526625Y-50065989D02*
X96479006Y-50089798D01*
X96479006Y-50089798D02*
X96431387Y-50089798D01*
X96431387Y-50089798D02*
X96383768Y-50065989D01*
X96383768Y-50065989D02*
X96359959Y-50042179D01*
X96359959Y-50042179D02*
X96336149Y-49994560D01*
X96336149Y-49994560D02*
X96336149Y-49875513D01*
X96336149Y-49875513D02*
X96359959Y-49804084D01*
X41138571Y-61772030D02*
X41114762Y-61795840D01*
X41114762Y-61795840D02*
X41043333Y-61819649D01*
X41043333Y-61819649D02*
X40995714Y-61819649D01*
X40995714Y-61819649D02*
X40924286Y-61795840D01*
X40924286Y-61795840D02*
X40876667Y-61748220D01*
X40876667Y-61748220D02*
X40852857Y-61700601D01*
X40852857Y-61700601D02*
X40829048Y-61605363D01*
X40829048Y-61605363D02*
X40829048Y-61533935D01*
X40829048Y-61533935D02*
X40852857Y-61438697D01*
X40852857Y-61438697D02*
X40876667Y-61391078D01*
X40876667Y-61391078D02*
X40924286Y-61343459D01*
X40924286Y-61343459D02*
X40995714Y-61319649D01*
X40995714Y-61319649D02*
X41043333Y-61319649D01*
X41043333Y-61319649D02*
X41114762Y-61343459D01*
X41114762Y-61343459D02*
X41138571Y-61367268D01*
X41352857Y-61557744D02*
X41519524Y-61557744D01*
X41590952Y-61819649D02*
X41352857Y-61819649D01*
X41352857Y-61819649D02*
X41352857Y-61319649D01*
X41352857Y-61319649D02*
X41590952Y-61319649D01*
X87116845Y-56500244D02*
X87188273Y-56524054D01*
X87188273Y-56524054D02*
X87212083Y-56547863D01*
X87212083Y-56547863D02*
X87235892Y-56595482D01*
X87235892Y-56595482D02*
X87235892Y-56666911D01*
X87235892Y-56666911D02*
X87212083Y-56714530D01*
X87212083Y-56714530D02*
X87188273Y-56738340D01*
X87188273Y-56738340D02*
X87140654Y-56762149D01*
X87140654Y-56762149D02*
X86950178Y-56762149D01*
X86950178Y-56762149D02*
X86950178Y-56262149D01*
X86950178Y-56262149D02*
X87116845Y-56262149D01*
X87116845Y-56262149D02*
X87164464Y-56285959D01*
X87164464Y-56285959D02*
X87188273Y-56309768D01*
X87188273Y-56309768D02*
X87212083Y-56357387D01*
X87212083Y-56357387D02*
X87212083Y-56405006D01*
X87212083Y-56405006D02*
X87188273Y-56452625D01*
X87188273Y-56452625D02*
X87164464Y-56476435D01*
X87164464Y-56476435D02*
X87116845Y-56500244D01*
X87116845Y-56500244D02*
X86950178Y-56500244D01*
X87426369Y-56309768D02*
X87450178Y-56285959D01*
X87450178Y-56285959D02*
X87497797Y-56262149D01*
X87497797Y-56262149D02*
X87616845Y-56262149D01*
X87616845Y-56262149D02*
X87664464Y-56285959D01*
X87664464Y-56285959D02*
X87688273Y-56309768D01*
X87688273Y-56309768D02*
X87712083Y-56357387D01*
X87712083Y-56357387D02*
X87712083Y-56405006D01*
X87712083Y-56405006D02*
X87688273Y-56476435D01*
X87688273Y-56476435D02*
X87402559Y-56762149D01*
X87402559Y-56762149D02*
X87712083Y-56762149D01*
X87926368Y-56571673D02*
X88307321Y-56571673D01*
X48395670Y-89979749D02*
X48895670Y-89813083D01*
X48895670Y-89813083D02*
X48395670Y-89646416D01*
X48871861Y-89503559D02*
X48895670Y-89432131D01*
X48895670Y-89432131D02*
X48895670Y-89313083D01*
X48895670Y-89313083D02*
X48871861Y-89265464D01*
X48871861Y-89265464D02*
X48848051Y-89241655D01*
X48848051Y-89241655D02*
X48800432Y-89217845D01*
X48800432Y-89217845D02*
X48752813Y-89217845D01*
X48752813Y-89217845D02*
X48705194Y-89241655D01*
X48705194Y-89241655D02*
X48681384Y-89265464D01*
X48681384Y-89265464D02*
X48657575Y-89313083D01*
X48657575Y-89313083D02*
X48633765Y-89408321D01*
X48633765Y-89408321D02*
X48609956Y-89455940D01*
X48609956Y-89455940D02*
X48586146Y-89479750D01*
X48586146Y-89479750D02*
X48538527Y-89503559D01*
X48538527Y-89503559D02*
X48490908Y-89503559D01*
X48490908Y-89503559D02*
X48443289Y-89479750D01*
X48443289Y-89479750D02*
X48419480Y-89455940D01*
X48419480Y-89455940D02*
X48395670Y-89408321D01*
X48395670Y-89408321D02*
X48395670Y-89289274D01*
X48395670Y-89289274D02*
X48419480Y-89217845D01*
X48657575Y-88908322D02*
X48895670Y-88908322D01*
X48395670Y-89074988D02*
X48657575Y-88908322D01*
X48657575Y-88908322D02*
X48395670Y-88741655D01*
X48871861Y-88598798D02*
X48895670Y-88527370D01*
X48895670Y-88527370D02*
X48895670Y-88408322D01*
X48895670Y-88408322D02*
X48871861Y-88360703D01*
X48871861Y-88360703D02*
X48848051Y-88336894D01*
X48848051Y-88336894D02*
X48800432Y-88313084D01*
X48800432Y-88313084D02*
X48752813Y-88313084D01*
X48752813Y-88313084D02*
X48705194Y-88336894D01*
X48705194Y-88336894D02*
X48681384Y-88360703D01*
X48681384Y-88360703D02*
X48657575Y-88408322D01*
X48657575Y-88408322D02*
X48633765Y-88503560D01*
X48633765Y-88503560D02*
X48609956Y-88551179D01*
X48609956Y-88551179D02*
X48586146Y-88574989D01*
X48586146Y-88574989D02*
X48538527Y-88598798D01*
X48538527Y-88598798D02*
X48490908Y-88598798D01*
X48490908Y-88598798D02*
X48443289Y-88574989D01*
X48443289Y-88574989D02*
X48419480Y-88551179D01*
X48419480Y-88551179D02*
X48395670Y-88503560D01*
X48395670Y-88503560D02*
X48395670Y-88384513D01*
X48395670Y-88384513D02*
X48419480Y-88313084D01*
X91385910Y-24290680D02*
X91885910Y-24124014D01*
X91885910Y-24124014D02*
X91385910Y-23957347D01*
X91862101Y-23814490D02*
X91885910Y-23743062D01*
X91885910Y-23743062D02*
X91885910Y-23624014D01*
X91885910Y-23624014D02*
X91862101Y-23576395D01*
X91862101Y-23576395D02*
X91838291Y-23552586D01*
X91838291Y-23552586D02*
X91790672Y-23528776D01*
X91790672Y-23528776D02*
X91743053Y-23528776D01*
X91743053Y-23528776D02*
X91695434Y-23552586D01*
X91695434Y-23552586D02*
X91671624Y-23576395D01*
X91671624Y-23576395D02*
X91647815Y-23624014D01*
X91647815Y-23624014D02*
X91624005Y-23719252D01*
X91624005Y-23719252D02*
X91600196Y-23766871D01*
X91600196Y-23766871D02*
X91576386Y-23790681D01*
X91576386Y-23790681D02*
X91528767Y-23814490D01*
X91528767Y-23814490D02*
X91481148Y-23814490D01*
X91481148Y-23814490D02*
X91433529Y-23790681D01*
X91433529Y-23790681D02*
X91409720Y-23766871D01*
X91409720Y-23766871D02*
X91385910Y-23719252D01*
X91385910Y-23719252D02*
X91385910Y-23600205D01*
X91385910Y-23600205D02*
X91409720Y-23528776D01*
X91647815Y-23219253D02*
X91885910Y-23219253D01*
X91385910Y-23385919D02*
X91647815Y-23219253D01*
X91647815Y-23219253D02*
X91385910Y-23052586D01*
X91862101Y-22909729D02*
X91885910Y-22838301D01*
X91885910Y-22838301D02*
X91885910Y-22719253D01*
X91885910Y-22719253D02*
X91862101Y-22671634D01*
X91862101Y-22671634D02*
X91838291Y-22647825D01*
X91838291Y-22647825D02*
X91790672Y-22624015D01*
X91790672Y-22624015D02*
X91743053Y-22624015D01*
X91743053Y-22624015D02*
X91695434Y-22647825D01*
X91695434Y-22647825D02*
X91671624Y-22671634D01*
X91671624Y-22671634D02*
X91647815Y-22719253D01*
X91647815Y-22719253D02*
X91624005Y-22814491D01*
X91624005Y-22814491D02*
X91600196Y-22862110D01*
X91600196Y-22862110D02*
X91576386Y-22885920D01*
X91576386Y-22885920D02*
X91528767Y-22909729D01*
X91528767Y-22909729D02*
X91481148Y-22909729D01*
X91481148Y-22909729D02*
X91433529Y-22885920D01*
X91433529Y-22885920D02*
X91409720Y-22862110D01*
X91409720Y-22862110D02*
X91385910Y-22814491D01*
X91385910Y-22814491D02*
X91385910Y-22695444D01*
X91385910Y-22695444D02*
X91409720Y-22624015D01*
X80257160Y-91064762D02*
X80233350Y-91136190D01*
X80233350Y-91136190D02*
X80233350Y-91255238D01*
X80233350Y-91255238D02*
X80257160Y-91302857D01*
X80257160Y-91302857D02*
X80280969Y-91326666D01*
X80280969Y-91326666D02*
X80328588Y-91350476D01*
X80328588Y-91350476D02*
X80376207Y-91350476D01*
X80376207Y-91350476D02*
X80423826Y-91326666D01*
X80423826Y-91326666D02*
X80447636Y-91302857D01*
X80447636Y-91302857D02*
X80471445Y-91255238D01*
X80471445Y-91255238D02*
X80495255Y-91160000D01*
X80495255Y-91160000D02*
X80519064Y-91112381D01*
X80519064Y-91112381D02*
X80542874Y-91088571D01*
X80542874Y-91088571D02*
X80590493Y-91064762D01*
X80590493Y-91064762D02*
X80638112Y-91064762D01*
X80638112Y-91064762D02*
X80685731Y-91088571D01*
X80685731Y-91088571D02*
X80709540Y-91112381D01*
X80709540Y-91112381D02*
X80733350Y-91160000D01*
X80733350Y-91160000D02*
X80733350Y-91279047D01*
X80733350Y-91279047D02*
X80709540Y-91350476D01*
X80280969Y-91850475D02*
X80257160Y-91826666D01*
X80257160Y-91826666D02*
X80233350Y-91755237D01*
X80233350Y-91755237D02*
X80233350Y-91707618D01*
X80233350Y-91707618D02*
X80257160Y-91636190D01*
X80257160Y-91636190D02*
X80304779Y-91588571D01*
X80304779Y-91588571D02*
X80352398Y-91564761D01*
X80352398Y-91564761D02*
X80447636Y-91540952D01*
X80447636Y-91540952D02*
X80519064Y-91540952D01*
X80519064Y-91540952D02*
X80614302Y-91564761D01*
X80614302Y-91564761D02*
X80661921Y-91588571D01*
X80661921Y-91588571D02*
X80709540Y-91636190D01*
X80709540Y-91636190D02*
X80733350Y-91707618D01*
X80733350Y-91707618D02*
X80733350Y-91755237D01*
X80733350Y-91755237D02*
X80709540Y-91826666D01*
X80709540Y-91826666D02*
X80685731Y-91850475D01*
X80233350Y-92302856D02*
X80233350Y-92064761D01*
X80233350Y-92064761D02*
X80733350Y-92064761D01*
X53293334Y-54984649D02*
X53460000Y-55484649D01*
X53460000Y-55484649D02*
X53626667Y-54984649D01*
X53960000Y-55222744D02*
X54031428Y-55246554D01*
X54031428Y-55246554D02*
X54055238Y-55270363D01*
X54055238Y-55270363D02*
X54079047Y-55317982D01*
X54079047Y-55317982D02*
X54079047Y-55389411D01*
X54079047Y-55389411D02*
X54055238Y-55437030D01*
X54055238Y-55437030D02*
X54031428Y-55460840D01*
X54031428Y-55460840D02*
X53983809Y-55484649D01*
X53983809Y-55484649D02*
X53793333Y-55484649D01*
X53793333Y-55484649D02*
X53793333Y-54984649D01*
X53793333Y-54984649D02*
X53960000Y-54984649D01*
X53960000Y-54984649D02*
X54007619Y-55008459D01*
X54007619Y-55008459D02*
X54031428Y-55032268D01*
X54031428Y-55032268D02*
X54055238Y-55079887D01*
X54055238Y-55079887D02*
X54055238Y-55127506D01*
X54055238Y-55127506D02*
X54031428Y-55175125D01*
X54031428Y-55175125D02*
X54007619Y-55198935D01*
X54007619Y-55198935D02*
X53960000Y-55222744D01*
X53960000Y-55222744D02*
X53793333Y-55222744D01*
X54293333Y-54984649D02*
X54293333Y-55389411D01*
X54293333Y-55389411D02*
X54317143Y-55437030D01*
X54317143Y-55437030D02*
X54340952Y-55460840D01*
X54340952Y-55460840D02*
X54388571Y-55484649D01*
X54388571Y-55484649D02*
X54483809Y-55484649D01*
X54483809Y-55484649D02*
X54531428Y-55460840D01*
X54531428Y-55460840D02*
X54555238Y-55437030D01*
X54555238Y-55437030D02*
X54579047Y-55389411D01*
X54579047Y-55389411D02*
X54579047Y-54984649D01*
X54793334Y-55460840D02*
X54864762Y-55484649D01*
X54864762Y-55484649D02*
X54983810Y-55484649D01*
X54983810Y-55484649D02*
X55031429Y-55460840D01*
X55031429Y-55460840D02*
X55055238Y-55437030D01*
X55055238Y-55437030D02*
X55079048Y-55389411D01*
X55079048Y-55389411D02*
X55079048Y-55341792D01*
X55079048Y-55341792D02*
X55055238Y-55294173D01*
X55055238Y-55294173D02*
X55031429Y-55270363D01*
X55031429Y-55270363D02*
X54983810Y-55246554D01*
X54983810Y-55246554D02*
X54888572Y-55222744D01*
X54888572Y-55222744D02*
X54840953Y-55198935D01*
X54840953Y-55198935D02*
X54817143Y-55175125D01*
X54817143Y-55175125D02*
X54793334Y-55127506D01*
X54793334Y-55127506D02*
X54793334Y-55079887D01*
X54793334Y-55079887D02*
X54817143Y-55032268D01*
X54817143Y-55032268D02*
X54840953Y-55008459D01*
X54840953Y-55008459D02*
X54888572Y-54984649D01*
X54888572Y-54984649D02*
X55007619Y-54984649D01*
X55007619Y-54984649D02*
X55079048Y-55008459D01*
X70342438Y-108343916D02*
X70318628Y-108391535D01*
X70318628Y-108391535D02*
X70318628Y-108462964D01*
X70318628Y-108462964D02*
X70342438Y-108534392D01*
X70342438Y-108534392D02*
X70390057Y-108582011D01*
X70390057Y-108582011D02*
X70437676Y-108605821D01*
X70437676Y-108605821D02*
X70532914Y-108629630D01*
X70532914Y-108629630D02*
X70604342Y-108629630D01*
X70604342Y-108629630D02*
X70699580Y-108605821D01*
X70699580Y-108605821D02*
X70747199Y-108582011D01*
X70747199Y-108582011D02*
X70794819Y-108534392D01*
X70794819Y-108534392D02*
X70818628Y-108462964D01*
X70818628Y-108462964D02*
X70818628Y-108415345D01*
X70818628Y-108415345D02*
X70794819Y-108343916D01*
X70794819Y-108343916D02*
X70771009Y-108320107D01*
X70771009Y-108320107D02*
X70604342Y-108320107D01*
X70604342Y-108320107D02*
X70604342Y-108415345D01*
X70818628Y-108105821D02*
X70318628Y-108105821D01*
X70318628Y-108105821D02*
X70818628Y-107820107D01*
X70818628Y-107820107D02*
X70318628Y-107820107D01*
X70818628Y-107582011D02*
X70318628Y-107582011D01*
X70318628Y-107582011D02*
X70318628Y-107462963D01*
X70318628Y-107462963D02*
X70342438Y-107391535D01*
X70342438Y-107391535D02*
X70390057Y-107343916D01*
X70390057Y-107343916D02*
X70437676Y-107320106D01*
X70437676Y-107320106D02*
X70532914Y-107296297D01*
X70532914Y-107296297D02*
X70604342Y-107296297D01*
X70604342Y-107296297D02*
X70699580Y-107320106D01*
X70699580Y-107320106D02*
X70747199Y-107343916D01*
X70747199Y-107343916D02*
X70794819Y-107391535D01*
X70794819Y-107391535D02*
X70818628Y-107462963D01*
X70818628Y-107462963D02*
X70818628Y-107582011D01*
X97859959Y-48137416D02*
X97836149Y-48185035D01*
X97836149Y-48185035D02*
X97836149Y-48256464D01*
X97836149Y-48256464D02*
X97859959Y-48327892D01*
X97859959Y-48327892D02*
X97907578Y-48375511D01*
X97907578Y-48375511D02*
X97955197Y-48399321D01*
X97955197Y-48399321D02*
X98050435Y-48423130D01*
X98050435Y-48423130D02*
X98121863Y-48423130D01*
X98121863Y-48423130D02*
X98217101Y-48399321D01*
X98217101Y-48399321D02*
X98264720Y-48375511D01*
X98264720Y-48375511D02*
X98312340Y-48327892D01*
X98312340Y-48327892D02*
X98336149Y-48256464D01*
X98336149Y-48256464D02*
X98336149Y-48208845D01*
X98336149Y-48208845D02*
X98312340Y-48137416D01*
X98312340Y-48137416D02*
X98288530Y-48113607D01*
X98288530Y-48113607D02*
X98121863Y-48113607D01*
X98121863Y-48113607D02*
X98121863Y-48208845D01*
X98336149Y-47899321D02*
X97836149Y-47899321D01*
X97836149Y-47899321D02*
X98336149Y-47613607D01*
X98336149Y-47613607D02*
X97836149Y-47613607D01*
X98336149Y-47375511D02*
X97836149Y-47375511D01*
X97836149Y-47375511D02*
X97836149Y-47256463D01*
X97836149Y-47256463D02*
X97859959Y-47185035D01*
X97859959Y-47185035D02*
X97907578Y-47137416D01*
X97907578Y-47137416D02*
X97955197Y-47113606D01*
X97955197Y-47113606D02*
X98050435Y-47089797D01*
X98050435Y-47089797D02*
X98121863Y-47089797D01*
X98121863Y-47089797D02*
X98217101Y-47113606D01*
X98217101Y-47113606D02*
X98264720Y-47137416D01*
X98264720Y-47137416D02*
X98312340Y-47185035D01*
X98312340Y-47185035D02*
X98336149Y-47256463D01*
X98336149Y-47256463D02*
X98336149Y-47375511D01*
X65818628Y-108320107D02*
X65580533Y-108486773D01*
X65818628Y-108605821D02*
X65318628Y-108605821D01*
X65318628Y-108605821D02*
X65318628Y-108415345D01*
X65318628Y-108415345D02*
X65342438Y-108367726D01*
X65342438Y-108367726D02*
X65366247Y-108343916D01*
X65366247Y-108343916D02*
X65413866Y-108320107D01*
X65413866Y-108320107D02*
X65485295Y-108320107D01*
X65485295Y-108320107D02*
X65532914Y-108343916D01*
X65532914Y-108343916D02*
X65556723Y-108367726D01*
X65556723Y-108367726D02*
X65580533Y-108415345D01*
X65580533Y-108415345D02*
X65580533Y-108605821D01*
X65318628Y-108153440D02*
X65818628Y-107820107D01*
X65318628Y-107820107D02*
X65818628Y-108153440D01*
X96836149Y-54970749D02*
X97336149Y-54804083D01*
X97336149Y-54804083D02*
X96836149Y-54637416D01*
X97074244Y-54304083D02*
X97098054Y-54232655D01*
X97098054Y-54232655D02*
X97121863Y-54208845D01*
X97121863Y-54208845D02*
X97169482Y-54185036D01*
X97169482Y-54185036D02*
X97240911Y-54185036D01*
X97240911Y-54185036D02*
X97288530Y-54208845D01*
X97288530Y-54208845D02*
X97312340Y-54232655D01*
X97312340Y-54232655D02*
X97336149Y-54280274D01*
X97336149Y-54280274D02*
X97336149Y-54470750D01*
X97336149Y-54470750D02*
X96836149Y-54470750D01*
X96836149Y-54470750D02*
X96836149Y-54304083D01*
X96836149Y-54304083D02*
X96859959Y-54256464D01*
X96859959Y-54256464D02*
X96883768Y-54232655D01*
X96883768Y-54232655D02*
X96931387Y-54208845D01*
X96931387Y-54208845D02*
X96979006Y-54208845D01*
X96979006Y-54208845D02*
X97026625Y-54232655D01*
X97026625Y-54232655D02*
X97050435Y-54256464D01*
X97050435Y-54256464D02*
X97074244Y-54304083D01*
X97074244Y-54304083D02*
X97074244Y-54470750D01*
X96836149Y-53970750D02*
X97240911Y-53970750D01*
X97240911Y-53970750D02*
X97288530Y-53946940D01*
X97288530Y-53946940D02*
X97312340Y-53923131D01*
X97312340Y-53923131D02*
X97336149Y-53875512D01*
X97336149Y-53875512D02*
X97336149Y-53780274D01*
X97336149Y-53780274D02*
X97312340Y-53732655D01*
X97312340Y-53732655D02*
X97288530Y-53708845D01*
X97288530Y-53708845D02*
X97240911Y-53685036D01*
X97240911Y-53685036D02*
X96836149Y-53685036D01*
X97312340Y-53470749D02*
X97336149Y-53399321D01*
X97336149Y-53399321D02*
X97336149Y-53280273D01*
X97336149Y-53280273D02*
X97312340Y-53232654D01*
X97312340Y-53232654D02*
X97288530Y-53208845D01*
X97288530Y-53208845D02*
X97240911Y-53185035D01*
X97240911Y-53185035D02*
X97193292Y-53185035D01*
X97193292Y-53185035D02*
X97145673Y-53208845D01*
X97145673Y-53208845D02*
X97121863Y-53232654D01*
X97121863Y-53232654D02*
X97098054Y-53280273D01*
X97098054Y-53280273D02*
X97074244Y-53375511D01*
X97074244Y-53375511D02*
X97050435Y-53423130D01*
X97050435Y-53423130D02*
X97026625Y-53446940D01*
X97026625Y-53446940D02*
X96979006Y-53470749D01*
X96979006Y-53470749D02*
X96931387Y-53470749D01*
X96931387Y-53470749D02*
X96883768Y-53446940D01*
X96883768Y-53446940D02*
X96859959Y-53423130D01*
X96859959Y-53423130D02*
X96836149Y-53375511D01*
X96836149Y-53375511D02*
X96836149Y-53256464D01*
X96836149Y-53256464D02*
X96859959Y-53185035D01*
X80257160Y-88302858D02*
X80233350Y-88374286D01*
X80233350Y-88374286D02*
X80233350Y-88493334D01*
X80233350Y-88493334D02*
X80257160Y-88540953D01*
X80257160Y-88540953D02*
X80280969Y-88564762D01*
X80280969Y-88564762D02*
X80328588Y-88588572D01*
X80328588Y-88588572D02*
X80376207Y-88588572D01*
X80376207Y-88588572D02*
X80423826Y-88564762D01*
X80423826Y-88564762D02*
X80447636Y-88540953D01*
X80447636Y-88540953D02*
X80471445Y-88493334D01*
X80471445Y-88493334D02*
X80495255Y-88398096D01*
X80495255Y-88398096D02*
X80519064Y-88350477D01*
X80519064Y-88350477D02*
X80542874Y-88326667D01*
X80542874Y-88326667D02*
X80590493Y-88302858D01*
X80590493Y-88302858D02*
X80638112Y-88302858D01*
X80638112Y-88302858D02*
X80685731Y-88326667D01*
X80685731Y-88326667D02*
X80709540Y-88350477D01*
X80709540Y-88350477D02*
X80733350Y-88398096D01*
X80733350Y-88398096D02*
X80733350Y-88517143D01*
X80733350Y-88517143D02*
X80709540Y-88588572D01*
X80233350Y-88802857D02*
X80733350Y-88802857D01*
X80733350Y-88802857D02*
X80733350Y-88921905D01*
X80733350Y-88921905D02*
X80709540Y-88993333D01*
X80709540Y-88993333D02*
X80661921Y-89040952D01*
X80661921Y-89040952D02*
X80614302Y-89064762D01*
X80614302Y-89064762D02*
X80519064Y-89088571D01*
X80519064Y-89088571D02*
X80447636Y-89088571D01*
X80447636Y-89088571D02*
X80352398Y-89064762D01*
X80352398Y-89064762D02*
X80304779Y-89040952D01*
X80304779Y-89040952D02*
X80257160Y-88993333D01*
X80257160Y-88993333D02*
X80233350Y-88921905D01*
X80233350Y-88921905D02*
X80233350Y-88802857D01*
X80376207Y-89279048D02*
X80376207Y-89517143D01*
X80233350Y-89231429D02*
X80733350Y-89398095D01*
X80733350Y-89398095D02*
X80233350Y-89564762D01*
X108059040Y-89783583D02*
X108082850Y-89735964D01*
X108082850Y-89735964D02*
X108082850Y-89664535D01*
X108082850Y-89664535D02*
X108059040Y-89593107D01*
X108059040Y-89593107D02*
X108011421Y-89545488D01*
X108011421Y-89545488D02*
X107963802Y-89521678D01*
X107963802Y-89521678D02*
X107868564Y-89497869D01*
X107868564Y-89497869D02*
X107797136Y-89497869D01*
X107797136Y-89497869D02*
X107701898Y-89521678D01*
X107701898Y-89521678D02*
X107654279Y-89545488D01*
X107654279Y-89545488D02*
X107606660Y-89593107D01*
X107606660Y-89593107D02*
X107582850Y-89664535D01*
X107582850Y-89664535D02*
X107582850Y-89712154D01*
X107582850Y-89712154D02*
X107606660Y-89783583D01*
X107606660Y-89783583D02*
X107630469Y-89807392D01*
X107630469Y-89807392D02*
X107797136Y-89807392D01*
X107797136Y-89807392D02*
X107797136Y-89712154D01*
X107582850Y-90021678D02*
X108082850Y-90021678D01*
X108082850Y-90021678D02*
X107582850Y-90307392D01*
X107582850Y-90307392D02*
X108082850Y-90307392D01*
X107582850Y-90545488D02*
X108082850Y-90545488D01*
X108082850Y-90545488D02*
X108082850Y-90664536D01*
X108082850Y-90664536D02*
X108059040Y-90735964D01*
X108059040Y-90735964D02*
X108011421Y-90783583D01*
X108011421Y-90783583D02*
X107963802Y-90807393D01*
X107963802Y-90807393D02*
X107868564Y-90831202D01*
X107868564Y-90831202D02*
X107797136Y-90831202D01*
X107797136Y-90831202D02*
X107701898Y-90807393D01*
X107701898Y-90807393D02*
X107654279Y-90783583D01*
X107654279Y-90783583D02*
X107606660Y-90735964D01*
X107606660Y-90735964D02*
X107582850Y-90664536D01*
X107582850Y-90664536D02*
X107582850Y-90545488D01*
X82741630Y-29804271D02*
X82813058Y-29828080D01*
X82813058Y-29828080D02*
X82932106Y-29828080D01*
X82932106Y-29828080D02*
X82979725Y-29804271D01*
X82979725Y-29804271D02*
X83003534Y-29780461D01*
X83003534Y-29780461D02*
X83027344Y-29732842D01*
X83027344Y-29732842D02*
X83027344Y-29685223D01*
X83027344Y-29685223D02*
X83003534Y-29637604D01*
X83003534Y-29637604D02*
X82979725Y-29613794D01*
X82979725Y-29613794D02*
X82932106Y-29589985D01*
X82932106Y-29589985D02*
X82836868Y-29566175D01*
X82836868Y-29566175D02*
X82789249Y-29542366D01*
X82789249Y-29542366D02*
X82765439Y-29518556D01*
X82765439Y-29518556D02*
X82741630Y-29470937D01*
X82741630Y-29470937D02*
X82741630Y-29423318D01*
X82741630Y-29423318D02*
X82765439Y-29375699D01*
X82765439Y-29375699D02*
X82789249Y-29351890D01*
X82789249Y-29351890D02*
X82836868Y-29328080D01*
X82836868Y-29328080D02*
X82955915Y-29328080D01*
X82955915Y-29328080D02*
X83027344Y-29351890D01*
X83241629Y-29828080D02*
X83241629Y-29328080D01*
X83741629Y-29351890D02*
X83694010Y-29328080D01*
X83694010Y-29328080D02*
X83622581Y-29328080D01*
X83622581Y-29328080D02*
X83551153Y-29351890D01*
X83551153Y-29351890D02*
X83503534Y-29399509D01*
X83503534Y-29399509D02*
X83479724Y-29447128D01*
X83479724Y-29447128D02*
X83455915Y-29542366D01*
X83455915Y-29542366D02*
X83455915Y-29613794D01*
X83455915Y-29613794D02*
X83479724Y-29709032D01*
X83479724Y-29709032D02*
X83503534Y-29756651D01*
X83503534Y-29756651D02*
X83551153Y-29804271D01*
X83551153Y-29804271D02*
X83622581Y-29828080D01*
X83622581Y-29828080D02*
X83670200Y-29828080D01*
X83670200Y-29828080D02*
X83741629Y-29804271D01*
X83741629Y-29804271D02*
X83765438Y-29780461D01*
X83765438Y-29780461D02*
X83765438Y-29613794D01*
X83765438Y-29613794D02*
X83670200Y-29613794D01*
X47145670Y-89955940D02*
X47145670Y-89646416D01*
X47145670Y-89646416D02*
X47336146Y-89813083D01*
X47336146Y-89813083D02*
X47336146Y-89741654D01*
X47336146Y-89741654D02*
X47359956Y-89694035D01*
X47359956Y-89694035D02*
X47383765Y-89670226D01*
X47383765Y-89670226D02*
X47431384Y-89646416D01*
X47431384Y-89646416D02*
X47550432Y-89646416D01*
X47550432Y-89646416D02*
X47598051Y-89670226D01*
X47598051Y-89670226D02*
X47621861Y-89694035D01*
X47621861Y-89694035D02*
X47645670Y-89741654D01*
X47645670Y-89741654D02*
X47645670Y-89884511D01*
X47645670Y-89884511D02*
X47621861Y-89932130D01*
X47621861Y-89932130D02*
X47598051Y-89955940D01*
X47312337Y-89479750D02*
X47645670Y-89360702D01*
X47645670Y-89360702D02*
X47312337Y-89241655D01*
X47145670Y-89098798D02*
X47145670Y-88789274D01*
X47145670Y-88789274D02*
X47336146Y-88955941D01*
X47336146Y-88955941D02*
X47336146Y-88884512D01*
X47336146Y-88884512D02*
X47359956Y-88836893D01*
X47359956Y-88836893D02*
X47383765Y-88813084D01*
X47383765Y-88813084D02*
X47431384Y-88789274D01*
X47431384Y-88789274D02*
X47550432Y-88789274D01*
X47550432Y-88789274D02*
X47598051Y-88813084D01*
X47598051Y-88813084D02*
X47621861Y-88836893D01*
X47621861Y-88836893D02*
X47645670Y-88884512D01*
X47645670Y-88884512D02*
X47645670Y-89027369D01*
X47645670Y-89027369D02*
X47621861Y-89074988D01*
X47621861Y-89074988D02*
X47598051Y-89098798D01*
X90135910Y-23981157D02*
X90135910Y-24219252D01*
X90135910Y-24219252D02*
X90374005Y-24243061D01*
X90374005Y-24243061D02*
X90350196Y-24219252D01*
X90350196Y-24219252D02*
X90326386Y-24171633D01*
X90326386Y-24171633D02*
X90326386Y-24052585D01*
X90326386Y-24052585D02*
X90350196Y-24004966D01*
X90350196Y-24004966D02*
X90374005Y-23981157D01*
X90374005Y-23981157D02*
X90421624Y-23957347D01*
X90421624Y-23957347D02*
X90540672Y-23957347D01*
X90540672Y-23957347D02*
X90588291Y-23981157D01*
X90588291Y-23981157D02*
X90612101Y-24004966D01*
X90612101Y-24004966D02*
X90635910Y-24052585D01*
X90635910Y-24052585D02*
X90635910Y-24171633D01*
X90635910Y-24171633D02*
X90612101Y-24219252D01*
X90612101Y-24219252D02*
X90588291Y-24243061D01*
X90135910Y-23814490D02*
X90635910Y-23647824D01*
X90635910Y-23647824D02*
X90135910Y-23481157D01*
X83027344Y-28101890D02*
X82979725Y-28078080D01*
X82979725Y-28078080D02*
X82908296Y-28078080D01*
X82908296Y-28078080D02*
X82836868Y-28101890D01*
X82836868Y-28101890D02*
X82789249Y-28149509D01*
X82789249Y-28149509D02*
X82765439Y-28197128D01*
X82765439Y-28197128D02*
X82741630Y-28292366D01*
X82741630Y-28292366D02*
X82741630Y-28363794D01*
X82741630Y-28363794D02*
X82765439Y-28459032D01*
X82765439Y-28459032D02*
X82789249Y-28506651D01*
X82789249Y-28506651D02*
X82836868Y-28554271D01*
X82836868Y-28554271D02*
X82908296Y-28578080D01*
X82908296Y-28578080D02*
X82955915Y-28578080D01*
X82955915Y-28578080D02*
X83027344Y-28554271D01*
X83027344Y-28554271D02*
X83051153Y-28530461D01*
X83051153Y-28530461D02*
X83051153Y-28363794D01*
X83051153Y-28363794D02*
X82955915Y-28363794D01*
X83265439Y-28578080D02*
X83265439Y-28078080D01*
X83265439Y-28078080D02*
X83551153Y-28578080D01*
X83551153Y-28578080D02*
X83551153Y-28078080D01*
X83789249Y-28578080D02*
X83789249Y-28078080D01*
X83789249Y-28078080D02*
X83908297Y-28078080D01*
X83908297Y-28078080D02*
X83979725Y-28101890D01*
X83979725Y-28101890D02*
X84027344Y-28149509D01*
X84027344Y-28149509D02*
X84051154Y-28197128D01*
X84051154Y-28197128D02*
X84074963Y-28292366D01*
X84074963Y-28292366D02*
X84074963Y-28363794D01*
X84074963Y-28363794D02*
X84051154Y-28459032D01*
X84051154Y-28459032D02*
X84027344Y-28506651D01*
X84027344Y-28506651D02*
X83979725Y-28554271D01*
X83979725Y-28554271D02*
X83908297Y-28578080D01*
X83908297Y-28578080D02*
X83789249Y-28578080D01*
X62090910Y-22526871D02*
X62090910Y-22217347D01*
X62090910Y-22217347D02*
X62281386Y-22384014D01*
X62281386Y-22384014D02*
X62281386Y-22312585D01*
X62281386Y-22312585D02*
X62305196Y-22264966D01*
X62305196Y-22264966D02*
X62329005Y-22241157D01*
X62329005Y-22241157D02*
X62376624Y-22217347D01*
X62376624Y-22217347D02*
X62495672Y-22217347D01*
X62495672Y-22217347D02*
X62543291Y-22241157D01*
X62543291Y-22241157D02*
X62567101Y-22264966D01*
X62567101Y-22264966D02*
X62590910Y-22312585D01*
X62590910Y-22312585D02*
X62590910Y-22455442D01*
X62590910Y-22455442D02*
X62567101Y-22503061D01*
X62567101Y-22503061D02*
X62543291Y-22526871D01*
X62090910Y-22074490D02*
X62590910Y-21907824D01*
X62590910Y-21907824D02*
X62090910Y-21741157D01*
X62090910Y-21622110D02*
X62090910Y-21312586D01*
X62090910Y-21312586D02*
X62281386Y-21479253D01*
X62281386Y-21479253D02*
X62281386Y-21407824D01*
X62281386Y-21407824D02*
X62305196Y-21360205D01*
X62305196Y-21360205D02*
X62329005Y-21336396D01*
X62329005Y-21336396D02*
X62376624Y-21312586D01*
X62376624Y-21312586D02*
X62495672Y-21312586D01*
X62495672Y-21312586D02*
X62543291Y-21336396D01*
X62543291Y-21336396D02*
X62567101Y-21360205D01*
X62567101Y-21360205D02*
X62590910Y-21407824D01*
X62590910Y-21407824D02*
X62590910Y-21550681D01*
X62590910Y-21550681D02*
X62567101Y-21598300D01*
X62567101Y-21598300D02*
X62543291Y-21622110D01*
X45919480Y-89646416D02*
X45895670Y-89694035D01*
X45895670Y-89694035D02*
X45895670Y-89765464D01*
X45895670Y-89765464D02*
X45919480Y-89836892D01*
X45919480Y-89836892D02*
X45967099Y-89884511D01*
X45967099Y-89884511D02*
X46014718Y-89908321D01*
X46014718Y-89908321D02*
X46109956Y-89932130D01*
X46109956Y-89932130D02*
X46181384Y-89932130D01*
X46181384Y-89932130D02*
X46276622Y-89908321D01*
X46276622Y-89908321D02*
X46324241Y-89884511D01*
X46324241Y-89884511D02*
X46371861Y-89836892D01*
X46371861Y-89836892D02*
X46395670Y-89765464D01*
X46395670Y-89765464D02*
X46395670Y-89717845D01*
X46395670Y-89717845D02*
X46371861Y-89646416D01*
X46371861Y-89646416D02*
X46348051Y-89622607D01*
X46348051Y-89622607D02*
X46181384Y-89622607D01*
X46181384Y-89622607D02*
X46181384Y-89717845D01*
X46395670Y-89408321D02*
X45895670Y-89408321D01*
X45895670Y-89408321D02*
X46395670Y-89122607D01*
X46395670Y-89122607D02*
X45895670Y-89122607D01*
X46395670Y-88884511D02*
X45895670Y-88884511D01*
X45895670Y-88884511D02*
X45895670Y-88765463D01*
X45895670Y-88765463D02*
X45919480Y-88694035D01*
X45919480Y-88694035D02*
X45967099Y-88646416D01*
X45967099Y-88646416D02*
X46014718Y-88622606D01*
X46014718Y-88622606D02*
X46109956Y-88598797D01*
X46109956Y-88598797D02*
X46181384Y-88598797D01*
X46181384Y-88598797D02*
X46276622Y-88622606D01*
X46276622Y-88622606D02*
X46324241Y-88646416D01*
X46324241Y-88646416D02*
X46371861Y-88694035D01*
X46371861Y-88694035D02*
X46395670Y-88765463D01*
X46395670Y-88765463D02*
X46395670Y-88884511D01*
X40698095Y-55484649D02*
X40698095Y-54984649D01*
X41221904Y-55437030D02*
X41198095Y-55460840D01*
X41198095Y-55460840D02*
X41126666Y-55484649D01*
X41126666Y-55484649D02*
X41079047Y-55484649D01*
X41079047Y-55484649D02*
X41007619Y-55460840D01*
X41007619Y-55460840D02*
X40960000Y-55413220D01*
X40960000Y-55413220D02*
X40936190Y-55365601D01*
X40936190Y-55365601D02*
X40912381Y-55270363D01*
X40912381Y-55270363D02*
X40912381Y-55198935D01*
X40912381Y-55198935D02*
X40936190Y-55103697D01*
X40936190Y-55103697D02*
X40960000Y-55056078D01*
X40960000Y-55056078D02*
X41007619Y-55008459D01*
X41007619Y-55008459D02*
X41079047Y-54984649D01*
X41079047Y-54984649D02*
X41126666Y-54984649D01*
X41126666Y-54984649D02*
X41198095Y-55008459D01*
X41198095Y-55008459D02*
X41221904Y-55032268D01*
X41436190Y-55484649D02*
X41436190Y-54984649D01*
X41436190Y-55222744D02*
X41721904Y-55222744D01*
X41721904Y-55484649D02*
X41721904Y-54984649D01*
X42221905Y-55008459D02*
X42174286Y-54984649D01*
X42174286Y-54984649D02*
X42102857Y-54984649D01*
X42102857Y-54984649D02*
X42031429Y-55008459D01*
X42031429Y-55008459D02*
X41983810Y-55056078D01*
X41983810Y-55056078D02*
X41960000Y-55103697D01*
X41960000Y-55103697D02*
X41936191Y-55198935D01*
X41936191Y-55198935D02*
X41936191Y-55270363D01*
X41936191Y-55270363D02*
X41960000Y-55365601D01*
X41960000Y-55365601D02*
X41983810Y-55413220D01*
X41983810Y-55413220D02*
X42031429Y-55460840D01*
X42031429Y-55460840D02*
X42102857Y-55484649D01*
X42102857Y-55484649D02*
X42150476Y-55484649D01*
X42150476Y-55484649D02*
X42221905Y-55460840D01*
X42221905Y-55460840D02*
X42245714Y-55437030D01*
X42245714Y-55437030D02*
X42245714Y-55270363D01*
X42245714Y-55270363D02*
X42150476Y-55270363D01*
X80733350Y-98564762D02*
X80733350Y-98874286D01*
X80733350Y-98874286D02*
X80542874Y-98707619D01*
X80542874Y-98707619D02*
X80542874Y-98779048D01*
X80542874Y-98779048D02*
X80519064Y-98826667D01*
X80519064Y-98826667D02*
X80495255Y-98850476D01*
X80495255Y-98850476D02*
X80447636Y-98874286D01*
X80447636Y-98874286D02*
X80328588Y-98874286D01*
X80328588Y-98874286D02*
X80280969Y-98850476D01*
X80280969Y-98850476D02*
X80257160Y-98826667D01*
X80257160Y-98826667D02*
X80233350Y-98779048D01*
X80233350Y-98779048D02*
X80233350Y-98636191D01*
X80233350Y-98636191D02*
X80257160Y-98588572D01*
X80257160Y-98588572D02*
X80280969Y-98564762D01*
X80566683Y-99040952D02*
X80233350Y-99160000D01*
X80233350Y-99160000D02*
X80566683Y-99279047D01*
X80733350Y-99421904D02*
X80733350Y-99731428D01*
X80733350Y-99731428D02*
X80542874Y-99564761D01*
X80542874Y-99564761D02*
X80542874Y-99636190D01*
X80542874Y-99636190D02*
X80519064Y-99683809D01*
X80519064Y-99683809D02*
X80495255Y-99707618D01*
X80495255Y-99707618D02*
X80447636Y-99731428D01*
X80447636Y-99731428D02*
X80328588Y-99731428D01*
X80328588Y-99731428D02*
X80280969Y-99707618D01*
X80280969Y-99707618D02*
X80257160Y-99683809D01*
X80257160Y-99683809D02*
X80233350Y-99636190D01*
X80233350Y-99636190D02*
X80233350Y-99493333D01*
X80233350Y-99493333D02*
X80257160Y-99445714D01*
X80257160Y-99445714D02*
X80280969Y-99421904D01*
X88909720Y-23957347D02*
X88885910Y-24004966D01*
X88885910Y-24004966D02*
X88885910Y-24076395D01*
X88885910Y-24076395D02*
X88909720Y-24147823D01*
X88909720Y-24147823D02*
X88957339Y-24195442D01*
X88957339Y-24195442D02*
X89004958Y-24219252D01*
X89004958Y-24219252D02*
X89100196Y-24243061D01*
X89100196Y-24243061D02*
X89171624Y-24243061D01*
X89171624Y-24243061D02*
X89266862Y-24219252D01*
X89266862Y-24219252D02*
X89314481Y-24195442D01*
X89314481Y-24195442D02*
X89362101Y-24147823D01*
X89362101Y-24147823D02*
X89385910Y-24076395D01*
X89385910Y-24076395D02*
X89385910Y-24028776D01*
X89385910Y-24028776D02*
X89362101Y-23957347D01*
X89362101Y-23957347D02*
X89338291Y-23933538D01*
X89338291Y-23933538D02*
X89171624Y-23933538D01*
X89171624Y-23933538D02*
X89171624Y-24028776D01*
X89385910Y-23719252D02*
X88885910Y-23719252D01*
X88885910Y-23719252D02*
X89385910Y-23433538D01*
X89385910Y-23433538D02*
X88885910Y-23433538D01*
X89385910Y-23195442D02*
X88885910Y-23195442D01*
X88885910Y-23195442D02*
X88885910Y-23076394D01*
X88885910Y-23076394D02*
X88909720Y-23004966D01*
X88909720Y-23004966D02*
X88957339Y-22957347D01*
X88957339Y-22957347D02*
X89004958Y-22933537D01*
X89004958Y-22933537D02*
X89100196Y-22909728D01*
X89100196Y-22909728D02*
X89171624Y-22909728D01*
X89171624Y-22909728D02*
X89266862Y-22933537D01*
X89266862Y-22933537D02*
X89314481Y-22957347D01*
X89314481Y-22957347D02*
X89362101Y-23004966D01*
X89362101Y-23004966D02*
X89385910Y-23076394D01*
X89385910Y-23076394D02*
X89385910Y-23195442D01*
X33269523Y-61819649D02*
X33269523Y-61319649D01*
X33269523Y-61319649D02*
X33388571Y-61319649D01*
X33388571Y-61319649D02*
X33459999Y-61343459D01*
X33459999Y-61343459D02*
X33507618Y-61391078D01*
X33507618Y-61391078D02*
X33531428Y-61438697D01*
X33531428Y-61438697D02*
X33555237Y-61533935D01*
X33555237Y-61533935D02*
X33555237Y-61605363D01*
X33555237Y-61605363D02*
X33531428Y-61700601D01*
X33531428Y-61700601D02*
X33507618Y-61748220D01*
X33507618Y-61748220D02*
X33459999Y-61795840D01*
X33459999Y-61795840D02*
X33388571Y-61819649D01*
X33388571Y-61819649D02*
X33269523Y-61819649D01*
X33769523Y-61629173D02*
X34150476Y-61629173D01*
X33959999Y-61819649D02*
X33959999Y-61438697D01*
X68318628Y-108343916D02*
X68318628Y-108629630D01*
X68318628Y-108486773D02*
X67818628Y-108486773D01*
X67818628Y-108486773D02*
X67890057Y-108534392D01*
X67890057Y-108534392D02*
X67937676Y-108582011D01*
X67937676Y-108582011D02*
X67961485Y-108629630D01*
X67866247Y-108153440D02*
X67842438Y-108129631D01*
X67842438Y-108129631D02*
X67818628Y-108082012D01*
X67818628Y-108082012D02*
X67818628Y-107962964D01*
X67818628Y-107962964D02*
X67842438Y-107915345D01*
X67842438Y-107915345D02*
X67866247Y-107891536D01*
X67866247Y-107891536D02*
X67913866Y-107867726D01*
X67913866Y-107867726D02*
X67961485Y-107867726D01*
X67961485Y-107867726D02*
X68032914Y-107891536D01*
X68032914Y-107891536D02*
X68318628Y-108177250D01*
X68318628Y-108177250D02*
X68318628Y-107867726D01*
X67818628Y-107724869D02*
X68318628Y-107558203D01*
X68318628Y-107558203D02*
X67818628Y-107391536D01*
X48531429Y-55210840D02*
X48602857Y-55234649D01*
X48602857Y-55234649D02*
X48721905Y-55234649D01*
X48721905Y-55234649D02*
X48769524Y-55210840D01*
X48769524Y-55210840D02*
X48793333Y-55187030D01*
X48793333Y-55187030D02*
X48817143Y-55139411D01*
X48817143Y-55139411D02*
X48817143Y-55091792D01*
X48817143Y-55091792D02*
X48793333Y-55044173D01*
X48793333Y-55044173D02*
X48769524Y-55020363D01*
X48769524Y-55020363D02*
X48721905Y-54996554D01*
X48721905Y-54996554D02*
X48626667Y-54972744D01*
X48626667Y-54972744D02*
X48579048Y-54948935D01*
X48579048Y-54948935D02*
X48555238Y-54925125D01*
X48555238Y-54925125D02*
X48531429Y-54877506D01*
X48531429Y-54877506D02*
X48531429Y-54829887D01*
X48531429Y-54829887D02*
X48555238Y-54782268D01*
X48555238Y-54782268D02*
X48579048Y-54758459D01*
X48579048Y-54758459D02*
X48626667Y-54734649D01*
X48626667Y-54734649D02*
X48745714Y-54734649D01*
X48745714Y-54734649D02*
X48817143Y-54758459D01*
X48983809Y-54734649D02*
X49102857Y-55234649D01*
X49102857Y-55234649D02*
X49198095Y-54877506D01*
X49198095Y-54877506D02*
X49293333Y-55234649D01*
X49293333Y-55234649D02*
X49412381Y-54734649D01*
X47007954Y-22047347D02*
X46984144Y-22094966D01*
X46984144Y-22094966D02*
X46984144Y-22166395D01*
X46984144Y-22166395D02*
X47007954Y-22237823D01*
X47007954Y-22237823D02*
X47055573Y-22285442D01*
X47055573Y-22285442D02*
X47103192Y-22309252D01*
X47103192Y-22309252D02*
X47198430Y-22333061D01*
X47198430Y-22333061D02*
X47269858Y-22333061D01*
X47269858Y-22333061D02*
X47365096Y-22309252D01*
X47365096Y-22309252D02*
X47412715Y-22285442D01*
X47412715Y-22285442D02*
X47460335Y-22237823D01*
X47460335Y-22237823D02*
X47484144Y-22166395D01*
X47484144Y-22166395D02*
X47484144Y-22118776D01*
X47484144Y-22118776D02*
X47460335Y-22047347D01*
X47460335Y-22047347D02*
X47436525Y-22023538D01*
X47436525Y-22023538D02*
X47269858Y-22023538D01*
X47269858Y-22023538D02*
X47269858Y-22118776D01*
X47484144Y-21809252D02*
X46984144Y-21809252D01*
X46984144Y-21809252D02*
X47484144Y-21523538D01*
X47484144Y-21523538D02*
X46984144Y-21523538D01*
X47484144Y-21285442D02*
X46984144Y-21285442D01*
X46984144Y-21285442D02*
X46984144Y-21166394D01*
X46984144Y-21166394D02*
X47007954Y-21094966D01*
X47007954Y-21094966D02*
X47055573Y-21047347D01*
X47055573Y-21047347D02*
X47103192Y-21023537D01*
X47103192Y-21023537D02*
X47198430Y-20999728D01*
X47198430Y-20999728D02*
X47269858Y-20999728D01*
X47269858Y-20999728D02*
X47365096Y-21023537D01*
X47365096Y-21023537D02*
X47412715Y-21047347D01*
X47412715Y-21047347D02*
X47460335Y-21094966D01*
X47460335Y-21094966D02*
X47484144Y-21166394D01*
X47484144Y-21166394D02*
X47484144Y-21285442D01*
X87116845Y-53597758D02*
X87188273Y-53621568D01*
X87188273Y-53621568D02*
X87212083Y-53645377D01*
X87212083Y-53645377D02*
X87235892Y-53692996D01*
X87235892Y-53692996D02*
X87235892Y-53764425D01*
X87235892Y-53764425D02*
X87212083Y-53812044D01*
X87212083Y-53812044D02*
X87188273Y-53835854D01*
X87188273Y-53835854D02*
X87140654Y-53859663D01*
X87140654Y-53859663D02*
X86950178Y-53859663D01*
X86950178Y-53859663D02*
X86950178Y-53359663D01*
X86950178Y-53359663D02*
X87116845Y-53359663D01*
X87116845Y-53359663D02*
X87164464Y-53383473D01*
X87164464Y-53383473D02*
X87188273Y-53407282D01*
X87188273Y-53407282D02*
X87212083Y-53454901D01*
X87212083Y-53454901D02*
X87212083Y-53502520D01*
X87212083Y-53502520D02*
X87188273Y-53550139D01*
X87188273Y-53550139D02*
X87164464Y-53573949D01*
X87164464Y-53573949D02*
X87116845Y-53597758D01*
X87116845Y-53597758D02*
X86950178Y-53597758D01*
X87712083Y-53859663D02*
X87426369Y-53859663D01*
X87569226Y-53859663D02*
X87569226Y-53359663D01*
X87569226Y-53359663D02*
X87521607Y-53431092D01*
X87521607Y-53431092D02*
X87473988Y-53478711D01*
X87473988Y-53478711D02*
X87426369Y-53502520D01*
X87926368Y-53669187D02*
X88307321Y-53669187D01*
X87116845Y-54402730D02*
X87188273Y-54426540D01*
X87188273Y-54426540D02*
X87212083Y-54450349D01*
X87212083Y-54450349D02*
X87235892Y-54497968D01*
X87235892Y-54497968D02*
X87235892Y-54569397D01*
X87235892Y-54569397D02*
X87212083Y-54617016D01*
X87212083Y-54617016D02*
X87188273Y-54640826D01*
X87188273Y-54640826D02*
X87140654Y-54664635D01*
X87140654Y-54664635D02*
X86950178Y-54664635D01*
X86950178Y-54664635D02*
X86950178Y-54164635D01*
X86950178Y-54164635D02*
X87116845Y-54164635D01*
X87116845Y-54164635D02*
X87164464Y-54188445D01*
X87164464Y-54188445D02*
X87188273Y-54212254D01*
X87188273Y-54212254D02*
X87212083Y-54259873D01*
X87212083Y-54259873D02*
X87212083Y-54307492D01*
X87212083Y-54307492D02*
X87188273Y-54355111D01*
X87188273Y-54355111D02*
X87164464Y-54378921D01*
X87164464Y-54378921D02*
X87116845Y-54402730D01*
X87116845Y-54402730D02*
X86950178Y-54402730D01*
X87426369Y-54212254D02*
X87450178Y-54188445D01*
X87450178Y-54188445D02*
X87497797Y-54164635D01*
X87497797Y-54164635D02*
X87616845Y-54164635D01*
X87616845Y-54164635D02*
X87664464Y-54188445D01*
X87664464Y-54188445D02*
X87688273Y-54212254D01*
X87688273Y-54212254D02*
X87712083Y-54259873D01*
X87712083Y-54259873D02*
X87712083Y-54307492D01*
X87712083Y-54307492D02*
X87688273Y-54378921D01*
X87688273Y-54378921D02*
X87402559Y-54664635D01*
X87402559Y-54664635D02*
X87712083Y-54664635D01*
X87926368Y-54474159D02*
X88307321Y-54474159D01*
X88116844Y-54664635D02*
X88116844Y-54283683D01*
X48329047Y-61343459D02*
X48281428Y-61319649D01*
X48281428Y-61319649D02*
X48209999Y-61319649D01*
X48209999Y-61319649D02*
X48138571Y-61343459D01*
X48138571Y-61343459D02*
X48090952Y-61391078D01*
X48090952Y-61391078D02*
X48067142Y-61438697D01*
X48067142Y-61438697D02*
X48043333Y-61533935D01*
X48043333Y-61533935D02*
X48043333Y-61605363D01*
X48043333Y-61605363D02*
X48067142Y-61700601D01*
X48067142Y-61700601D02*
X48090952Y-61748220D01*
X48090952Y-61748220D02*
X48138571Y-61795840D01*
X48138571Y-61795840D02*
X48209999Y-61819649D01*
X48209999Y-61819649D02*
X48257618Y-61819649D01*
X48257618Y-61819649D02*
X48329047Y-61795840D01*
X48329047Y-61795840D02*
X48352856Y-61772030D01*
X48352856Y-61772030D02*
X48352856Y-61605363D01*
X48352856Y-61605363D02*
X48257618Y-61605363D01*
X48567142Y-61819649D02*
X48567142Y-61319649D01*
X48567142Y-61319649D02*
X48852856Y-61819649D01*
X48852856Y-61819649D02*
X48852856Y-61319649D01*
X49090952Y-61819649D02*
X49090952Y-61319649D01*
X49090952Y-61319649D02*
X49210000Y-61319649D01*
X49210000Y-61319649D02*
X49281428Y-61343459D01*
X49281428Y-61343459D02*
X49329047Y-61391078D01*
X49329047Y-61391078D02*
X49352857Y-61438697D01*
X49352857Y-61438697D02*
X49376666Y-61533935D01*
X49376666Y-61533935D02*
X49376666Y-61605363D01*
X49376666Y-61605363D02*
X49352857Y-61700601D01*
X49352857Y-61700601D02*
X49329047Y-61748220D01*
X49329047Y-61748220D02*
X49281428Y-61795840D01*
X49281428Y-61795840D02*
X49210000Y-61819649D01*
X49210000Y-61819649D02*
X49090952Y-61819649D01*
D11*
X29349369Y-70936123D02*
X30158892Y-70936123D01*
X30158892Y-70936123D02*
X30254130Y-70888504D01*
X30254130Y-70888504D02*
X30301750Y-70840885D01*
X30301750Y-70840885D02*
X30349369Y-70745647D01*
X30349369Y-70745647D02*
X30349369Y-70555171D01*
X30349369Y-70555171D02*
X30301750Y-70459933D01*
X30301750Y-70459933D02*
X30254130Y-70412314D01*
X30254130Y-70412314D02*
X30158892Y-70364695D01*
X30158892Y-70364695D02*
X29349369Y-70364695D01*
X30349369Y-69364695D02*
X30349369Y-69936123D01*
X30349369Y-69650409D02*
X29349369Y-69650409D01*
X29349369Y-69650409D02*
X29492226Y-69745647D01*
X29492226Y-69745647D02*
X29587464Y-69840885D01*
X29587464Y-69840885D02*
X29635083Y-69936123D01*
X30349369Y-68412314D02*
X30349369Y-68983742D01*
X30349369Y-68698028D02*
X29349369Y-68698028D01*
X29349369Y-68698028D02*
X29492226Y-68793266D01*
X29492226Y-68793266D02*
X29587464Y-68888504D01*
X29587464Y-68888504D02*
X29635083Y-68983742D01*
X107864819Y-72116666D02*
X107864819Y-72592856D01*
X107864819Y-72592856D02*
X106864819Y-72592856D01*
X107293390Y-71640475D02*
X107245771Y-71735713D01*
X107245771Y-71735713D02*
X107198152Y-71783332D01*
X107198152Y-71783332D02*
X107102914Y-71830951D01*
X107102914Y-71830951D02*
X107055295Y-71830951D01*
X107055295Y-71830951D02*
X106960057Y-71783332D01*
X106960057Y-71783332D02*
X106912438Y-71735713D01*
X106912438Y-71735713D02*
X106864819Y-71640475D01*
X106864819Y-71640475D02*
X106864819Y-71449999D01*
X106864819Y-71449999D02*
X106912438Y-71354761D01*
X106912438Y-71354761D02*
X106960057Y-71307142D01*
X106960057Y-71307142D02*
X107055295Y-71259523D01*
X107055295Y-71259523D02*
X107102914Y-71259523D01*
X107102914Y-71259523D02*
X107198152Y-71307142D01*
X107198152Y-71307142D02*
X107245771Y-71354761D01*
X107245771Y-71354761D02*
X107293390Y-71449999D01*
X107293390Y-71449999D02*
X107293390Y-71640475D01*
X107293390Y-71640475D02*
X107341009Y-71735713D01*
X107341009Y-71735713D02*
X107388628Y-71783332D01*
X107388628Y-71783332D02*
X107483866Y-71830951D01*
X107483866Y-71830951D02*
X107674342Y-71830951D01*
X107674342Y-71830951D02*
X107769580Y-71783332D01*
X107769580Y-71783332D02*
X107817200Y-71735713D01*
X107817200Y-71735713D02*
X107864819Y-71640475D01*
X107864819Y-71640475D02*
X107864819Y-71449999D01*
X107864819Y-71449999D02*
X107817200Y-71354761D01*
X107817200Y-71354761D02*
X107769580Y-71307142D01*
X107769580Y-71307142D02*
X107674342Y-71259523D01*
X107674342Y-71259523D02*
X107483866Y-71259523D01*
X107483866Y-71259523D02*
X107388628Y-71307142D01*
X107388628Y-71307142D02*
X107341009Y-71354761D01*
X107341009Y-71354761D02*
X107293390Y-71449999D01*
D12*
%TO.C,U1*%
X66890000Y-81545000D02*
G75*
G02*
X66690000Y-81545000I-100000J0D01*
G01*
X66690000Y-81545000D02*
G75*
G02*
X66890000Y-81545000I100000J0D01*
G01*
D11*
X69300000Y-83375000D02*
X67650000Y-83375000D01*
X69300000Y-81215000D02*
X67650000Y-81215000D01*
X67140000Y-83375000D02*
X68790000Y-83375000D01*
X67140000Y-81215000D02*
X68790000Y-81215000D01*
D13*
%TO.C,P2*%
X70500000Y-80225000D02*
X65420000Y-80225000D01*
X70500000Y-75145000D02*
X70500000Y-80225000D01*
X67960000Y-80225000D02*
X67960000Y-77685000D01*
X67960000Y-77685000D02*
X70500000Y-77685000D01*
X65420000Y-80225000D02*
X65420000Y-75145000D01*
X65420000Y-75145000D02*
X70500000Y-75145000D01*
D11*
%TO.C,R27*%
X61673000Y-76583000D02*
X61673000Y-75623000D01*
X61673000Y-73803000D02*
X61673000Y-74763000D01*
X60353000Y-76583000D02*
X61673000Y-76583000D01*
X60353000Y-75623000D02*
X60353000Y-76583000D01*
X60353000Y-74763000D02*
X60353000Y-73803000D01*
X60353000Y-73803000D02*
X61673000Y-73803000D01*
%TO.C,C13*%
X58573000Y-69133000D02*
G75*
G02*
X58423000Y-69283000I-150000J0D01*
G01*
X58423000Y-67103000D02*
G75*
G02*
X58573000Y-67253000I0J-150000D01*
G01*
X53603000Y-69283000D02*
G75*
G02*
X53453000Y-69133000I0J150000D01*
G01*
X53453000Y-67253000D02*
G75*
G02*
X53603000Y-67103000I150000J0D01*
G01*
X58573000Y-69133000D02*
X58573000Y-67253000D01*
X58423000Y-67103000D02*
X56943000Y-67103000D01*
X56943000Y-69283000D02*
X58423000Y-69283000D01*
X55083000Y-69283000D02*
X53603000Y-69283000D01*
X53603000Y-67103000D02*
X55083000Y-67103000D01*
X53453000Y-69133000D02*
X53453000Y-67253000D01*
D13*
%TO.C,L4*%
X61533000Y-71053000D02*
X61533000Y-69783000D01*
X61533000Y-69023000D02*
X61533000Y-67883000D01*
X61533000Y-67883000D02*
X61533000Y-67753000D01*
X61533000Y-67753000D02*
X61273000Y-67503000D01*
X61273000Y-71313000D02*
X61533000Y-71053000D01*
X61273000Y-67503000D02*
X59873000Y-67503000D01*
X61143000Y-71313000D02*
X61273000Y-71313000D01*
X59873000Y-67503000D02*
X59753000Y-67503000D01*
X59753000Y-71313000D02*
X61143000Y-71313000D01*
X59753000Y-67503000D02*
X59493000Y-67753000D01*
X59493000Y-71053000D02*
X59753000Y-71313000D01*
X59493000Y-70923000D02*
X59493000Y-71053000D01*
X59493000Y-69783000D02*
X59493000Y-70923000D01*
X59493000Y-67753000D02*
X59493000Y-69023000D01*
D11*
%TO.C,D9*%
X57703000Y-83653000D02*
X57703000Y-81733000D01*
X57703000Y-81733000D02*
X55013000Y-81733000D01*
X55013000Y-83653000D02*
X57703000Y-83653000D01*
%TO.C,R28*%
X61903000Y-78353000D02*
X61903000Y-77033000D01*
X61903000Y-77033000D02*
X60943000Y-77033000D01*
X60943000Y-78353000D02*
X61903000Y-78353000D01*
X60083000Y-78353000D02*
X59123000Y-78353000D01*
X59123000Y-78353000D02*
X59123000Y-77033000D01*
X59123000Y-77033000D02*
X60083000Y-77033000D01*
%TO.C,D8*%
X53723000Y-82943000D02*
X53723000Y-80253000D01*
X53723000Y-80253000D02*
X51803000Y-80253000D01*
X51803000Y-80253000D02*
X51803000Y-82943000D01*
D13*
%TO.C,U10*%
X52103000Y-72783000D02*
G75*
G02*
X51843000Y-72783000I-130000J0D01*
G01*
X51843000Y-72783000D02*
G75*
G02*
X52103000Y-72783000I130000J0D01*
G01*
D11*
X56613000Y-76793000D02*
X56213000Y-76793000D01*
X56613000Y-76293000D02*
X56613000Y-76793000D01*
X56613000Y-72593000D02*
X56613000Y-72993000D01*
X56213000Y-72593000D02*
X56613000Y-72593000D01*
X52413000Y-76793000D02*
X52813000Y-76793000D01*
X52413000Y-76393000D02*
X52413000Y-76793000D01*
X52413000Y-72993000D02*
X52413000Y-72593000D01*
X52413000Y-72593000D02*
X52813000Y-72593000D01*
D13*
%TO.C,H3*%
X50263000Y-83563000D02*
X50263000Y-68323000D01*
X47763000Y-83563000D02*
X50263000Y-83563000D01*
X47763000Y-81023000D02*
X50263000Y-81023000D01*
X47763000Y-68323000D02*
X50263000Y-68323000D01*
X47763000Y-68323000D02*
X47763000Y-83563000D01*
%TO.C,H2*%
X39024550Y-69098029D02*
X41564550Y-69098029D01*
X39024550Y-79238029D02*
X41564550Y-79238029D01*
X39024550Y-81798029D02*
X39024550Y-69098029D01*
X41564550Y-69098029D02*
X41564550Y-81798029D01*
X41564550Y-81798029D02*
X39024550Y-81798029D01*
%TO.C,U11*%
X27644550Y-66698029D02*
X33644550Y-66698029D01*
X27644550Y-70398029D02*
X27644550Y-70398029D01*
X27644550Y-70398029D02*
X31894550Y-70398029D01*
X27644550Y-72698029D02*
X27644550Y-66698029D01*
X29344550Y-67618029D02*
X33644550Y-67618029D01*
X29344550Y-68568029D02*
X29344550Y-67618029D01*
X29344550Y-70848029D02*
X33644550Y-70848029D01*
X29344550Y-71798029D02*
X29344550Y-70848029D01*
X31244550Y-68568029D02*
X31244550Y-67618029D01*
X31244550Y-71798029D02*
X31244550Y-70848029D01*
X31894550Y-69048029D02*
X27644550Y-69048029D01*
X31894550Y-70398029D02*
X31894550Y-69048029D01*
X33644550Y-66698029D02*
X35244550Y-66698029D01*
X33644550Y-67798029D02*
X33644550Y-66698029D01*
X33644550Y-68568029D02*
X29344550Y-68568029D01*
X33644550Y-69798029D02*
X33644550Y-69598029D01*
X33644550Y-71798029D02*
X29344550Y-71798029D01*
X33644550Y-72698029D02*
X27644550Y-72698029D01*
X33644550Y-72698029D02*
X33644550Y-71598029D01*
X33644550Y-72698029D02*
X35244550Y-72698029D01*
X34144550Y-66998029D02*
X34844550Y-67148029D01*
X34144550Y-67298029D02*
X34144550Y-66998029D01*
X34844550Y-67148029D02*
X34144550Y-67298029D01*
X35244550Y-66698029D02*
X35244550Y-67598029D01*
X35244550Y-67598029D02*
X33644550Y-67598029D01*
X35244550Y-71798029D02*
X33644550Y-71798029D01*
X35244550Y-72698029D02*
X35244550Y-71798029D01*
%TO.C,USBC1*%
X27694550Y-73978029D02*
X29174550Y-73978029D01*
X27694550Y-82918029D02*
X27694550Y-73978029D01*
X27694550Y-82918029D02*
X29174550Y-82918029D01*
X31414550Y-73978029D02*
X33274550Y-73978029D01*
X31414550Y-82918029D02*
X33274550Y-82918029D01*
D11*
%TO.C,R63*%
X81570000Y-75090000D02*
X80250000Y-75090000D01*
X81570000Y-74130000D02*
X81570000Y-75090000D01*
X81570000Y-73270000D02*
X81570000Y-72310000D01*
X81570000Y-72310000D02*
X80250000Y-72310000D01*
X80250000Y-75090000D02*
X80250000Y-74130000D01*
X80250000Y-72310000D02*
X80250000Y-73270000D01*
%TO.C,R_AC2*%
X84970000Y-67780000D02*
X83610000Y-67780000D01*
X84970000Y-65620000D02*
X84970000Y-67780000D01*
X83610000Y-65620000D02*
X84970000Y-65620000D01*
X81710000Y-65620000D02*
X80350000Y-65620000D01*
X80350000Y-67780000D02*
X81710000Y-67780000D01*
X80350000Y-65620000D02*
X80350000Y-67780000D01*
%TO.C,D13*%
X84370000Y-81450000D02*
X84370000Y-78760000D01*
X84370000Y-78760000D02*
X82450000Y-78760000D01*
X82450000Y-78760000D02*
X82450000Y-81450000D01*
D14*
%TO.C,Q9*%
X77562500Y-79540000D02*
X77082500Y-79540000D01*
X77322500Y-79210000D01*
X77562500Y-79540000D01*
G36*
X77562500Y-79540000D02*
G01*
X77082500Y-79540000D01*
X77322500Y-79210000D01*
X77562500Y-79540000D01*
G37*
D11*
X76160000Y-79260000D02*
X76810000Y-79260000D01*
X76160000Y-79260000D02*
X75510000Y-79260000D01*
X76160000Y-76140000D02*
X76810000Y-76140000D01*
X76160000Y-76140000D02*
X75510000Y-76140000D01*
%TO.C,D12*%
X77780000Y-71280000D02*
X77670000Y-71280000D01*
X77780000Y-71110000D02*
X77780000Y-71280000D01*
X77780000Y-71110000D02*
X77780000Y-68290000D01*
X77780000Y-68290000D02*
X77610000Y-68290000D01*
X77670000Y-71280000D02*
X77670000Y-71110000D01*
X77670000Y-71110000D02*
X77780000Y-71110000D01*
X76150000Y-71280000D02*
X76150000Y-71110000D01*
X76150000Y-71280000D02*
X76040000Y-71280000D01*
X76040000Y-71280000D02*
X76040000Y-71110000D01*
X76040000Y-71110000D02*
X76150000Y-71110000D01*
X76040000Y-71110000D02*
X76040000Y-68290000D01*
X76040000Y-70670000D02*
X77780000Y-70670000D01*
X76040000Y-70530000D02*
X77780000Y-70530000D01*
X76040000Y-68290000D02*
X76210000Y-68290000D01*
%TO.C,R7*%
X92050000Y-79110000D02*
X91090000Y-79110000D01*
X92050000Y-77790000D02*
X92050000Y-79110000D01*
X91090000Y-77790000D02*
X92050000Y-77790000D01*
X90230000Y-77790000D02*
X89270000Y-77790000D01*
X89270000Y-79110000D02*
X90230000Y-79110000D01*
X89270000Y-77790000D02*
X89270000Y-79110000D01*
D14*
%TO.C,Q10*%
X81562500Y-79540000D02*
X81082500Y-79540000D01*
X81322500Y-79210000D01*
X81562500Y-79540000D01*
G36*
X81562500Y-79540000D02*
G01*
X81082500Y-79540000D01*
X81322500Y-79210000D01*
X81562500Y-79540000D01*
G37*
D11*
X80160000Y-79260000D02*
X80810000Y-79260000D01*
X80160000Y-79260000D02*
X79510000Y-79260000D01*
X80160000Y-76140000D02*
X80810000Y-76140000D01*
X80160000Y-76140000D02*
X79510000Y-76140000D01*
%TO.C,U16*%
X89080000Y-83210000D02*
X89080000Y-81930000D01*
X89080000Y-79690000D02*
X89080000Y-80970000D01*
X87240000Y-83210000D02*
X89080000Y-83210000D01*
X87240000Y-81930000D02*
X87240000Y-83210000D01*
X87240000Y-80970000D02*
X87240000Y-79690000D01*
X87240000Y-79690000D02*
X89080000Y-79690000D01*
%TO.C,R5*%
X86830000Y-83210000D02*
X84990000Y-83210000D01*
X86830000Y-81930000D02*
X86830000Y-83210000D01*
X86830000Y-80970000D02*
X86830000Y-79690000D01*
X86830000Y-79690000D02*
X84990000Y-79690000D01*
X84990000Y-83210000D02*
X84990000Y-81930000D01*
X84990000Y-79690000D02*
X84990000Y-80970000D01*
%TO.C,R75*%
X81570000Y-71840000D02*
X80250000Y-71840000D01*
X81570000Y-70880000D02*
X81570000Y-71840000D01*
X81570000Y-70020000D02*
X81570000Y-69060000D01*
X81570000Y-69060000D02*
X80250000Y-69060000D01*
X80250000Y-71840000D02*
X80250000Y-70880000D01*
X80250000Y-69060000D02*
X80250000Y-70020000D01*
D13*
%TO.C,L8*%
X106840000Y-75250000D02*
X106840000Y-68650000D01*
X106840000Y-68650000D02*
X105640000Y-68650000D01*
X105640000Y-75250000D02*
X106840000Y-75250000D01*
X101180000Y-68650000D02*
X100110000Y-68650000D01*
X100110000Y-75250000D02*
X101180000Y-75250000D01*
X100110000Y-68650000D02*
X100110000Y-75250000D01*
D11*
%TO.C,D100*%
X80030000Y-74610000D02*
X79860000Y-74610000D01*
X80030000Y-72370000D02*
X78290000Y-72370000D01*
X80030000Y-72230000D02*
X78290000Y-72230000D01*
X80030000Y-71790000D02*
X80030000Y-74610000D01*
X80030000Y-71790000D02*
X79920000Y-71790000D01*
X80030000Y-71620000D02*
X80030000Y-71790000D01*
X79920000Y-71620000D02*
X80030000Y-71620000D01*
X79920000Y-71620000D02*
X79920000Y-71790000D01*
X78400000Y-71790000D02*
X78290000Y-71790000D01*
X78400000Y-71620000D02*
X78400000Y-71790000D01*
X78290000Y-74610000D02*
X78460000Y-74610000D01*
X78290000Y-71790000D02*
X78290000Y-74610000D01*
X78290000Y-71790000D02*
X78290000Y-71620000D01*
X78290000Y-71620000D02*
X78400000Y-71620000D01*
%TO.C,U12*%
X88730000Y-71310000D02*
G75*
G02*
X88590000Y-71310000I-70000J0D01*
G01*
X88590000Y-71310000D02*
G75*
G02*
X88730000Y-71310000I70000J0D01*
G01*
X90740000Y-77190000D02*
X90740000Y-76940000D01*
X90740000Y-71530000D02*
X90740000Y-71780000D01*
X90020000Y-77190000D02*
X90740000Y-77190000D01*
X90020000Y-71530000D02*
X90740000Y-71530000D01*
X87800000Y-77190000D02*
X87080000Y-77190000D01*
X87800000Y-71530000D02*
X87080000Y-71530000D01*
X87080000Y-77190000D02*
X87080000Y-76940000D01*
X87080000Y-71530000D02*
X87080000Y-71780000D01*
%TO.C,R62*%
X85300000Y-78360000D02*
X84340000Y-78360000D01*
X85300000Y-77040000D02*
X85300000Y-78360000D01*
X84340000Y-77040000D02*
X85300000Y-77040000D01*
X83480000Y-77040000D02*
X82520000Y-77040000D01*
X82520000Y-78360000D02*
X83480000Y-78360000D01*
X82520000Y-77040000D02*
X82520000Y-78360000D01*
D13*
%TO.C,P11*%
X78910000Y-84250000D02*
X76910000Y-84250000D01*
X78910000Y-80190000D02*
X78910000Y-84250000D01*
X78910000Y-80190000D02*
X76910000Y-80190000D01*
X76910000Y-80190000D02*
X76910000Y-84250000D01*
D11*
%TO.C,D19*%
X85550000Y-67450000D02*
X89560000Y-67450000D01*
X85550000Y-65450000D02*
X89560000Y-65450000D01*
X85550000Y-65450000D02*
X85550000Y-67450000D01*
%TO.C,R_AC1*%
X98240000Y-80760000D02*
X98240000Y-79400000D01*
X98240000Y-76140000D02*
X98240000Y-77500000D01*
X96080000Y-80760000D02*
X98240000Y-80760000D01*
X96080000Y-79400000D02*
X96080000Y-80760000D01*
X96080000Y-77500000D02*
X96080000Y-76140000D01*
X96080000Y-76140000D02*
X98240000Y-76140000D01*
D13*
%TO.C,Q11*%
X98852500Y-74400000D02*
X98852500Y-73400000D01*
X98852500Y-74400000D02*
X97982500Y-74400000D01*
X97662500Y-73000000D02*
X97032500Y-73000000D01*
X96712500Y-74400000D02*
X95852500Y-74400000D01*
X95852500Y-74400000D02*
X95852500Y-73400000D01*
D15*
%TO.C,U9*%
X82978000Y-106391000D02*
G75*
G02*
X82678000Y-106391000I-150000J0D01*
G01*
X82678000Y-106391000D02*
G75*
G02*
X82978000Y-106391000I150000J0D01*
G01*
X83568000Y-104601000D02*
G75*
G02*
X83268000Y-104601000I-150000J0D01*
G01*
X83268000Y-104601000D02*
G75*
G02*
X83568000Y-104601000I150000J0D01*
G01*
D11*
X82838000Y-103211000D02*
X85998000Y-103211000D01*
X82838000Y-105351000D02*
X82838000Y-103211000D01*
X85998000Y-103211000D02*
X85998000Y-105351000D01*
X85998000Y-105351000D02*
X82838000Y-105351000D01*
D13*
%TO.C,Q3*%
X88388000Y-104811000D02*
G75*
G02*
X88208000Y-104811000I-90000J0D01*
G01*
X88208000Y-104811000D02*
G75*
G02*
X88388000Y-104811000I90000J0D01*
G01*
D16*
X88318000Y-103131000D02*
X88318000Y-104431000D01*
X88318000Y-103131000D02*
X88358000Y-103131000D01*
X88318000Y-104431000D02*
X88358000Y-104431000D01*
X90468000Y-103131000D02*
X90518000Y-103131000D01*
X90468000Y-104431000D02*
X90518000Y-104431000D01*
X90518000Y-103131000D02*
X90518000Y-104431000D01*
D13*
%TO.C,R55*%
X92950000Y-100995000D02*
G75*
G02*
X92959990Y-100994908I0J540000D01*
G01*
X92960000Y-100075000D02*
X92960000Y-100455000D01*
X92960000Y-100455000D02*
X92960000Y-100835000D01*
X92960000Y-100835000D02*
X92960000Y-100455000D01*
%TO.C,L1*%
X48006995Y-34720931D02*
X48006995Y-37140931D01*
X48006995Y-34720931D02*
X55506995Y-34720931D01*
X48006995Y-39800931D02*
X48006995Y-42220931D01*
X55506995Y-37140931D02*
X55506995Y-34720931D01*
X55506995Y-42220931D02*
X48006995Y-42220931D01*
X55506995Y-42220931D02*
X55506995Y-39800931D01*
D14*
%TO.C,Q5*%
X72419000Y-47225000D02*
X76539000Y-47225000D01*
X72419000Y-47320000D02*
X72419000Y-47225000D01*
X72419000Y-52345000D02*
X72419000Y-52250000D01*
X76539000Y-47225000D02*
X76539000Y-47320000D01*
X76539000Y-52250000D02*
X76539000Y-52345000D01*
X76539000Y-52345000D02*
X72419000Y-52345000D01*
X77319000Y-52585000D02*
X76839000Y-52585000D01*
X77079000Y-52255000D01*
X77319000Y-52585000D01*
G36*
X77319000Y-52585000D02*
G01*
X76839000Y-52585000D01*
X77079000Y-52255000D01*
X77319000Y-52585000D01*
G37*
D11*
%TO.C,SW1*%
X75449000Y-59995000D02*
X79509000Y-59995000D01*
X75449000Y-60425000D02*
X75449000Y-59995000D01*
X75449000Y-63075000D02*
X75449000Y-62645000D01*
X75449000Y-63075000D02*
X79509000Y-63075000D01*
X79509000Y-59995000D02*
X79509000Y-60425000D01*
X79509000Y-63075000D02*
X79509000Y-62645000D01*
D13*
X78379000Y-61535000D02*
G75*
G02*
X76579000Y-61535000I-900000J0D01*
G01*
X76579000Y-61535000D02*
G75*
G02*
X78379000Y-61535000I900000J0D01*
G01*
%TO.C,P10*%
X97109000Y-48791000D02*
X99109000Y-48791000D01*
X97109000Y-52851000D02*
X97109000Y-48791000D01*
X97109000Y-52851000D02*
X99109000Y-52851000D01*
X99109000Y-52851000D02*
X99109000Y-48791000D01*
%TO.C,H9*%
X88729000Y-47685000D02*
X88729000Y-62925000D01*
X91229000Y-47685000D02*
X88729000Y-47685000D01*
X91229000Y-50225000D02*
X88729000Y-50225000D01*
X91229000Y-62925000D02*
X88729000Y-62925000D01*
X91229000Y-62925000D02*
X91229000Y-47685000D01*
%TO.C,H4*%
X79918000Y-103030000D02*
X79918000Y-87790000D01*
X79918000Y-103030000D02*
X77418000Y-103030000D01*
X79918000Y-90330000D02*
X77418000Y-90330000D01*
X79918000Y-87790000D02*
X77418000Y-87790000D01*
X77418000Y-87790000D02*
X77418000Y-103030000D01*
D11*
%TO.C,C2*%
X39738761Y-31410931D02*
X39738761Y-30000931D01*
X39738761Y-32210931D02*
X39738761Y-33620931D01*
X39888761Y-29850931D02*
X41388761Y-29850931D01*
X39888761Y-33770931D02*
X41388761Y-33770931D01*
X41538761Y-30000931D02*
X41538761Y-31410931D01*
X41538761Y-33620931D02*
X41538761Y-32210931D01*
X39738761Y-30000931D02*
G75*
G02*
X39888761Y-29850931I150000J0D01*
G01*
X39888761Y-33770931D02*
G75*
G02*
X39738761Y-33620931I0J150000D01*
G01*
X41388761Y-29850931D02*
G75*
G02*
X41538761Y-30000931I0J-150000D01*
G01*
X41538761Y-33620931D02*
G75*
G02*
X41388761Y-33770931I-150000J0D01*
G01*
D14*
%TO.C,Q4*%
X65419000Y-49775000D02*
X66419000Y-49775000D01*
X65419000Y-51295000D02*
X65419000Y-49775000D01*
X65469000Y-51295000D02*
X65419000Y-51295000D01*
X67369000Y-51295000D02*
X66589000Y-51295000D01*
X67539000Y-49775000D02*
X68539000Y-49775000D01*
X68539000Y-49775000D02*
X68539000Y-51295000D01*
X68539000Y-51295000D02*
X68489000Y-51295000D01*
X66929000Y-52075000D02*
X66599000Y-51835000D01*
X66929000Y-51595000D01*
X66929000Y-52075000D01*
G36*
X66929000Y-52075000D02*
G01*
X66599000Y-51835000D01*
X66929000Y-51595000D01*
X66929000Y-52075000D01*
G37*
D13*
%TO.C,P5*%
X32056261Y-24733431D02*
X32056261Y-22733431D01*
X36116261Y-22733431D02*
X32056261Y-22733431D01*
X36116261Y-24733431D02*
X32056261Y-24733431D01*
X36116261Y-24733431D02*
X36116261Y-22733431D01*
D11*
%TO.C,U13*%
X57308521Y-93290000D02*
X55528521Y-93290000D01*
X57308521Y-96370000D02*
X55528521Y-96370000D01*
D15*
X57868521Y-96500000D02*
G75*
G02*
X57568521Y-96500000I-150000J0D01*
G01*
X57568521Y-96500000D02*
G75*
G02*
X57868521Y-96500000I150000J0D01*
G01*
D14*
%TO.C,D1*%
X68839000Y-45785000D02*
X64829000Y-45785000D01*
X68839000Y-47785000D02*
X64829000Y-47785000D01*
X68839000Y-47785000D02*
X68839000Y-45785000D01*
D11*
%TO.C,U19*%
X40128521Y-96110000D02*
X38348521Y-96110000D01*
X40128521Y-99190000D02*
X38348521Y-99190000D01*
D15*
X40688521Y-99320000D02*
G75*
G02*
X40388521Y-99320000I-150000J0D01*
G01*
X40388521Y-99320000D02*
G75*
G02*
X40688521Y-99320000I150000J0D01*
G01*
D11*
%TO.C,U6*%
X64323761Y-31290931D02*
X64323761Y-29510931D01*
X67403761Y-31290931D02*
X67403761Y-29510931D01*
X64393761Y-31650931D02*
G75*
G02*
X64333761Y-31650931I-30000J0D01*
G01*
X64333761Y-31650931D02*
G75*
G02*
X64393761Y-31650931I30000J0D01*
G01*
%TO.C,R41*%
X35328521Y-97510000D02*
X35328521Y-98470000D01*
X35328521Y-100290000D02*
X35328521Y-99330000D01*
X36648521Y-97510000D02*
X35328521Y-97510000D01*
X36648521Y-98470000D02*
X36648521Y-97510000D01*
X36648521Y-99330000D02*
X36648521Y-100290000D01*
X36648521Y-100290000D02*
X35328521Y-100290000D01*
%TO.C,Q1*%
X83398000Y-92940000D02*
X83398000Y-91900000D01*
X83398000Y-89880000D02*
X83398000Y-90920000D01*
X81938000Y-92940000D02*
X83398000Y-92940000D01*
X81938000Y-91870000D02*
X81938000Y-90950000D01*
X81938000Y-89880000D02*
X83398000Y-89880000D01*
D13*
%TO.C,Q8*%
X74843761Y-24600931D02*
X74843761Y-25970931D01*
X74843761Y-24600931D02*
X75013761Y-24600931D01*
X74843761Y-28600931D02*
X74843761Y-27240931D01*
X74843761Y-28600931D02*
X75013761Y-28600931D01*
X75863761Y-24600931D02*
X76283761Y-24600931D01*
X75863761Y-28600931D02*
X76283761Y-28600931D01*
X77133761Y-24600931D02*
X77553761Y-24600931D01*
X77133761Y-28600931D02*
X77553761Y-28600931D01*
X78403761Y-24600931D02*
X78823761Y-24600931D01*
X78403761Y-28600931D02*
X78823761Y-28600931D01*
X79673761Y-24600931D02*
X79843761Y-24600931D01*
X79673761Y-28600931D02*
X79843761Y-28600931D01*
X79843761Y-24600931D02*
X79843761Y-28600931D01*
D17*
X74553762Y-28920931D02*
X74553762Y-28920931D01*
X74553762Y-28920931D01*
X74553762Y-28920931D01*
X74553762Y-28920931D01*
X74553762Y-28920931D01*
X74553762Y-28920932D01*
X74553762Y-28920932D01*
X74553762Y-28920932D01*
X74553762Y-28920932D01*
X74553762Y-28920932D01*
X74553762Y-28920932D01*
X74553762Y-28920932D01*
X74553761Y-28920932D01*
X74553761Y-28920932D01*
X74553761Y-28920932D01*
X74553761Y-28920932D01*
X74553761Y-28920932D01*
X74553761Y-28920932D01*
X74553761Y-28920932D01*
X74553761Y-28920932D01*
X74553761Y-28920932D01*
X74553761Y-28920932D01*
X74553761Y-28920932D01*
X74553761Y-28920932D01*
X74553760Y-28920932D01*
X74553760Y-28920932D01*
X74553760Y-28920932D01*
X74553760Y-28920932D01*
X74553760Y-28920932D01*
X74553760Y-28920932D01*
X74553760Y-28920931D01*
X74553760Y-28920931D01*
X74553760Y-28920931D01*
X74553760Y-28920931D01*
X74553760Y-28920931D01*
X74553760Y-28920931D01*
X74553760Y-28920931D02*
X74553760Y-28920931D01*
X74553760Y-28920931D01*
X74553760Y-28920931D01*
X74553760Y-28920931D01*
X74553760Y-28920931D01*
X74553760Y-28920931D01*
X74553760Y-28920930D01*
X74553760Y-28920930D01*
X74553760Y-28920930D01*
X74553760Y-28920930D01*
X74553760Y-28920930D01*
X74553761Y-28920930D01*
X74553761Y-28920930D01*
X74553761Y-28920930D01*
X74553761Y-28920930D01*
X74553761Y-28920930D01*
X74553761Y-28920930D01*
X74553761Y-28920930D01*
X74553761Y-28920930D01*
X74553761Y-28920930D01*
X74553761Y-28920930D01*
X74553761Y-28920930D01*
X74553761Y-28920930D01*
X74553762Y-28920930D01*
X74553762Y-28920930D01*
X74553762Y-28920930D01*
X74553762Y-28920930D01*
X74553762Y-28920930D01*
X74553762Y-28920930D01*
X74553762Y-28920931D01*
X74553762Y-28920931D01*
X74553762Y-28920931D01*
X74553762Y-28920931D01*
X74553762Y-28920931D01*
X74553762Y-28920931D01*
X74553762Y-28920931D01*
D13*
X74843761Y-25970931D02*
G75*
G02*
X74842179Y-27231130I-80000J-630000D01*
G01*
D11*
%TO.C,U21*%
X101529000Y-54491000D02*
X101529000Y-55241000D01*
X101529000Y-58651000D02*
X101529000Y-57901000D01*
X102279000Y-54491000D02*
X101529000Y-54491000D01*
X102279000Y-58651000D02*
X101529000Y-58651000D01*
X104939000Y-54491000D02*
X105689000Y-54491000D01*
X104939000Y-58651000D02*
X105689000Y-58651000D01*
X105689000Y-54491000D02*
X105689000Y-55241000D01*
X105689000Y-58651000D02*
X105689000Y-57901000D01*
X106219000Y-57571000D02*
G75*
G02*
X106079000Y-57571000I-70000J0D01*
G01*
X106079000Y-57571000D02*
G75*
G02*
X106219000Y-57571000I70000J0D01*
G01*
D13*
%TO.C,C48*%
X91268761Y-29290931D02*
X91268761Y-28490931D01*
X92378761Y-28180931D02*
X91578761Y-28180931D01*
X92378761Y-29600931D02*
X91578761Y-29600931D01*
X92938761Y-28180931D02*
X93738761Y-28180931D01*
X92938761Y-29600931D02*
X93738761Y-29600931D01*
X94048761Y-28490931D02*
X94048761Y-29290931D01*
X91268761Y-28490931D02*
G75*
G02*
X91578761Y-28180931I310000J0D01*
G01*
X91578761Y-29600931D02*
G75*
G02*
X91268761Y-29290931I0J310000D01*
G01*
X93738761Y-28180931D02*
G75*
G02*
X94048761Y-28490931I0J-310000D01*
G01*
X94048761Y-29290931D02*
G75*
G02*
X93738761Y-29600931I-310000J0D01*
G01*
D11*
%TO.C,C1*%
X39738761Y-27080931D02*
X39738761Y-25670931D01*
X39738761Y-27880931D02*
X39738761Y-29290931D01*
X39888761Y-25520931D02*
X41388761Y-25520931D01*
X39888761Y-29440931D02*
X41388761Y-29440931D01*
X41538761Y-25670931D02*
X41538761Y-27080931D01*
X41538761Y-29290931D02*
X41538761Y-27880931D01*
X39738761Y-25670931D02*
G75*
G02*
X39888761Y-25520931I150000J0D01*
G01*
X39888761Y-29440931D02*
G75*
G02*
X39738761Y-29290931I0J150000D01*
G01*
X41388761Y-25520931D02*
G75*
G02*
X41538761Y-25670931I0J-150000D01*
G01*
X41538761Y-29290931D02*
G75*
G02*
X41388761Y-29440931I-150000J0D01*
G01*
D13*
%TO.C,P3*%
X80343761Y-26320931D02*
X80343761Y-30380931D01*
X82343761Y-26320931D02*
X80343761Y-26320931D01*
X82343761Y-26320931D02*
X82343761Y-30380931D01*
X82343761Y-30380931D02*
X80343761Y-30380931D01*
%TO.C,P8*%
X29958521Y-94150000D02*
X29958521Y-92150000D01*
X34018521Y-92150000D02*
X29958521Y-92150000D01*
X34018521Y-94150000D02*
X29958521Y-94150000D01*
X34018521Y-94150000D02*
X34018521Y-92150000D01*
D11*
%TO.C,D7*%
X100109000Y-53531000D02*
X102799000Y-53531000D01*
X102799000Y-51611000D02*
X100109000Y-51611000D01*
X102799000Y-53531000D02*
X102799000Y-51611000D01*
%TO.C,D6*%
X60393761Y-26130931D02*
X60393761Y-31640931D01*
X63693761Y-26130931D02*
X60393761Y-26130931D01*
X63693761Y-26130931D02*
X63693761Y-31640931D01*
%TO.C,U2*%
X50469495Y-30810931D02*
X50469495Y-29030931D01*
X53549495Y-30810931D02*
X53549495Y-29030931D01*
D15*
X50489495Y-31220931D02*
G75*
G02*
X50189495Y-31220931I-150000J0D01*
G01*
X50189495Y-31220931D02*
G75*
G02*
X50489495Y-31220931I150000J0D01*
G01*
D13*
%TO.C,U7*%
X29902000Y-55800000D02*
X31802000Y-55800000D01*
X29902000Y-60880000D02*
X29902000Y-55800000D01*
X31802000Y-55800000D02*
X55302000Y-55800000D01*
X31802000Y-60880000D02*
X29902000Y-60880000D01*
X32442000Y-58300000D02*
X29902000Y-58300000D01*
X32442000Y-60840000D02*
X32442000Y-58300000D01*
X55302000Y-55800000D02*
X55302000Y-60880000D01*
X55302000Y-60880000D02*
X31802000Y-60880000D01*
D11*
%TO.C,R48*%
X94518761Y-31730931D02*
X95478761Y-31730931D01*
X94518761Y-33050931D02*
X94518761Y-31730931D01*
X95478761Y-33050931D02*
X94518761Y-33050931D01*
X96338761Y-33050931D02*
X97298761Y-33050931D01*
X97298761Y-31730931D02*
X96338761Y-31730931D01*
X97298761Y-33050931D02*
X97298761Y-31730931D01*
%TO.C,R40*%
X35068521Y-93640000D02*
X35068521Y-94920000D01*
X35068521Y-97160000D02*
X35068521Y-95880000D01*
X36908521Y-93640000D02*
X35068521Y-93640000D01*
X36908521Y-94920000D02*
X36908521Y-93640000D01*
X36908521Y-95880000D02*
X36908521Y-97160000D01*
X36908521Y-97160000D02*
X35068521Y-97160000D01*
D13*
%TO.C,L5*%
X89348761Y-33580931D02*
X96968761Y-33580931D01*
X89348761Y-35150931D02*
X89348761Y-33580931D01*
X89348761Y-40690931D02*
X89348761Y-39120931D01*
X96968761Y-33580931D02*
X96968761Y-35150931D01*
X96968761Y-39120931D02*
X96968761Y-40690931D01*
X96968761Y-40690931D02*
X89348761Y-40690931D01*
%TO.C,P1*%
X66781479Y-101967500D02*
X71861479Y-101967500D01*
X66781479Y-107047500D02*
X66781479Y-101967500D01*
X69321479Y-104507500D02*
X69321479Y-101967500D01*
X71861479Y-101967500D02*
X71861479Y-107047500D01*
X71861479Y-104507500D02*
X69321479Y-104507500D01*
X71861479Y-107047500D02*
X66781479Y-107047500D01*
D14*
%TO.C,U15*%
X72419000Y-52900000D02*
X77039000Y-52900000D01*
X77039000Y-59670000D02*
X72419000Y-59670000D01*
X70869000Y-53355000D02*
X70539000Y-53595000D01*
X70539000Y-53115000D01*
X70869000Y-53355000D01*
G36*
X70869000Y-53355000D02*
G01*
X70539000Y-53595000D01*
X70539000Y-53115000D01*
X70869000Y-53355000D01*
G37*
D13*
%TO.C,J2*%
X97560000Y-107020000D02*
X97560000Y-106980000D01*
X97560000Y-107020000D02*
X97560000Y-108460000D01*
X97560000Y-110800000D02*
X97560000Y-112220000D01*
X97560000Y-110820000D02*
X97560000Y-110800000D01*
X97560000Y-112220000D02*
X106560000Y-112220000D01*
X98520000Y-105420000D02*
X98730000Y-105420000D01*
X99240000Y-111050000D02*
X99740000Y-108550000D01*
X99540000Y-109750000D02*
X99940000Y-109750000D01*
X99720000Y-111050000D02*
X99240000Y-111050000D01*
X99740000Y-108550000D02*
X101040000Y-108550000D01*
X100120000Y-108950000D02*
X99720000Y-111050000D01*
X100650000Y-108950000D02*
X100120000Y-108950000D01*
X100840000Y-109750000D02*
X101240000Y-109750000D01*
X101040000Y-108550000D02*
X101540000Y-111050000D01*
X101050000Y-107220000D02*
X103070000Y-107220000D01*
X101050000Y-111050000D02*
X100650000Y-108950000D01*
X101060000Y-106820000D02*
X101660000Y-106820000D01*
X101060000Y-107220000D02*
X101060000Y-106820000D01*
X101540000Y-111050000D02*
X101050000Y-111050000D01*
X101660000Y-106820000D02*
X101660000Y-106620000D01*
X102460000Y-106820000D02*
X102460000Y-106620000D01*
X102520000Y-111050000D02*
X103020000Y-108550000D01*
X102820000Y-109750000D02*
X103220000Y-109750000D01*
X102990000Y-111050000D02*
X102520000Y-111050000D01*
X103020000Y-108550000D02*
X104320000Y-108550000D01*
X103060000Y-106820000D02*
X102460000Y-106820000D01*
X103060000Y-107220000D02*
X103060000Y-106820000D01*
X103400000Y-108950000D02*
X102990000Y-111050000D01*
X103920000Y-108950000D02*
X103400000Y-108950000D01*
X104120000Y-109750000D02*
X104520000Y-109750000D01*
X104320000Y-108550000D02*
X104820000Y-111050000D01*
X104320000Y-111050000D02*
X103920000Y-108950000D01*
X104820000Y-111050000D02*
X104320000Y-111050000D01*
X105390000Y-105420000D02*
X105600000Y-105420000D01*
X106560000Y-108420000D02*
X106560000Y-106970000D01*
X106560000Y-112220000D02*
X106560000Y-110820000D01*
D11*
%TO.C,D5*%
X46536995Y-26070931D02*
X46536995Y-31580931D01*
X49836995Y-26070931D02*
X46536995Y-26070931D01*
X49836995Y-26070931D02*
X49836995Y-31580931D01*
D14*
%TO.C,J11*%
X60241000Y-59008000D02*
X60241000Y-51278000D01*
X63001000Y-51278000D02*
X60241000Y-51278000D01*
X63001000Y-59008000D02*
X60241000Y-59008000D01*
X63001000Y-59008000D02*
X63001000Y-51278000D01*
X63001000Y-60278000D02*
X63001000Y-61658000D01*
X63001000Y-61658000D02*
X61621000Y-61658000D01*
D11*
%TO.C,U3*%
X35898761Y-31260931D02*
X35898761Y-29480931D01*
X38978761Y-31260931D02*
X38978761Y-29480931D01*
D15*
X35918761Y-31670931D02*
G75*
G02*
X35618761Y-31670931I-150000J0D01*
G01*
X35618761Y-31670931D02*
G75*
G02*
X35918761Y-31670931I150000J0D01*
G01*
D13*
%TO.C,P6*%
X46586995Y-24750931D02*
X46586995Y-22750931D01*
X50646995Y-22750931D02*
X46586995Y-22750931D01*
X50646995Y-24750931D02*
X46586995Y-24750931D01*
X50646995Y-24750931D02*
X50646995Y-22750931D01*
%TO.C,Q2*%
X90668000Y-93410000D02*
X86668000Y-93410000D01*
X90668000Y-93240000D02*
X90668000Y-93410000D01*
X90668000Y-91970000D02*
X90668000Y-92390000D01*
X90668000Y-90700000D02*
X90668000Y-91120000D01*
X90668000Y-89430000D02*
X90668000Y-89850000D01*
X90668000Y-88410000D02*
X90668000Y-88580000D01*
X90668000Y-88410000D02*
X89298000Y-88410000D01*
X86668000Y-93240000D02*
X86668000Y-93410000D01*
X86668000Y-91970000D02*
X86668000Y-92390000D01*
X86668000Y-90700000D02*
X86668000Y-91120000D01*
X86668000Y-89430000D02*
X86668000Y-89850000D01*
X86668000Y-88410000D02*
X88028000Y-88410000D01*
X86668000Y-88410000D02*
X86668000Y-88580000D01*
X89298000Y-88410000D02*
G75*
G02*
X88037801Y-88408418I-630000J80000D01*
G01*
D17*
X86348001Y-88120000D02*
X86348001Y-88120000D01*
X86348001Y-88120000D01*
X86348001Y-88120000D01*
X86348001Y-88120000D01*
X86348001Y-88120000D01*
X86348001Y-88120001D01*
X86348001Y-88120001D01*
X86348001Y-88120001D01*
X86348001Y-88120001D01*
X86348001Y-88120001D01*
X86348001Y-88120001D01*
X86348001Y-88120001D01*
X86348000Y-88120001D01*
X86348000Y-88120001D01*
X86348000Y-88120001D01*
X86348000Y-88120001D01*
X86348000Y-88120001D01*
X86348000Y-88120001D01*
X86348000Y-88120001D01*
X86348000Y-88120001D01*
X86348000Y-88120001D01*
X86348000Y-88120001D01*
X86348000Y-88120001D01*
X86348000Y-88120001D01*
X86347999Y-88120001D01*
X86347999Y-88120001D01*
X86347999Y-88120001D01*
X86347999Y-88120001D01*
X86347999Y-88120001D01*
X86347999Y-88120001D01*
X86347999Y-88120000D01*
X86347999Y-88120000D01*
X86347999Y-88120000D01*
X86347999Y-88120000D01*
X86347999Y-88120000D01*
X86347999Y-88120000D01*
X86347999Y-88120000D02*
X86347999Y-88120000D01*
X86347999Y-88120000D01*
X86347999Y-88120000D01*
X86347999Y-88120000D01*
X86347999Y-88120000D01*
X86347999Y-88120000D01*
X86347999Y-88119999D01*
X86347999Y-88119999D01*
X86347999Y-88119999D01*
X86347999Y-88119999D01*
X86347999Y-88119999D01*
X86348000Y-88119999D01*
X86348000Y-88119999D01*
X86348000Y-88119999D01*
X86348000Y-88119999D01*
X86348000Y-88119999D01*
X86348000Y-88119999D01*
X86348000Y-88119999D01*
X86348000Y-88119999D01*
X86348000Y-88119999D01*
X86348000Y-88119999D01*
X86348000Y-88119999D01*
X86348000Y-88119999D01*
X86348001Y-88119999D01*
X86348001Y-88119999D01*
X86348001Y-88119999D01*
X86348001Y-88119999D01*
X86348001Y-88119999D01*
X86348001Y-88119999D01*
X86348001Y-88120000D01*
X86348001Y-88120000D01*
X86348001Y-88120000D01*
X86348001Y-88120000D01*
X86348001Y-88120000D01*
X86348001Y-88120000D01*
X86348001Y-88120000D01*
D11*
%TO.C,U17*%
X102240000Y-94770000D02*
X102480000Y-94770000D01*
X102240000Y-97920000D02*
X102240000Y-94770000D01*
X102480000Y-97920000D02*
X102240000Y-97920000D01*
X105140000Y-97920000D02*
X105390000Y-97920000D01*
X105390000Y-94770000D02*
X105140000Y-94770000D01*
X105390000Y-97920000D02*
X105390000Y-94770000D01*
X102880000Y-98390000D02*
G75*
G02*
X102740000Y-98390000I-70000J0D01*
G01*
X102740000Y-98390000D02*
G75*
G02*
X102880000Y-98390000I70000J0D01*
G01*
%TO.C,U5*%
X40860000Y-47700000D02*
X41260000Y-47700000D01*
X40860000Y-48100000D02*
X40860000Y-47700000D01*
X40860000Y-51500000D02*
X40860000Y-51900000D01*
X40860000Y-51900000D02*
X41260000Y-51900000D01*
X44660000Y-47700000D02*
X45060000Y-47700000D01*
X45060000Y-47700000D02*
X45060000Y-48100000D01*
X45060000Y-51400000D02*
X45060000Y-51900000D01*
X45060000Y-51900000D02*
X44660000Y-51900000D01*
D13*
X40550000Y-47890000D02*
G75*
G02*
X40290000Y-47890000I-130000J0D01*
G01*
X40290000Y-47890000D02*
G75*
G02*
X40550000Y-47890000I130000J0D01*
G01*
D11*
%TO.C,R51*%
X92738761Y-24130931D02*
X92738761Y-25410931D01*
X92738761Y-27650931D02*
X92738761Y-26370931D01*
X94578761Y-24130931D02*
X92738761Y-24130931D01*
X94578761Y-25410931D02*
X94578761Y-24130931D01*
X94578761Y-26370931D02*
X94578761Y-27650931D01*
X94578761Y-27650931D02*
X92738761Y-27650931D01*
%TO.C,U14*%
X65489000Y-56025000D02*
X67329000Y-56025000D01*
X65489000Y-57305000D02*
X65489000Y-56025000D01*
X65489000Y-58265000D02*
X65489000Y-59545000D01*
X65489000Y-59545000D02*
X67329000Y-59545000D01*
X67329000Y-56025000D02*
X67329000Y-57305000D01*
X67329000Y-59545000D02*
X67329000Y-58265000D01*
%TO.C,R42*%
X52498521Y-91320000D02*
X52498521Y-92600000D01*
X52498521Y-94840000D02*
X52498521Y-93560000D01*
X54338521Y-91320000D02*
X52498521Y-91320000D01*
X54338521Y-92600000D02*
X54338521Y-91320000D01*
X54338521Y-93560000D02*
X54338521Y-94840000D01*
X54338521Y-94840000D02*
X52498521Y-94840000D01*
D18*
%TO.C,Rsense1*%
X83129000Y-51255000D02*
X83129000Y-50035000D01*
X83129000Y-51755000D02*
X83129000Y-52975000D01*
X86689000Y-50035000D02*
X83129000Y-50035000D01*
X86689000Y-51255000D02*
X86689000Y-50035000D01*
X86689000Y-51755000D02*
X86689000Y-52955000D01*
X86689000Y-52975000D02*
X83129000Y-52975000D01*
D13*
%TO.C,R54*%
X74443761Y-37200931D02*
X76233761Y-35400931D01*
X74443761Y-40000931D02*
X74443761Y-37200931D01*
X74443761Y-40000931D02*
X76233761Y-41800931D01*
X76233761Y-35400931D02*
X76243761Y-35400931D01*
X76233761Y-35400931D02*
X79833761Y-35400931D01*
X76233761Y-41800931D02*
X76253761Y-41800931D01*
X76233761Y-41800931D02*
X79833761Y-41800931D01*
D19*
X76753761Y-38600931D02*
X79673761Y-38600931D01*
X78093761Y-40600931D02*
X78093761Y-36600931D01*
D13*
X81423761Y-35400931D02*
X81743761Y-35400931D01*
X81423761Y-41800931D02*
X81743761Y-41800931D01*
X81743761Y-41800931D02*
X81743761Y-35400931D01*
X75553761Y-37590931D02*
G75*
G02*
X75543130Y-39644579I2540000J-1040000D01*
G01*
X77213761Y-39850931D02*
G75*
G02*
X76713761Y-39850931I-250000J0D01*
G01*
X76713761Y-39850931D02*
G75*
G02*
X77213761Y-39850931I250000J0D01*
G01*
X77273761Y-37310931D02*
G75*
G02*
X76773761Y-37310931I-250000J0D01*
G01*
X76773761Y-37310931D02*
G75*
G02*
X77273761Y-37310931I250000J0D01*
G01*
X80763761Y-34660931D02*
G75*
G02*
X80503761Y-34660931I-130000J0D01*
G01*
X80503761Y-34660931D02*
G75*
G02*
X80763761Y-34660931I130000J0D01*
G01*
D11*
%TO.C,R43*%
X52008521Y-95690000D02*
X52008521Y-96650000D01*
X52008521Y-98470000D02*
X52008521Y-97510000D01*
X53328521Y-95690000D02*
X52008521Y-95690000D01*
X53328521Y-96650000D02*
X53328521Y-95690000D01*
X53328521Y-97510000D02*
X53328521Y-98470000D01*
X53328521Y-98470000D02*
X52008521Y-98470000D01*
D13*
%TO.C,Q6*%
X98810000Y-95400000D02*
X98810000Y-96400000D01*
X98810000Y-95400000D02*
X99680000Y-95400000D01*
X100000000Y-96800000D02*
X100630000Y-96800000D01*
X100950000Y-95400000D02*
X101810000Y-95400000D01*
X101810000Y-95400000D02*
X101810000Y-96400000D01*
%TO.C,J1*%
X91518000Y-113870000D02*
X91518000Y-119870000D01*
X88978000Y-113870000D02*
X88978000Y-119870000D01*
X86438000Y-113870000D02*
X86438000Y-119870000D01*
X83898000Y-113870000D02*
X83898000Y-119870000D01*
X81358000Y-113870000D02*
X81358000Y-119870000D01*
X78818000Y-113870000D02*
X78818000Y-119870000D01*
%TO.C,H11*%
X61741479Y-109007500D02*
X74441479Y-109007500D01*
X61741479Y-111547500D02*
X61741479Y-109007500D01*
X71881479Y-111547500D02*
X71881479Y-109007500D01*
X74441479Y-109007500D02*
X74441479Y-111547500D01*
X74441479Y-111547500D02*
X61741479Y-111547500D01*
D11*
%TO.C,R2*%
X37008761Y-25940931D02*
X37718761Y-25940931D01*
X37008761Y-26940931D02*
X37008761Y-25940931D01*
X37718761Y-26940931D02*
X37008761Y-26940931D01*
X38178761Y-26940931D02*
X38888761Y-26940931D01*
X38888761Y-25940931D02*
X38178761Y-25940931D01*
X38888761Y-26940931D02*
X38888761Y-25940931D01*
D13*
%TO.C,L7*%
X30038521Y-110850000D02*
X30038521Y-102450000D01*
X31438521Y-101050000D02*
X39438521Y-101050000D01*
X39038521Y-111250000D02*
X30438521Y-111250000D01*
X39438521Y-101050000D02*
X39538521Y-101050000D01*
X39538521Y-101050000D02*
X40438521Y-101950000D01*
X40438521Y-101950000D02*
X40438521Y-104210000D01*
X40438521Y-108090000D02*
X40438521Y-109350000D01*
X40438521Y-109350000D02*
X40438521Y-109850000D01*
X30038521Y-102450000D02*
G75*
G02*
X31438521Y-101050000I1400000J0D01*
G01*
X30438521Y-111250000D02*
G75*
G02*
X30038521Y-110850000I0J400000D01*
G01*
X40438521Y-109850000D02*
G75*
G02*
X39038521Y-111250000I-1400002J2D01*
G01*
%TO.C,P9*%
X88378761Y-26640931D02*
X88378761Y-24640931D01*
X92438761Y-24640931D02*
X88378761Y-24640931D01*
X92438761Y-26640931D02*
X88378761Y-26640931D01*
X92438761Y-26640931D02*
X92438761Y-24640931D01*
%TO.C,U8*%
X65880000Y-94515000D02*
X65880000Y-98805000D01*
X72080000Y-94515000D02*
X65880000Y-94515000D01*
X72080000Y-95805000D02*
X72080000Y-94515000D01*
X72080000Y-97505000D02*
X72080000Y-98805000D01*
X72080000Y-98805000D02*
X65880000Y-98805000D01*
X72094835Y-95805129D02*
G75*
G02*
X72080000Y-95805000I-14808J-849871D01*
G01*
%TO.C,P7*%
X60433761Y-24830931D02*
X60433761Y-22830931D01*
X64493761Y-22830931D02*
X60433761Y-22830931D01*
X64493761Y-24830931D02*
X60433761Y-24830931D01*
X64493761Y-24830931D02*
X64493761Y-22830931D01*
%TO.C,L2*%
X33088761Y-34620931D02*
X33088761Y-37040931D01*
X33088761Y-34620931D02*
X40588761Y-34620931D01*
X33088761Y-39700931D02*
X33088761Y-42120931D01*
X40588761Y-37040931D02*
X40588761Y-34620931D01*
X40588761Y-42120931D02*
X33088761Y-42120931D01*
X40588761Y-42120931D02*
X40588761Y-39700931D01*
D11*
%TO.C,R1*%
X36668761Y-22560931D02*
X36668761Y-24720931D01*
X36668761Y-24720931D02*
X38028761Y-24720931D01*
X38028761Y-22560931D02*
X36668761Y-22560931D01*
X39928761Y-22560931D02*
X41288761Y-22560931D01*
X41288761Y-22560931D02*
X41288761Y-24720931D01*
X41288761Y-24720931D02*
X39928761Y-24720931D01*
D14*
%TO.C,J10*%
X60241000Y-47663000D02*
X60241000Y-45013000D01*
X63001000Y-45013000D02*
X60241000Y-45013000D01*
X63001000Y-47663000D02*
X60241000Y-47663000D01*
X63001000Y-47663000D02*
X63001000Y-45013000D01*
X63001000Y-48933000D02*
X63001000Y-50313000D01*
X63001000Y-50313000D02*
X61621000Y-50313000D01*
D11*
%TO.C,U20*%
X97298761Y-28100931D02*
X95518761Y-28100931D01*
X97298761Y-31180931D02*
X95518761Y-31180931D01*
D15*
X97858761Y-31310931D02*
G75*
G02*
X97558761Y-31310931I-150000J0D01*
G01*
X97558761Y-31310931D02*
G75*
G02*
X97858761Y-31310931I150000J0D01*
G01*
D13*
%TO.C,P4*%
X45388521Y-92330000D02*
X45388521Y-90330000D01*
X49448521Y-90330000D02*
X45388521Y-90330000D01*
X49448521Y-92330000D02*
X45388521Y-92330000D01*
X49448521Y-92330000D02*
X49448521Y-90330000D01*
D11*
%TO.C,D3*%
X100109000Y-51281000D02*
X102799000Y-51281000D01*
X102799000Y-49361000D02*
X100109000Y-49361000D01*
X102799000Y-51281000D02*
X102799000Y-49361000D01*
%TO.C,U4*%
X74813761Y-33730931D02*
X74813761Y-31970931D01*
X77873761Y-33730931D02*
X77873761Y-31970931D01*
D15*
X74823761Y-34140931D02*
G75*
G02*
X74523761Y-34140931I-150000J0D01*
G01*
X74523761Y-34140931D02*
G75*
G02*
X74823761Y-34140931I150000J0D01*
G01*
D11*
%TO.C,R47*%
X94988761Y-24130931D02*
X94988761Y-25410931D01*
X94988761Y-27650931D02*
X94988761Y-26370931D01*
X96828761Y-24130931D02*
X94988761Y-24130931D01*
X96828761Y-25410931D02*
X96828761Y-24130931D01*
X96828761Y-26370931D02*
X96828761Y-27650931D01*
X96828761Y-27650931D02*
X94988761Y-27650931D01*
%TO.C,D4*%
X31988761Y-26050931D02*
X31988761Y-31560931D01*
X35288761Y-26050931D02*
X31988761Y-26050931D01*
X35288761Y-26050931D02*
X35288761Y-31560931D01*
D13*
%TO.C,L6*%
X45768521Y-98680000D02*
X45768521Y-101900000D01*
X45768521Y-107760000D02*
X45768521Y-110980000D01*
X58068521Y-98680000D02*
X45768521Y-98680000D01*
X58068521Y-101900000D02*
X58068521Y-98680000D01*
X58068521Y-110980000D02*
X45768521Y-110980000D01*
X58068521Y-110980000D02*
X58068521Y-107760000D01*
%TO.C,Q7*%
X97860000Y-98350000D02*
X98860000Y-98350000D01*
X97860000Y-99210000D02*
X97860000Y-98350000D01*
X97860000Y-101350000D02*
X97860000Y-100480000D01*
X97860000Y-101350000D02*
X98860000Y-101350000D01*
X99260000Y-100160000D02*
X99260000Y-99530000D01*
%TO.C,L3*%
X61863761Y-34620931D02*
X61863761Y-37040931D01*
X61863761Y-34620931D02*
X69363761Y-34620931D01*
X61863761Y-39700931D02*
X61863761Y-42120931D01*
X69363761Y-37040931D02*
X69363761Y-34620931D01*
X69363761Y-42120931D02*
X61863761Y-42120931D01*
X69363761Y-42120931D02*
X69363761Y-39700931D01*
D11*
%TO.C,D10*%
X100109000Y-49031000D02*
X102799000Y-49031000D01*
X102799000Y-47111000D02*
X100109000Y-47111000D01*
X102799000Y-49031000D02*
X102799000Y-47111000D01*
%TD*%
M02*
