M48
; DRILL file {KiCad 9.0.7} date 2026-03-16T21:06:40-0700
; FORMAT={-:-/ absolute / metric / decimal}
; #@! TF.CreationDate,2026-03-16T21:06:40-07:00
; #@! TF.GenerationSoftware,Kicad,Pcbnew,9.0.7
; #@! TF.FileFunction,NonPlated,1,2,NPTH
FMAT,2
METRIC
; #@! TA.AperFunction,NonPlated,NPTH,ComponentDrill
T1C0.500
%
G90
G05
T1
G00X34.025Y-64.301
M15
G01X27.525Y-64.301
M16
G05
G00X34.25Y-43.5
M15
G01X27.75Y-43.5
M16
G05
G00X34.259Y-85.748
M15
G01X27.759Y-85.748
M16
G05
G00X47.025Y-64.301
M15
G01X35.525Y-64.301
M16
G05
G00X47.25Y-43.5
M15
G01X35.75Y-43.5
M16
G05
G00X47.259Y-85.748
M15
G01X35.759Y-85.748
M16
G05
G00X42.975Y-98.425
M15
G01X42.975Y-86.925
M16
G05
G00X42.975Y-113.45
M15
G01X42.975Y-99.95
M16
G05
G00X44.125Y-42.8
M15
G01X44.125Y-20.3
M16
G05
G00X44.525Y-84.075
M15
G01X44.525Y-65.575
M16
G05
G00X60.025Y-64.301
M15
G01X48.525Y-64.301
M16
G05
G00X60.25Y-43.5
M15
G01X48.75Y-43.5
M16
G05
G00X60.259Y-85.748
M15
G01X48.759Y-85.748
M16
G05
G00X57.725Y-63.1
M15
G01X57.725Y-44.6
M16
G05
G00X58.525Y-42.75
M15
G01X58.525Y-20.25
M16
G05
G00X60.092Y-98.365
M15
G01X60.092Y-86.865
M16
G05
G00X60.092Y-113.39
M15
G01X60.092Y-99.89
M16
G05
G00X64.475Y-84.075
M15
G01X64.475Y-65.575
M16
G05
G00X73.025Y-64.301
M15
G01X61.525Y-64.301
M16
G05
G00X73.25Y-43.5
M15
G01X61.75Y-43.5
M16
G05
G00X73.259Y-85.748
M15
G01X61.759Y-85.748
M16
G05
G00X71.975Y-84.0
M15
G01X71.975Y-65.5
M16
G05
G00X72.675Y-42.7
M15
G01X72.675Y-20.2
M16
G05
G00X76.222Y-98.304
M15
G01X76.222Y-86.804
M16
G05
G00X76.222Y-113.329
M15
G01X76.222Y-99.829
M16
G05
G00X86.025Y-64.301
M15
G01X74.525Y-64.301
M16
G05
G00X86.25Y-43.5
M15
G01X74.75Y-43.5
M16
G05
G00X86.259Y-85.748
M15
G01X74.759Y-85.748
M16
G05
G00X86.975Y-42.675
M15
G01X86.975Y-20.175
M16
G05
G00X99.025Y-64.301
M15
G01X87.525Y-64.301
M16
G05
G00X99.25Y-43.5
M15
G01X87.75Y-43.5
M16
G05
G00X99.259Y-85.748
M15
G01X87.759Y-85.748
M16
G05
G00X94.0Y-63.15
M15
G01X94.0Y-44.65
M16
G05
G00X94.511Y-98.766
M15
G01X94.511Y-87.266
M16
G05
G00X94.511Y-113.791
M15
G01X94.511Y-100.291
M16
G05
G00X109.025Y-64.301
M15
G01X100.525Y-64.301
M16
G05
G00X109.25Y-43.5
M15
G01X100.75Y-43.5
M16
G05
G00X109.259Y-85.748
M15
G01X100.759Y-85.748
M16
G05
M30
